<svg xmlns="http://www.w3.org/2000/svg" viewBox="0 0 1000 700" fill="none">
  <rect width="1000" height="700" fill="#f5edd8"/>
  <g stroke="#8b6914" stroke-width="2" fill="none" opacity="0.85">
    <rect x="48" y="150" width="110" height="400" rx="6"/>
    <text x="103" y="360" fill="#8b6914" font-family="Georgia, serif" font-size="22" font-weight="700" text-anchor="middle" transform="rotate(-90 103 360)">PALCO</text>
    <rect x="28" y="118" width="72" height="88" rx="4"/>
    <text x="64" y="168" fill="#8b6914" font-family="Arial, sans-serif" font-size="16" font-weight="700" text-anchor="middle">C1</text>
    <rect x="28" y="228" width="72" height="88" rx="4"/>
    <text x="64" y="278" fill="#8b6914" font-family="Arial, sans-serif" font-size="16" font-weight="700" text-anchor="middle">C2</text>
    <rect x="248" y="48" width="88" height="64" rx="4"/>
    <text x="292" y="88" fill="#8b6914" font-family="Arial, sans-serif" font-size="16" font-weight="700" text-anchor="middle">C3</text>
    <rect x="356" y="48" width="88" height="64" rx="4"/>
    <text x="400" y="88" fill="#8b6914" font-family="Arial, sans-serif" font-size="16" font-weight="700" text-anchor="middle">C4</text>
    <rect x="464" y="48" width="88" height="64" rx="4"/>
    <text x="508" y="88" fill="#8b6914" font-family="Arial, sans-serif" font-size="16" font-weight="700" text-anchor="middle">C5</text>
    <rect x="572" y="48" width="88" height="64" rx="4"/>
    <text x="616" y="88" fill="#8b6914" font-family="Arial, sans-serif" font-size="16" font-weight="700" text-anchor="middle">C6</text>
    <rect x="188" y="118" width="560" height="470" rx="8" stroke-dasharray="6 4"/>
    <line x1="188" y1="355" x2="748" y2="355" stroke-dasharray="5 5"/>
    <circle cx="300" cy="218" r="28"/><text x="300" y="224" fill="#8b6914" font-size="18" font-weight="700" text-anchor="middle">1</text>
    <circle cx="300" cy="298" r="28"/><text x="300" y="304" fill="#8b6914" font-size="18" font-weight="700" text-anchor="middle">2</text>
    <circle cx="300" cy="412" r="28"/><text x="300" y="418" fill="#8b6914" font-size="18" font-weight="700" text-anchor="middle">3</text>
    <circle cx="300" cy="492" r="28"/><text x="300" y="498" fill="#8b6914" font-size="18" font-weight="700" text-anchor="middle">4</text>
    <circle cx="420" cy="218" r="28"/><text x="420" y="224" fill="#8b6914" font-size="18" font-weight="700" text-anchor="middle">5</text>
    <circle cx="420" cy="298" r="28"/><text x="420" y="304" fill="#8b6914" font-size="18" font-weight="700" text-anchor="middle">6</text>
    <circle cx="420" cy="412" r="28"/><text x="420" y="418" fill="#8b6914" font-size="18" font-weight="700" text-anchor="middle">7</text>
    <circle cx="420" cy="492" r="28"/><text x="420" y="498" fill="#8b6914" font-size="18" font-weight="700" text-anchor="middle">8</text>
    <circle cx="540" cy="218" r="28"/><text x="540" y="224" fill="#8b6914" font-size="18" font-weight="700" text-anchor="middle">9</text>
    <circle cx="540" cy="298" r="28"/><text x="540" y="304" fill="#8b6914" font-size="18" font-weight="700" text-anchor="middle">10</text>
    <circle cx="540" cy="412" r="28"/><text x="540" y="418" fill="#8b6914" font-size="18" font-weight="700" text-anchor="middle">11</text>
    <circle cx="540" cy="492" r="28"/><text x="540" y="498" fill="#8b6914" font-size="18" font-weight="700" text-anchor="middle">12</text>
    <circle cx="660" cy="258" r="28"/><text x="660" y="264" fill="#8b6914" font-size="18" font-weight="700" text-anchor="middle">13</text>
    <circle cx="660" cy="452" r="28"/><text x="660" y="458" fill="#8b6914" font-size="18" font-weight="700" text-anchor="middle">14</text>
    <text x="860" y="620" fill="#8b6914" font-family="Georgia, serif" font-size="72" font-weight="700" opacity="0.35">DOUHA</text>
  </g>
</svg>
