<?xml version="1.0" encoding="UTF-8"?>
<svg id="Camada_1" data-name="Camada 1" xmlns="http://www.w3.org/2000/svg" viewBox="0 0 1050.22 956.7">
  <path d="M77.45,287.28s.06.04.1.06c0-.04-.01-.09-.02-.13l-.07.08Z" style="fill: #f4f3e9;"/>
  <path d="M976.38,250.26c-.04.1-.05.18-.07.26.07,0,.14-.01.21-.02,0,0-.14-.25-.14-.25Z" style="fill: #f4f3e9;"/>
  <path d="M952.72,311.42c-.93,1.55-2.14,2.95-3.02,4.53-.92,1.64-1.54,3.82.02,5.03,1.69,1.31,3.36-.16,4.57-1.62.43-.52.75-1.14,1.16-1.68,13.12-17.63,18.96-37.01,14.32-58.98-.29-1.38-1.42-3.42.24-4.42,1.96-1.18,3.37.79,4.62,1.94,5.4,4.96,6.75,11.59,7.39,18.49,1.41,15.22-4.55,28.45-11.11,41.54-1.02,2.03-3.53,4.64-.29,6.24,3.24,1.6,3.82-2,4.98-4.02,6.58-11.41,10.86-23.62,12.25-37.64,6.45,5.83,6.94,12.45,6.68,19.33-.95,25.93-10.4,48.6-26.29,68.82-1.77,2.26-4.11,4.25-3.39,8.61,21.49-18.74,32.35-42.06,35.29-69.6,5.28,8.85,4.95,17.55.63,26.07-3.87,7.63-8.21,15.01-12.35,22.5.28,1.63-.06,3.52,1.82,4.51,6.95-7.36,12.44-15.59,15.4-25.37.63-2.09.81-4.84,3.95-4.7,3.41.15,3.48,2.88,3.86,5.41,2.5,16.69-2.59,31.24-13.29,43.72-10.2,11.9-20.33,23.91-33.2,33.25-2.52,1.83-5.26,4.23-6.46,7.56.75.04,1.51.08,2.26.12,23.91-15.45,45.9-32.55,53.89-61.91.53-1.94.13-5.81,4.18-4.83,3.18.77,5.01,2.98,4.89,6.46-.24,6.96-2.17,13.39-6.66,18.79-10.43,12.56-19.34,26.54-33.2,35.93-1.31.89-2,2.13-1.23,3.4.87,1.43,2.42.9,3.64.24,1.4-.75,2.71-1.66,4.03-2.55,11.47-7.73,20.69-17.72,28.84-28.79,1.32-1.79,2.86-4.32,5.4-3.08,2.47,1.21,2.75,4.05,2.12,6.65-.42,1.74-1.05,3.46-1.78,5.1-5.54,12.46-15.91,20.11-27.07,26.9-7.23,4.4-14.6,8.57-21.9,12.84l.93,1.54c18.85-4.23,32.57-17.13,47.22-28.74-3.27,22.18-24.3,24.36-40.13,34.21,13.51-.37,23.25-7.52,35.01-12.49-2.3,7.08-6.6,10.89-11.43,14.22-9.67,6.68-20.91,9.5-31.93,12.82-2.34.7-4.05,0-3.89-2.94.09-1.59.12-3.19.04-4.77-.11-2.41-1.75-4.11-3.82-4.02-2.73.12-1.81,2.84-1.6,4.34.97,6.94.14,13.9-.94,20.59-1.78,10.91-11.63,16.78-17.68,25.03.33.09.76.3,1.19.32.67.03,1.47.14,2.02-.15,10.28-5.52,19.05-12.37,20.82-24.94.29-2.05.51-4.03,1.48-5.88,2.33-4.44,6.66-6.06,10.82-5.15,4.12.9,3.26,5.29,3,8.72-.89,12.06-6.19,22.17-13.64,31.37-4.69,5.8-9.35,11.62-14.03,17.43.52.34,1.05.68,1.57,1.01,15.92-14.26,30.22-29.56,29.76-53.24-.1-5.24,1.3-9.1,6.18-10.89,8.61-3.17,16.31-7.92,23.9-12.91,1.38-.91,2.64-1.81,4.27-.64,2.31-8.38.77-17.73,6.89-25.21,2.02-2.47,2.31-6.54-.17-8.89-3.81-3.62-2.02-6.62-.43-10.2,2.52-5.68,3.64-11.76-1.89-16.14-3.25-2.58-2.59-4.47-1.25-7.34,3.25-6.95,3.75-13.91-.64-20.67-2.16-1.08-4.45-1.98-6.47-3.3-3.25-2.12-4.77-4.72-1.07-7.9-1.88-1.2-1.61-3.16-1.79-4.97-2.74-2.06-3.79-5.24-5.36-8.08-2.92-2.37-3.18-5.52-3.35-9.07-.26-5.28.67-11.63-3.84-15.2-6.73-5.31-8.08-12.04-7.95-19.73-4.24-1.65-4.95-5.86-6.73-9.3-4.07-2.49-6.26-6.24-7.37-10.79-1.25-5.14-3.59-9.65-8.05-12.81-.56-.18-1.54.08-1.29-.92-3.6.33-6.61-.55-8.31-4.14-6.66-3.36-7.33-10.7-10.76-16.21-2.86-.88-4.58-6.62-7.6-3.81-3.28,3.05,1.64,5.76,3.27,8.22,17.08,25.72,15.17,51.27-.18,76.84Z" style="fill: #f4f3e9;"/>
  <path d="M998.22,651.03c-.95,4.33-4.18,6.73-8.28,8.23-23.95,8.74-46.1,3.32-67.7-8.1-6.02-3.18-5.42-10.48-10.22-14.16-.41-.04-.82-.07-1.22-.11-.82.14-1.64.28-2.46.42.79,3.54,5.45,5.49,4.07,9.92,1.97,6.94.13,12.89-5.87,17.13-2.93,2.07-4.84,4.21-4.05,7.83-2.32-2.08-3.32.97-4.79,1.75-2.81,1.5-4.8,4.61-8.55,4.21-5.49,8.33-15.68,7.13-23.36,11.18,3.88.35,7.48-1.97,11.23-.17,9.36-4.27,20.06-6.47,25.7-16.49,2.33.62,3.63-.82,4.93-2.45,1.01-1.25,2.52-2.56,3.97-1.26,1.61,1.45-.11,2.66-1.03,3.92-8.79,12.03-21.22,18.13-35.19,21.74-.17,1.65-2.06,1.26-2.74,2.32,11.54,1.95,20.48-3.59,28.82-10.35,3.21-2.6,4.7-1.97,6.82,1.24,4.49,6.79,3.63,11-2.46,16.65-10.13,9.39-21.82,14.27-35.56,14.51-4.26.07-7.82,3.27-12.29,2.71-2.41-.3-4.97.36-7.05-1.46-2.16,1.15-5.28-.99-6.9,2.01,3.54.33,6.64,2.14,10.37,2.3,14.84.66,28.91-2,42.18-8.64,2.09-1.05,3.66-1.58,5.4.24,1.97,2.05.3,3.64-.63,5.35-2.87,5.34-8.07,7.63-13.19,9.87-9.9,4.32-20.43,5.63-31.17,6.03,7.15,3.3,14.35,3.24,21.72.98,3.82-1.17,7.66-2.62,11.81-1.71,3.35-2.33,6.75-4.58,10.02-7.01,3.93-2.92,8.03-6.53,6.95-11.67-1.12-5.28.08-8.59,4.19-11.62,1.37-1.01,2.56-2.81,2.96-4.46,1.3-5.28,3.76-4.33,7.18-1.99,6.24,4.26,13.32,5.29,20.76,5.06,2.84-.09,4.78-.68,5.82-3.47.41-1.1,1.08-2.32.29-3.2-2.11-2.37-4.35-.12-6.23.48-2.97.94-5.62,1.71-8.34-.31-10.17,1.99-15.28-6.55-22.41-10.85-1.12-.67-.9-1.81-.07-2.88,1.37-1.76,2.56-.9,4.03-.12,5.58,2.96,11.22,5.8,16.85,8.69,3.85-.75,7.68,0,11.52.08,5.79.1,11.92.81,16.21-4.61-.67-2.8-.65-2.72-4.65-1.56-11.81,3.43-23.29,2.65-33.78-3.96-3.03-1.91-7.87-3.51-5.85-9.5,1.35-4.02,2.43-4.82,6.37-2.71,15.63,8.38,32.25,11.58,49.89,8.47,4.2-.92,8.59-1.62,8.31-7.5-20.4,8.24-39.6,5.33-57.85-6.24-6.69-4.24-7.48-6.89-4-13.82,17.86,16.05,39.33,18.44,61.93,16.36,3.13-2.45,7.15-2.28,10.66-3.64,9.6-3.72,11.41-6.33,11.09-16.56-2.49-.6-3.58.25-4.16,2.91Z" style="fill: #f4f3e9;"/>
  <path d="M861.86,746.66c-11.3.43-22.6,1-33.97.1,3.11,2.22,6.47,3.34,10.04,3.86,9.73,1.4,19.46,1.33,29.18-.02,2.48-.35,4.62-.41,5.33,2.54.67,2.76-.99,4.26-3.26,5.21-1.25.52-2.6.84-3.92,1.14-18.1,4.21-36.05,3.17-53.92-1.46-4.91-1.27-9.84-2.47-15.26-3.82,1.33,3.89,3.99,4.86,6.84,5.79,11.73,3.8,23.67,6.04,36.06,5.35,1.46-.08,3.31-.24,3.57,2.12.24,2.17-1.33,2.76-2.82,3.21-17.26,5.22-33.56,2.82-49.58-5.24-5.61-2.82-10.19-7.1-15.93-9.53-4.44-.74-5.31-4.63-6.93-7.85-.47-.55-.93-1.1-1.4-1.65-5.33.98-7.04-4.42-10.84-6.43-1.39,3.1,1.29,5.1,1.46,7.6,6.88,5.58,12.36,12.56,20.21,17.3,16.56,10,34.21,13.97,53.26,12.67,5.17-.35,9.96-3.3,15.35-2.37-.47-4.76,2.55-7.12,6.4-8.19,3.68-1.02,7.59-1.19,11.41-1.67,5.33-.68,10.74-1.66,12.63-7.52,1.81-5.59,5.47-8.56,10.78-10.28,4.77-1.54,6.69-4.52,3.96-9.35-8.19,7.43-18.42,8.1-28.66,8.49Z" style="fill: #f4f3e9;"/>
  <path d="M754.85,799.25c-4.3-2.01-8.91-3.55-12.84-6.11-9.86-6.42-19.38-13.37-23.88-24.94-.5-1.29.55-3.22-2.1-2.9-2.49.31-1.89,2.19-1.81,3.63.27,4.81,3.4,8.22,5.85,12.03,4.9,7.64,12.47,12.63,19.65,18.9-5.59,2.32-8.99-.27-12.27-2.4-9.57-6.2-16.82-14.44-21.19-25.09-.82-1.99-1.01-4.64-3.87-4.96-.98-.11-1.81.91-1.54,1.79.73,2.38-2.52,3.96.02,7.29,6.02,7.87,10.5,16.92,18.76,22.99.91.67,1.7,1.72,1.06,2.93-.64,1.22-1.85.95-2.99.74-7-1.32-19.53-13.24-20.04-20.65-.56-8.12-3.62-6.23-8.17-3.24,2.21,2.99,5.63,5.18,4.36,9.42,3.62,6.64,7.9,13.04,14.66,16.51,7.34,3.77,14.4,12.39,23.93,3.84.4-.36,1.32-.19,2-.17,13.37.34,26.81-.89,40.1,1.63-.02-2.26-.04-4.52-.07-6.78-6.93.24-13.15-2.69-19.62-4.47ZM727.1,807.41c-2.02-.51-4.11-1.17-4.47-3.56-.25-1.62,1.22-1.7,2.31-1.44,2,.49,3.94,1.19,4.53,3.53-.13,1.59-1.14,1.77-2.37,1.46Z" style="fill: #f4f3e9;"/>
  <path d="M630.44,797.06c-10.67-1.51-18.13-9.22-27.31-13.55,2.97,10.51,13.54,12.08,21.23,19.32-12.13-.38-22.04-2.4-31.13-8.2-7.7-4.92-14.9-10.34-21.11-17.08-1.04-1.13-2.53-3.29-4.43-1.27-2.17,2.31.69,3.2,1.81,4.08,9.34,7.4,16.38,17.82,28.4,21.73,1.03.33,2.13.82,1.48,2.59-15.19-.98-27.03-8.41-37.02-19.69,1.17,7.19,5.35,11.97,10.64,15.97,7.05,5.33,15.59,7.45,23.51,10.92,20.84-.95,41.36-4.29,61.71-8.68,1.76-.38,4.3-.67,4.05-3.64-10.71.34-21.25-1-31.84-2.51Z" style="fill: #f4f3e9;"/>
  <path d="M427.27,937.99c-1.28-1.66-3.04-2.58-4.65-1.44-1.87,1.33-.72,3.12.35,4.75,2.01,3.07,5.4,5.31,6.23,9.52-11.37,1.25-18.28-4.98-24.41-12.75-1.47-1.86-2.56-5.58-5.3-4.25-2.8,1.35.11,4.4.1,6.71,0,.31-.54.61-.88.97-2.85-.23-4.23-2.27-5.52-4.47-3.52-6.02-5.27-12.49-5.41-19.48-.04-1.98,1.61-5.05-1.65-5.73-3.68-.76-4.34,2.59-5.15,5.13-2.28,7.16.97,13.21,4.05,19.28,3.19,1.17,3.44,4.72,5.46,6.84,2.49.87,3.33,4.4,6.69,3.96,5.73-.76,10.16,1.9,14.4,5.41,3.77,3.12,8.86,6.05,12.99,2.92,5.89-4.48,10.71-2.66,16.51-.75,3.69,1.21,9.03,2.59,9.32-4.58-5.06-.21-10.1-.4-14.59-3.33-3.51-2.29-6.05-5.47-8.54-8.71Z" style="fill: #f4f3e9;"/>
  <path d="M1034.37,537.74c-13.91,21.05-30.71,39.24-53.73,50.86-6.67,3.37-12.87,7.69-20.25,12.17,2.11.4,2.77.65,3.42.63,2.93-.08,4.74-2.49,7.21-3.55,25.92-11.1,46.59-28.71,63.5-51.06,2.69-3.55,3.04-8.69,7.55-10.95,1.69-7.53,3.46-15.04,5.04-22.59.98-4.7-.19-8.2-5.81-8.53,1.51,11.81-.42,23.17-6.93,33.03Z" style="fill: #f4f3e9;"/>
  <path d="M555.47,800.35c6.01,4.67,3.78,6.86-1.89,9.89-13.3,7.11-22.13,18.62-28.54,32.04-1.58,3.31-2.54,6.78,3.32,6.52,1.07-1.98,2.28-3.89,3.2-5.94,4.74-10.48,13.14-17.71,21.97-24.44,10.15-7.73,21.02-6.31,32.27-2.39,2.87,1,7.63,1.72,8.08-4.05-15.77-.12-28.21-7.93-39.82-17.49-2.02,2.7-.39,4.47,1.39,5.86Z" style="fill: #f4f3e9;"/>
  <path d="M1027.5,601.9c-20.32,14.61-42.3,24.27-67.99,23.1-1.97-.09-3.95.22-5.93.35.06.63.12,1.26.17,1.89,14.17.39,28.39,3.15,42.46-1.82,12.46-4.4,23.38-11.73,34.74-18.24,2.88-2.86,6.04-5.49,8.58-8.62,4.42-5.46,8.68-11.17,5.3-18.91-5.09,7.95-9.38,16.52-17.34,22.25Z" style="fill: #f4f3e9;"/>
  <path d="M1049.23,546.54c-.3-1.46-.94-2.59-2.69-2.28-2.25.39-2,2.18-1.85,3.72,1.12,11.24-4.69,18.63-12.96,25.28-18.1,14.57-39.05,23.35-60.59,31.09.04.72.08,1.45.12,2.17,8.38-.67,16.35-2.82,24.18-5.91,15.31-6.04,28.23-15.92,41.53-25.21,2.04-1.42,3.62-3.5,6.5-2.41-.89-3.31,1.88-5.27,3-7.8,2.66-6,5.22-11.93,2.76-18.65Z" style="fill: #f4f3e9;"/>
  <path d="M1029.6,619.23s.16-.14.16-.14c-.06.02-.11.05-.17.08,0,.02,0,.04.01.06Z" style="fill: #f4f3e9;"/>
  <path d="M1023.94,618.09c-8.79,13.16-21.67,20.15-36.39,24.51-10.26,3.04-20.64,3.48-31.46,1.11.77,3.27,2.59,3.81,4.65,4.39,5.32,1.5,10.69,1.74,16.17,1.6,9.92-.24,18.76-4.82,28.26-6.73,7.88-6.61,16.41-12.52,22.57-20.98.41-1.09.63-2.31,1.86-2.83-.97-4.89-2.95-5.12-5.64-1.08Z" style="fill: #f4f3e9;"/>
  <path d="M799.81,795.56c-7.4,1.54-14.75,1.83-22.21.5-16.94-3.02-27.28-15.71-38.97-26.45-1.38-1-2.76-2-4.14-3-1.76.98-.87,2.11-.25,3.3,4.12,7.97,10.17,14.17,17.65,18.97,2.68,1.72,5.34,3.29,6.57,6.41,5.74,3.88,13.09,3.93,18.78,7.92.83.18,1.67.37,2.5.55,1.26-3,3.91-1.61,5.91-1.65,5.89-.13,11.77-.17,17.59-1.19.38-.48.75-.96,1.13-1.44,0,0-.12.13-.12.13,2.04-5.21-1.56-4.65-4.45-4.04Z" style="fill: #f4f3e9;"/>
  <path d="M830.48,785.36c-3.85,2.2-8.03,3.02-12.39,3.23-16.2.79-31.56-2.18-46.11-9.58-3.65-1.85-7.36-5.28-12.85-2.73,7.2,6.72,14.71,11.47,23.64,13.91,11.06,3.02,22.37,3.72,33.74,4.08,4.25-.51,8.5-1.02,12.75-1.53.4-2.08,2.44-2.51,3.74-3.67,1.39-1.24,3.03-2.45,1.45-4.48-1.61-2.06-2.76.08-3.96.76Z" style="fill: #f4f3e9;"/>
  <path d="M981.91,549.5c1.96-1.1,4.25-1.85,5.82-3.37,17.62-17.05,30.95-36.8,37.55-60.69.11-1.33.21-2.65.32-3.98-.74-4.75,1.37-10.51-5.13-13.81,0,2.56.02,4.71,0,6.85-.06,4.94.88,10.06-.94,14.77-4.91,12.7-11.07,24.74-18.71,36.09-6.15,9.14-14.72,15.93-21.74,24.18.95-.01,1.9-.03,2.85-.04Z" style="fill: #f4f3e9;"/>
  <path d="M943.73,244.44c.08,8.23.02,16.45.02,24.68,3.83-5.75,5.18-11.94,5.44-18.52.37-9.45-2.75-18.33-4.02-27.51-3.37-3.92-6.39-8.22-10.22-11.62-2.73-2.43-6.39-5.59-10.23-.95,12.93,7.61,18.86,19.18,19.01,33.93Z" style="fill: #f4f3e9;"/>
  <path d="M890.8,200.91c10.43,8.42,14.44,19.81,15.33,32.82.55,8.05.37,16.1.33,24.28,2.95-.53,4.22-1.7,4.4-4.15.37-5.2,1.03-10.34.72-15.61-.73-12.68-5.79-24.05-10.13-35.66-2.45-2-4.91-3.99-7.36-5.99-1.55,1.05-3.16,1.39-4.9.6.11,1.37.24,2.59,1.61,3.7Z" style="fill: #f4f3e9;"/>
  <path d="M889,197.13c.07.03.13.05.2.08,0-.11-.02-.22-.03-.33,0,0-.07.1-.12.17l.12-.17c-.07,0-.12,0-.19,0,0,.08.01.16.02.24h0Z" style="fill: #f4f3e9;"/>
  <path d="M504.86,918.19c-1.99,2.78-4.24,5.16-7.83,5.86-4.76.93-8.88-.27-12.55-3.39-1.35-1.14-2.93-3.03-4.65-1.94-1.82,1.15-.5,3.15.08,4.86,2.93,8.62,4.35,9.55,14.5,9.03,2.23-.21,4.57-.03,6.65-.7,5.13-1.64,8.39-5.56,9.25-10.64.69-4.13-3.67-1.9-5.46-3.08Z" style="fill: #f4f3e9;"/>
  <path d="M491.28,937.42c-8.76,4.8-9.25,4.74-15.34-3.26-2.46-3.24-4.98-6.38-8.75-9-2.83,9.21,2.28,15.02,7.89,20.64,5.21,3.16,10.51,3.08,15.94.56,2.07-.96,4.29-1.68,4.46-4.42.18-2.89-2.11-3.65-4.19-4.52Z" style="fill: #f4f3e9;"/>
  <path d="M517.81,858.14c-1.73,4.95-4.84,8.09-9.61,9.66-2.11.7-4.16,1.26-3.33,3.95.82,2.64,2.83,2.98,5.43,2.27,3.22-.89,6.3-2.7,9.85-1.94,6.21-4.46,7.01-10.98,6.84-17.88-5.03-3.33-7.75-.17-9.18,3.93Z" style="fill: #f4f3e9;"/>
  <path d="M536.78,535.68c-11.55,2.13-22.91,5.03-34.39,7.55-4.78,1.05-9.57,2.1-14.2,3.68-15.32,5.23-30.78,9.9-46.17,15.01-6.14,2.04-12.15,4.49-18.19,6.83-4.36,1.69-4.7,1.53-4.72-1.41.36-4.83.57-8.22.87-11.59.17-1.93,1.08-3.84,2.87-4.34,8.66-2.39,15.73-9.22,23.42-13.59,8.96-5.1,17.04-11.57,25.42-17.54,13.87-9.88,28.59-18.49,43.62-26.47,6.45-3.43,12.76-4.64,19.26-7.44,7.93-3.41,15.53-7.29,23.89-9.61-.62,3.6-2.85,4.72-4.19,6.48-5.25,6.85-5.54,12.23-.88,19.33,4.46,6.79,19.38,10.35,26.46,6.3,1.62-.93,3.21-2.05,3.06-4.11-.16-2.13-2.09-2.91-3.79-3.44-5.05-1.58-8.22-4.19-7.69-10.18.86-9.73,9.48-15.75,11.57-24.86.13-.56,1.52-.87,2.36-1.21,5.41-2.22,10.83-4.41,16.27-6.62,3.02,13.87,14.68,20.91,30.09,18.24,8.77-1.52,16.87-5.2,25.29-7.83,11.55-3.61,17.81-11.94,21.58-22.76,2.69-7.73,2.92-15.8,1.3-23.59-2.81-13.55-5.62-27.06-20.77-33.6-20.57-8.87-39.03-5.36-56.24,7.68-8.28,6.28-10.94,17.43-7.54,27.02,1.31,3.7,3.54,5.49,7.46,5.75,11.23.73,20.86-1.49,25.97-13,.72-1.63,1.92-3.09,3.08-4.49,4.5-5.44,10.75-7.24,16.38-4.81,6.2,2.68,9.95,9.21,9.07,16.02-.92,7.13-4.97,12.13-11.24,15.25-4.29,2.13-9,2.88-13.78,3.36-7.88.79-16.59.44-22.58,6.18-6.48,6.21-14.39,7.89-22.25,10.52-3.71,1.24-5.5,1.29-5.78-3.1-.42-6.38-5.08-5.84-9.46-5.49-5.52.45-4.04,4.54-3.7,7.71.53,4.95-.9,7.49-6.16,9.29-28.44,9.73-56.62,20.21-84.28,31.99-18.21,7.75-35.32,17.64-52.21,27.91-2.2,2.98-5.76,3.65-8.79,5.2-6.16,4.78-6.36,4.7-10.53-4.08-1.83-.87-3.49-1.9-3.86-4.14-1.16-.93-2.32-1.86-3.47-2.79-1.59.36-2.44-.21-2.38-1.91-3.55-3.69-8.75-4.5-13.01-4.7-7.2-.34-11.06-3.56-14.1-9.43-2.16-4.17-4.59-9.37-8.78-10.75-6.93-2.28-13-6.03-19.51-8.96q-3.97.94-7.64-1.58c-1.98,5.17-21.55,10.71-30.72,8.69-.11,4.69-4.06,4.14-6.92,5.07-.54,1.18-1.11,3.4-1.63,3.39-7.51-.17-8.79,6.55-12.28,10.79-.79,4.58-2.8,6.36-5.15,4.1-2.25-2.16-2.99-.36-4.4.16,4.25,2.63-3.8,5.06,0,8.03,5.45,4.28,12.32,2.59,14.54-4.18,3.22-9.86,9.92-16.03,19.52-19.4,9.96-3.5,20.33-4.84,30.76-5.17,10.34-.33,18.79,4.18,25.75,11.87,3.88,4.29,2.98,6.48-2.28,7.85-9.29,2.41-15.83,8.5-21.43,15.96-2.22,2.96-4.28,7.17-1.65,9.12,2.97,2.2,5.67-1.6,7.62-4.49,5.45-8.06,12.91-13.25,22.52-15.22,11.6-2.38,21.46,2.51,30.68,8.23,5.7,3.54,5.94,8.9,2.01,12.99-5.32,5.53-10.81,10.91-16.29,16.29-1.56,1.54-2.46,2.62-5.8,1.7-5.3-1.46-11.36-.03-15.54,7.13,4.36-1.04,7.4-1.63,10.35-2.52,4.52-1.36,7.67-1.59,6.57,4.9-.73,4.3,1.52,6.61,6.12,6.96,5.31.41,8.93-2.32,12.5-5.56,4.95-4.5,9.31-9.8,16.13-12.6.44,6.77,2.28,13.44-4.88,17.26-5.98,3.19-12.05,6.33-18.35,8.79-15.87,6.21-30.81,13.96-44.46,24.27-3.22,2.43-6.44,7.22-10.87,5.48-5.24-2.06-9.68.74-14.48.38-1.2-.09-2.35.28-2.09,1.85.18,1.08,1.19,1.22,2.09,1.2,3.18-.08,6.37-.15,9.55-.35,2.04-.13,3.79.43,4.22,2.46.56,2.64-1.58,3.95-3.58,4.02-4.42.16-9.71,2.44-12.42-3.4-.76-1.64-1.09-1.53-2.79-1.16-4.75,1.03-9.64,1.4-14.47,2.04-2.11.28-5.85-.11-5.36,2.34.62,3.06-1.4,7.69,2.66,9.22,5.81,2.2,12,4.89,17.8-.39-2.74-.39-5.39-.99-7.52-2.93-1.58-1.02-3.36-.83-6,.32,5.9-7.77,10.78-8.46,14.52-3.11.76.47,1.52.94,2.27,1.41,7.14-1.6,14.34-3.12,21.15.97,2,1.2,3.04,1.37,5.04-.32,6.33-5.33,13.22-9.91,21-13.07,2.22,9.16,4.41,10.37,13.23,7.07,7.79-2.91,15.49-6.07,23.27-9,2.08-.78,5.04-1.84,6.16.59,2.06,4.51-1.61,8.06-3.15,11.96-1.29,3.25-3.72,2-5.67,1.47-4.19-1.16-9.02-3.11-12.5-.71-5.01,3.46-10.32,3.59-15.5,3.18-7.71-.62-12.38,4.01-17.2,8.36-2.54,2.3-2.5,6.14-.23,8.66,3.23,3.59,3.58-1.12,5.17-2.34,2.14-1.64,3.55-4.73,7.08-3.78-.33-5.01,3.72-8.3,10.75-7.86,4.79.3,9.04-1.16,13.42-2.49,4-4.02,6.15-.37,9.42,2.36-2.98.53-5.23.92-7.49,1.32-3.82,3.95-7.04,8.5-14.02,5.37-3.01-1.35-6,1.25-6.91,4.72-.77,2.94-2.43,1.6-3.99,1.15-3.64.09-4,4.58-8.02,4.98,11.43,5.43,17.91-6.03,27.61-7.07-1.39,5.56-5.01,7.92-8.52,10.36-14.08,9.76-29.23,15.82-46.55,18.39-23.37,3.46-46.76,5.22-70.28,6.48-25.03,1.34-45.29-10.49-65.47-22.75-.48-.29-.6-1.18-.89-1.78-2.4-.26-4.93-.3-5.33-3.56-8.49-1.41-7.81-9.94-12.08-14.68,2.29-1.42,3.87-.13,5.54.23-.06-.86-.13-1.72-.19-2.58-6.54-1.48-8.24-4.89-5.58-11.25-1.23-2.08-.05-4.17-.04-6.25-4.38-2.92-5.72-6.79-3.85-11.78,2.29-6.11,8.02-8.51,12.95-11.5,2.38-1.44,2.62,1.27,2.41,3.18,0,.59-.21,1.6.02,1.71.86.42.81-.47.99-.98,2.91-2.38,1.71-7.55,5.09-9.03,10.09-4.44,14.42-15.27,25.3-19.87,12.92-5.46,22.58-17.03,31.05-28.72,10.54-14.56,7.46-27.34-9.25-36.46.04,2.76.38,6.32-2.84,6.68-6.88.78-12.27,5.3-18.86,6.66-13.75,2.84-27.41,6.19-41.23,8.64-19.07,3.38-37.95,2.37-56.24-4.56-3.17-1.2-5.63-3.18-5.83-7.25-.57-11.59,4.86-21.2,9.64-31.09.97-2,4.89.53,4.21-2.9-.89-4.5,2.27-6.43,4.83-8.94,8.78-8.58,19.4-14.48,29.71-20.86,3.5-2.17,5.6-2.13,7.64,2.28,3.18,6.89,8.36,9.18,13.59,7.04,2.12-.86,4.5-2.24,4.27-4.76-.29-3.28-3.02-2.4-5.3-2.25-3.6.23-7.81-.12-6.32-5.14,1.98-6.67,2.9-13.56,5.86-20.09,6.03-13.28,16.57-23.42,23.71-35.85,5.1-2.38,8.21-7.25,12.46-10.37,8.72-6.4,18.64-10.95,30.2-7.42,1.48.45,2.35.87,2.6,2.49,1.8,11.55,9.93,18.19,18.88,24.18,3.64,1.37,5.41,4.5,7.21,7.6.91.08,1.82.16,2.73.25,1.62-.42,3.23-.85,4.85-1.27,3.82-.51,7.76-2.35,11.23,1.01-3.52,1.64-7.18,2.68-11.11,2.52-1.08.24-2.78.12-3.16.77-4.34,7.51-9.89,13.57-20.15,16.16,8.07,3.24,15,.43,17.15-3.75,4.33-8.44,11.47-8.94,18.71-10.62.2-1.84-2.22-2.97-1.34-4.99,4.94.28,9.66-2.28,14.69-1.02,2.39.6,2.28-1.3,2.62-2.9,1.13-5.34,4.55-5.44,7.85-2.46,2.82,2.55,7.12,4.38,6.76,9.44-.16,2.27,1.79,2.81,3.54,3.51,5.38,2.15,9.68,5.82,13.54,10.04,9.11,1.45,18.22,2.9,29.07,4.63-7.05,3.32-12.85,5.16-16.61,10.12.56,1.59-1.03,5.43,3.38,2.77,5.68-3.42,8.49-2.06,10.46,4.53,1.76,5.87,7.33,8.83,14.15,6.94-4.13-3.01-7.68-6.04-1-9.76,1.86-1.04-.09-2.99-1.09-2.48-6.42,3.26-9.26-3.12-15.46-4.99,7.54-2.23,11.34-8.05,18.05-9.38,7.37-1.46,9.16.08,8.04,7.5-.87,5.76-3.8,13.39-1.26,16.97,3.81,5.39,6.18,11.62,10.53,16.79,7.7,9.14,17.82,13.39,28.42,17.07,4.29,1.49,8.6,4.83,13.71.85,1.61-1.25,4.85-.47,7.35-.51,1.66-.02,3.33.23,3.09,2.53-.25,2.38-2.31,2.28-3.62,1.78-4.47-1.72-7.81.82-11.39,2.56-4.87,2.38-9.92,2.13-14.9.68-.43-.12-9.03.4-1.86-4.44,2.07-1.4-.57-2.79-1.64-3.46-1.82-1.14-3.22-.12-3.16,1.9.24,8.48-4.57,5.35-9,4.29-4.24-1.01-8.25-3.99-12.97-2,.82.4,1.61.85,2.45,1.19,24.08,9.77,47.12,8.65,68.99-6.29,5.67-3.87,10.06-9.08,15.22-13.48,8.48-7.22,14.12-16.26,16.45-27.25-1.54-.56-3.95.7-4.5-1.86-.41-1.93.06-3.67,2.5-3.95,1.47-.17,2.09-.76.91-2.03-4.8-5.19-1.96-9.99,1.02-14.5,1.62-2.44,1.52-2.86-1.34-4.01-5.66-2.26-7.85-7.48-8.73-13.16-.44-2.82,1.17-5.32,3.83-5.36,4.86-.07,9.28-.53,13.13-3.9.98-.86,2.62-.39,3.36,1.15.53-.42,1.09-.81,1.59-1.27,6.45-5.98,7.55-5.96,12.88.69.8,1,1.52,1.86,2.71,1.38,3.41-1.39,4.26-5.05,6.26-7.66,1.22-1.59-.77-2.59-2.11-3.51-7.11-4.91-7.14-4.99-1.32-11.65,2.6-2.98,5.19-5.83,3.9-10.24-1.01-3.44-2.35-4.89-5.38-1.46-4.22,4.77-8.43,9.49-11.85,14.93-3.82,6.06-9.23,10.03-15.79,13.37-10.71,5.45-21.95,3.29-32.87,3.78-19.02.87-36.66,5.46-52.93,15.23-21.18,12.71-43.49,16.77-66.84,7.4-12.26-4.92-21.26-14.77-24.69-27.23-1.52-5.5-2.22-12.42-1.3-19.12,1.73-12.63,6.51-23.07,16.21-31.24,6.43-5.41,12.9-10.77,21.32-12.97,4.17-1.09,6.2-4.5,7.69-8.1,1.28-3.11-.77-5.18-3.16-6.77-1.79-1.19-3.91-1.85-5.71-.34-2.97,2.48.09,3.85,1.36,5.41,2.04,2.5-.27,2.73-1.65,3.83-4.2,3.36-9.9,2.89-14.23,6.15-19.05,14.29-29.77,32.51-27.8,56.97.55,6.79-2.71,11.13-8.48,14.18-10.64,5.63-31.85,2.05-41.54-6.87-17.18-15.81-13.43-35.86-1.03-50.59,7.12-8.46,15.34-16.1,23.91-23.32,12.97-10.93,26.33-21.39,36.9-35.06,14.36-18.57,25.43-39.48,41.7-56.71,7.58-8.02,15.68-15.09,24.95-20.83,8.39-5.19,17.44-9.35,25.58-14.88,4.67-3.17,5.64-2.22,6.85,2.54,3.68,14.46,16.69,20.04,29.77,19.74,3.63-.08,8.34-1.15,11.79-4.36-2.52-2.2-5.09-2.64-6.67-.86-3.78,4.28-6.32,1.18-9.08-.98-1.2-.94-1.74-3.01-3.64-2.69-7.11,1.22-6.43-4.15-7.22-8.33-1.1-5.81,3.04-9.92,5.57-14.07,1.64-2.69,5.25,1.81,8.34,2.13,2.36.25,4.52,2.09,6.9,2.65,1.61.38,3.62.28,4.49-1.97.57-1.49.26-2.37-.94-3.49-8.41-7.84-8.38-7.88,2.8-12.14,1.48-.56,2.99-1.06,4.49-1.58,7.8-2.68,15.17-6.96,23.86-6.27.69-.45,1.38-.79,2.1-.04l-1.17,1.04c-4.56,5.38-11.08,7.6-17.1,10.64-3.23,1.63-7.2,3.22-6.23,7.79,1.01,4.73,5.44,3.53,8.52,3.3,17.23-1.24,34.45-2.69,51.66-4.31,4.81-.45,9-2.48,8.86-8.37-.13-5.45-4.7-9.45-10.43-9.29-3.64.1-7.23.35-10.76-1.02-2.3-.89-3.57-1.82-1.88-4.4,2.69-4.09,1.17-7.59-2.68-10.88h27.18c-3.06,7.55-.61,10.85,6.3,10.13,4.4-.46,7.98-2.67,9.32-6.91,1.57-4.94,5.08-5.85,9.42-5.9,3.19-.04,6.39.06,9.55-.24,4.04-.38,5.2,2.16,4.11,4.96-3.08,7.87,2.59,6.31,6.38,6.03,8.95-.66,14.57-5.93,13.56-12.41,3.73.61,7.52-1.06,11.14.28.21,2.11-1.37,2.62-2.08,3.7-.91,1.4-3.36,2.78-1.25,4.48,1.9,1.53,4.3.91,6.06-1.03q6.3-6.96,16.04-5.07c-2.17.96-5.97-.37-5.78,3.11.14,2.65,3.02,3.85,5.59,4.15,4.05.47,8.14.61,12.21.96,4.27.36,8.62,1.5,9.92,5.92,1.3,4.41,3.56,5.72,7.83,5.59,2.15-.06,4.45.85,6.48,1.77,3.77,1.71,8.19,4.13,11.46,1.5,2.73-2.2.14-6.7-.57-11.24,5.35,2.63,13.23,4.24,13.84,7.3,1.14,5.75,3.97,7.14,10.43,8.22-16.45,1.44-19.41,3.31-17.59,9.92-2.04,0-4.09.13-6.12-.02-9.87-.71-18.48-.15-25.02,9.7-5.91,8.89-12.56,17.19-16.51,27.24-.66,1.67-.41,4.3-3.45,4.11,2.27-13.98-4.07-20.66-14-24.07-5.55-1.91-11.4-2.95-17.03-4.64-5.58-1.67-10.43-4.59-13.28-9.93-3.96-7.42-.37-14.16,7.95-14.33,10.65-.22,20.59-.05,28.63,9.97,7.88,9.81,21.03,8.01,26.37-1.77,3.56-6.52.89-12.02-6.5-12.57-5.71-.43-11.23-1.34-16.53-3.5-12.65-5.17-25.78-5.03-38.93-3.05-6.69,1.01-12.68,3.57-15.21,10.89-4.87,14.06.22,31.64,12.4,40.1,8.45,5.87,16.33,12,22.42,20.56,4.75,6.67,13.11,6.49,19.02.66,1.23-1.22,2.29-2.61,3.43-3.93-.6,6.29-1.93,12.2-3.77,17.95-2.73,8.54-2.56,16.67,3,23.98,2.11,2.78.51,3.83-1.21,5.44-5.67,5.28-11.06,10.85-15.62,17.12-4.68,6.44-1.64,12.69,6.4,13.22,2.91.19,5.89-.17,8.8-.55,6.3-.82,12.52-2.01,18.91-2.39,2.83-.17,8.21,3.83,8.79-3.37.06-.73,1.47.05,2.17.55,9.26,6.61,23.07,9.35,21.1,25.47-.27,2.19,1.29,4.83,2.54,6.94,4.76,8.09,10.47,14.85,21.26,13.9,3.49-.31,6.33.19,5.54,5.18-.44,2.74,2.1,4.68,4.49,5.36,11.23,3.21,22.15,7.69,33.89,8.91,3.28.34,5,.54,3.5,4.84-2.63,7.54-.67,10.75,6.8,13.47,10.84,3.95,11.06,4.26,9.74,15.6-.65,5.57-.05,10.84,5.62,13.39,5.33,2.39,7.61,6.81,9.69,11.64,3.67,8.5-1.83,17.57,1.59,26.1.18.44-.55.82-1.35.89-5.54.5-8.43,5.02-12.07,8.31-5.15,4.64-10.52,8.92-17.66,9.57-6.98.63-10.22,4.8-10.82,11.01-.59,6.02-2.33,11.52-4.8,16.94-1.02,2.24-1.94,4.66-2.22,7.08-1.05,9.05,3.42,12.16,11.91,8.85,2.5-.97,4.71-5.21,8.38-.87,1.14,1.35,3.56-1.75,2.78-3.12-1.72-3.03.6-3.76,2.05-4.96,10.03-8.35,22.19-11.24,34.67-12.66,5.45-.62,8.64-1.94,7.64-8.02-.8-4.46-1.22-9.09-3.45-13.09-2.13-3.83-.37-5.35,2.87-4.27,4.12,1.37,3.98-1.24,4.73-3.54,2.81-8.68,8.63-14.78,16.5-19.09,5.67-12.69,7.82-13.92,21.33-13.89,3.99,0,4.48,1.62,4.02,4.86-.89,6.26-5.84,10.97-13.74,12.89-5.83,10.3-2.56,15.2,11.12,16.66,10.8-.93,21-2.8,24.47-15.39.33-1.19,1.36-1.65,2.26-2.36,9.81-7.67,19.3-15.77,27-25.61,9.04-11.55,18.59-22.85,22.82-37.58,3.67,2.53,6.96,5.91,6.25,9.07-1.16,5.14.78,9.69.6,14.45-.25,6.59-4.71,11.31-8.73,16.07-13.56,16.03-30.95,27.97-45.62,42.82-.9.91-3.83.96-2.04,3.21,1.09,1.38,2.74.81,4.19-.33,15.54-12.21,31.11-24.36,44.57-38.98,2.34-2.54,3.45-6.36,8.77-8.43-8.98,23.07-29.64,33.12-46.75,49,11.85-1.46,18.73-8.09,25.85-13.71,7.16-5.66,12.54-13.44,20.32-18.46,1.55,1.34,1.04,2.79,1.04,4.05.04,18.09-9.61,30.57-23.33,40.94-12.08,9.13-26.48,13.22-39.99,19.27.06,1.4.12,2.79.18,4.19,11.21-1.27,21.11-5.79,30.62-11.68,12.89-7.98,25.15-16.61,34.51-29.39,2.58,8.58.84,14.46-5.82,21.58-10.24,10.95-23.57,17.43-36.13,25.03.44,1.53,1.64,1.63,2.93,1.54,12.21-3.28,21.16-12.44,32.31-18.6-2.37,11.8-5.79,16.56-17.93,25.91-22.49,17.31-60.71,20.59-80.68.58-1.18-1.18-2.53-2.42-4.04-.92-1.53,1.52-.71,3.26.18,4.99,1.19,2.3,5.9,2.89,4.29,6.16-4.1,8.32,2.58,9.56,7.34,11.87,9.85,4.77,20.56,5.29,31.25,5.86,1.41.07,3.53-.58,3.99,1.53.41,1.89-1.5,2.62-2.71,3.53-4.81,3.59-10.67,3.84-16.35,4.93,5.1,1.28,10.29.56,15.34,1.65,2.81.6,4.48.88,2.68,4.09-8.04,14.34-18.1,26.84-33.13,34.3-8.55,4.24-14.99-.67-14.04-10.15.11-1.13.18-2.27.24-3.4.18-3.37-1.42-3.25-3.73-1.94-2.77,1.57-5.18,3.53-3.42,7,2.39,4.74,2.26,10,3.49,15.17,1.68-1.5,2.79-3.51,5.35-2.29,6.33,3.04,11.7.6,17.16-2.73,8.42-5.13,16.26-10.92,22.65-18.46,3.33-3.93,6.32-8.15,9.48-12.26,2.76,2.51,2.37,4.67.88,7.44-6.07,11.3-12.91,21.92-23.26,29.89-2.12,1.63-4.31,3.37-4.98,6.47,3.52.91,6.77-.49,8.75-2.6,7.99-8.55,18.01-15.56,21.99-27.33.55-1.64,1.15-2.91,3.17-2.88,2.01.03,2.67,1.49,3.3,2.96,2.28,5.3,1.81,10.54.03,15.93-4.64,14.09-13.57,24.79-25.19,33.72-8.47,6.51-18.53,10.41-26.94,17.03,9.74-.58,18.35-3.79,25.61-10.36,2.51-2.27,5.04-4.55,7.77-6.55,1.54-1.13,3.48-1.01,4.93.49,1.16,1.19,1,2.53-.29,3.5-4.15,3.13-7.34,7.57-12.38,9.47-15.33,5.78-30.01,13.63-47.06,13.99-2.48.05-6.18-.05-8.6,2.45,24.69,5.67,44.79-7.9,67.72-16.16-7.09,10.87-15.15,17.67-25.07,22.21-9.65,4.41-20.15,6.2-30.37,8.94,9.5,3.13,18.43-2.37,28.43-1.38-1.54,2.56-3.55,2.94-5.29,3.88-6.98,3.78-14.91,3.46-22.3,5.4.06.88.12,1.76.17,2.64,5.96-1.72,11.93-1.79,18.82-.76-8.91,6.97-19.01,6.57-28.28,8.88-1,1.05-2,1.55-3.03.05-7.74.03-15.47.07-23.21.1-1.28,1.22-2.33,1.19-3.05-.57-7.58-1.11-15.09-2.45-21.54-7.02-.05,1.24-.1,2.47-.16,3.71,17.95,11.47,37.99,10.05,57.95,8.23-.05,2.6-1.26,3.02-2.19,3.42-16.21,6.94-32.82,9.02-50.03,4.18-7.13-2-8.94-1.74-11.7,1.03,16.68,4.46,33.67,6.9,51.04,6.32,9.23,1.51,14.44-6.53,21.9-9.26,1.15-.42,1.02-1.86,1.08-3,.16-3.14,2.62-5.88,4.76-6.01,10.46-.67,14.93-11.02,24.07-14.18,3.81-1.32,5.7-8.08,8.58-12.28,1.43-2.09,1.2-5.49,4.63-6.07.68-.22,1.37-.44,2.05-.66,1.61-4.82,6.65-2.19,9.48-4.36-3.75-3.62-3.06-6.53,1.4-8.84.17-7.3-1.79-15.03,4.53-21.06.67-.64.85-2.18.72-3.24-1.38-11.08,4.02-20.8,6.23-31.14.7-3.26-.69-6.35.93-9.84,4.21-9.1,10.84-17.11,12.28-27.57.47-3.4,13.3-4.87,15.64-2.06,1.57,1.88,1.13,4.08-.59,5.46-4.4,3.52-7.45,7.26-4.87,13.33,2.75,6.49,8.47,8.25,14.54,9.57,16.88-4.12,24.34-23.68,14.15-36.41-2.67-3.33-7.34-3.35-9.48-7.02-7.44.09-14.61-.62-19.96-6.73-6.22-3.41-6.41-4.69-.97-8.37,2.59-1.75,5.28-3.51,8.68-3.12,3.21-2.76,5.38-6.78,9.77-8.1,1.06-3.57,1-7.26,4.3-10.31,3.34-3.09,2.39-7.71-1.43-9.88-5.66-3.21-2.52-5.6.23-7.71,5.21-4,7.29-9.49,8.98-15.49,1.14-4.05-.4-7.61-.82-11.38-3.71-5.14-.96-11.04-1.86-16.55-.87-5.31,1-11.07-3.32-15.75-1.09-1.18-.19-2.99.42-4.52,2.62-6.6,3.49-13.28.52-20.05-.18-.41-.33-.9-.26-1.33,1.25-8.18.36-15.99-3.81-23.28-2.35.08-3.86-1.05-4.64-3.23-2.46-.88-3.33-2.91-3.69-5.25-.71-4.71.42-10.36-6.58-11.61-1.15-.21-1.09-1.71-.83-2.93.71-3.37-1.45-6.46-3.55-7.55-7.08-3.71-5.16-10.04-5.2-15.57-.04-5.18,4.3-3.14,7.19-3.22,5.03-2.05,7.83-9.86,5.18-14.31-1.14-1.92-2.85-1.03-4.19-.78-13.24,2.41-16.32.45-18.83-12.27-.72-.93-.76-1.9-.17-2.91,0-.46,0-.92,0-1.37-.34-4.73,3.05-2.74,5.24-2.89,6.23-.13,14.5,3.08,13.75-8.43,11.47-21.32,9.32-42.75.62-64.28-1.01-2.5-1.58-5.17-2.35-7.76-3.74-.95-4.75-4.95-7.68-6.84-2.81-1.81-5.46-4.33-8.74-.84,10.77,11.2,18.45,23.96,20.48,39.69,1.38,10.75.11,21.06-4.41,31.14-8.31-7.62-11.81-7.85-22.36-1.76-2.9,4.17-5.79,8.35-8.9,12.82-2.09-2.98-4.19-5.74-4.87-9.3-.61-.68-1.23-1.36-1.84-2.04-3.2-.52-6.6-.82-6.44-5.37-1.47-4.58-7.46-6.68-6.83-12.42-.96-2.16-3.52-4-1.38-6.79-.8-6.19,4.96-8.72,7.46-13.05,6.09-10.55,8.67-21.82,8.74-33.84.01-2.25-.96-5.31,3.02-5.21-.36-3.49,1.97-6.14,3.02-9.18,1.08-8.74-.71-17.15-2.88-25.52-5.47-21.08-25.8-33.76-47.37-30.56-15.67,2.33-30.39,6.73-44.38,14.18-16.82,8.96-35.32,12.88-53.72,17.15-9.12,2.11-17.42,1.59-25.8-2.42-10.87-5.2-21.71-10.57-32.91-14.97-21.72-8.53-44.21-13.73-67.73-13.9-8.89-.06-9.77-1.7-6.26-9.55,5.7-12.75,8.6-26.33,11.55-39.86,1.24-5.71,1.79-11.6.87-17.61-4.4-28.65-21.16-47.47-47.38-57.64-49.07-19.04-110.77,1.22-133.61,53.98-8.76,20.24-18.26,40.19-32.02,57.74-4,5.1-6.46,11.26-6.99,17.58-.72,8.54-5.44,12.12-12.99,14.25-18.74,5.29-34.53,16.11-49.14,28.43-14.38,12.13-23.52,29.11-38.46,41.27-8.18,6.66-15.59,14.98-24.02,21.84-5.29,4.31-10.66,8.53-14.77,14.08-11.28,15.2-24.29,28.88-37.11,42.75-10.02,10.84-17.21,23.34-20.09,38.09-2.47,12.62,1.34,24.37,4.86,36.11,1.14,3.8.08,5.94-2.25,8.99-9.32,12.23-20.43,23.17-27.46,37.06-2.12,4.19-4.53,5.04-7.65,1.38-6.47-7.58-14.65-13.51-20.21-22.02-6.47-9.89-13.85-19.17-20.52-28.94-6.76-9.9-12.86-20.44-19.67-30.05-10.52-14.86-18.97-30.98-29.86-45.5-1.86-2.49-3.58-5.18-6.45-6.73,2.63,19.41,10.95,37.07,19.75,53.94,12.38,23.73,27.55,46,41.51,68.9.78,1.28,2.24,2.48-.04,5.19-5.73-7.51-14.11-11.85-20.53-18.37-12.27-12.46-26.4-22.82-39.59-34.1-13.07-11.19-28.02-20.9-43.22-29.64-9.46-5.44-18.97-10.79-28.53-16.05-2.15-1.19-5.16-2.49-6.62.31-1.19,2.29,1.74,3.18,3.44,4.16.59.34,1.26.53,1.86.84,21.23,11.13,41.38,23.89,58.54,40.77,22.07,21.72,41.57,45.74,61.14,69.69,1.47,1.8,1.82,3.51,1.75,5.58l.46.99c-.3-.18-.6-.36-.9-.53-3.37-.97-5.96-3.09-8.58-5.33-26.25-22.45-52.99-44.19-84.12-59.84-11.1-5.58-25.48-10.69-32.11-10.52,16.48,9.05,31.33,21.11,45.55,33.76,23.95,21.3,46.71,43.87,68.16,67.74,8.07,8.98,9,12.17,3.29,22.84-4.84,9.04-8.23,18.54-5.09,28.73,1.79,5.81,1.3,11.02-.14,16.62-3.16,12.3-4.55,24.98.7,36.79,7.03,15.81,12.2,32.33,19.23,48.07,5.02,11.24,12.38,21.47,24.53,26.15,4.99,1.92,7.22,4.66,8.24,9.52,3.75,17.97,11.46,34.34,19.83,50.58,4.33,8.41,13.43,14.82,11.93,25.93,0,.02.22.13.28.1,5.83-3.45,6.31,2.7,8.65,5.07,2.65,2.66,5.03,5.98,9.12,3.57,3.69-2.18,2.24-5.98,1.48-9.27-.31-1.32-.98-2.57-1.23-3.9-1.29-6.65-1.53-13.26.53-20.79,4.07,4.03,7.51,7.96,12.65,3.79,3.8-3.09,2.52-8.86,6.27-12.85,2.72,6.97,5.19,13.35,10.74,17.79,1.85,1.49,2.92,4.62,5.99,3.6,3.12-1.04,2.14-4.12,2.48-6.47.25-1.76-.25-4.19,1.86-4.71,2.33-.58,3.46,1.8,4.61,3.4,3.06,4.23,5.86,8.65,8.98,12.82,1.45,1.94,3.73,2.65,6.14,1.95,2.67-.78,3.11-2.96,3.13-5.41,0-1.34.07-2.81.61-4,1.24-2.77,3.31-3.58,4.77-.4,2.44,5.28,6.44,9.91,6.98,16.02.22-.06.54-.23.63-.15,6.1,5.52,12.22,11.02,15.54,18.84,5.61.83,9.38,5.16,14.21,7.49,2.91,1.41,5.75,3.35,8.81.84,2.73-2.24,2.02-5.41,1.23-8.25-4.73-16.98-2.75-33.3,4.57-49.14-.06-6.89,3.13-13.57,1.11-20.66-.61-2.12,1.74-2.75,3.58-3.14,5.5-1.17,10.96-2.6,16.5-3.54,5.15-.88,7.15,3.77,10.25,6.47,4.26,3.7,6.97,8.04,6.53,13.91,9.55,15.22,8.81,30.79,1.62,46.6.63,5.24-.31,9.38-6.74,9.72.46,2.72.28,5.19-2.57,6.63-1.4,4.07-3.43,7.46-8.32,7.82-.61.94-1.1,1.98-1.84,2.79-10.93,12.06-11.99,28.05-2.42,41.21,2.62,3.6,4.5,7.39,1.85,11.19-3.12,4.48-7.42,2.02-11.02.18-11.86-6.05-18.88-16.03-22.2-28.68-1.34-5.12-3.68-8.48-9.46-7-5.24,1.34-5.14,6.11-5.04,10.02.65,26.78,9.09,49.93,32.03,66.36-5.56,3.65-11.2,7.15-14.2,13.36-.99,2.04-2.47,4.18-.72,6.33,1.76,2.17,4.03,3.6,7,2.06.78,5.13-2.44,10.1-.49,15.32,1.59,4.26,3.55,6.35,7.51,2.26-2.87-7.5-.32-14.55,7.19-20.3,1.58-1.21,5.03-1.91,3.22-4.83-1.62-2.6-4.8-1.5-6.76-.35-3.73,2.19-7.07,5.06-10.56,7.66.05-6.1,3.05-10.06,8.77-12.16,1.89-.69,4.33-1.14,4.85-3.33.81-3.41,2.11-2.94,4.41-1.36,8.78,6.04,18.03,11.45,26.4,18.01,13.15,10.31,28.27,14.85,44.36,17.2,10.46,1.53,20.18-.77,29.82-4.88,12.15-5.18,20.27-15.11,29.66-23.62,14.26-12.92,25.55-28.4,33.94-45.29,8.64-17.4,13.89-36.33,14.41-56.24.14-5.54.85-11.36,3.76-16.43,4.21-7.32,8.53-14.58,12.8-21.87-.52-2.26.32-3.68,2.6-4.21-.43-1.69-.03-3.12,1.31-4.27,7.98-12.53,8.21-27.7,13.93-41.01-.04-11.06,2.59-22.04-.07-33.2-3.12-13.07-4.36-26.77-16.01-36.09-1.44-1.15-5.47-.98-3.94-4.22,1.27-2.7,4.49-1.62,6.84-1.34,12.36,1.47,24.09,6.19,36.56,7.24,2.5.21,4.17,1.21,3.4,4.46-2.61,10.99-.21,21.67,2.58,32.25.47,1.79-.28,5.02,2.34,5.03,2.24.01,3.89-2.62,4.06-4.88.56-7.2,4.02-14.42-.01-21.69-.76-1.37-2.05-3.23-.16-4.9.98-.87,2.08-2.42,3.43-1.34,4.94,3.96,9.34,3.95,13.61-1.01.3-.34,2.04.53,3.09.87,19.5,6.3,36.94,17.09,55.44,25.56,1.55.71,4.05,2.66,3.84,3.41-2.08,7.48,3.71,4.01,5.54,3.54,3.7-.94,7.09-3.08,9.54-4.23-41.52-25.58-86.08-44.85-133.84-56.33-1.19.59-2.28.41-3.27-.44-6.25-.95-12.51-1.86-18.74-2.89-1.72-.28-4.2-.56-4.37-2.48-.36-4.13-2.77-2.59-4.72-2.07-9.93,2.68-19.75,1.98-29.53-.72-2.75,1.94-5.64,2.23-8.7.79-13.48.18-26.96.35-40.44.53-1.42.43-2.85.86-4.27,1.3-1.77.02-3.53.05-5.3.07-1.9,2.01-4.26,1.99-6.72,1.51-9.82,1.88-19.64,3.77-29.46,5.65-.17-.55-.33-1.1-.5-1.66,10.06-1.81,17.85-9.43,28.44-9.92.39-3.42,2.94-3.6,5.55-3.69,1.29-.44,2.59-.87,3.88-1.31,3.52-1.76,6.4-5.83,11.17-3.13,11.41-5.49,23.38-9.46,35.42-13.29,5.35-1.12,10.29-4.39,16.1-3-.8-4.22,1.57-5.67,5.24-6.45,11.97-2.54,23.84-5.53,35.85-7.84,18.96-3.65,37.97-7.22,57.26-8.67,6-.45,13.2-1.66,15.44,7.16.4,1.56,2.26.96,3.85.5-4.3-5.74-1.07-6.54,4.03-6.44,4.96.1,9.92,1.04,15.01-.63-3.89,19.58.26,30.77,13.77,38.05-.87,1.77-3.55,2.01-3.79,5.39,6.22-3.6,12.32-4.12,18.37-.66.54.31,1.34.23,2.02.23,20.78-.17,40.75-6.36,61.32-8.31,7.33-.69,10.87-8.82,8.72-15.81-2.17-7.05-8.79-10.29-16.3-8.04-3.55,1.06-6.47,3.23-9.47,5.22-13.84,9.17-29.24,10.69-45.15,8.86-5.36-.61-10.21-2.84-10.1-9.76.14-8.96,3.93-12.15,13.31-9.73,11,2.85,21.8,3.61,32.91.78,8.77-2.24,17.51-4.78,26.77-4.46,4.77.17,9.93.42,10.39-6.59.59-8.89-2.33-13.87-9.09-15.09-10.02-1.82-19.82-.53-28.15,5.14-9.79,6.66-18.94,8.19-29.72,2.3-7.51-4.1-16.66-4.43-23.4.88-7.65,6.03-15.31,5.28-23.65,4.28-4.73-.56-9.5-.86-14.27-.99-26.61-.72-53.02,1.2-79.21,6.03ZM411.92,442.99c1.95-.27,3.36-1.11,4.86-2.11,13.54-9.02,28.89-13.99,44.48-17.11,10.74-2.15,21.09-6,32.63-6.22,2.03,7.89,3.45,16.09,1.02,25.29-6.3,23.88-35.74,44.02-67.57,29.25-9.42-4.37-15.98-10.6-19.69-20.24-1.86-4.83-1.29-8.1,4.28-8.87ZM868.6,537.25c-5.74-.47-11.55-.53-17.1-2.28-1.63-.51-3.82-1.75-3.26-3.69.64-2.25,3.19-1.44,4.51-.73,5.05,2.71,10.96,1.87,16.05,4.21,10.64-.14,21.27-.42,31.95-.8-10.09,6.39-21.13,4.74-32.15,3.29ZM704.02,319.86q-.71,5.17,4.55,14.73c-11.47-.94-17.54-11-16-25.65,12.75-3.28,18.01,3.44,21.41,13.8,2.14,6.53,8.07,10.77,13.35,16.65-12.33-2.07-18.28-10.02-23.31-19.53ZM923.69,361.99c2.83,4.58,3.31,8.1,1.69,14.52-3.41,13.51-11,24.63-20.3,34.68-7.5,8.1-15.05,16.17-24.66,24.27,1.11-10.82,1.85-20.05,14.17-21.4,1.64-.18,2.94-1.79,2.68-3.48-1.47-9.61,6.24-15.34,10.46-21.87,5.64-8.72,10.75-17.7,15.96-26.72ZM915.99,350.01c2.4-.19,2.58,1.74,2.6,3.16.07,5.25-.8,10.41-2.75,15.3-4.01,10.07-10.51,18.39-18.28,25.82-4.07,3.89-4.75-2.4-8.17-1.85,10.44-12.82,19.62-25.42,24.15-40.73.42-1.43,1.27-1.6,2.45-1.7ZM878.26,281.68c.11-1.09.2-2.18.31-3.44,7.36,5.66,10.26,18.86,6.86,30.49-4.03,13.83-14.27,23.55-23.14,34.05-6.59,7.78-14.24,14.66-21.33,22.02-2.48,2.57-5.44,4.11-8.86,4.64-2.68.41-4.95-.72-5.69-3.4-.9-3.28,1.84-3.43,4.01-4.17,2.76-.94,5.61-1.4,8.33-2.75,2.7-1.34,4.94-2.25,4.22-5.69-.72-3.42-3.15-4.95-6.44-4.93-10.72.08-23.16,3.72-21.68,19.68.11,1.13.07,2.28.1,3.41,2.29,6.19,7.42,8.61,13.26,10.37,2.55.77,5.49.39,7.67,2.36,7.88,0,11.09-1.92,12.08-10.41.92-7.89,4.61-12.73,10.42-17.79,9.89-8.6,18.34-18.82,26.14-29.4,4.6-6.24,7.25-13.53,7.58-21.46-.18-1.33-.54-2.66-.51-3.98.03-1.48-.59-3.29,1.05-4.31,1.3-.81,2.1.44,2.77,1.22,1.38,1.58,3.92,3.12.76,5.39,2.44,20.87-6.24,37.27-21.81,51.16,5.31,1.97,8.61-1.04,10.98-3,8.83-7.32,16.33-15.82,17.39-28.12.11-1.28-.22-3.01,1.41-3.51,1.92-.58,2.98,1.08,3.67,2.37,5.39,10.12,6.16,20.7.78,30.81-5.74,10.77-12.43,20.97-19.72,30.9-4.28,5.83-7.77,8.47-14.75,8.7-6.25.21-11.34,4.01-15.49,8.84-3.97,4.63-7.7,9.43-12.82,13.09-6.18,4.43-13.28,5.43-20.22,5.58-7.45.16-.37-4.73-1.56-6.99-1.27-3.68-.95-6.57,3.65-7.34,1.81-6.72-4.26-10.75-5.6-16.4-1.99-5.94-9.25-8.66-9.52-15.64-2.06-1.17-3.51-1.75-3.54-5.31-.04-6.02.81-12.3-1.21-18.26-.14-.41-.43-1-.26-1.26,5.07-7.91,3.37-16.16,2.12-24.75-.8-5.54,1.87-10.03,9.08-9.97,3.28.03,5.62-3.82,9.93-2.91,3.48.73,4.65,1.88,4.67,5.16.02,6.15.17,12.29.38,18.44.25,7,2.6,8.28,8.91,5.3,4.35-2.06,6.59-5.8,5.22-9.93-1.67-5.03,1.03-5.56,4.33-7.52,15.61-9.29,24.28-23.23,26.09-41.37ZM871.4,274.66c2.93,22.69-9.82,36.02-25.34,49.34-1.59-7.48-1.12-13.7.33-19.93.48-2.09,1.37-3.56,3.3-4.78,14.16-8.97,14.86-9.83,21.72-24.63ZM732.24,300.95c10.67-.76,17.62-7.59,24.63-13.88,17.25-15.47,23.11-36.2,25.76-58.44,1.86-15.55,14.29-24.67,23.78-35.45.99-1.13,2.63-.5,4.16-.44,10.44.37,21.48,3.26,30.18-5.88,1.6-1.68,4.07-3.67,2.8-5.4-1.86-2.54-4.04.11-5.57,1.55-6.79,6.37-15.03,6.61-23.52,6.12-.1-.69-.38-1.26-.2-1.55,11.38-18.16,39.43-20.25,53.76-4.83,6.65,7.16,7.97,13.93,5.91,23.18-5.66,25.43-13.06,50.03-27.56,72.03-5.17,7.86-11.57,14.66-18.16,21.21-4.52,4.49-10.12,7.55-17.05,7.26-5.75-.24-8.76,3.64-7.93,8.62,2.36,14.17-6,22.2-15.94,29.15-14.28,9.98-30.27,11.35-46.95,7.93-6.68-1.37-13.87-1.33-20.24-7.43,8.39.67,14.05-4.01,20.65-5.92,4.38-1.27,8.42-3.51,13.1-1.69,1.89.73,3.03-.39,4.1-1.58,1.76-1.97,4.1-3.49,6.5-3.08,6.55,1.11,10.5-2.92,14.61-6.67,2.4-2.19,4.96-3.84,8.03-4.95,2.37-.86,3.71-2.71,2.37-5.39-1.86-3.72-2.81-.03-4.29.46-4.44,1.46-8.66,2.53-13.74,1.15-10.83-2.96-20.54-8.15-30.93-13.79.06,3.9,2.24,5.62,4.55,7.22,7.72,5.36,16.07,9.36,25.16,11.83,1.38.37,3.52.03,3.65,2.27.13,2.29-1.8,2.98-3.47,3.61-3.82,1.43-7.66.66-11.38-.39-3.85-1.09-7.66-2.05-12.26-1.67,2.55,3.44,6.26,3.45,10.98,6.14-6.89.41-11.65,1.34-16.27-2.59-5.93-5.04-11.05-10.81-16.4-16.39-.95-.99-1.31-3.36-3.59-2.43-.17-6,2.57-9.29,10.79-9.87ZM712.54,307.31c3.02-1.8,5.12-.61,7.01,1.81.51.66,1.16,1.21,1.76,1.79.12,7.28,4.95,11.82,9.67,16.36,2.69,2.59,5.61,4.95,8.95,7.88-4.26,2.17-7.22.9-10.08-1.03-7.68-5.22-13.68-11.9-17.37-20.49-.86-2-3.49-4.2.07-6.32ZM677.53,149.56c-3.89.61-8.34,3.16-10.97-2.98,4.08,1.11,7.53,2.04,10.97,2.98ZM383.22,159.8c13.87-6.17,28.72-8.56,43.58-9.83,3.12-.27,8.07,3.57,11.94,5.95,2.18,1.33,4.4,2.49,6.88.64,2.11-1.57,2.74-3.53,1.49-5.95-.63-1.21-.56-2.23.94-2.56,1.64-.37,3.15-.33,3.69,1.82,1.91,7.52,8.12,4.47,12.76,4.95,1.81.19,2.76-1.8,2.41-3.45-1.2-5.63,2.76-4.72,6.15-5.76,14.76-4.51,29.76-5.21,44.3-3.94-5.32,5.92-13.78,4.97-20.96,7.68-14.34,5.4-28.75,10.7-42.42,17.75-4.77,2.46-9.77.95-14.68.88-1.32-.02-2.77-1.08-3.92-.77-19.44,5.21-38.11-7.29-59.18-.49,2.42-4.67,4.6-5.85,6.99-6.91ZM300.11,233.11c6.71-5.14,12.91-10.76,17.62-17.85,1.46-2.21,3.45-4.02,5.9-4.28,16.04-1.74,29.34-10.15,43.16-17.33,8.9-4.62,17.96-8.58,28.22-9.15,4.96-.27,9.32.32,12.91,4.83-9.93,5.17-18.25,12.47-27.19,18.9-6.59,4.73-15.02,4.92-21.64,9.42-1.29.88-2.84.2-3.62-.95-3.58-5.27-7.63-3.02-11.01-.29-11.74,9.49-23.98,18.5-32.69,31.21-1.63,2.38-3.68,4.48-5.74,6.96-2.25-2.65-2.98-5.39-3.31-8.41-.27-2.43-.26-5.64-2.68-6.69-5.69-2.47-2.43-4.45.07-6.36ZM292.86,240.28c.42-.35,1.17-1.04,1.22-.99.81.76.42,1.35-.39,1.82.14,7.16,3.38,13.02,7.74,18.39.69.85,2.51,1.72,2.38,2.17-2.28,7.89,2.25,16.39-1.79,23.91-3.35,6.25-11.87,5.73-16.44-.15-3.79-4.87-6.09-10.27-7.99-16.03-1.37-4.16-2.43-9.13-9.65-7.54,7.83-8.73,15.97-15.62,24.93-21.58ZM231.39,303.58c8.6-9.89,20.52-16.52,27.53-30.22q1.09,11.26,11.31,15.24c-6.46,2.97-11.9,5.92-17.03,9.36-14,9.4-22.56,22.2-24.16,39.1-.5,5.29-2.46,12.02,5.98,13.64,7.31,1.4,13.37-3.16,15.48-10.86,3.19-11.62,9.4-21.96,14.54-32.75.38-.8,1.06-2.05,1.63-2.06,7.64-.25,12.02-6.41,17.97-9.7,2.1-1.16,4.44-1.49,6.54-.2,5.51,3.37,9.79.57,14.04-2.54,8.82-6.46,15-15.09,19.99-24.66,5.79-11.1,11.8-22.01,22.29-29.59,2.15-1.55,4.07-3.42,6.85-3.79.49,1.21.73,2.32.02,3.37-13.43,19.97-25.48,41.1-44.06,56.94-12.66,10.79-24.75,22.15-36.93,33.43-9.44,8.75-16.82,18.5-17.59,31.96-.16,2.76-.67,4.84-4.4,4.37-10.15-1.28-19.22,2.26-27.82,7.1-3.58,2.02-4.81,1.58-6.35-2.62-9.15-24.96-2.76-46.08,14.16-65.53ZM142.41,417.17c.14.16.39.32.38.47,0,.15-.26.3-.41.46-.15-.17-.4-.33-.4-.49,0-.15.27-.3.42-.44ZM178.23,534.58c4.99-3.51,10.93-2.56,16.36-3.91,16.67-4.16,32.74-9.97,48.65-16.32,3.15-1.25,5.71-.88,7.98,1.67,2.17,2.45,4.1,4.81,2.38,8.45-3.88,8.21-8.44,15.73-15.81,21.53-5.38,4.24-9,10.58-15.89,13.18-2.39.9-4.84,4.33-7.02,1.24-2.15-3.04,2.09-3.67,3.62-5.29.91-.97,2.28-1.55,2.62-5.16-9.13,6.82-19.2,7.82-28.79,10.4-2.97.8-5.18.49-7.41-1.41-3.57-3.04-7.43-5.78-10.7-9.1-3.65-3.69-1.17-11.64,4.02-15.29ZM164.45,639.24c-9.07-1.14-15.35-6.29-19.44-14.13-5.75-11-12.63-21.54-13.19-34.67-.11-2.72-3.01-5.39-4.81-7.95-9.86-14.1-10.26-29.79-8.31-46.08,3.29.31,3.74,2.88,4.7,4.75,4.91,9.62,10.83,18.2,18.44,26.21,11.98,12.62,19.34,28.4,21.63,45.93.5,3.84,3.11,7.09,2.4,11.08,1.73,3.4,3.58,6.75,5.16,10.22.77,1.69,3.05,3.44,1.09,5.44-1.78,1.82-3.8.12-5.68-.42-.65-.19-1.33-.26-2-.39ZM236.12,686.15c-2.56,2.82-4.64,6.21-6.37,9.62-1.68,3.32-2.64,7.01-4.05,10.91-4.65-5.47-9.95-10.03-12.75-16.58-.58.57-1.15,1.14-1.73,1.71,1.98,3.92,1.85,7.75.44,11.96-1.42,4.25-1.79,8.82-1.12,13.4.29,1.98,1.54,4.56-1.87,5.35-.33,4-2.5,1.96-3.97,1.06-2.26-1.38-3.25-3.53-2.7-6.23-1.54.15-1.49-1.51-2.39-2.09-5.36-.45-5.21-4.21-4.87-8.08-2.26-.01-2.96-1.75-3.72-3.4-7.41-15.97-16.22-31.37-19.77-48.92-.62-3.07-2.58-6.03.24-8.85,1.69-1.69,4.01-1.37,5.7-.36,3.07,1.83,5.12,4.48,4.09,8.48-.16.64,0,1.35,0,2.03.76-.08,1.53-.17,2.29-.25.28-.96-.11-2.71,1.57-2.33,4.75,1.07,8.9,7.53,8.56,12.75-.34,5.29.77,10.27,3.59,14.82.76-.72,1.51-1.44,2.27-2.16-1.24-5.02-2.48-10.04-3.89-15.77,5.59,1.01,10,3.31,13.98,6.51,1,.8,2.11,1.73,1.23,3.42-2.1,4.05-.67,8.49-1.24,12.72.8.87,1.5,1.93,2.95,1.59.45-2.19,1.07-4.36,1.32-6.57.93-8.13.84-8.02,8.97-4.73,3.55,1.44,7.35,2.24,10.98,3.48,3.35,1.15,5.96,2.43,2.27,6.49ZM254.37,700.64c-3.13,1.93-3.15,5.32-5.3,8.48-5.94-6.15-8.74-13.31-9.26-21.51-.13-1.96.06-3.52,1.88-4.65,2.28-1.41,13.41.04,14.56,2,2.81,4.75,2.05,13.25-1.89,15.68ZM278.7,707.58c-1.57,3.25-3.3,6.42-5.35,10.4-7.77-8.88-13.5-18.07-14.16-29.73-.17-2.91-.31-5.71,3.99-4.88,4.57.89,10.15-2.82,13.66,2.91,4.15,6.78,5.47,13.85,1.86,21.29ZM332.82,696.57c-5.73,15.2-10.36,30.52-6.59,47.05.24,1.04.78,2.34-.48,3.05-1.53.87-2.47-.41-3.44-1.3-.5-.45-.97-.96-1.36-1.51-1.02-1.42-1.86-3.76-3.81-3.04-.9.33-.91,3.05-1.57,5.69-22.21-15.49-28-39.22-34.75-63.22,16.96-.34,33.02-3.09,49.2-4.69,2.87-.28,3.93,1.39,4.39,3.99.86,4.84.11,9.48-1.58,13.97ZM391.96,876.35c-6.83-3.06-11.03-7.88-11.44-15.48-.42-7.75.17-15.39,3.54-23.31,7.56,11.27,13.1,22.22,13.39,35.26.11,4.83-1.39,5.37-5.49,3.53ZM418.74,881.57c-.91.01-1.82,0-2.73,0-14.46-.03-16-1.58-16.09-16.17-.01-1.59,0-3.18,0-4.78-.04,0-.08,0-.11,0,.16-2.95.24-5.91.49-8.85.81-9.68,1.76-10.42,9.77-5.42,8.51,5.31,13.51,14.01,18.04,22.51,3.05,5.72-2.66,12.6-9.36,12.7ZM430.27,881.3c-2.7.25-2.26-3.1-1.45-4.03,1.31-1.5,0-5.76,4.27-4.43,4.44,1.38,8.94,2.56,14.68,4.19-6.09,3.58-11.92,3.76-17.5,4.27ZM460.21,838.92c-1.12,7.31-2.05,14.65-3.05,21.98.37,1.78-.47,3.17-1.44,4.52.63,4.8-1.88,6.56-6.3,6.64-8.59.15-15.51-3.46-20.64-10.01-9.99-12.74-15.9-27.3-17.97-43.38.23-2.75-5.51-6.52,1.39-8.13-.46-1.02-1.08-2-1.32-3.07-.27-1.23-2.76-2.64.02-3.76,1.52-.62,2.3.33,3.15,1.63,5.53,8.48,13.39,14.58,21.28,20.68,6.42,4.97,13.5,8.31,21.62,8.78,3.23.19,3.69,1.36,3.27,4.13ZM493.64,789.11c-7.08,3.15-7.39,10.31-10.15,15.99-3.72,7.65-7.24,15.39-11.32,24.11-2.69-5.34-2.52-8.9-.24-12.93,2.66-4.69,4.69-9.82,6.31-14.98,2.03-6.48,7.39-10.63,10.49-16.31,1.22-2.25,3.55-2.52,5.21-1.17,1.76,1.44,1.76,4.38-.28,5.29ZM520.92,714.42c-8.94,7.83-10.09,19.91-16.27,29.2-1.89,2.84-3.88,5.29-7.88,7.43,1.11-7.37,4.93-12.72,6.9-18.7,2.68-8.11,9.02-13.88,13.7-20.72,1.09-1.59,3.06-3.55,5.04-1.61,1.54,1.51-.72,3.72-1.49,4.39ZM521.84,633.5c.03-.59,1.6-1.72,1.87-1.57,2.97,1.69,2.52,4.55,2.71,7.71-3.73-.98-4.75-3.25-4.58-6.14ZM497.76,607.18c6.91,7.3,18.87,8.8,22.58,19.85,1.07,3.18.04,6.87-1.24,8.16-5.66,5.71-2.14,11.7-1.13,17.33.45,2.52,1.53,3.85-.83,6.15-2.45,2.39-1.53,5.99,1.2,7.69,3.54,2.19,3.26-2.08,4.1-3.58,2.5-4.47,5.31-9.1.82-14.17-1.37-1.55-1.13-3.58.94-4.57,2.23-1.06,4.37-.15,4.93,2.1,1.25,5.01,3.06,10.21,2.75,15.22-.56,8.77-1.33,17.66-4.11,26.14-.54,1.66-.68,4.14-2.85,4.22-2.87.12-3-3.05-2.9-4.56.59-9.41-8.03-14.82-9.71-23.33-.9-4.55-6.36-3.78-9.91-4.56-11.02-2.43-14.53-8.82-11.56-19.39,1.53-5.46,3.45-9.86,7.66-13.83,3.8-3.58,1.18-14.46-4.42-18.18,2.06-.41,3.37-1.02,3.68-.69ZM381.28,680.8c-1.26-2.26.7-4.89,3.56-5.5,3.46-.74,4.35,1.31,4.08,4.33-.39,4.33,2.18,7.74,3.72,11.46,1.52,3.69,2.56,7.32-.98,12.33-3.01-8.43-6.48-15.62-10.38-22.62ZM368.78,809.44c.82-13.65,5.06-25.32,19.73-30.95,12.06-4.63,18.74-16.11,27.54-24.84.48-.48.77-1.44,1.28-1.55,6.91-1.44,6.86-8.46,10.32-12.63.86-1.04,1.05-1.75.74-2.93-2.13-7.88.14-15.29,2.8-22.53,2.42-6.59,2.57-13.21,1.41-19.97-.7-4.09-3.04-6.19-7.37-6.53-9.04-.71-14.67-5.45-17.39-14.06-.48-1.51-1.1-2.99-1.74-4.45-4.88-11.12-5.44-21.62,3.9-31.01,1.88-1.89,3.18-4.41,2.71-7.37-1.25-2.24-1.04-4.61,1.13-5.72,2.09-1.07,4.72-1.22,6.37,1.39,2.3,3.32,6.14,4.56,9.25,6.79,8.99,6.45,13.82,16.65,21.76,24.05.57.53.73,1.66.8,2.54.65,7.38,1.96,14.09,6.21,20.88,2.92,4.65,1.91,12.32,1.29,18.51-1.06,10.4-2.6,20.72-1.83,31.21.3,4.06-1.11,7.61-3.74,10.66-4.62,5.37-7.99,11.55-11.14,17.8-2.57,5.09-.54,10.66-.51,15.97.03,4.99-.9,9.35-3.35,13.63-1.48,2.59-2.96,4.45-6.26,4.16-2.3-.2-4.9-.35-4.36,3.3.41,2.83,1.84,4.64,5,4.3,2.21-.23,4.63.09,6.15-2.14,4.51-6.57,9.09-12.91,7.48-21.79-2-11.03,2.1-20.7,8.82-29.08,5.16-6.44,7.18-13.47,6.99-21.46-.27-11.14.25-22.26,2.19-33.23,1.19-6.73-.28-12.67-3.95-18.09-4.27-6.3-2.44-14.59-7.11-20.68-3.13-1.12-4.03-3.89-4.94-6.65-4.41-1.87-4.58-7.29-8.36-9.89-1.77-1.21-3.27-3-5.24-4.09-4.63-2.48-7.9-6.35-10.82-10.59-6.16,2.1-8.53-2.17-9.52-6.63-1.33-5.98,4.33-5.69,7.84-7.13,1.95-.08,3.91-.16,5.86-.24,1.65-.32,3.29-.64,4.94-.96,2.19-1.15,4.48-1.25,6.84-.7,4.14-2.64,8.77-.44,13.19-1.07,5.05-.72,10.16-1.28,15.26-2.06,10.42-1.61,16.46.83,24.28,8.87,1.88,1.94,1.62,3.8.22,6.41-2.34,4.38-6.23,7.37-8.73,11.65-5.13,8.79-3.46,17.4.17,25.53,2.73,6.12,9.75,7.64,15.84,8.24,4.93.48,6.92,3,9.24,6.68,4.11,6.51,7.11,13.3,8.25,20.92.63,4.23.16,7.68-3.5,10.9-21.47,18.89-25.21,44.14-24.55,70.76.09,3.7.13,5.99-4.07,7.77-9.1,3.85-13.85,12.48-18.06,20.57-4,7.69-7.79,16.06-6.94,25.26.28,3.02-1.51,2.77-3.16,3.03-5.47.87-10.34-.83-14.81-3.8-13.01-8.64-24.57-18.7-31.64-33.03-.99-2-2.1-3.72-4.56-3.1-2.76.69-2.69,3.1-3,5.42-1.81,13.7,2.85,26.4,6.01,39.31.53,2.16,1.44,4.2.85,7.05-4.89-2.47-9.8-5.59-14.26.19-.18.23-1,.25-1.3.04-5.48-3.89-11.18-7.55-16.2-11.97-1.38-1.21-2-4.51-3.81-5.34-7.12-3.27-6.78-9.93-6.45-15.5ZM368.02,830.18c2.18-3,4.14-2.71,6.19.53,3.6,5.69,3.96,11.86,3.53,16.92,0,3.14.14,4.97-.04,6.76-.21,2.14,1.21,5.23-.89,6.22-2.8,1.31-4.91-1.56-6.79-3.35-6.57-6.24-7.54-19.49-2-27.09ZM336.13,850.37c-8.97-7.98-13.89-18.45-17.95-29.33-2.7-7.23-4.2-14.84-4.94-22.58-.33-3.46.03-6.64,1.94-10.21,3.08,2.58,2.54,6.04,2.82,8.4,1.61,13.17,12.76,17.87,21.23,24.84,5.4,4.45,12.17,4.6,18.87,3.87,5.38-.59,8.06.38,5.02,6.56-2.91,5.92-.69,12.6-1.88,19.45-1.77-.47-2.97-.56-3.91-1.09-3.22-1.82-5.49-3.05-8.82.98-3.47,4.19-8.34,2.7-12.38-.89Z" style="fill: #f4f3e9;"/>
  <path d="M485.54,901.61c4.48,10.89,12.5,10.91,20.99,9.83,9.34-3.08,12.21-10.17,6.77-15.06-7.4,9.17-16.7,10.25-27.76,5.22Z" style="fill: #f4f3e9;"/>
  <path d="M516.25,877.21c-5.81,3.88-11.32,8.45-19.13,6.74-1.33-.29-1.98.94-2.17,2.11-.2,1.28.63,2.02,1.67,2.63,5.3,3.11,10.77,4.68,16.76,2.06.55-2.71,2.94-4.01,4.74-5.53,3.32-2.8,3.52-5.4.77-8.52-.89.15-1.95.04-2.64.5Z" style="fill: #f4f3e9;"/>
  <path d="M473.14,947.59c-7.73,1.91-13.44-1.64-18.55-6.84-1.74-1.77-3.45-3.68-5.97-4.28-1.46-.35-3.27-.89-4.25.9-.84,1.55.5,2.46,1.46,3.36,3.26,3.06,6.55,6.09,9.82,9.13,4.89,2.79,9.97,5.01,15.69,5.43,2.95.22,4.87-1.52,5.78-3.81,1.48-3.75-2.88-2.31-3.98-3.89Z" style="fill: #f4f3e9;"/>
  <path d="M360.09,902.87c.44-1.29,2.61-4.06-.91-4.86-2.59-.59-3.45,1.56-4.21,3.45-1.98,4.91-1.1,10.21-1.94,15.27,1.12,3.64,1.65,7.63,3.54,10.82,1.95,3.3,5,7.05,9.2,1.84-8.31-7.47-9.11-16.46-5.68-26.53Z" style="fill: #f4f3e9;"/>
  <path d="M353.63,889.93c.77-.14,1.2-.61.74-1.29-.12-.18-1.04.19-1.59.3-5.62,2.21-7.88,7.73-11.61,11.81-.12,3.96-1.74,7.81-.02,11.9,2.26,5.36,5,6.24,10.21,2.71-6.08-7.75-4.89-15.15.96-22.41.66-.82.88-2,1.3-3.02Z" style="fill: #f4f3e9;"/>
  <path d="M381.89,936.34c-7.64-4.38-10.35-11.46-10.87-19.82-.11-1.78.77-4.81-2.28-4.73-2.82.07-3.23,2.81-2.89,5.08.68,4.64,1.65,9.23,2.5,13.84,4.59,3.31,6.58,10.39,13.98,9.6.61-1,1.23-2,1.84-3.01-.77.34-1.6-.58-2.29-.97Z" style="fill: #f4f3e9;"/>
  <path d="M384.88,936.17c-.23.38-.47.76-.7,1.14.3-.13.59-.45.87-1.06,0,0-.05-.02-.09-.05l.09.04s0-.01,0-.02c-.05-.02-.1-.04-.15-.06,0,0,0,0,0,0Z" style="fill: #f4f3e9;"/>
  <path d="M77.45,287.28s.07-.08.07-.08c-.16-.07-.33-.14-.49-.21.14.1.28.19.42.29Z" style="fill: #f4f3e9;"/>
  <path d="M355.23,368.4c1.79-.45,3.06-1.01,3.9,1.83,1.5,5.07,5.43,5.58,9.68,3.24,5.63-3.1,10.93-6.75,17.12-8.86,10.58-3.62,20.52-8.54,29.22-15.73,15.68-12.95,23.91-31.15,33.82-48.15.74-1.27.78-3.12.66-4.67-.56-7.23,0-14.61-2.28-21.64-1.84-5.66.74-9.14,5.8-10.24,5.14-1.11,8.99-4.07,13-6.9,6.61-4.67,9.61-14.71,7.06-22.56-2.61-8.02-12.67-17.81-18.83-17.68-10.89.23-21.41-3.11-32.34-2.47-.11-3.31,2.13-4.95,3.14-7.15,1.6-3.49,1.12-6.57-1.26-9.51-2.05-2.53-4.83-3-7.34-1.58-3.66,2.06.27,3.72.98,5.24,3.54,7.58,1.78,13.43-5.75,16.92-1.75.81-2.8,1.81-3.8,3.4-3.41,5.41-3.86,11.24-4.08,17.5-.24,6.57,1.21,10.86,7.5,13.85,7.02,3.34,10.2,10.04,9.54,17.44-1.33,14.92-3.1,29.83-6.48,44.46-2.8,12.1-7.42,23.77-19.86,28.4-15.03,5.59-25.36,19.03-41.02,23.14.54.57,1.08,1.14,1.62,1.71Z" style="fill: #f4f3e9;"/>
  <path d="M536.35,192.92c-1.52,0-4.25.14-6.97-.03-4.34-.27-7.09,1.79-7.98,5.79-5.16,23.27-6.93,39.2,12.7,53.99,10.76,8.11,17.75,18.93,19.22,33.16,1.2,11.68,7.82,18.05,19,20.14,5.76,1.08,11.61,1.37,17.61.75,9.04-.93,14.08-6.04,17.84-13.65,9.47-19.16-.43-35.02-8.71-50.95-6.77-13.04-19.21-21.71-27.52-33.58-8.39-11.99-19.63-17.04-35.18-15.62ZM555.36,218.49c4.16,6.35,9.07,11.96,14.64,16.92,7.47,6.66,10.2,15.82,14.04,24.43,1.12,2.51,2.1,5.11,4.54,6.6,8.08,4.96,5.28,18.4-3.65,24.15-3.26,2.1-7.73,2.09-10.81-2.21-4.91-6.85-9.23-14-12.38-21.8-5.6-13.85-11.22-27.63-25.14-35.64-2.59-1.49-3.56-4.02-2.99-7.52.18-4.04,1.08-8.42,6.36-9.42,5.76-1.09,11.86-.89,15.38,4.49Z" style="fill: #f4f3e9;"/>
  <path d="M468.05,360.88c5.33-7.1,11.2-13.66,18.8-18.52,7.59-4.85,13.45-11.5,18.55-18.83,6.34-9.11,9.7-18.99,7.25-30.2-1.72-7.88-7.91-12.24-15.89-11.2-3.15.41-6.3,1.28-9.31-.44-3.15-1.81-5.89-.97-8.96.59-7.9,4.01-12.24,10.41-14.26,18.86-1.55,6.49-.73,13.19-2.09,19.62-3.15,14.89-11.21,27.6-18.5,40.65-2.75,4.92-5.73,9.21-12.19,9.45-1.43.05-3.97.41-3.42,3.11,1.7,8.4,6.9,11.33,15.55,8.93,4.97-1.38,9.21-4.12,12.63-7.75,3.39-3.6,7.04-5.49,11.95-4.77.87-.75,1.73-1.49,2.6-2.24-2.07-.84-5.29.94-6.27-1.31-1.17-2.68,2.16-4.07,3.56-5.95Z" style="fill: #f4f3e9;"/>
  <path d="M752.11,426.46c.58-.28,1.07-.36,1.21-1.29,1.77-11.66-7.64-23.93-17.07-23.44-6.81.35-13.06,1.98-18.49,5.99-13.57,10.03-15.74,24.72-16.05,40.1,0,8.93.91,17.73,4.03,26.11,4.05,10.88,15.97,15.36,26.36,10.24,4.37-2.16,6.38-5.41,5.84-10.3-.52-4.74-1.4-9.52-1.24-14.25.44-13.14,1.23-26.31,15.39-33.15Z" style="fill: #f4f3e9;"/>
  <path d="M657.27,319.46c-5.3-1.13-9.36,1.62-12.37,5.56-7.12,9.31-7.45,19.72-2.09,29.55,12.68,23.28,32.82,35.37,58.25,37.36,3.22-.28,5.5-.43,7.76-.68,8.32-.92,14.82-5.53,16.24-11.48,1.38-5.8-2.15-11.06-10.32-16-8.58-5.18-17.92-5.79-27.61-5.58-10.96.23-16.27-4.14-18.85-14.81-1.12-4.63-1.99-9.31-2.97-13.97-.98-4.69-2.85-8.86-8.02-9.96Z" style="fill: #f4f3e9;"/>
  <path d="M776.81,728.03c2,.11,3.86-.12,5.89-.71,5.71-1.66,10-5.62,15.02-8.35-1.11-5.36-3.93-4.22-6.57-1.45-3.78,3.97-8.45,5.19-13.58,5.01-31.51-1.13-58.77-10.98-77.45-38.13-1.36-1.98-2.96-3.19-4.94-1.96-1.99,1.24-.15,3.32.27,4.76.61,2.11,1.95,4.09,3.31,5.88,4.76,6.29,9.8,12.11,16.47,16.76,11.21,7.81,22.96,13.64,36.73,14.62,2.76.2,5.08.69,6.34,4.06-27.68.34-48.43-12.88-66.79-31.45,7.71,23.65,27.76,31.77,48.79,38.99-11.47.5-22.54,2.51-33.17-2.14-9.8-4.28-17.87-11.15-25.89-18.14-.19,5.61,5.32,7.64,5.68,12.3-1.7,1.21-3.7-1.61-4.44.25-.88,2.24,1.29,3.55,3.07,4.59,7.22,4.22,14.92,7.33,23.62,9.31-5.5,4.74-10.52,9.55-16.94,10.75-18.86,3.52-36.9,1.61-52.55-10.97-1.06-.85-2.24-2.23-3.31-.62-.8,1.21.24,2.61,1.54,3.28,5.38,2.8,10.14,6.59,15.77,9.07,17.49,7.69,35.34,7.09,50.81-2.66,9.98-6.29,18.71-10.2,30.08-7.39,1.7-.09,3.39-.18,5.09-.27,1.38-2.54,3.98-1.29,5.97-1.94,4.8-6.92,11.85-6.83,19.19-6.48,2.53.12,5.13-1.05,7.56-1.6.6-2.65-3.61-4.1-1.13-6.39,1.97-1.82,3.66.9,5.58,1.01Z" style="fill: #f4f3e9;"/>
  <path d="M615.85,341.74c4.17,4.52,8.53,3.12,12.33-.93,4.49-4.78,5.61-12.76,2.63-18.38-3.65-6.91-10.1-7.23-16.49-6.23-9.51,1.48-19.04,1.99-28.54,1.06-9.83-.96-11.64.52-12.6,12.46.13,11.22,3.46,13.83,14.34,11.2,2.64-.64,5.51-.92,7.83-2.18,7.71-4.17,14.33-3.68,20.5,3.01Z" style="fill: #f4f3e9;"/>
  <path d="M582.77,388.72c6.66-3.96,11.47-9.77,12.38-17.82.52-4.61-.73-8.72-6.09-9.88-6.22-1.35-13.24,1.05-13.81,5.56-.93,7.32-5.57,11.07-11.12,14.43-7.21,4.36-9.41,11.24-9.91,19.05.4,5.33,1.83,10.29,5.32,14.39,4.41,5.17,11.82,3.75,13.95-2.71.7-2.11,1.06-4.52.83-6.72-.78-7.39,2.01-12.48,8.44-16.3Z" style="fill: #f4f3e9;"/>
  <path d="M715.91,641.24c-6.82,1.54-7.08,7.03-6.62,12.4.83,9.78,17.23,25.2,27.05,25.75.45.03.91,0,1.37,0,11.64-.63,20.77-7.41,30.51-12.6,2.1-1.12,2.66-3.47-.59-4.93-3.28-1.47-6.62-2.82-9.06-5.79-2.6-3.16-6.2-2.81-9.36-1.16-2.94,1.54-2.37,4.21-1.55,7.11.92,3.24-.32,6.26-3.25,8.24-1.96,1.33-4.21,1.08-5.61-.59-2.39-2.85-5.48-5.26-5.96-9.49-.43-3.82-1.13-7.7-2.36-11.33-2.34-6.94-7.04-9.32-14.56-7.61Z" style="fill: #f4f3e9;"/>
  <path d="M763.42,606.88c-5.39-.61-10.03-.05-11.96,5.08-2.19,5.81,2.79,7.75,6.47,10.35,7.78,5.5,15.66,10.84,20.62,19.45,1.67,2.89,4.32,5.51,8.38,4.44,9.29-2.44,23.39-26.11,21.34-35.75-.19-.88-.54-1.73-.92-2.55-1.87-4.07-5.65-4.61-9.47-5.07-2.56-.31-4.66.63-5.51,3.01-1.28,3.56.91,6.03,3.29,8.3.33.31.68.63.92,1.01,2.44,3.84,2.37,8.26.13,11.61-3.44,5.16-8.81,3.14-13.71,1.99-4.27-1-4.8-3.63-4.59-7.61.42-7.98-6.42-13.96-14.99-14.26Z" style="fill: #f4f3e9;"/>
  <path d="M796.27,517.71c-2.87.79-4.39,1.73-4.41,4.82-.02,3.86-.48,7.71-.43,11.57.04,3.02.7,6.2,4.13,7.1,3.17.83,5.71-1,7.74-3.31,1.19-1.35,2.49-2.8,3.1-4.44,1.79-4.85,3.32-9.62,9.99-9.35,1.04.04,2.41-1.34,3.17-2.39,5.19-7.18,10.24-14.46,11.2-23.65-.16-1.03-.31-2.07-.47-3.1-4.06-4.75-14.45-7.52-20.08-5.04-5.9,2.6-2.06,8.01-3.11,12.04-.11.43-.01.91-.01,1.36,0,11.25.04,11.41-10.83,14.4Z" style="fill: #f4f3e9;"/>
  <path d="M298.82,336.3c2.69-3.98,4.95-4.93,8.7-3.53,2.83,1.05,5.38,1.19,5.74-2.09.31-2.88-2.16-4.15-5.08-4-1.36.07-2.73.01-4.1.01-14.73.09-21.08,5.27-24.69,20.03-.27,1.09-.9,2.11-1.03,3.21-.85,7.28-5.09,14.16-2.65,21.82,1.12,3.52,3.12,6.17,7.27,5.83,3.26-.27,6.47-1.14,7.56-4.72.89-2.91.3-5.91-.99-8.64-1.58-3.36-1.55-6.97.28-9.79,3.7-5.7,5.11-12.38,8.98-18.12Z" style="fill: #f4f3e9;"/>
  <path d="M508.55,194.12c-1.37.28-2.57.29-3.55.76-10.37,4.96-17.56,13.86-26.06,21.15-1.12.96-1.87,3.06.27,3.87,3.53,1.34,3.33,4.42,4.09,7.19,1.02,3.73,2.44,7.34,5.47,9.94,3.55,3.04,7.03,2.44,10.14-.76,2.86-2.94,6.1-5.73,2.24-10.37-2.19-2.63-4.33-5.18-7.24-7.04-2.66-1.7-3.4-4.34-2.19-7.09,1.26-2.86,3.58-4.47,7.01-4.36,3.63.12,3.48,2.46,3.81,5.08.43,3.43,3.1,4.92,5.89,3.16,3.87-2.44,7.34-6.26,7.12-10.91-.21-4.34-.87-9.75-7-10.62Z" style="fill: #f4f3e9;"/>
  <path d="M294.83,388.84c2.35,1.36,4.88,2.37,7.78,2.35,9.1-.35,13.04-7.07,16.51-13.97,2.76-5.49-1.1-11.24-7.29-10.53-4.75.55-10.14,1.45-10.54,8.29-.15,2.56-.94,4.86-4.58,4.29-1.89-.29-4.43-.31-4.73,2.49-.29,2.74.17,5.51,2.86,7.07Z" style="fill: #f4f3e9;"/>
  <path d="M316.48,423.07c-4.32-.29-7.48,3.32-11.78,2.28-4.78-1.16-7.93,1.59-11.32,4.96,4.48.74,8.53.34,11.75-1.37,11.71-6.24,31.55.81,37.4,10.18,4.18,6.69,4.21,9.87-.96,15.63-1.6,1.78-5.28,3.6-1.81,6.4,2.76,2.22,5.68,1.39,8.42-1.29,2.19-2.14,1.21-5.75,3.93-7.37-1.41-23.64-17.24-28.18-35.63-29.4Z" style="fill: #f4f3e9;"/>
  <path d="M352.37,452.32c-.09.05-.17.1-.25.15,0,.04,0,.07,0,.11.08-.06.15-.12.23-.18,0-.03,0-.05.01-.08,0,0,0,0,0,0Z" style="fill: #f4f3e9;"/>
  <path d="M329.39,643.31c7.04-1.8,2.67-4.6.89-7.26-4.3.26-9.06.28-12.14,3.32-3.19,3.14-6.39,5.15-12.88,4.48,4.65,3.06,7.55,5.14,5.56,9.24.58.58,1.16,1.17,1.75,1.75,4.88,1.99,9.55,4.89,15.23,2.62,6.2-2.48,12.11-5.53,18.83-6.93,4.86-1.01,5.78-5.15,2.82-9.5-1.7,4.2-3.01,8.27-9.43,6.28-1.79-.55-5.23,1.45-7.78,2.35-2.39.84-3.1,1.07-3.78-1.25-.55-1.87-2.03-4.36.94-5.12ZM322.41,655.09c-2.74-.01-5.95-.78-5.62-4.76.15-1.89-1.47-4.91,4.04-6.63,2.09,2.72,4.85,5.18,6.03,8.25.68,1.78-2.75,3.15-4.45,3.14Z" style="fill: #f4f3e9;"/>
  <path d="M367.72,251.52c4.99-.87,11.99,4.21,14.67-4.62.66-2.19,3.32-1.86,5.37-1.74,2.53.15,5.59,1.53,5.54-3.25-.04-3.72.36-7.31-4.71-7.81-2.25-.22-4.5-.34-6.05-.46-11.5-.05-17.82,4.67-17.68,12.89.03,2.01-.3,5.53,2.86,4.98Z" style="fill: #f4f3e9;"/>
  <path d="M786.4,598.95c3.11,1.16,5.97-.51,7.81-2.9,3.49-4.54,7.43-7.77,13.52-7.82,2.42-.02,4.72-1.55,4.55-4.13-.15-2.38-2.77-1.66-4.47-1.89q-9.12-1.25-6.26-10.07c.43-1.34.53-2.56-.84-3.61-1.4-1.07-2.34-.82-3.4.45-5.98,7.22-9.55,15.63-12.65,23.55.95,2.76-.72,5.5,1.74,6.42Z" style="fill: #f4f3e9;"/>
  <path d="M275.64,639.69c-3.08.51-7.29.63-11.05,1.98-4.48,1.61-6.88,4.69-4.31,10.08,3.58,7.49,8.93,10.64,16.92,8.68,4.23-1.03,8.32-2.68,12.48-4.02,2.37-.76,4.14-2.02,3.23-4.81-1.67-5.13-10.95-11.8-17.27-11.92ZM287.15,652.73c-2.49,2.61-6.87,3.31-10.18-.27-2.43,2.89-2.78,10.39-9.36,4.09-1.55-1.48-1.14-2.59-.38-4.06.95-1.83,1.83-1.11,3.08-.24,2.08,1.45,3.15-.12,4.09-1.73h-.03c-2.36.06-3.18-.61-1.26-2.61-.35-1.63-2.34-3.72-.45-4.79,2.29-1.31,5.33-1.19,7.82,0,1.32.63,2.56,2.02,3.19,3.36,1.07,2.28,5.68,3.94,3.47,6.25Z" style="fill: #f4f3e9;"/>
  <path d="M826.18,565.24c.45,3.85,3.6,2.13,5.35,1.98,5.76-.52,8.8,2.49,10.97,7.21,1.75,3.83,5.23,2.93,8.28,2.67,2.92-.25,4.31-2.31,4.51-5.1.24-3.36-1.71-4.86-4.78-5.45-3.13-.6-5.02-2.98-6.86-5.29-2.3-2.89-5.23-4.26-10.02-4-.46.1-2.1.21-3.54.81-3.15,1.3-4.29,3.95-3.91,7.18Z" style="fill: #f4f3e9;"/>
  <path d="M739.15,391.21c3.61-.1,6.4.1,8.91-1.17,1.18-.59,3.57.68,3.44-2.01-.09-1.82-.34-4.52-2.13-4.61-5.26-.27-4.31-3.99-4.7-7.12-.57-4.45-4.13-6.47-8.19-4.1-5.12,2.99-6.4,8.08-5.63,13.61.75,5.39,4.72,5.97,8.29,5.41Z" style="fill: #f4f3e9;"/>
  <path d="M615.3,249.85c2.32,2.75,4.54,5.61,7.07,8.16,1.22,1.23,2.96,2.02,4.95,1.02,1.91-.96,2.44-2.51,2.27-5.54-.16-.48-.58-1.98-1.15-3.42-2.97-7.46-11.1-9.31-16.16-14.55-1-1.04-4.67-1.47-5.74,1.33-.91,2.38-.6,5.18,1.93,6.57,2.89,1.6,4.81,4.03,6.84,6.43Z" style="fill: #f4f3e9;"/>
  <path d="M711.53,754.93c-.1-1.51-1.02-1.69-2.27-1.81-2.93-.27-4.87.87-5.27,3.81-.56,4.17-3.98,4.87-6.94,5.36-12.55,2.07-25.22,4.58-36.88-3.51-1.26-.87-3.08-3.22-4.56-.85-1.65,2.64,2.07,3.68,2.95,3.98,8.04,2.79,15.83,6.86,25.28,6.19,8.57.61,16.79-2.12,24.72-6.38,3.11-1.67,3.16-4,2.97-6.79Z" style="fill: #f4f3e9;"/>
  <path d="M571.68,173.47c2.71-1.04,2.74-4.07,1.73-6.49-1.13-2.7-3.53-2.49-5.73-1.44-5.65,2.7-8.93,7.36-10.61,13.23-.03,5.59,4.12,7.78,8.06,9.9,1.76.94,4.12,1.23,5.48-.89,1.06-1.64.42-3.11-.74-4.86-2.28-3.42-4.26-7.12,1.81-9.46Z" style="fill: #f4f3e9;"/>
  <path d="M303.52,455.16c13.44,1.95,28.4,1.25,32.02,19.26,1.34-.05,2.68-.09,4.02-.14,1.52-2.13,2.13-4.31,1.05-6.93-4.93-12.01-27.78-18.04-37.09-12.19Z" style="fill: #f4f3e9;"/>
  <path d="M513.27,271.01c-.82-1.82-2.09-3.48-3.37-5.04-3.29-4.01-6.33-7.77-6.73-13.59-.44-6.28-5.17-8.98-11.94-8.86.5,3.85,1.99,6.85,3.86,9.6,4.57,6.74,9.37,13.33,13.93,20.08.84,1.24.87,3.49,3.02,2.56,2.01-.87,2-3.06,1.24-4.75Z" style="fill: #f4f3e9;"/>
  <path d="M308.09,596.33c.07-3.67-.9-8.47-8.82-6.9-2.15,1.29-8.8-1.41-9.47,6.12-.62,6.98,4.52,6.96,9.11,7.28,4.74.33,9.08-1.24,9.18-6.51Z" style="fill: #f4f3e9;"/>
  <path d="M369.77,462.9c5.28-.8,7.72,3.36,11,6.07,1.14-6.31-3.51-10.76-9.65-9.11-3.05.82-5.97,2.54-9.04,2.79-3.98.33-7.72-.56-5.09-6.24,1.12-2.42,1.08-4.86-1.04-6.89-1.2.96-2.4,1.91-3.6,2.87-.64,3.19-.43,6.37.05,9.56,3.08.82,5.69,2.67,9.17,2.82,4.08.18,3.61,3.69,2.96,6.68,3.36.58,4.75-.38,2.98-3.82-1.6-3.11-.96-4.25,2.26-4.74Z" style="fill: #f4f3e9;"/>
  <path d="M665.6,665.54c1.32-.53,2.14-3.87,3.93-1.48,4.48,5.96,9.38,2.5,15.49,1.6-2.68-2.31-4.3-3.27-5.35-4.67-3.77-5.06-7.92-5.22-12.69-1.52-1.05.81-2.28,1.65-3.53,1.88-2.56.48-3.74,2.42-2.94,4.2,1.21,2.71,3.28.72,5.08-.01Z" style="fill: #f4f3e9;"/>
  <path d="M671.69,314.69c2.97-.31,6.66.06,7.53-2.56.95-2.89-2.43-4.4-4.77-5.67-1.78-.97-3.67-1.8-5.6-2.41-3.04-.97-5.58-.05-6.45,3.13-.81,2.98.33,5.42,3.57,6.3,1.96.54,3.98.84,5.73,1.2Z" style="fill: #f4f3e9;"/>
  <path d="M245.78,642.02c-4.3.7-9.65-.74-9.87,6.74-.19,6.22,4.52,6.05,8.03,6.14,4.49.12,9.28-1.1,9.59-7.01.27-5.27-3.1-6.37-7.75-5.87ZM250.4,647.96c.1,3.04-1.4,4.63-3.8,4.1-3.68-.31-7.65.13-7.48-3.8.19-4.5,4.92-2.74,7.63-3.68,2.88-.99,3.59,1.24,3.65,3.38Z" style="fill: #f4f3e9;"/>
  <path d="M548.07,583.69c6.93,1.01,10.07-4.45,14.16-8.29.7-3.35,5.93-1.29,6.27-5.17-9.55-.53-15.29,3.27-20.43,13.46Z" style="fill: #f4f3e9;"/>
  <path d="M748.63,636.42c7.82,1.06,8.44.64,7.58-8.29-7.32,4.52-15.68,4.78-23.56,6.96,5.37.66,10.72.62,15.98,1.33Z" style="fill: #f4f3e9;"/>
  <path d="M315.07,594.71c3.76.72,4.95-1.98,5.22-5.05.3-3.47-2.14-4.57-5.18-4.67-3.85-.12-6.03,1.91-5.91,5.6.1,3.27,2.56,4.36,5.88,4.11Z" style="fill: #f4f3e9;"/>
  <path d="M269.75,594.41c-3.17-.2-4.8,1.26-4.83,4.22-.03,3.26,1.91,4.89,4.26,4.96,3.66-.13,5.95-1.14,5.88-4.27-.07-3.19-2.07-4.71-5.31-4.91Z" style="fill: #f4f3e9;"/>
  <path d="M739.94,595.63c2.95.5,6.89-.93,6.33-2.92-1.01-3.59-4.86-5.77-8.97-5.92-1.33-.05-3.53-.53-2.99,2.77.61,3.66.76,6.84,5.63,6.07Z" style="fill: #f4f3e9;"/>
  <path d="M658.35,697.71c1.24,1.77,2.32,3.93,5.15,4.77-.88-4.98,3.76-8.43,3.38-14.24-3.22,1.93-2.68,6.65-7.37,5.21-1.68-.51-2.26,2.68-1.16,4.26Z" style="fill: #f4f3e9;"/>
  <path d="M756.91,439.99c-2.62,6.17-2.12,10.44,3.51,14.31.41-5.51-.82-9.53-3.51-14.31Z" style="fill: #f4f3e9;"/>
  <path d="M162.32,498.02c12.67-.16,25.34-.37,38.01-.58.03-.48.05-.96.08-1.44h-40.56c.8,1.56,1.64,2.02,2.47,2.01Z" style="fill: #f4f3e9;"/>
  <path d="M506.47,564.87c-.39,2.11-.79,4.22-1.18,6.33.51,1.64-.13,4.57,3.19,3.21,2.24-.92,3.85-2.62,2.21-5.14-1.09-1.67-1.29-4.42-4.21-4.4Z" style="fill: #f4f3e9;"/>
  <path d="M630.6,650.41c-4.27,6.04-2.81,10.13,0,14.18v-14.18Z" style="fill: #f4f3e9;"/>
  <path d="M580.45,727.48c.11.84.21,1.68.32,2.52,2.77,2.29,5.85,1.17,9.04,1.18-1.54-6.1-5.77-4.04-9.36-3.7Z" style="fill: #f4f3e9;"/>
  <path d="M845.17,617.78c1.91-2.61,6.42-1.29,7.9-5.12-4.71-1.47-7.04,2.87-10.61,3.69.63.98,1.48,1.56,2.7,1.42Z" style="fill: #f4f3e9;"/>
  <path d="M786.2,544.37c-2.03,1.23-5.32,2.02-3.02,6.08,1.5-2.43,5.65-1.43,5.65-5.09,0-1.47-1.8-1.5-2.63-.99Z" style="fill: #f4f3e9;"/>
  <path d="M1032.87,490.81c-3.17.27-2,2.5-1.69,4.06,1.71,8.72-1.5,16.1-6.37,22.89-3.44,4.79-7.73,8.99-10.95,13.9-2.92,4.45-7.47,8.37-7.08,15.26,10.63-11.58,21.4-21.99,27.98-35.81,2.73-5.73,1.69-11.56,1.8-17.39.04-2.21-1.52-3.11-3.69-2.92Z" style="fill: #f4f3e9;"/>
  <path d="M991.11,500.71c-1.26,1.22-3.41,2.34-1.6,4.32,1.5,1.64,2.94-.3,4.07-1.09,10.73-7.46,17.8-17.13,18.13-31.92.38-2.96,0-7.03-1.22-10.95-.66-2.14-2.55-3.36-4.78-2.45-2.85,1.16-1.95,2.99-.4,4.78,2.11,2.45,1.92,5.4,1.75,8.37-.69,12.21-7.65,20.93-15.95,28.92Z" style="fill: #f4f3e9;"/>
  <path d="M367.16,444.63c-1.05-.23-1.44,1.04-1.45,1.91-.05,4.35,3.71,4.83,6.66,6.09-1.75-2.84-1.18-7.13-5.2-8Z" style="fill: #f4f3e9;"/>
  <path d="M773.08,287.13c12.24,3.94,24.59,6.31,37.11,1.33,3.52-1.4,6.62-4.12,6.28-8.1-.39-4.55,2.05-6.27,5.26-8.22,4.44-2.69,9.21-5.37,9.95-11.26.21-1.68,1.38-4.22-1.67-4.99-3.01-.76-3.19,1.51-3.79,3.49-1.68,5.48-5.62,8.66-10.95,10.19-6.79,1.95-13.64,3.3-20.8,2.43-3.87-.47-3.89-.29-8.36,2.14,7.51,1.84,14.19,3.61,21.33,3.11,1.89-.13,4.82-2.78,5.6.89.58,2.7-1.89,4.22-4.33,5.34-6.27,2.9-12.72,2.8-19.35,1.83-6.2-.91-12.44-1.58-19.3-2.43.56,1.83.57,2.38.84,2.65.65.62,1.36,1.34,2.17,1.61Z" style="fill: #f4f3e9;"/>
  <path d="M824.05,253.09c7.81-1.2,14.77-7.3,15.52-13.2.3-2.32-.12-4.18-2.56-4.8-3.1-.78-2.49,1.66-2.62,3.35-.34,4.49-3.04,6.61-7.13,7.89-5.02,1.57-10.06,2.63-15.33,2.7-4.87.06-9.67.62-14.23,2.82,8.77,2.41,17.55,2.59,26.34,1.24Z" style="fill: #f4f3e9;"/>
  <path d="M815.56,222.23c-.04,1.09-.09,2.18-.13,3.28,6.73.62,13.37-.46,20-1.32,8.5-1.1,14.06-6.61,18.77-13.14,1.3-1.8,1.22-3.77-1.18-5.07-2.63-1.43-3.47.53-3.7,2.24-.7,5.23-4.61,6.83-8.71,8.39-8.08,3.08-16.58,4.28-25.04,5.62Z" style="fill: #f4f3e9;"/>
  <path d="M840.29,204.04c5.3-4.06,5.65-6.55,3.59-13.14-8.46,16.4-23.77,16.38-40.13,17.09,15.85,8.24,27.71,2.8,36.54-3.95Z" style="fill: #f4f3e9;"/>
  <path d="M794.45,309.19c5.49-1.49,7.97-5.51,9.35-10.53.41-1.48-.3-2.67-1.75-3.21-.93-.34-1.45.13-2.05,1.04-5.85,8.89-8.81,9.98-18.54,7.68-4.57-1.08-9.26-1.66-15.71-2.79,9.27,8.43,18.32,10.62,28.69,7.8Z" style="fill: #f4f3e9;"/>
  <path d="M502.45,636.95s-.08,0-.11,0c0,.03.01.06.02.1l.09-.09Z" style="fill: #f4f3e9;"/>
  <path d="M498.91,631.03c-.4-.07-1.26.71-1.38,1.22-.46,2.01.6,3.44,2.29,4.31.72.37,1.66.29,2.51.39-.19-.83-.25-1.73-.64-2.46-.7-1.32-.95-3.15-2.78-3.45Z" style="fill: #f4f3e9;"/>
  <path d="M502.92,637.61c-.15-.15-.29-.3-.44-.44.02.11.04.21.09.3.05.09.23.1.35.14Z" style="fill: #f4f3e9;"/>
  <path d="M502.45,636.95s-.09.09-.09.09c.04.04.09.09.13.13-.01-.07-.02-.15-.03-.22Z" style="fill: #f4f3e9;"/>
</svg>