<?xml version="1.0" encoding="UTF-8"?>
<svg id="Camada_1" data-name="Camada 1" xmlns="http://www.w3.org/2000/svg" viewBox="0 0 618.05 875.34">
  <path d="M108.26,3.76H0v4.18s6.88.42,20.64,9.2c13.76,8.78,11.01,46,11.01,92s2.75,107.47-3.67,121.27c-8.02,17.24-27.98,15.47-27.98,15.47v5.02h119.73c42.66,0,127.07-42.24,127.07-127.96S146.34,3.76,108.26,3.76ZM123.4,240.94c-45.42,9.2-60.5,7.2-62.85-14.22-.46-4.18,0-15.47,0-25.09V41.89c0-28.02,4.59-38.05,51.38-31.36,46.79,6.69,105.97,46.11,105.97,114.16s-49.09,107.05-94.5,116.25Z" style="fill: #333120;"/>
  <path d="M565.04,839.58c-8.35-21.95-79.97-211.07-79.97-211.07h-56.85l.32,3.76s8.73.48,12.2,3.37c4.02,3.35,10.68,10.43,7.39,21.72-4.29,14.71-66.48,183.16-75.15,198.84-8.67,15.68-26.98,13.17-26.98,13.17v5.96h63.27v-4.7s-2.95-.74-6.95-2.08c-.09-.03-6.68-2.52-9.59-7.8-2.92-5.31-.48-14.11,4.98-18.66,5.46-4.55,52.19-51.59,66-64.14,13.81-12.55,19.11-19.45,26.98-20.07,7.87-.63,11.14,7.04,11.14,7.04h0c5.65,14.7,10.4,27.1,13.11,34.21,11.24,29.48,20.88,45.79,14.77,57.71-6.1,11.92-21.52,13.17-21.52,13.17v5.33h88.32v-5.96c-14.77,0-23.12-7.84-31.47-29.8ZM483.14,750.98c-5.14,6.43-77.24,76.06-82.06,79.19-4.82,3.14-11.62-1.57-8.83-9.07.08-.22.16-.43.24-.65l1.27-3.4c21.79-58.22,63.68-167.53,63.68-167.53,0,0,16.34,42.45,31.96,83.07h0c.81,5.92-1.13,11.96-6.27,18.39Z" style="fill: #333120;"/>
  <path d="M457.5,0c-72.72,0-131.68,57.01-131.68,127.33s58.95,127.33,131.68,127.33,131.68-57.01,131.68-127.33S530.23,0,457.5,0ZM458.15,249.23c-74.94,0-99.77-65.24-99.77-122.53,0-61.47,30.4-120.85,101.49-120.85s98.06,74.02,98.06,120.85-24.84,122.53-99.77,122.53Z" style="fill: #333120;"/>
  <path d="M239.26,641.68c7.71-9.1,20.88-7.53,20.88-7.53v-5.65h-84.79v5.02s11,1.02,18.71,6.04c7.71,5.02,10.52,16.23,10.52,30.97v58.54c0,10.98-9.85,19.44-16.38,20.47-6.53,1.02-39.82.65-57.81.65s-53.85.1-61.66-1.25c-7.81-1.36-12.53-12.86-12.53-19.13v-50.49c0-22.89,0-28.54,7.71-37.64,7.71-9.1,20.88-7.53,20.88-7.53v-5.65H0v5.02s11,1.02,18.71,6.04c7.71,5.02,10.52,16.23,10.52,30.97v144.9c0,28.85.32,37.64-5.78,45.79-6.1,8.15-23.44,10.35-23.44,10.35v3.76h84.79v-4.08s-12.28-1.25-19.99-7.21c-7.71-5.96-8.59-16.62-8.59-36.07v-52.69c0-9.83,10.17-20.6,19.59-20.6s97.85-.73,111.34,0c13.49.73,17.45,16.62,17.45,16.62v44.12c0,28.85.32,37.64-5.78,45.79-6.1,8.15-23.44,10.35-23.44,10.35v3.76h84.79v-4.08s-12.28-1.25-19.99-7.21c-7.71-5.96-8.59-16.62-8.59-36.07v-148.66c0-22.89,0-28.54,7.71-37.64Z" style="fill: #333120;"/>
  <path d="M0,332.13v5.25s17.02,1.02,24.1,10.22c7.07,9.2,6.63,12.34,6.63,27.81s0,73.81,0,98.69c0,24.88,6.85,62.31,31.62,81.75,24.76,19.45,45.32,27.18,71.19,26.97,25.87-.21,61.66-6.4,84.9-44.95,11.72-19.45,11.72-28.23,11.72-58.13,0-29.9,0-96.18,0-113.12,0-16.94,14.81-30.95,30.07-29.9v-4.6s-64.78,0-64.78,0v4.39s13.93.21,21,7.32c7.07,7.11,7.74,12.55,7.74,21.33s0,98.9,0,120.64c0,21.75-16.8,71.3-76.94,71.3-60.13,0-77.38-30.79-84.68-50.18-3.54-9.41-3.32-30.74-3.32-47.67,0-16.94,0-80.71,0-95.55s8.18-24.67,28.52-26.97v-4.6S0,332.13,0,332.13Z" style="fill: #333120;"/>
  <g>
    <path d="M269.16,377.53s.02.01.03.02c0-.02,0-.03,0-.05l-.03.03Z" style="fill: #333120;"/>
    <path d="M591.57,364.26s-.02.06-.03.09c.03,0,.05,0,.08,0,0,0-.05-.09-.05-.09Z" style="fill: #333120;"/>
    <path d="M583.08,386.19c-.33.56-.77,1.06-1.08,1.62-.33.59-.55,1.37,0,1.8.61.47,1.2-.06,1.64-.58.16-.19.27-.41.42-.6,4.71-6.32,6.8-13.28,5.14-21.16-.1-.5-.51-1.23.09-1.58.7-.42,1.21.28,1.66.7,1.94,1.78,2.42,4.16,2.65,6.63.51,5.46-1.63,10.2-3.98,14.9-.36.73-1.27,1.66-.1,2.24,1.16.57,1.37-.72,1.79-1.44,2.36-4.09,3.89-8.47,4.39-13.5,2.31,2.09,2.49,4.47,2.4,6.93-.34,9.3-3.73,17.43-9.43,24.68-.64.81-1.47,1.53-1.22,3.09,7.71-6.72,11.6-15.09,12.66-24.96,1.89,3.17,1.78,6.29.23,9.35-1.39,2.74-2.95,5.38-4.43,8.07.1.59-.02,1.26.65,1.62,2.49-2.64,4.46-5.59,5.52-9.1.23-.75.29-1.74,1.42-1.69,1.22.06,1.25,1.03,1.38,1.94.9,5.99-.93,11.2-4.77,15.68-3.66,4.27-7.29,8.58-11.91,11.93-.91.66-1.89,1.52-2.32,2.71.27.01.54.03.81.04,8.58-5.54,16.46-11.67,19.33-22.2.19-.7.05-2.08,1.5-1.73,1.14.28,1.8,1.07,1.75,2.32-.09,2.5-.78,4.8-2.39,6.74-3.74,4.51-6.94,9.52-11.91,12.88-.47.32-.72.76-.44,1.22.31.51.87.32,1.31.09.5-.27.97-.6,1.45-.91,4.12-2.77,7.42-6.35,10.34-10.32.47-.64,1.03-1.55,1.94-1.1.88.43.99,1.45.76,2.38-.15.63-.38,1.24-.64,1.83-1.99,4.47-5.71,7.21-9.71,9.65-2.59,1.58-5.24,3.07-7.86,4.61l.33.55c6.76-1.52,11.68-6.14,16.94-10.31-1.17,7.96-8.72,8.74-14.39,12.27,4.85-.13,8.34-2.7,12.56-4.48-.82,2.54-2.37,3.91-4.1,5.1-3.47,2.4-7.5,3.41-11.45,4.6-.84.25-1.45,0-1.39-1.06.03-.57.04-1.14.02-1.71-.04-.87-.63-1.47-1.37-1.44-.98.04-.65,1.02-.57,1.56.35,2.49.05,4.99-.34,7.38-.64,3.91-4.17,6.02-6.34,8.98.12.03.27.11.43.11.24,0,.53.05.72-.05,3.69-1.98,6.83-4.44,7.47-8.94.1-.73.18-1.44.53-2.11.83-1.59,2.39-2.17,3.88-1.85,1.48.32,1.17,1.9,1.08,3.13-.32,4.32-2.22,7.95-4.89,11.25-1.68,2.08-3.35,4.17-5.03,6.25.19.12.38.24.56.36,5.71-5.12,10.84-10.6,10.67-19.09-.04-1.88.47-3.26,2.21-3.91,3.09-1.14,5.85-2.84,8.57-4.63.49-.33.95-.65,1.53-.23.83-3.01.28-6.36,2.47-9.04.72-.89.83-2.35-.06-3.19-1.37-1.3-.72-2.38-.15-3.66.9-2.04,1.31-4.22-.68-5.79-1.17-.93-.93-1.6-.45-2.63,1.17-2.49,1.34-4.99-.23-7.41-.78-.39-1.6-.71-2.32-1.18-1.16-.76-1.71-1.69-.38-2.83-.67-.43-.58-1.14-.64-1.78-.98-.74-1.36-1.88-1.92-2.9-1.05-.85-1.14-1.98-1.2-3.25-.09-1.89.24-4.17-1.38-5.45-2.41-1.9-2.9-4.32-2.85-7.08-1.52-.59-1.77-2.1-2.41-3.34-1.46-.89-2.25-2.24-2.64-3.87-.45-1.84-1.29-3.46-2.89-4.59-.2-.06-.55.03-.46-.33-1.29.12-2.37-.2-2.98-1.48-2.39-1.2-2.63-3.84-3.86-5.81-1.03-.31-1.64-2.37-2.72-1.37-1.18,1.1.59,2.07,1.17,2.95,6.12,9.22,5.44,18.39-.07,27.56Z" style="fill: #333120;"/>
    <path d="M599.4,508c-.34,1.55-1.5,2.41-2.97,2.95-8.59,3.14-16.53,1.19-24.28-2.9-2.16-1.14-1.94-3.76-3.67-5.08-.15-.01-.29-.03-.44-.04-.29.05-.59.1-.88.15.28,1.27,1.95,1.97,1.46,3.56.71,2.49.05,4.62-2.11,6.14-1.05.74-1.74,1.51-1.45,2.81-.83-.75-1.19.35-1.72.63-1.01.54-1.72,1.65-3.07,1.51-1.97,2.99-5.62,2.56-8.38,4.01,1.39.13,2.68-.71,4.03-.06,3.36-1.53,7.19-2.32,9.22-5.92.84.22,1.3-.29,1.77-.88.36-.45.9-.92,1.43-.45.58.52-.04.95-.37,1.41-3.15,4.31-7.61,6.5-12.62,7.8-.06.59-.74.45-.98.83,4.14.7,7.34-1.29,10.34-3.71,1.15-.93,1.69-.71,2.45.45,1.61,2.44,1.3,3.94-.88,5.97-3.63,3.37-7.83,5.12-12.75,5.2-1.53.03-2.8,1.17-4.41.97-.86-.11-1.78.13-2.53-.52-.78.41-1.89-.36-2.47.72,1.27.12,2.38.77,3.72.83,5.32.24,10.37-.72,15.13-3.1.75-.38,1.31-.57,1.94.09.71.74.11,1.3-.22,1.92-1.03,1.91-2.9,2.74-4.73,3.54-3.55,1.55-7.33,2.02-11.18,2.16,2.57,1.18,5.15,1.16,7.79.35,1.37-.42,2.75-.94,4.23-.61,1.2-.84,2.42-1.64,3.6-2.52,1.41-1.05,2.88-2.34,2.49-4.19-.4-1.89.03-3.08,1.5-4.17.49-.36.92-1.01,1.06-1.6.46-1.89,1.35-1.55,2.58-.71,2.24,1.53,4.78,1.9,7.45,1.81,1.02-.03,1.71-.24,2.09-1.25.15-.39.39-.83.1-1.15-.76-.85-1.56-.04-2.23.17-1.06.34-2.01.61-2.99-.11-3.65.71-5.48-2.35-8.04-3.89-.4-.24-.32-.65-.02-1.03.49-.63.92-.32,1.45-.04,2,1.06,4.03,2.08,6.04,3.12,1.38-.27,2.75,0,4.13.03,2.08.04,4.28.29,5.81-1.65-.24-1-.23-.98-1.67-.56-4.23,1.23-8.35.95-12.11-1.42-1.09-.68-2.82-1.26-2.1-3.41.49-1.44.87-1.73,2.28-.97,5.6,3.01,11.57,4.15,17.89,3.04,1.5-.33,3.08-.58,2.98-2.69-7.32,2.96-14.2,1.91-20.75-2.24-2.4-1.52-2.68-2.47-1.43-4.96,6.41,5.76,14.11,6.61,22.21,5.87,1.12-.88,2.57-.82,3.82-1.31,3.44-1.34,4.09-2.27,3.98-5.94-.89-.21-1.28.09-1.49,1.04Z" style="fill: #333120;"/>
    <path d="M550.5,542.3c-4.05.15-8.11.36-12.18.04,1.12.8,2.32,1.2,3.6,1.38,3.49.5,6.98.48,10.47,0,.89-.12,1.66-.15,1.91.91.24.99-.35,1.53-1.17,1.87-.45.19-.93.3-1.41.41-6.49,1.51-12.93,1.14-19.34-.52-1.76-.46-3.53-.89-5.47-1.37.48,1.39,1.43,1.74,2.45,2.08,4.21,1.36,8.49,2.17,12.93,1.92.52-.03,1.19-.09,1.28.76.09.78-.48.99-1.01,1.15-6.19,1.87-12.04,1.01-17.78-1.88-2.01-1.01-3.65-2.55-5.71-3.42-1.59-.26-1.9-1.66-2.49-2.82-.17-.2-.33-.39-.5-.59-1.91.35-2.53-1.59-3.89-2.31-.5,1.11.46,1.83.52,2.73,2.47,2,4.43,4.5,7.25,6.2,5.94,3.59,12.27,5.01,19.1,4.55,1.86-.13,3.57-1.18,5.5-.85-.17-1.71.91-2.55,2.29-2.94,1.32-.36,2.72-.43,4.09-.6,1.91-.24,3.85-.6,4.53-2.7.65-2.01,1.96-3.07,3.86-3.69,1.71-.55,2.4-1.62,1.42-3.35-2.94,2.67-6.61,2.9-10.28,3.04Z" style="fill: #333120;"/>
    <path d="M512.12,561.16c-1.54-.72-3.19-1.27-4.61-2.19-3.53-2.3-6.95-4.8-8.57-8.94-.18-.46.2-1.16-.75-1.04-.89.11-.68.79-.65,1.3.1,1.72,1.22,2.95,2.1,4.32,1.76,2.74,4.47,4.53,7.05,6.78-2.01.83-3.22-.1-4.4-.86-3.43-2.22-6.03-5.18-7.6-9-.29-.72-.36-1.66-1.39-1.78-.35-.04-.65.33-.55.64.26.85-.9,1.42,0,2.61,2.16,2.82,3.77,6.07,6.73,8.24.32.24.61.62.38,1.05-.23.44-.66.34-1.07.26-2.51-.47-7.01-4.75-7.19-7.41-.2-2.91-1.3-2.23-2.93-1.16.79,1.07,2.02,1.86,1.56,3.38,1.3,2.38,2.83,4.68,5.26,5.92,2.63,1.35,5.17,4.44,8.58,1.38.14-.13.47-.07.72-.06,4.8.12,9.62-.32,14.38.58,0-.81-.02-1.62-.02-2.43-2.49.08-4.72-.96-7.04-1.6ZM502.16,564.08c-.72-.18-1.47-.42-1.6-1.28-.09-.58.44-.61.83-.52.72.17,1.41.43,1.62,1.27-.05.57-.41.64-.85.52Z" style="fill: #333120;"/>
    <path d="M467.5,560.37c-3.83-.54-6.5-3.31-9.8-4.86,1.06,3.77,4.86,4.33,7.61,6.93-4.35-.14-7.91-.86-11.16-2.94-2.76-1.76-5.34-3.71-7.57-6.12-.37-.41-.91-1.18-1.59-.45-.78.83.25,1.15.65,1.46,3.35,2.65,5.88,6.39,10.19,7.79.37.12.76.29.53.93-5.45-.35-9.7-3.02-13.28-7.06.42,2.58,1.92,4.29,3.82,5.73,2.53,1.91,5.59,2.67,8.43,3.92,7.48-.34,14.83-1.54,22.13-3.11.63-.14,1.54-.24,1.45-1.3-3.84.12-7.62-.36-11.42-.9Z" style="fill: #333120;"/>
    <path d="M394.63,610.92c-.46-.59-1.09-.93-1.67-.52-.67.48-.26,1.12.13,1.7.72,1.1,1.94,1.9,2.24,3.41-4.08.45-6.56-1.78-8.75-4.57-.53-.67-.92-2-1.9-1.53-1,.49.04,1.58.03,2.41,0,.11-.19.22-.31.35-1.02-.08-1.52-.81-1.98-1.6-1.26-2.16-1.89-4.48-1.94-6.99-.01-.71.58-1.81-.59-2.05-1.32-.27-1.56.93-1.85,1.84-.82,2.57.35,4.74,1.45,6.92,1.14.42,1.23,1.69,1.96,2.45.89.31,1.2,1.58,2.4,1.42,2.06-.27,3.64.68,5.16,1.94,1.35,1.12,3.18,2.17,4.66,1.05,2.11-1.61,3.84-.95,5.92-.27,1.32.44,3.24.93,3.34-1.64-1.82-.08-3.62-.14-5.23-1.19-1.26-.82-2.17-1.96-3.06-3.12Z" style="fill: #333120;"/>
    <path d="M612.37,467.37c-4.99,7.55-11.01,14.07-19.27,18.24-2.39,1.21-4.61,2.76-7.26,4.36.76.14.99.23,1.23.23,1.05-.03,1.7-.89,2.59-1.27,9.29-3.98,16.71-10.3,22.77-18.31.96-1.27,1.09-3.12,2.71-3.93.61-2.7,1.24-5.39,1.81-8.1.35-1.69-.07-2.94-2.08-3.06.54,4.24-.15,8.31-2.49,11.85Z" style="fill: #333120;"/>
    <path d="M440.61,561.55c2.16,1.68,1.36,2.46-.68,3.55-4.77,2.55-7.94,6.68-10.23,11.49-.57,1.19-.91,2.43,1.19,2.34.39-.71.82-1.4,1.15-2.13,1.7-3.76,4.71-6.35,7.88-8.77,3.64-2.77,7.54-2.26,11.57-.86,1.03.36,2.74.62,2.9-1.45-5.66-.04-10.12-2.84-14.28-6.27-.72.97-.14,1.6.5,2.1Z" style="fill: #333120;"/>
    <path d="M609.91,490.38c-7.29,5.24-15.17,8.7-24.38,8.29-.71-.03-1.42.08-2.13.12.02.23.04.45.06.68,5.08.14,10.18,1.13,15.23-.65,4.47-1.58,8.39-4.21,12.46-6.54,1.03-1.02,2.17-1.97,3.08-3.09,1.59-1.96,3.11-4.01,1.9-6.78-1.83,2.85-3.36,5.93-6.22,7.98Z" style="fill: #333120;"/>
    <path d="M617.7,470.52c-.11-.52-.34-.93-.97-.82-.81.14-.72.78-.66,1.33.4,4.03-1.68,6.68-4.65,9.07-6.49,5.23-14.01,8.38-21.73,11.15.01.26.03.52.04.78,3.01-.24,5.86-1.01,8.67-2.12,5.49-2.17,10.13-5.71,14.9-9.04.73-.51,1.3-1.26,2.33-.86-.32-1.19.67-1.89,1.08-2.8.95-2.15,1.87-4.28.99-6.69Z" style="fill: #333120;"/>
    <path d="M610.66,496.59s.06-.05.06-.05c-.02,0-.04.02-.06.03,0,0,0,.01,0,.02Z" style="fill: #333120;"/>
    <path d="M608.63,496.18c-3.15,4.72-7.77,7.23-13.05,8.79-3.68,1.09-7.4,1.25-11.28.4.28,1.17.93,1.37,1.67,1.58,1.91.54,3.83.62,5.8.58,3.56-.09,6.73-1.73,10.13-2.41,2.83-2.37,5.89-4.49,8.09-7.53.15-.39.23-.83.67-1.01-.35-1.75-1.06-1.84-2.02-.39Z" style="fill: #333120;"/>
    <path d="M528.24,559.83c-2.65.55-5.29.66-7.97.18-6.08-1.08-9.78-5.64-13.98-9.49-.49-.36-.99-.72-1.48-1.08-.63.35-.31.76-.09,1.18,1.48,2.86,3.65,5.08,6.33,6.8.96.62,1.91,1.18,2.36,2.3,2.06,1.39,4.7,1.41,6.74,2.84.3.07.6.13.9.2.45-1.08,1.4-.58,2.12-.59,2.11-.05,4.22-.06,6.31-.43.13-.17.27-.34.4-.52,0,0-.04.05-.04.05.73-1.87-.56-1.67-1.6-1.45Z" style="fill: #333120;"/>
    <path d="M539.24,556.17c-1.38.79-2.88,1.08-4.44,1.16-5.81.28-11.32-.78-16.54-3.43-1.31-.67-2.64-1.89-4.61-.98,2.58,2.41,5.28,4.11,8.48,4.99,3.97,1.08,8.02,1.33,12.1,1.46,1.52-.18,3.05-.37,4.57-.55.14-.75.87-.9,1.34-1.32.5-.44,1.09-.88.52-1.61-.58-.74-.99.03-1.42.27Z" style="fill: #333120;"/>
    <path d="M593.55,471.58c.7-.4,1.53-.67,2.09-1.21,6.32-6.12,11.1-13.2,13.47-21.77.04-.48.08-.95.11-1.43-.27-1.7.49-3.77-1.84-4.95,0,.92,0,1.69,0,2.46-.02,1.77.31,3.61-.34,5.3-1.76,4.55-3.97,8.87-6.71,12.94-2.21,3.28-5.28,5.71-7.8,8.67.34,0,.68,0,1.02-.01Z" style="fill: #333120;"/>
    <path d="M579.86,362.17c.03,2.95,0,5.9,0,8.85,1.37-2.06,1.86-4.28,1.95-6.64.13-3.39-.99-6.57-1.44-9.86-1.21-1.41-2.29-2.95-3.67-4.17-.98-.87-2.29-2-3.67-.34,4.64,2.73,6.76,6.88,6.82,12.17Z" style="fill: #333120;"/>
    <path d="M560.88,346.56c3.74,3.02,5.18,7.11,5.5,11.77.2,2.89.13,5.78.12,8.71,1.06-.19,1.51-.61,1.58-1.49.13-1.86.37-3.71.26-5.6-.26-4.55-2.08-8.63-3.63-12.79-.88-.72-1.76-1.43-2.64-2.15-.55.38-1.13.5-1.76.22.04.49.09.93.58,1.33Z" style="fill: #333120;"/>
    <path d="M560.23,345.2s.05.02.07.03c0-.04,0-.08,0-.12,0,0-.02.03-.04.06l.04-.06s-.04,0-.07,0c0,.03,0,.06,0,.09h0Z" style="fill: #333120;"/>
    <path d="M422.46,603.82c-.71,1-1.52,1.85-2.81,2.1-1.71.33-3.18-.1-4.5-1.21-.48-.41-1.05-1.09-1.67-.7-.65.41-.18,1.13.03,1.74,1.05,3.09,1.56,3.43,5.2,3.24.8-.07,1.64-.01,2.39-.25,1.84-.59,3.01-1.99,3.32-3.82.25-1.48-1.32-.68-1.96-1.11Z" style="fill: #333120;"/>
    <path d="M417.58,610.71c-3.14,1.72-3.32,1.7-5.5-1.17-.88-1.16-1.79-2.29-3.14-3.23-1.01,3.3.82,5.39,2.83,7.4,1.87,1.13,3.77,1.1,5.72.2.74-.34,1.54-.6,1.6-1.58.06-1.04-.76-1.31-1.5-1.62Z" style="fill: #333120;"/>
    <path d="M427.1,582.28c-.62,1.78-1.74,2.9-3.45,3.47-.76.25-1.49.45-1.19,1.42.29.95,1.01,1.07,1.95.81,1.15-.32,2.26-.97,3.53-.69,2.23-1.6,2.52-3.94,2.45-6.41-1.81-1.19-2.78-.06-3.29,1.41Z" style="fill: #333120;"/>
    <path d="M433.9,466.63c-2.31,1.01-5.58.84-8.18,1.43-2.98.68-5.92,1.49-8.85,2.37-5.68,1.71-11.46,3.77-16.96,5.6-2.2.73-4.36,1.61-6.52,2.45-1.56.61-1.69.55-1.69-.5.13-1.73.2-2.95.31-4.16.06-.69.39-1.38,1.03-1.56,2.95-.81,5.09-2.95,7.48-4.63,12.49-8.75,26.3-18.01,41.16-22.14-.22,1.29-1.02,1.69-1.5,2.32-1.88,2.46-1.99,4.39-.32,6.93,1.6,2.44,6.95,3.71,9.49,2.26.58-.33,1.15-.74,1.1-1.47-.06-.76-.75-1.04-1.36-1.23-1.81-.57-2.95-1.5-2.76-3.65.31-3.49,3.4-5.65,4.15-8.91.05-.2.55-.31.85-.44,1.94-.8,3.89-1.58,5.83-2.38,1.08,4.97,5.26,7.5,10.79,6.54,3.14-.54,6.05-1.86,9.07-2.81,4.14-1.29,6.39-4.28,7.74-8.16.97-2.77,1.05-5.67.47-8.46-1.01-4.86-2.01-9.7-7.45-12.05-7.38-3.18-14-1.92-20.17,2.75-2.97,2.25-3.92,6.25-2.71,9.69.47,1.33,1.27,1.97,2.68,2.06,4.03.26,7.48-.53,9.31-4.66.26-.59.69-1.11,1.1-1.61,1.61-1.95,3.85-2.6,5.88-1.72,2.22.96,3.57,3.3,3.25,5.74-.33,2.56-1.78,4.35-4.03,5.47-1.54.77-3.23,1.03-4.94,1.2-2.83.28-5.95.16-8.1,2.21-2.32,2.23-5.16,2.83-7.98,3.77-1.33.45-1.97.46-2.07-1.11-.15-2.29-1.82-2.1-3.39-1.97-1.98.16-1.45,1.63-1.33,2.77.19,1.78-.32,2.69-2.21,3.33-10.2,3.49-20.31,7.25-30.23,11.47-6.53,2.78-12.67,6.33-18.73,10.01-.79,1.07-2.06,1.31-3.15,1.87-2.21,1.71-2.28,1.69-3.78-1.46-.66-.31-1.25-.68-1.38-1.48-.42-.33-.83-.67-1.25-1-.57.13-.87-.08-.86-.68-1.27-1.33-3.14-1.61-4.67-1.69-2.58-.12-3.97-1.28-5.06-3.38-.77-1.5-1.65-3.36-3.15-3.85-2.49-.82-4.66-2.16-7-3.21q-1.42.34-2.74-.57c-.71,1.85-7.73,3.84-11.02,3.12-.04,1.68-1.46,1.49-2.48,1.82-.2.42-.4,1.22-.58,1.21-2.7-.06-3.15,2.35-4.4,3.87-.28,1.64-1.01,2.28-1.85,1.47-.81-.78-1.07-.13-1.58.06,1.52.94-1.36,1.81,0,2.88,1.96,1.53,4.42.93,5.21-1.5,1.16-3.54,3.56-5.75,7-6.96,3.57-1.26,7.29-1.74,11.03-1.85,3.71-.12,6.74,1.5,9.23,4.26,1.39,1.54,1.07,2.33-.82,2.81-3.33.86-5.68,3.05-7.68,5.72-.8,1.06-1.54,2.57-.59,3.27,1.07.79,2.03-.57,2.73-1.61,1.95-2.89,4.63-4.75,8.08-5.46,4.16-.85,7.7.9,11,2.95,2.04,1.27,2.13,3.19.72,4.66-1.91,1.98-3.88,3.91-5.84,5.84-.56.55-.88.94-2.08.61-1.9-.52-4.07-.01-5.57,2.56,1.56-.37,2.65-.58,3.71-.9,1.62-.49,2.75-.57,2.35,1.76-.26,1.54.55,2.37,2.2,2.5,1.91.15,3.2-.83,4.48-1.99,1.78-1.61,3.34-3.51,5.78-4.52.16,2.43.82,4.82-1.75,6.19-2.15,1.14-4.32,2.27-6.58,3.15-5.69,2.23-11.05,5.01-15.95,8.7-1.15.87-2.31,2.59-3.9,1.97-1.88-.74-3.47.27-5.2.14-.43-.03-.84.1-.75.66.07.39.43.44.75.43,1.14-.03,2.29-.05,3.43-.13.73-.05,1.36.15,1.52.88.2.95-.57,1.42-1.29,1.44-1.59.06-3.48.87-4.46-1.22-.27-.59-.39-.55-1-.42-1.7.37-3.46.5-5.19.73-.76.1-2.1-.04-1.92.84.22,1.1-.5,2.76.95,3.31,2.08.79,4.3,1.75,6.38-.14-.98-.14-1.93-.36-2.7-1.05-.57-.37-1.2-.3-2.15.11,2.12-2.79,3.87-3.03,5.21-1.11.27.17.54.34.82.51,2.56-.57,5.14-1.12,7.59.35.72.43,1.09.49,1.81-.12,2.27-1.91,4.74-3.56,7.53-4.69.8,3.29,1.58,3.72,4.74,2.54,2.79-1.05,5.55-2.18,8.35-3.23.75-.28,1.81-.66,2.21.21.74,1.62-.58,2.89-1.13,4.29-.46,1.17-1.33.72-2.03.53-1.5-.41-3.24-1.12-4.48-.26-1.8,1.24-3.7,1.29-5.56,1.14-2.76-.22-4.44,1.44-6.17,3-.91.82-.89,2.2-.08,3.11,1.16,1.29,1.28-.4,1.85-.84.77-.59,1.27-1.7,2.54-1.36-.12-1.8,1.34-2.98,3.86-2.82,1.72.11,3.24-.42,4.81-.89,1.44-1.44,2.21-.13,3.38.85-1.07.19-1.88.33-2.69.47-1.37,1.42-2.53,3.05-5.03,1.93-1.08-.48-2.15.45-2.48,1.69-.28,1.05-.87.57-1.43.41-1.3.03-1.44,1.64-2.88,1.79,4.1,1.95,6.42-2.16,9.9-2.54-.5,2-1.8,2.84-3.06,3.72-5.05,3.5-10.48,5.68-16.7,6.6-8.38,1.24-16.77,1.87-25.2,2.32-8.98.48-16.24-3.76-23.48-8.16-.17-.1-.22-.42-.32-.64-.86-.09-1.77-.11-1.91-1.28-3.05-.51-2.8-3.56-4.33-5.27.82-.51,1.39-.05,1.99.08-.02-.31-.05-.62-.07-.93-2.35-.53-2.95-1.75-2-4.03-.44-.74-.02-1.49-.01-2.24-1.57-1.05-2.05-2.43-1.38-4.23.82-2.19,2.88-3.05,4.65-4.12.86-.52.94.46.86,1.14,0,.21-.07.57,0,.61.31.15.29-.17.35-.35,1.04-.85.61-2.71,1.82-3.24,3.62-1.59,5.17-5.48,9.07-7.13,4.63-1.96,8.1-6.11,11.14-10.3,3.78-5.22,2.68-9.81-3.32-13.08.01.99.14,2.27-1.02,2.4-2.47.28-4.4,1.9-6.76,2.39-4.93,1.02-9.83,2.22-14.79,3.1-6.84,1.21-13.61.85-20.17-1.63-1.14-.43-2.02-1.14-2.09-2.6-.21-4.16,1.74-7.6,3.46-11.15.35-.72,1.75.19,1.51-1.04-.32-1.61.81-2.31,1.73-3.21,3.15-3.08,6.96-5.19,10.66-7.48,1.26-.78,2.01-.76,2.74.82,1.14,2.47,3,3.29,4.88,2.53.76-.31,1.61-.8,1.53-1.71-.1-1.18-1.08-.86-1.9-.81-1.29.08-2.8-.04-2.27-1.84.71-2.39,1.04-4.86,2.1-7.2,2.16-4.76,5.94-8.4,8.51-12.86,1.83-.85,2.95-2.6,4.47-3.72,3.13-2.29,6.69-3.93,10.83-2.66.53.16.84.31.93.89.64,4.14,3.56,6.52,6.77,8.67,1.3.49,1.94,1.61,2.59,2.73.33.03.65.06.98.09.58-.15,1.16-.3,1.74-.46,1.37-.18,2.78-.84,4.03.36-1.26.59-2.58.96-3.99.9-.39.09-1,.04-1.13.28-1.56,2.69-3.55,4.87-7.23,5.79,2.89,1.16,5.38.16,6.15-1.35,1.55-3.03,4.12-3.21,6.71-3.81.07-.66-.8-1.06-.48-1.79,1.77.1,3.46-.82,5.27-.37.86.21.82-.47.94-1.04.41-1.91,1.63-1.95,2.82-.88,1.01.91,2.55,1.57,2.42,3.39-.06.81.64,1.01,1.27,1.26,1.93.77,3.47,2.09,4.86,3.6,3.27.52,6.53,1.04,10.42,1.66-2.53,1.19-4.61,1.85-5.96,3.63.2.57-.37,1.95,1.21,1,2.04-1.23,3.05-.74,3.75,1.63.63,2.11,2.63,3.17,5.08,2.49-1.48-1.08-2.75-2.17-.36-3.5.67-.37-.03-1.07-.39-.89-2.3,1.17-3.32-1.12-5.54-1.79,2.71-.8,4.07-2.89,6.47-3.37,2.64-.52,3.29.03,2.88,2.69-.31,2.07-1.36,4.8-.45,6.09,1.37,1.93,2.22,4.17,3.78,6.02,2.76,3.28,6.39,4.8,10.19,6.12,1.54.53,3.09,1.73,4.92.3.58-.45,1.74-.17,2.63-.18.6,0,1.2.08,1.11.91-.09.85-.83.82-1.3.64-1.6-.62-2.8.29-4.08.92-1.75.85-3.56.76-5.34.24-.15-.04-3.24.14-.67-1.59.74-.5-.2-1-.59-1.24-.65-.41-1.15-.04-1.13.68.09,3.04-1.64,1.92-3.23,1.54-1.52-.36-2.96-1.43-4.65-.72.29.14.58.31.88.43,8.63,3.5,16.9,3.1,24.74-2.26,2.03-1.39,3.61-3.26,5.46-4.83,3.04-2.59,5.06-5.83,5.9-9.77-.55-.2-1.42.25-1.62-.67-.15-.69.02-1.31.9-1.42.53-.06.75-.27.33-.73-1.72-1.86-.7-3.58.37-5.2.58-.88.55-1.03-.48-1.44-2.03-.81-2.81-2.68-3.13-4.72-.16-1.01.42-1.91,1.37-1.92,1.74-.03,3.33-.19,4.71-1.4.35-.31.94-.14,1.2.41.19-.15.39-.29.57-.45,2.31-2.15,2.71-2.14,4.62.25.29.36.55.67.97.49,1.22-.5,1.53-1.81,2.24-2.75.44-.57-.28-.93-.76-1.26-2.55-1.76-2.56-1.79-.47-4.18.93-1.07,1.86-2.09,1.4-3.67-.36-1.23-.84-1.75-1.93-.52-1.51,1.71-3.02,3.41-4.25,5.35-1.37,2.17-3.31,3.6-5.66,4.79-3.84,1.96-7.87,1.18-11.79,1.36-6.82.31-13.15,1.96-18.98,5.46-7.6,4.56-15.6,6.01-23.97,2.65-4.4-1.76-7.62-5.3-8.86-9.76-.54-1.97-.8-4.45-.47-6.86.62-4.53,2.33-8.27,5.81-11.2,2.3-1.94,4.63-3.86,7.65-4.65,1.5-.39,2.23-1.61,2.76-2.9.46-1.12-.28-1.86-1.13-2.43-.64-.43-1.4-.66-2.05-.12-1.07.89.03,1.38.49,1.94.73.9-.1.98-.59,1.37-1.51,1.2-3.55,1.04-5.1,2.2-6.83,5.12-10.68,11.66-9.97,20.43.2,2.44-.97,3.99-3.04,5.09-3.82,2.02-11.42.74-14.9-2.46-6.16-5.67-4.82-12.86-.37-18.14,2.56-3.04,5.5-5.78,8.58-8.36,4.65-3.92,9.44-7.67,13.23-12.57,5.15-6.66,9.12-14.16,14.96-20.34,2.72-2.88,5.62-5.41,8.95-7.47,3.01-1.86,6.26-3.35,9.18-5.34,1.67-1.14,2.02-.79,2.46.91,1.32,5.19,5.99,7.19,10.68,7.08,1.3-.03,2.99-.41,4.23-1.56-.9-.79-1.83-.95-2.39-.31-1.35,1.53-2.27.42-3.25-.35-.43-.34-.62-1.08-1.3-.96-2.55.44-2.3-1.49-2.59-2.99-.4-2.08,1.09-3.56,2-5.05.59-.96,1.88.65,2.99.76.85.09,1.62.75,2.47.95.58.14,1.3.1,1.61-.71.21-.53.09-.85-.34-1.25-3.02-2.81-3-2.83,1-4.36.53-.2,1.07-.38,1.61-.57,2.8-.96,5.44-2.5,8.56-2.25.25-.16.5-.28.75-.01l-.42.37c-1.64,1.93-3.97,2.73-6.13,3.82-1.16.58-2.58,1.15-2.23,2.79.36,1.7,1.95,1.26,3.05,1.19,6.18-.44,12.36-.96,18.53-1.55,1.73-.16,3.23-.89,3.18-3-.05-1.96-1.69-3.39-3.74-3.33-1.31.04-2.59.12-3.86-.37-.83-.32-1.28-.65-.67-1.58.96-1.47.42-2.72-.96-3.9h9.75c-1.1,2.71-.22,3.89,2.26,3.63,1.58-.16,2.86-.96,3.34-2.48.56-1.77,1.82-2.1,3.38-2.12,1.14-.01,2.29.02,3.43-.08,1.45-.14,1.87.78,1.47,1.78-1.1,2.82.93,2.26,2.29,2.16,3.21-.24,5.23-2.13,4.86-4.45,1.34.22,2.7-.38,4,.1.08.76-.49.94-.75,1.33-.33.5-1.2,1-.45,1.61.68.55,1.54.33,2.17-.37q2.26-2.5,5.75-1.82c-.78.35-2.14-.13-2.07,1.11.05.95,1.08,1.38,2.01,1.49,1.45.17,2.92.22,4.38.34,1.53.13,3.09.54,3.56,2.12.47,1.58,1.28,2.05,2.81,2.01.77-.02,1.6.31,2.33.64,1.35.61,2.94,1.48,4.11.54.98-.79.05-2.4-.2-4.03,1.92.94,4.74,1.52,4.96,2.62.41,2.06,1.42,2.56,3.74,2.95-5.9.52-6.96,1.19-6.31,3.56-.73,0-1.47.05-2.2,0-3.54-.26-6.63-.05-8.98,3.48-2.12,3.19-4.51,6.16-5.92,9.77-.24.6-.15,1.54-1.24,1.47.81-5.02-1.46-7.41-5.02-8.63-1.99-.68-4.09-1.06-6.11-1.66-2-.6-3.74-1.65-4.76-3.56-1.42-2.66-.13-5.08,2.85-5.14,3.82-.08,7.38-.02,10.27,3.57,2.83,3.52,7.54,2.87,9.46-.63,1.28-2.34.32-4.31-2.33-4.51-2.05-.15-4.03-.48-5.93-1.26-4.54-1.85-9.24-1.8-13.96-1.09-2.4.36-4.55,1.28-5.46,3.9-1.75,5.04.08,11.35,4.45,14.38,3.03,2.11,5.86,4.3,8.04,7.37,1.7,2.39,4.7,2.33,6.82.24.44-.44.82-.94,1.23-1.41-.22,2.25-.69,4.38-1.35,6.44-.98,3.06-.92,5.98,1.08,8.6.76,1,.18,1.37-.43,1.95-2.03,1.89-3.97,3.89-5.6,6.14-1.68,2.31-.59,4.55,2.3,4.74,1.04.07,2.11-.06,3.16-.2,2.26-.29,4.49-.72,6.78-.86,1.02-.06,2.94,1.37,3.15-1.21.02-.26.53.02.78.2,3.32,2.37,8.28,3.35,7.57,9.14-.1.79.46,1.73.91,2.49,1.71,2.9,3.75,5.33,7.63,4.98,1.25-.11,2.27.07,1.99,1.86-.16.98.75,1.68,1.61,1.92,4.03,1.15,7.94,2.76,12.16,3.19,1.18.12,1.79.19,1.26,1.74-.94,2.71-.24,3.86,2.44,4.83,3.89,1.42,3.97,1.53,3.49,5.59-.23,2-.02,3.89,2.02,4.8,1.91.86,2.73,2.44,3.48,4.18,1.32,3.05-.66,6.3.57,9.36.06.16-.2.29-.49.32-1.99.18-3.02,1.8-4.33,2.98-1.85,1.66-3.77,3.2-6.33,3.43-2.5.23-3.66,1.72-3.88,3.95-.21,2.16-.84,4.13-1.72,6.08-.37.8-.69,1.67-.8,2.54-.38,3.24,1.23,4.36,4.27,3.17.9-.35,1.69-1.87,3-.31.41.48,1.28-.63,1-1.12-.62-1.09.22-1.35.74-1.78,3.6-3,7.96-4.03,12.43-4.54,1.96-.22,3.1-.7,2.74-2.88-.29-1.6-.44-3.26-1.24-4.7-.77-1.37-.13-1.92,1.03-1.53,1.48.49,1.43-.45,1.7-1.27,1.01-3.11,3.09-5.3,5.92-6.85,2.03-4.55,2.8-4.99,7.65-4.98,1.43,0,1.61.58,1.44,1.74-.32,2.24-2.09,3.94-4.93,4.62-2.09,3.69-.92,5.45,3.99,5.97,3.87-.33,7.53-1,8.78-5.52.12-.43.49-.59.81-.85,3.52-2.75,6.92-5.66,9.68-9.18,3.24-4.14,6.67-8.2,8.18-13.48,1.31.91,2.5,2.12,2.24,3.25-.42,1.84.28,3.48.21,5.18-.09,2.36-1.69,4.06-3.13,5.76-4.86,5.75-11.1,10.03-16.36,15.36-.32.32-1.37.34-.73,1.15.39.49.98.29,1.5-.12,5.57-4.38,11.16-8.74,15.99-13.98.84-.91,1.24-2.28,3.14-3.02-3.22,8.27-10.63,11.88-16.77,17.58,4.25-.52,6.72-2.9,9.27-4.92,2.57-2.03,4.5-4.82,7.29-6.62.56.48.37,1,.37,1.45.01,6.49-3.45,10.96-8.37,14.68-4.33,3.28-9.5,4.74-14.34,6.91.02.5.04,1,.06,1.5,4.02-.46,7.57-2.08,10.98-4.19,4.62-2.86,9.02-5.96,12.38-10.54.92,3.08.3,5.19-2.09,7.74-3.67,3.93-8.45,6.25-12.96,8.98.16.55.59.58,1.05.55,4.38-1.18,7.59-4.46,11.59-6.67-.85,4.23-2.08,5.94-6.43,9.29-8.06,6.21-21.77,7.38-28.94.21-.42-.42-.91-.87-1.45-.33-.55.55-.26,1.17.07,1.79.43.83,2.12,1.04,1.54,2.21-1.47,2.98.92,3.43,2.63,4.26,3.53,1.71,7.38,1.9,11.21,2.1.51.03,1.27-.21,1.43.55.15.68-.54.94-.97,1.26-1.72,1.29-3.83,1.38-5.87,1.77,1.83.46,3.69.2,5.5.59,1.01.22,1.61.31.96,1.47-2.88,5.14-6.49,9.63-11.88,12.3-3.07,1.52-5.38-.24-5.04-3.64.04-.41.06-.81.08-1.22.07-1.21-.51-1.17-1.34-.7-.99.56-1.86,1.26-1.23,2.51.86,1.7.81,3.59,1.25,5.44.6-.54,1-1.26,1.92-.82,2.27,1.09,4.2.21,6.15-.98,3.02-1.84,5.83-3.92,8.12-6.62,1.19-1.41,2.27-2.92,3.4-4.4.99.9.85,1.68.32,2.67-2.18,4.05-4.63,7.86-8.34,10.72-.76.58-1.54,1.21-1.78,2.32,1.26.33,2.43-.18,3.14-.93,2.87-3.07,6.46-5.58,7.89-9.8.2-.59.41-1.04,1.14-1.03.72.01.96.54,1.18,1.06.82,1.9.65,3.78.01,5.71-1.67,5.05-4.87,8.89-9.04,12.1-3.04,2.34-6.64,3.73-9.66,6.11,3.49-.21,6.58-1.36,9.19-3.72.9-.81,1.81-1.63,2.79-2.35.55-.4,1.25-.36,1.77.17.42.43.36.91-.11,1.26-1.49,1.12-2.63,2.71-4.44,3.4-5.5,2.07-10.76,4.89-16.88,5.02-.89.02-2.22-.02-3.09.88,8.86,2.03,16.07-2.83,24.29-5.8-2.54,3.9-5.43,6.34-8.99,7.96-3.46,1.58-7.23,2.22-10.89,3.21,3.41,1.12,6.61-.85,10.2-.5-.55.92-1.27,1.05-1.9,1.39-2.51,1.35-5.35,1.24-8,1.94.02.32.04.63.06.95,2.14-.62,4.28-.64,6.75-.27-3.2,2.5-6.82,2.36-10.14,3.19-.36.38-.72.55-1.09.02-2.77.01-5.55.02-8.32.04-.46.44-.84.43-1.1-.21-2.72-.4-5.41-.88-7.73-2.52-.02.44-.04.89-.06,1.33,6.44,4.11,13.63,3.6,20.78,2.95-.02.93-.45,1.08-.79,1.23-5.81,2.49-11.77,3.24-17.94,1.5-2.56-.72-3.21-.63-4.2.37,5.98,1.6,12.08,2.47,18.3,2.27,3.31.54,5.18-2.34,7.85-3.32.41-.15.36-.67.39-1.08.06-1.13.94-2.11,1.71-2.16,3.75-.24,5.36-3.95,8.63-5.09,1.37-.47,2.04-2.9,3.08-4.41.51-.75.43-1.97,1.66-2.18.24-.08.49-.16.73-.24.58-1.73,2.39-.79,3.4-1.57-1.35-1.3-1.1-2.34.5-3.17.06-2.62-.64-5.39,1.62-7.55.24-.23.31-.78.26-1.16-.49-3.97,1.44-7.46,2.23-11.17.25-1.17-.25-2.28.33-3.53,1.51-3.26,3.89-6.14,4.4-9.89.17-1.22,4.77-1.75,5.61-.74.56.68.41,1.46-.21,1.96-1.58,1.26-2.67,2.6-1.75,4.78.99,2.33,3.04,2.96,5.22,3.43,6.05-1.48,8.73-8.49,5.08-13.06-.96-1.19-2.63-1.2-3.4-2.52-2.67.03-5.24-.22-7.16-2.42-2.23-1.22-2.3-1.68-.35-3,.93-.63,1.89-1.26,3.11-1.12,1.15-.99,1.93-2.43,3.51-2.9.38-1.28.36-2.61,1.54-3.7,1.2-1.11.86-2.77-.51-3.54-2.03-1.15-.9-2.01.08-2.77,1.87-1.43,2.62-3.4,3.22-5.56.41-1.45-.14-2.73-.29-4.08-1.33-1.85-.34-3.96-.67-5.93-.31-1.9.36-3.97-1.19-5.65-.39-.42-.07-1.07.15-1.62.94-2.37,1.25-4.76.19-7.19-.06-.15-.12-.32-.09-.48.45-2.93.13-5.74-1.37-8.35-.84.03-1.38-.38-1.66-1.16-.88-.32-1.2-1.04-1.32-1.88-.25-1.69.15-3.72-2.36-4.17-.41-.07-.39-.61-.3-1.05.26-1.21-.52-2.32-1.27-2.71-2.54-1.33-1.85-3.6-1.87-5.58-.01-1.86,1.54-1.13,2.58-1.15,1.8-.74,2.81-3.54,1.86-5.13-.41-.69-1.02-.37-1.5-.28-4.75.86-5.85.16-6.75-4.4-.26-.33-.27-.68-.06-1.04,0-.16,0-.33,0-.49-.12-1.7,1.09-.98,1.88-1.04,2.23-.05,5.2,1.11,4.93-3.02,4.11-7.65,3.34-15.33.22-23.05-.36-.9-.57-1.85-.84-2.78-1.34-.34-1.7-1.78-2.76-2.45-1.01-.65-1.96-1.55-3.13-.3,3.86,4.02,6.62,8.59,7.34,14.23.5,3.86.04,7.55-1.58,11.17-2.98-2.73-4.24-2.82-8.02-.63-1.04,1.5-2.08,2.99-3.19,4.6-.75-1.07-1.5-2.06-1.75-3.33-.22-.24-.44-.49-.66-.73-1.15-.19-2.37-.29-2.31-1.93-.53-1.64-2.68-2.39-2.45-4.45-.35-.77-1.26-1.43-.5-2.44-.29-2.22,1.78-3.13,2.68-4.68,2.18-3.79,3.11-7.83,3.13-12.14,0-.81-.35-1.91,1.08-1.87-.13-1.25.71-2.2,1.08-3.29.39-3.13-.25-6.15-1.03-9.15-1.96-7.56-9.25-12.11-16.99-10.96-5.62.84-10.9,2.41-15.92,5.09-6.03,3.21-12.67,4.62-19.27,6.15-3.27.76-6.25.57-9.26-.87-3.9-1.86-7.79-3.79-11.8-5.37-7.79-3.06-15.86-4.92-24.29-4.98-3.19-.02-3.5-.61-2.25-3.42,2.04-4.57,3.08-9.44,4.14-14.3.45-2.05.64-4.16.31-6.32-1.58-10.28-7.59-17.02-16.99-20.67-17.6-6.83-39.73.44-47.92,19.36-3.14,7.26-6.55,14.41-11.49,20.71-1.43,1.83-2.32,4.04-2.51,6.3-.26,3.06-1.95,4.35-4.66,5.11-6.72,1.9-12.38,5.78-17.62,10.2-5.16,4.35-8.44,10.44-13.79,14.8-2.93,2.39-5.59,5.37-8.62,7.83-1.9,1.54-3.82,3.06-5.3,5.05-4.05,5.45-8.71,10.36-13.31,15.33-3.59,3.89-6.17,8.37-7.2,13.66-.88,4.53.48,8.74,1.74,12.95.41,1.36.03,2.13-.81,3.23-3.34,4.39-7.33,8.31-9.85,13.29-.76,1.5-1.62,1.81-2.74.5-2.32-2.72-5.25-4.84-7.25-7.9-2.32-3.55-4.97-6.88-7.36-10.38-2.42-3.55-4.61-7.33-7.05-10.78-3.77-5.33-6.8-11.11-10.71-16.32-.67-.89-1.28-1.86-2.31-2.41.94,6.96,3.93,13.3,7.08,19.35,4.44,8.51,9.88,16.5,14.89,24.71.28.46.8.89-.02,1.86-2.05-2.69-5.06-4.25-7.36-6.59-4.4-4.47-9.47-8.19-14.2-12.23-4.69-4.01-10.05-7.5-15.5-10.63-3.39-1.95-6.81-3.87-10.23-5.76-.77-.43-1.85-.89-2.37.11-.43.82.62,1.14,1.23,1.49.21.12.45.19.67.3,7.61,3.99,14.84,8.57,20.99,14.62,7.92,7.79,14.91,16.4,21.93,24.99.53.65.65,1.26.63,2l.16.36c-.11-.06-.22-.13-.32-.19-1.21-.35-2.14-1.11-3.08-1.91-9.41-8.05-19-15.85-30.17-21.46-3.98-2-9.14-3.83-11.51-3.77,5.91,3.25,11.24,7.57,16.34,12.11,8.59,7.64,16.75,15.73,24.45,24.3,2.89,3.22,3.23,4.37,1.18,8.19-1.74,3.24-2.95,6.65-1.83,10.3.64,2.08.47,3.95-.05,5.96-1.13,4.41-1.63,8.96.25,13.2,2.52,5.67,4.38,11.6,6.9,17.24,1.8,4.03,4.44,7.7,8.8,9.38,1.79.69,2.59,1.67,2.95,3.41,1.35,6.44,4.11,12.32,7.11,18.14,1.55,3.01,4.82,5.31,4.28,9.3,0,0,.08.05.1.03,2.09-1.24,2.26.97,3.1,1.82.95.96,1.81,2.14,3.27,1.28,1.32-.78.8-2.14.53-3.32-.11-.47-.35-.92-.44-1.4-.46-2.38-.55-4.75.19-7.45,1.46,1.44,2.69,2.85,4.54,1.36,1.36-1.11.9-3.18,2.25-4.61.97,2.5,1.86,4.79,3.85,6.38.67.53,1.05,1.66,2.15,1.29,1.12-.37.77-1.48.89-2.32.09-.63-.09-1.5.67-1.69.84-.21,1.24.65,1.65,1.22,1.1,1.52,2.1,3.1,3.22,4.6.52.69,1.34.95,2.2.7.96-.28,1.12-1.06,1.12-1.94,0-.48.03-1.01.22-1.43.45-.99,1.19-1.29,1.71-.14.87,1.9,2.31,3.55,2.5,5.74.08-.02.19-.08.23-.05,2.19,1.98,4.38,3.95,5.57,6.76,2.01.3,3.36,1.85,5.1,2.69,1.04.5,2.06,1.2,3.16.3.98-.8.72-1.94.44-2.96-1.69-6.09-.99-11.94,1.64-17.62-.02-2.47,1.12-4.87.4-7.41-.22-.76.62-.99,1.28-1.13,1.97-.42,3.93-.93,5.92-1.27,1.85-.32,2.56,1.35,3.68,2.32,1.53,1.33,2.5,2.88,2.34,4.99,3.43,5.46,3.16,11.04.58,16.71.23,1.88-.11,3.36-2.42,3.49.17.98.1,1.86-.92,2.38-.5,1.46-1.23,2.68-2.98,2.81-.22.34-.4.71-.66,1-3.92,4.33-4.3,10.06-.87,14.78.94,1.29,1.61,2.65.66,4.01-1.12,1.61-2.66.72-3.95.07-4.26-2.17-6.77-5.75-7.96-10.29-.48-1.84-1.32-3.04-3.39-2.51-1.88.48-1.84,2.19-1.81,3.59.23,9.6,3.26,17.91,11.49,23.8-2,1.31-4.02,2.56-5.09,4.79-.35.73-.89,1.5-.26,2.27.63.78,1.45,1.29,2.51.74.28,1.84-.88,3.62-.18,5.5.57,1.53,1.27,2.28,2.69.81-1.03-2.69-.11-5.22,2.58-7.28.57-.44,1.81-.69,1.15-1.73-.58-.93-1.72-.54-2.43-.13-1.34.79-2.53,1.81-3.79,2.75.02-2.19,1.09-3.61,3.14-4.36.68-.25,1.55-.41,1.74-1.2.29-1.22.76-1.05,1.58-.49,3.15,2.17,6.47,4.11,9.47,6.46,4.72,3.7,10.14,5.32,15.91,6.17,3.75.55,7.24-.28,10.7-1.75,4.36-1.86,7.27-5.42,10.64-8.47,5.11-4.63,9.16-10.18,12.17-16.24,3.1-6.24,4.98-13.03,5.17-20.17.05-1.99.3-4.08,1.35-5.89,1.51-2.63,3.06-5.23,4.59-7.84-.19-.81.11-1.32.93-1.51-.16-.61-.01-1.12.47-1.53,2.86-4.5,2.95-9.94,5-14.71-.01-3.97.93-7.91-.03-11.91-1.12-4.69-1.56-9.6-5.74-12.94-.52-.41-1.96-.35-1.41-1.51.46-.97,1.61-.58,2.45-.48,4.43.53,8.64,2.22,13.11,2.6.9.08,1.5.43,1.22,1.6-.94,3.94-.08,7.77.93,11.57.17.64-.1,1.8.84,1.8.8,0,1.39-.94,1.46-1.75.2-2.58,1.44-5.17,0-7.78-.27-.49-.74-1.16-.06-1.76.35-.31.75-.87,1.23-.48,1.77,1.42,3.35,1.42,4.88-.36.11-.12.73.19,1.11.31,6.99,2.26,13.25,6.13,19.88,9.17.56.25,1.45.96,1.38,1.22-.75,2.68,1.33,1.44,1.99,1.27,1.33-.34,2.54-1.1,3.42-1.52-14.89-9.17-30.87-16.09-48-20.2-.43.21-.82.15-1.17-.16-2.24-.34-4.49-.67-6.72-1.04-.62-.1-1.51-.2-1.57-.89-.13-1.48-.99-.93-1.69-.74-3.56.96-7.08.71-10.59-.26-.99.69-2.02.8-3.12.28-4.83.06-9.67.13-14.5.19-.51.15-1.02.31-1.53.46-.63,0-1.27.02-1.9.03-.68.72-1.53.72-2.41.54-3.52.68-7.04,1.35-10.57,2.03-.06-.2-.12-.4-.18-.59,3.61-.65,6.4-3.38,10.2-3.56.14-1.23,1.05-1.29,1.99-1.32.46-.16.93-.31,1.39-.47,1.26-.63,2.29-2.09,4.01-1.12,4.09-1.97,8.39-3.39,12.7-4.77,1.92-.4,3.69-1.57,5.77-1.08-.29-1.51.56-2.03,1.88-2.31,4.29-.91,8.55-1.98,12.86-2.81,6.8-1.31,13.62-2.59,20.53-3.11,2.15-.16,4.73-.6,5.54,2.57.14.56.81.34,1.38.18-1.54-2.06-.38-2.35,1.45-2.31,1.78.04,3.56.37,5.38-.22-1.4,7.02.09,11.04,4.94,13.65-.31.64-1.27.72-1.36,1.93,2.23-1.29,4.42-1.48,6.59-.24.19.11.48.08.72.08,7.45-.06,14.61-2.28,21.99-2.98,2.63-.25,3.9-3.16,3.13-5.67-.78-2.53-3.15-3.69-5.85-2.88-1.27.38-2.32,1.16-3.4,1.87-4.96,3.29-10.49,3.83-16.19,3.18-1.92-.22-3.66-1.02-3.62-3.5.05-3.21,1.41-4.36,4.77-3.49,3.95,1.02,7.82,1.29,11.8.28,3.14-.8,6.28-1.71,9.6-1.6,1.71.06,3.56.15,3.73-2.37.21-3.19-.84-4.97-3.26-5.41-3.6-.65-7.11-.19-10.1,1.84-3.51,2.39-6.79,2.94-10.66.83-2.69-1.47-5.97-1.59-8.39.31-2.74,2.16-5.49,1.89-8.48,1.54-1.7-.2-3.41-.31-5.12-.36-9.54-.26-19.02.43-28.41,2.16ZM389.12,433.38c.7-.1,1.2-.4,1.74-.76,4.86-3.23,10.36-5.02,15.95-6.14,3.85-.77,7.57-2.15,11.7-2.23.73,2.83,1.24,5.77.37,9.07-2.26,8.57-12.82,15.79-24.24,10.49-3.38-1.57-5.73-3.8-7.06-7.26-.67-1.73-.46-2.9,1.53-3.18ZM552.91,467.19c-2.06-.17-4.14-.19-6.13-.82-.58-.18-1.37-.63-1.17-1.33.23-.81,1.14-.52,1.62-.26,1.81.97,3.93.67,5.76,1.51,3.81-.05,7.63-.15,11.46-.29-3.62,2.29-7.58,1.7-11.53,1.18ZM493.89,389.22q-.26,1.85,1.63,5.28c-4.11-.34-6.29-3.95-5.74-9.2,4.57-1.18,6.46,1.23,7.68,4.95.77,2.34,2.89,3.86,4.79,5.97-4.42-.74-6.56-3.6-8.36-7.01ZM572.67,404.33c1.01,1.64,1.19,2.9.61,5.21-1.22,4.85-3.95,8.83-7.28,12.44-2.69,2.91-5.4,5.8-8.84,8.7.4-3.88.66-7.19,5.08-7.67.59-.06,1.05-.64.96-1.25-.53-3.45,2.24-5.5,3.75-7.84,2.02-3.13,3.86-6.35,5.72-9.58ZM569.91,400.03c.86-.07.92.62.93,1.13.02,1.88-.29,3.73-.99,5.49-1.44,3.61-3.77,6.59-6.56,9.26-1.46,1.4-1.7-.86-2.93-.66,3.74-4.6,7.04-9.12,8.66-14.61.15-.51.46-.58.88-.61ZM556.38,375.53c.04-.39.07-.78.11-1.23,2.64,2.03,3.68,6.76,2.46,10.94-1.45,4.96-5.12,8.45-8.3,12.21-2.36,2.79-5.11,5.26-7.65,7.9-.89.92-1.95,1.47-3.18,1.66-.96.15-1.78-.26-2.04-1.22-.32-1.17.66-1.23,1.44-1.5.99-.34,2.01-.5,2.99-.99.97-.48,1.77-.81,1.51-2.04-.26-1.23-1.13-1.78-2.31-1.77-3.84.03-8.31,1.33-7.77,7.06.04.41.03.82.04,1.22.82,2.22,2.66,3.09,4.76,3.72.92.28,1.97.14,2.75.85,2.83,0,3.98-.69,4.33-3.73.33-2.83,1.65-4.57,3.74-6.38,3.55-3.08,6.58-6.75,9.38-10.54,1.65-2.24,2.6-4.85,2.72-7.7-.07-.48-.19-.95-.18-1.43.01-.53-.21-1.18.38-1.55.47-.29.75.16.99.44.5.57,1.4,1.12.27,1.93.88,7.49-2.24,13.37-7.82,18.35,1.9.71,3.09-.37,3.94-1.08,3.17-2.62,5.86-5.67,6.24-10.09.04-.46-.08-1.08.51-1.26.69-.21,1.07.39,1.31.85,1.93,3.63,2.21,7.42.28,11.05-2.06,3.86-4.46,7.52-7.07,11.08-1.53,2.09-2.79,3.04-5.29,3.12-2.24.07-4.07,1.44-5.56,3.17-1.43,1.66-2.76,3.38-4.6,4.7-2.22,1.59-4.76,1.95-7.25,2-2.67.06-.13-1.69-.56-2.51-.45-1.32-.34-2.36,1.31-2.63.65-2.41-1.53-3.86-2.01-5.88-.71-2.13-3.32-3.11-3.42-5.61-.74-.42-1.26-.63-1.27-1.9-.01-2.16.29-4.41-.43-6.55-.05-.15-.15-.36-.09-.45,1.82-2.84,1.21-5.8.76-8.88-.29-1.99.67-3.6,3.26-3.58,1.18,0,2.02-1.37,3.56-1.04,1.25.26,1.67.67,1.67,1.85,0,2.2.06,4.41.14,6.61.09,2.51.93,2.97,3.19,1.9,1.56-.74,2.36-2.08,1.87-3.56-.6-1.8.37-1.99,1.55-2.7,5.6-3.33,8.71-8.33,9.36-14.84ZM553.92,373.01c1.05,8.14-3.52,12.92-9.09,17.7-.57-2.68-.4-4.91.12-7.15.17-.75.49-1.28,1.18-1.71,5.08-3.22,5.33-3.52,7.79-8.83ZM504.01,382.44c3.83-.27,6.32-2.72,8.83-4.98,6.19-5.55,8.29-12.98,9.24-20.96.67-5.58,5.13-8.85,8.53-12.72.36-.4.94-.18,1.49-.16,3.74.13,7.71,1.17,10.83-2.11.57-.6,1.46-1.32,1-1.94-.67-.91-1.45.04-2,.55-2.44,2.28-5.39,2.37-8.44,2.19-.04-.25-.14-.45-.07-.55,4.08-6.51,14.14-7.26,19.28-1.73,2.39,2.57,2.86,5,2.12,8.31-2.03,9.12-4.69,17.94-9.88,25.83-1.86,2.82-4.15,5.26-6.51,7.61-1.62,1.61-3.63,2.71-6.12,2.6-2.06-.09-3.14,1.3-2.85,3.09.85,5.08-2.15,7.96-5.72,10.45-5.12,3.58-10.86,4.07-16.84,2.84-2.4-.49-4.97-.48-7.26-2.66,3.01.24,5.04-1.44,7.41-2.12,1.57-.45,3.02-1.26,4.7-.61.68.26,1.09-.14,1.47-.57.63-.71,1.47-1.25,2.33-1.11,2.35.4,3.76-1.05,5.24-2.39.86-.78,1.78-1.38,2.88-1.77.85-.31,1.33-.97.85-1.93-.67-1.34-1.01,0-1.54.16-1.59.52-3.1.91-4.93.41-3.89-1.06-7.37-2.92-11.09-4.95.02,1.4.8,2.02,1.63,2.59,2.77,1.92,5.76,3.36,9.02,4.24.49.13,1.26.01,1.31.82.05.82-.64,1.07-1.25,1.29-1.37.51-2.75.24-4.08-.14-1.38-.39-2.75-.74-4.4-.6.91,1.23,2.25,1.24,3.94,2.2-2.47.15-4.18.48-5.83-.93-2.13-1.81-3.96-3.88-5.88-5.88-.34-.36-.47-1.21-1.29-.87-.06-2.15.92-3.33,3.87-3.54ZM496.94,384.72c1.08-.65,1.84-.22,2.51.65.18.24.42.43.63.64.04,2.61,1.77,4.24,3.47,5.87.97.93,2.01,1.78,3.21,2.83-1.53.78-2.59.32-3.61-.37-2.76-1.87-4.91-4.27-6.23-7.35-.31-.72-1.25-1.51.02-2.27ZM484.38,328.14c-1.39.22-2.99,1.13-3.93-1.07,1.47.4,2.7.73,3.93,1.07ZM378.83,331.81c4.97-2.21,10.3-3.07,15.63-3.53,1.12-.1,2.89,1.28,4.28,2.13.78.48,1.58.89,2.47.23.76-.56.98-1.27.54-2.13-.23-.44-.2-.8.34-.92.59-.13,1.13-.12,1.32.65.68,2.7,2.91,1.6,4.58,1.77.65.07.99-.65.87-1.24-.43-2.02.99-1.69,2.21-2.07,5.29-1.62,10.68-1.87,15.89-1.41-1.91,2.12-4.94,1.78-7.52,2.75-5.14,1.94-10.31,3.84-15.21,6.36-1.71.88-3.5.34-5.26.32-.47,0-.99-.39-1.41-.28-6.97,1.87-13.67-2.61-21.22-.17.87-1.68,1.65-2.1,2.51-2.48ZM349.02,358.11c2.41-1.84,4.63-3.86,6.32-6.4.53-.79,1.24-1.44,2.12-1.54,5.75-.62,10.52-3.64,15.48-6.22,3.19-1.66,6.44-3.08,10.12-3.28,1.78-.1,3.34.12,4.63,1.73-3.56,1.85-6.54,4.47-9.75,6.78-2.36,1.7-5.39,1.76-7.76,3.38-.46.31-1.02.07-1.3-.34-1.29-1.89-2.74-1.08-3.95-.1-4.21,3.4-8.6,6.64-11.72,11.19-.58.85-1.32,1.61-2.06,2.5-.81-.95-1.07-1.93-1.19-3.02-.1-.87-.09-2.02-.96-2.4-2.04-.89-.87-1.59.02-2.28ZM346.42,360.68c.15-.12.42-.37.44-.36.29.27.15.49-.14.65.05,2.57,1.21,4.67,2.78,6.6.25.31.9.62.85.78-.82,2.83.81,5.88-.64,8.58-1.2,2.24-4.26,2.06-5.9-.05-1.36-1.75-2.19-3.68-2.87-5.75-.49-1.49-.87-3.27-3.46-2.71,2.81-3.13,5.73-5.6,8.94-7.74ZM324.38,383.38c3.08-3.55,7.36-5.93,9.88-10.84q.39,4.04,4.06,5.47c-2.32,1.07-4.27,2.12-6.11,3.36-5.02,3.37-8.09,7.96-8.66,14.02-.18,1.9-.88,4.31,2.14,4.89,2.62.5,4.8-1.13,5.55-3.89,1.14-4.17,3.37-7.88,5.22-11.74.14-.29.38-.73.58-.74,2.74-.09,4.31-2.3,6.44-3.48.75-.42,1.59-.53,2.34-.07,1.98,1.21,3.51.21,5.04-.91,3.17-2.32,5.38-5.41,7.17-8.84,2.08-3.98,4.23-7.9,8-10.61.77-.56,1.46-1.22,2.46-1.36.17.43.26.83,0,1.21-4.82,7.16-9.14,14.74-15.8,20.42-4.54,3.87-8.88,7.94-13.25,11.99-3.39,3.14-6.03,6.64-6.31,11.46-.06.99-.24,1.74-1.58,1.57-3.64-.46-6.89.81-9.98,2.55-1.28.72-1.73.57-2.28-.94-3.28-8.95-.99-16.53,5.08-23.5ZM292.46,424.12c.05.06.14.11.14.17,0,.06-.09.11-.15.16-.05-.06-.14-.12-.14-.17,0-.05.1-.11.15-.16ZM305.31,466.23c1.79-1.26,3.92-.92,5.87-1.4,5.98-1.49,11.74-3.58,17.45-5.85,1.13-.45,2.05-.32,2.86.6.78.88,1.47,1.72.85,3.03-1.39,2.94-3.03,5.64-5.67,7.72-1.93,1.52-3.23,3.8-5.7,4.73-.86.32-1.74,1.55-2.52.45-.77-1.09.75-1.32,1.3-1.9.33-.35.82-.56.94-1.85-3.28,2.45-6.89,2.81-10.33,3.73-1.06.29-1.86.18-2.66-.51-1.28-1.09-2.66-2.07-3.84-3.26-1.31-1.33-.42-4.17,1.44-5.48ZM300.36,503.77c-3.25-.41-5.5-2.25-6.97-5.07-2.06-3.95-4.53-7.72-4.73-12.43-.04-.98-1.08-1.93-1.72-2.85-3.54-5.06-3.68-10.68-2.98-16.53,1.18.11,1.34,1.03,1.69,1.7,1.76,3.45,3.88,6.53,6.61,9.4,4.3,4.52,6.94,10.19,7.76,16.47.18,1.38,1.12,2.54.86,3.97.62,1.22,1.28,2.42,1.85,3.67.28.61,1.1,1.23.39,1.95-.64.65-1.36.04-2.04-.15-.23-.07-.48-.09-.72-.14ZM326.07,520.59c-.92,1.01-1.66,2.23-2.28,3.45-.6,1.19-.95,2.51-1.45,3.91-1.67-1.96-3.57-3.6-4.57-5.95-.21.2-.41.41-.62.61.71,1.41.66,2.78.16,4.29-.51,1.52-.64,3.16-.4,4.81.1.71.55,1.63-.67,1.92-.12,1.43-.9.7-1.43.38-.81-.5-1.17-1.27-.97-2.24-.55.05-.54-.54-.86-.75-1.92-.16-1.87-1.51-1.75-2.9-.81,0-1.06-.63-1.34-1.22-2.66-5.73-5.82-11.25-7.09-17.55-.22-1.1-.93-2.16.08-3.17.6-.61,1.44-.49,2.04-.13,1.1.65,1.84,1.61,1.47,3.04-.06.23,0,.49,0,.73l.82-.09c.1-.34-.04-.97.56-.83,1.7.38,3.19,2.7,3.07,4.57-.12,1.9.28,3.68,1.29,5.32.27-.26.54-.52.81-.78-.44-1.8-.89-3.6-1.4-5.66,2,.36,3.58,1.19,5.01,2.34.36.29.76.62.44,1.23-.75,1.45-.24,3.05-.45,4.56.29.31.54.69,1.06.57.16-.78.38-1.56.47-2.36.34-2.92.3-2.88,3.22-1.7,1.27.52,2.64.8,3.94,1.25,1.2.41,2.14.87.82,2.33ZM332.62,525.79c-1.12.69-1.13,1.91-1.9,3.04-2.13-2.21-3.13-4.78-3.32-7.71-.04-.7.02-1.26.68-1.67.82-.51,4.81.02,5.22.72,1.01,1.7.74,4.75-.68,5.62ZM341.34,528.28c-.56,1.16-1.18,2.3-1.92,3.73-2.79-3.19-4.84-6.48-5.08-10.66-.06-1.04-.11-2.05,1.43-1.75,1.64.32,3.64-1.01,4.9,1.04,1.49,2.43,1.96,4.97.67,7.64ZM360.75,524.33c-2.06,5.45-3.72,10.95-2.36,16.87.09.37.28.84-.17,1.1-.55.31-.89-.15-1.24-.47-.18-.16-.35-.34-.49-.54-.37-.51-.67-1.35-1.37-1.09-.32.12-.33,1.09-.56,2.04-7.96-5.55-10.04-14.07-12.46-22.67,6.08-.12,11.84-1.11,17.65-1.68,1.03-.1,1.41.5,1.57,1.43.31,1.74.04,3.4-.57,5.01ZM381.96,588.81c-2.45-1.1-3.96-2.83-4.1-5.55-.15-2.78.06-5.52,1.27-8.36,2.71,4.04,4.7,7.97,4.8,12.65.04,1.73-.5,1.93-1.97,1.27ZM391.57,590.68c-.33,0-.65,0-.98,0-5.18-.01-5.74-.57-5.77-5.8,0-.57,0-1.14,0-1.71-.01,0-.03,0-.04,0,.06-1.06.09-2.12.17-3.17.29-3.47.63-3.74,3.51-1.94,3.05,1.91,4.84,5.02,6.47,8.07,1.09,2.05-.95,4.52-3.36,4.56ZM395.7,590.58c-.97.09-.81-1.11-.52-1.45.47-.54,0-2.06,1.53-1.59,1.59.49,3.21.92,5.27,1.5-2.18,1.28-4.28,1.35-6.28,1.53ZM406.44,575.39c-.4,2.62-.73,5.25-1.1,7.88.13.64-.17,1.14-.52,1.62.23,1.72-.67,2.35-2.26,2.38-3.08.06-5.56-1.24-7.4-3.59-3.58-4.57-5.7-9.79-6.44-15.56.08-.99-1.98-2.34.5-2.92-.16-.37-.39-.72-.47-1.1-.1-.44-.99-.95,0-1.35.55-.22.83.12,1.13.59,1.98,3.04,4.8,5.23,7.63,7.42,2.3,1.78,4.84,2.98,7.75,3.15,1.16.07,1.32.49,1.17,1.48ZM418.43,557.52c-2.54,1.13-2.65,3.7-3.64,5.74-1.33,2.74-2.6,5.52-4.06,8.65-.96-1.92-.91-3.19-.09-4.64.95-1.68,1.68-3.52,2.26-5.37.73-2.33,2.65-3.81,3.76-5.85.44-.81,1.27-.9,1.87-.42.63.52.63,1.57-.1,1.9ZM428.22,530.73c-3.21,2.81-3.62,7.14-5.84,10.47-.68,1.02-1.39,1.9-2.82,2.66.4-2.64,1.77-4.56,2.48-6.71.96-2.91,3.23-4.98,4.91-7.43.39-.57,1.1-1.27,1.81-.58.55.54-.26,1.33-.53,1.58ZM428.55,501.71c.01-.21.57-.62.67-.56,1.07.61.9,1.63.97,2.76-1.34-.35-1.71-1.16-1.64-2.2ZM419.91,492.27c2.48,2.62,6.77,3.16,8.1,7.12.38,1.14.02,2.46-.44,2.93-2.03,2.05-.77,4.19-.4,6.22.16.9.55,1.38-.3,2.21-.88.86-.55,2.15.43,2.76,1.27.79,1.17-.75,1.47-1.28.9-1.6,1.91-3.26.29-5.08-.49-.56-.4-1.28.34-1.64.8-.38,1.57-.05,1.77.75.45,1.8,1.1,3.66.98,5.46-.2,3.15-.48,6.33-1.47,9.37-.19.59-.24,1.48-1.02,1.51-1.03.04-1.08-1.09-1.04-1.64.21-3.37-2.88-5.31-3.48-8.37-.32-1.63-2.28-1.36-3.55-1.64-3.95-.87-5.21-3.16-4.15-6.95.55-1.96,1.24-3.54,2.75-4.96,1.36-1.28.42-5.19-1.59-6.52.74-.15,1.21-.37,1.32-.25ZM378.13,518.67c-.45-.81.25-1.75,1.28-1.97,1.24-.26,1.56.47,1.46,1.55-.14,1.55.78,2.78,1.33,4.11.55,1.32.92,2.63-.35,4.42-1.08-3.02-2.32-5.6-3.72-8.11ZM373.65,564.81c.29-4.9,1.82-9.08,7.08-11.1,4.33-1.66,6.72-5.78,9.88-8.91.17-.17.28-.52.46-.55,2.48-.52,2.46-3.03,3.7-4.53.31-.37.38-.63.26-1.05-.76-2.83.05-5.49,1.01-8.08.87-2.36.92-4.74.51-7.16-.25-1.47-1.09-2.22-2.64-2.34-3.24-.25-5.26-1.95-6.24-5.04-.17-.54-.39-1.07-.62-1.59-1.75-3.99-1.95-7.75,1.4-11.12.67-.68,1.14-1.58.97-2.64-.45-.8-.37-1.65.4-2.05.75-.38,1.69-.44,2.28.5.83,1.19,2.2,1.64,3.32,2.44,3.22,2.31,4.96,5.97,7.8,8.63.2.19.26.6.29.91.23,2.65.7,5.05,2.23,7.49,1.05,1.67.69,4.42.46,6.64-.38,3.73-.93,7.43-.66,11.2.11,1.46-.4,2.73-1.34,3.82-1.66,1.93-2.87,4.14-4,6.38-.92,1.83-.2,3.82-.18,5.73.01,1.79-.32,3.35-1.2,4.89-.53.93-1.06,1.6-2.25,1.49-.83-.07-1.76-.12-1.57,1.18.15,1.02.66,1.66,1.79,1.54.79-.08,1.66.03,2.21-.77,1.62-2.35,3.26-4.63,2.68-7.82-.72-3.96.75-7.43,3.16-10.43,1.85-2.31,2.58-4.83,2.51-7.7-.1-4,.09-7.98.78-11.92.43-2.41-.1-4.54-1.42-6.49-1.53-2.26-.87-5.23-2.55-7.42-1.12-.4-1.45-1.39-1.77-2.38-1.58-.67-1.64-2.62-3-3.55-.63-.43-1.17-1.07-1.88-1.47-1.66-.89-2.83-2.28-3.88-3.8-2.21.75-3.06-.78-3.42-2.38-.48-2.15,1.55-2.04,2.81-2.56.7-.03,1.4-.06,2.1-.08.59-.11,1.18-.23,1.77-.34.78-.41,1.61-.45,2.45-.25,1.49-.95,3.15-.16,4.73-.38,1.81-.26,3.64-.46,5.47-.74,3.74-.58,5.9.3,8.71,3.18.68.69.58,1.36.08,2.3-.84,1.57-2.24,2.64-3.13,4.18-1.84,3.15-1.24,6.24.06,9.15.98,2.2,3.5,2.74,5.68,2.96,1.77.17,2.48,1.08,3.31,2.4,1.47,2.34,2.55,4.77,2.96,7.5.23,1.52.06,2.76-1.25,3.91-7.7,6.78-9.04,15.83-8.8,25.38.03,1.33.05,2.15-1.46,2.79-3.26,1.38-4.97,4.47-6.48,7.38-1.43,2.76-2.8,5.76-2.49,9.06.1,1.08-.54.99-1.13,1.09-1.96.31-3.71-.3-5.31-1.36-4.67-3.1-8.81-6.71-11.35-11.85-.35-.72-.75-1.33-1.64-1.11-.99.25-.97,1.11-1.08,1.94-.65,4.91,1.02,9.47,2.16,14.1.19.77.52,1.51.3,2.53-1.75-.89-3.51-2-5.11.07-.06.08-.36.09-.46.01-1.96-1.4-4.01-2.71-5.81-4.29-.49-.43-.72-1.62-1.37-1.91-2.55-1.17-2.43-3.56-2.31-5.56ZM373.38,572.25c.78-1.08,1.48-.97,2.22.19,1.29,2.04,1.42,4.25,1.27,6.07,0,1.13.05,1.78-.01,2.43-.07.77.44,1.88-.32,2.23-1.01.47-1.76-.56-2.44-1.2-2.36-2.24-2.7-6.99-.72-9.72ZM361.94,579.49c-3.22-2.86-4.98-6.62-6.44-10.52-.97-2.59-1.51-5.32-1.77-8.1-.12-1.24.01-2.38.7-3.66,1.11.93.91,2.17,1.01,3.01.58,4.72,4.58,6.41,7.61,8.91,1.94,1.6,4.37,1.65,6.77,1.39,1.93-.21,2.89.14,1.8,2.35-1.05,2.12-.25,4.52-.68,6.98-.64-.17-1.06-.2-1.4-.39-1.15-.65-1.97-1.09-3.16.35-1.24,1.5-2.99.97-4.44-.32Z" style="fill: #333120;"/>
    <path d="M415.53,597.87c1.61,3.91,4.48,3.91,7.53,3.53,3.35-1.11,4.38-3.65,2.43-5.4-2.65,3.29-5.99,3.68-9.96,1.87Z" style="fill: #333120;"/>
    <path d="M426.54,589.12c-2.08,1.39-4.06,3.03-6.86,2.42-.48-.1-.71.34-.78.76-.07.46.23.72.6.94,1.9,1.12,3.86,1.68,6.01.74.2-.97,1.05-1.44,1.7-1.98,1.19-1,1.26-1.94.28-3.06-.32.05-.7.01-.95.18Z" style="fill: #333120;"/>
    <path d="M411.08,614.36c-2.77.69-4.82-.59-6.65-2.45-.62-.64-1.24-1.32-2.14-1.54-.53-.12-1.17-.32-1.52.32-.3.55.18.88.52,1.21,1.17,1.1,2.35,2.18,3.52,3.27,1.75,1,3.58,1.8,5.63,1.95,1.06.08,1.75-.55,2.07-1.37.53-1.34-1.03-.83-1.43-1.39Z" style="fill: #333120;"/>
    <path d="M370.53,598.32c.16-.46.94-1.46-.33-1.74-.93-.21-1.24.56-1.51,1.24-.71,1.76-.4,3.66-.69,5.48.4,1.31.59,2.74,1.27,3.88.7,1.18,1.79,2.53,3.3.66-2.98-2.68-3.27-5.9-2.04-9.51Z" style="fill: #333120;"/>
    <path d="M368.22,593.68c.28-.05.43-.22.26-.46-.04-.06-.37.07-.57.11-2.02.79-2.83,2.77-4.16,4.23-.04,1.42-.62,2.8,0,4.27.81,1.92,1.79,2.24,3.66.97-2.18-2.78-1.75-5.43.34-8.04.24-.3.32-.72.47-1.08Z" style="fill: #333120;"/>
    <path d="M378.35,610.33c-2.74-1.57-3.71-4.11-3.9-7.11-.04-.64.27-1.73-.82-1.7-1.01.03-1.16,1.01-1.04,1.82.24,1.66.59,3.31.9,4.96,1.65,1.19,2.36,3.73,5.01,3.44.22-.36.44-.72.66-1.08-.28.12-.57-.21-.82-.35Z" style="fill: #333120;"/>
    <path d="M379.42,610.26c-.08.14-.17.27-.25.41.11-.05.21-.16.31-.38,0,0-.02,0-.03-.02l.03.02s0,0,0,0c-.02,0-.03-.02-.05-.02,0,0,0,0,0,0Z" style="fill: #333120;"/>
    <path d="M269.16,377.53s.03-.03.03-.03c-.06-.03-.12-.05-.18-.08.05.03.1.07.15.1Z" style="fill: #333120;"/>
    <path d="M368.79,406.63c.64-.16,1.1-.36,1.4.66.54,1.82,1.95,2,3.47,1.16,2.02-1.11,3.92-2.42,6.14-3.18,3.8-1.3,7.36-3.06,10.48-5.64,5.62-4.65,8.58-11.17,12.13-17.27.26-.45.28-1.12.24-1.68-.2-2.59,0-5.24-.82-7.76-.66-2.03.26-3.28,2.08-3.67,1.84-.4,3.23-1.46,4.66-2.47,2.37-1.67,3.45-5.28,2.53-8.09-.93-2.88-4.54-6.39-6.75-6.34-3.91.08-7.68-1.11-11.6-.89-.04-1.19.76-1.78,1.13-2.57.58-1.25.4-2.36-.45-3.41-.74-.91-1.73-1.08-2.63-.57-1.31.74.1,1.34.35,1.88,1.27,2.72.64,4.82-2.06,6.07-.63.29-1.01.65-1.36,1.22-1.22,1.94-1.38,4.03-1.46,6.28-.08,2.36.43,3.9,2.69,4.97,2.52,1.2,3.66,3.6,3.42,6.26-.48,5.35-1.11,10.7-2.32,15.95-1,4.34-2.66,8.53-7.12,10.19-5.39,2-9.09,6.82-14.71,8.3.19.2.39.41.58.61Z" style="fill: #333120;"/>
    <path d="M433.75,343.69c-.54,0-1.53.05-2.5-.01-1.55-.1-2.54.64-2.86,2.08-1.85,8.35-2.49,14.06,4.55,19.36,3.86,2.91,6.37,6.79,6.89,11.89.43,4.19,2.8,6.47,6.81,7.22,2.07.39,4.16.49,6.32.27,3.24-.33,5.05-2.17,6.4-4.9,3.4-6.87-.15-12.56-3.12-18.27-2.43-4.68-6.89-7.78-9.87-12.05-3.01-4.3-7.04-6.11-12.62-5.6ZM440.57,352.86c1.49,2.28,3.25,4.29,5.25,6.07,2.68,2.39,3.66,5.67,5.04,8.76.4.9.75,1.83,1.63,2.37,2.9,1.78,1.9,6.6-1.31,8.66-1.17.75-2.77.75-3.88-.79-1.76-2.46-3.31-5.02-4.44-7.82-2.01-4.97-4.02-9.91-9.02-12.78-.93-.53-1.28-1.44-1.07-2.7.06-1.45.39-3.02,2.28-3.38,2.07-.39,4.25-.32,5.52,1.61Z" style="fill: #333120;"/>
    <path d="M409.25,403.93c1.91-2.55,4.02-4.9,6.74-6.64,2.72-1.74,4.82-4.13,6.65-6.75,2.27-3.27,3.48-6.81,2.6-10.83-.62-2.83-2.84-4.39-5.7-4.02-1.13.15-2.26.46-3.34-.16-1.13-.65-2.11-.35-3.21.21-2.83,1.44-4.39,3.73-5.12,6.77-.56,2.33-.26,4.73-.75,7.04-1.13,5.34-4.02,9.9-6.64,14.58-.99,1.77-2.06,3.3-4.37,3.39-.51.02-1.42.15-1.23,1.12.61,3.01,2.47,4.06,5.58,3.2,1.78-.49,3.3-1.48,4.53-2.78,1.21-1.29,2.53-1.97,4.29-1.71.31-.27.62-.54.93-.8-.74-.3-1.9.34-2.25-.47-.42-.96.77-1.46,1.28-2.13Z" style="fill: #333120;"/>
    <path d="M511.13,427.45c.21-.1.38-.13.43-.46.64-4.18-2.74-8.58-6.12-8.41-2.44.13-4.68.71-6.63,2.15-4.87,3.6-5.65,8.87-5.75,14.38,0,3.2.33,6.36,1.45,9.37,1.45,3.9,5.73,5.51,9.46,3.67,1.57-.77,2.29-1.94,2.09-3.7-.19-1.7-.5-3.41-.44-5.11.16-4.71.44-9.44,5.52-11.89Z" style="fill: #333120;"/>
    <path d="M477.12,389.08c-1.9-.4-3.36.58-4.44,2-2.55,3.34-2.67,7.07-.75,10.6,4.55,8.35,11.77,12.69,20.89,13.4,1.16-.1,1.97-.15,2.78-.24,2.98-.33,5.32-1.98,5.82-4.12.49-2.08-.77-3.97-3.7-5.74-3.08-1.86-6.43-2.07-9.9-2-3.93.08-5.84-1.49-6.76-5.31-.4-1.66-.71-3.34-1.07-5.01-.35-1.68-1.02-3.18-2.88-3.57Z" style="fill: #333120;"/>
    <path d="M519.99,535.61c.72.04,1.38-.04,2.11-.26,2.05-.6,3.59-2.02,5.39-3-.4-1.92-1.41-1.51-2.36-.52-1.36,1.42-3.03,1.86-4.87,1.8-11.3-.4-21.08-3.94-27.78-13.67-.49-.71-1.06-1.15-1.77-.7-.72.45-.06,1.19.1,1.71.22.76.7,1.47,1.19,2.11,1.71,2.25,3.51,4.34,5.91,6.01,4.02,2.8,8.23,4.89,13.18,5.25.99.07,1.82.25,2.27,1.46-9.93.12-17.37-4.62-23.95-11.28,2.77,8.48,9.96,11.4,17.5,13.99-4.11.18-8.08.9-11.9-.77-3.51-1.54-6.41-4-9.29-6.51-.07,2.01,1.91,2.74,2.04,4.41-.61.43-1.33-.58-1.59.09-.32.8.46,1.27,1.1,1.65,2.59,1.51,5.35,2.63,8.47,3.34-1.97,1.7-3.77,3.42-6.08,3.85-6.77,1.26-13.24.58-18.85-3.93-.38-.3-.8-.8-1.19-.22-.29.44.09.93.55,1.18,1.93,1,3.64,2.36,5.66,3.25,6.27,2.76,12.67,2.54,18.22-.95,3.58-2.26,6.71-3.66,10.79-2.65.61-.03,1.22-.07,1.83-.1.49-.91,1.43-.46,2.14-.69,1.72-2.48,4.25-2.45,6.88-2.32.91.04,1.84-.38,2.71-.57.22-.95-1.3-1.47-.41-2.29.71-.65,1.31.32,2,.36Z" style="fill: #333120;"/>
    <path d="M462.26,397.07c1.5,1.62,3.06,1.12,4.42-.33,1.61-1.71,2.01-4.58.94-6.59-1.31-2.48-3.62-2.59-5.92-2.24-3.41.53-6.83.71-10.24.38-3.53-.35-4.18.19-4.52,4.47.05,4.02,1.24,4.96,5.14,4.02.95-.23,1.98-.33,2.81-.78,2.76-1.5,5.14-1.32,7.35,1.08Z" style="fill: #333120;"/>
    <path d="M450.4,413.92c2.39-1.42,4.12-3.5,4.44-6.39.19-1.65-.26-3.13-2.18-3.54-2.23-.48-4.75.37-4.95,2-.33,2.63-2,3.97-3.99,5.17-2.58,1.56-3.38,4.03-3.55,6.83.14,1.91.65,3.69,1.91,5.16,1.58,1.86,4.24,1.35,5-.97.25-.76.38-1.62.3-2.41-.28-2.65.72-4.48,3.03-5.85Z" style="fill: #333120;"/>
    <path d="M498.15,504.48c-2.44.55-2.54,2.52-2.38,4.45.3,3.51,6.18,9.04,9.7,9.24.16,0,.33,0,.49,0,4.17-.22,7.45-2.66,10.94-4.52.75-.4.95-1.25-.21-1.77-1.18-.53-2.37-1.01-3.25-2.08-.93-1.13-2.22-1.01-3.36-.42-1.06.55-.85,1.51-.56,2.55.33,1.16-.12,2.25-1.16,2.96-.7.48-1.51.39-2.01-.21-.86-1.02-1.96-1.89-2.14-3.4-.15-1.37-.41-2.76-.85-4.06-.84-2.49-2.52-3.34-5.22-2.73Z" style="fill: #333120;"/>
    <path d="M515.19,492.16c-1.93-.22-3.6-.02-4.29,1.82-.78,2.08,1,2.78,2.32,3.71,2.79,1.97,5.62,3.89,7.4,6.98.6,1.04,1.55,1.98,3.01,1.59,3.33-.88,8.39-9.36,7.65-12.82-.07-.31-.19-.62-.33-.92-.67-1.46-2.03-1.65-3.4-1.82-.92-.11-1.67.23-1.98,1.08-.46,1.28.33,2.16,1.18,2.98.12.11.24.23.33.36.87,1.38.85,2.96.05,4.16-1.23,1.85-3.16,1.13-4.92.71-1.53-.36-1.72-1.3-1.65-2.73.15-2.86-2.3-5.01-5.38-5.11Z" style="fill: #333120;"/>
    <path d="M526.97,460.18c-1.03.28-1.57.62-1.58,1.73,0,1.38-.17,2.77-.15,4.15.01,1.08.25,2.22,1.48,2.55,1.14.3,2.05-.36,2.77-1.19.43-.49.89-1,1.11-1.59.64-1.74,1.19-3.45,3.58-3.35.37.02.86-.48,1.14-.86,1.86-2.58,3.67-5.19,4.02-8.48-.06-.37-.11-.74-.17-1.11-1.46-1.7-5.18-2.7-7.2-1.81-2.12.93-.74,2.87-1.11,4.32-.04.15,0,.32,0,.49,0,4.03.02,4.09-3.88,5.17Z" style="fill: #333120;"/>
    <path d="M348.56,395.12c.96-1.43,1.78-1.77,3.12-1.27,1.01.38,1.93.43,2.06-.75.11-1.03-.78-1.49-1.82-1.43-.49.03-.98,0-1.47,0-5.28.03-7.56,1.89-8.86,7.18-.1.39-.32.76-.37,1.15-.3,2.61-1.82,5.08-.95,7.83.4,1.26,1.12,2.21,2.61,2.09,1.17-.1,2.32-.41,2.71-1.69.32-1.05.11-2.12-.35-3.1-.57-1.2-.56-2.5.1-3.51,1.33-2.04,1.83-4.44,3.22-6.5Z" style="fill: #333120;"/>
    <path d="M423.78,344.12c-.49.1-.92.11-1.27.27-3.72,1.78-6.3,4.97-9.35,7.58-.4.34-.67,1.1.1,1.39,1.27.48,1.2,1.59,1.47,2.58.37,1.34.88,2.63,1.96,3.56,1.27,1.09,2.52.88,3.64-.27,1.03-1.06,2.19-2.06.8-3.72-.79-.94-1.55-1.86-2.6-2.52-.95-.61-1.22-1.56-.78-2.54.45-1.02,1.28-1.6,2.51-1.56,1.3.04,1.25.88,1.37,1.82.15,1.23,1.11,1.76,2.11,1.13,1.39-.87,2.63-2.24,2.55-3.91-.07-1.56-.31-3.5-2.51-3.81Z" style="fill: #333120;"/>
    <path d="M347.13,413.96c.84.49,1.75.85,2.79.84,3.26-.12,4.68-2.54,5.92-5.01.99-1.97-.4-4.03-2.62-3.77-1.7.2-3.64.52-3.78,2.97-.05.92-.34,1.74-1.64,1.54-.68-.11-1.59-.11-1.7.89-.1.98.06,1.98,1.03,2.54Z" style="fill: #333120;"/>
    <path d="M354.89,426.24c-1.55-.1-2.68,1.19-4.23.82-1.72-.42-2.84.57-4.06,1.78,1.61.26,3.06.12,4.21-.49,4.2-2.24,11.32.29,13.42,3.65,1.5,2.4,1.51,3.54-.34,5.61-.57.64-1.89,1.29-.65,2.3.99.8,2.04.5,3.02-.46.78-.77.43-2.06,1.41-2.64-.51-8.48-6.18-10.11-12.78-10.54Z" style="fill: #333120;"/>
    <path d="M367.76,436.73s-.06.04-.09.05c0,.01,0,.03,0,.04.03-.02.05-.04.08-.06,0,0,0-.02,0-.03,0,0,0,0,0,0Z" style="fill: #333120;"/>
    <path d="M359.52,505.23c2.53-.64.96-1.65.32-2.6-1.54.09-3.25.1-4.35,1.19-1.14,1.13-2.29,1.85-4.62,1.61,1.67,1.1,2.71,1.84,1.99,3.31.21.21.42.42.63.63,1.75.71,3.43,1.76,5.46.94,2.22-.89,4.34-1.98,6.75-2.48,1.74-.36,2.07-1.85,1.01-3.41-.61,1.51-1.08,2.97-3.38,2.25-.64-.2-1.87.52-2.79.84-.86.3-1.11.39-1.36-.45-.2-.67-.73-1.56.34-1.83ZM357.02,509.45c-.98,0-2.13-.28-2.02-1.71.06-.68-.53-1.76,1.45-2.38.75.97,1.74,1.86,2.16,2.96.25.64-.99,1.13-1.59,1.13Z" style="fill: #333120;"/>
    <path d="M373.27,364.71c1.79-.31,4.3,1.51,5.26-1.66.24-.78,1.19-.67,1.93-.62.91.05,2.01.55,1.99-1.16-.02-1.33.13-2.62-1.69-2.8-.81-.08-1.61-.12-2.17-.16-4.13-.02-6.39,1.67-6.34,4.62.01.72-.11,1.98,1.03,1.78Z" style="fill: #333120;"/>
    <path d="M523.43,489.32c1.12.41,2.14-.18,2.8-1.04,1.25-1.63,2.67-2.79,4.85-2.8.87,0,1.69-.56,1.63-1.48-.06-.85-.99-.59-1.6-.68q-3.27-.45-2.25-3.61c.16-.48.19-.92-.3-1.29-.5-.39-.84-.3-1.22.16-2.14,2.59-3.42,5.6-4.54,8.44.34.99-.26,1.97.62,2.3Z" style="fill: #333120;"/>
    <path d="M340.24,503.93c-1.11.18-2.61.22-3.96.71-1.61.58-2.47,1.68-1.55,3.62,1.28,2.69,3.2,3.82,6.07,3.11,1.52-.37,2.98-.96,4.48-1.44.85-.27,1.48-.73,1.16-1.72-.6-1.84-3.93-4.23-6.19-4.27ZM344.37,508.61c-.89.94-2.46,1.19-3.65-.1-.87,1.04-1,3.73-3.36,1.47-.55-.53-.41-.93-.14-1.46.34-.66.66-.4,1.1-.09.75.52,1.13-.04,1.47-.62h0c-.85.02-1.14-.22-.45-.94-.13-.58-.84-1.33-.16-1.72.82-.47,1.91-.43,2.81,0,.47.23.92.72,1.14,1.21.38.82,2.04,1.41,1.25,2.24Z" style="fill: #333120;"/>
    <path d="M537.7,477.23c.16,1.38,1.29.77,1.92.71,2.07-.19,3.16.89,3.93,2.59.63,1.37,1.88,1.05,2.97.96,1.05-.09,1.55-.83,1.62-1.83.09-1.21-.61-1.74-1.72-1.95-1.12-.22-1.8-1.07-2.46-1.9-.83-1.04-1.88-1.53-3.59-1.44-.16.04-.75.08-1.27.29-1.13.47-1.54,1.42-1.4,2.58Z" style="fill: #333120;"/>
    <path d="M506.49,414.81c1.29-.04,2.3.03,3.2-.42.42-.21,1.28.24,1.23-.72-.03-.65-.12-1.62-.76-1.65-1.89-.1-1.54-1.43-1.69-2.55-.2-1.6-1.48-2.32-2.94-1.47-1.84,1.07-2.29,2.9-2.02,4.88.27,1.93,1.69,2.14,2.97,1.94Z" style="fill: #333120;"/>
    <path d="M462.07,364.11c.83.99,1.63,2.01,2.54,2.93.44.44,1.06.73,1.77.37.69-.35.88-.9.81-1.99-.06-.17-.21-.71-.41-1.23-1.06-2.68-3.98-3.34-5.8-5.22-.36-.37-1.67-.53-2.06.48-.33.86-.21,1.86.69,2.36,1.04.57,1.72,1.44,2.45,2.31Z" style="fill: #333120;"/>
    <path d="M496.58,545.26c-.04-.54-.36-.61-.81-.65-1.05-.1-1.75.31-1.89,1.37-.2,1.5-1.43,1.75-2.49,1.92-4.5.74-9.05,1.64-13.23-1.26-.45-.31-1.1-1.16-1.63-.3-.59.95.74,1.32,1.06,1.43,2.88,1,5.68,2.46,9.07,2.22,3.07.22,6.02-.76,8.87-2.29,1.11-.6,1.13-1.43,1.06-2.44Z" style="fill: #333120;"/>
    <path d="M446.42,336.72c.97-.37.98-1.46.62-2.33-.4-.97-1.27-.89-2.06-.51-2.03.97-3.2,2.64-3.81,4.75-.01,2,1.48,2.79,2.89,3.55.63.34,1.48.44,1.97-.32.38-.59.15-1.12-.27-1.74-.82-1.23-1.53-2.55.65-3.39Z" style="fill: #333120;"/>
    <path d="M350.24,437.75c4.82.7,10.19.45,11.48,6.91.48-.02.96-.03,1.44-.05.54-.76.76-1.55.38-2.49-1.77-4.31-9.96-6.47-13.3-4.37Z" style="fill: #333120;"/>
    <path d="M425.47,371.7c-.29-.65-.75-1.25-1.21-1.81-1.18-1.44-2.27-2.79-2.41-4.87-.16-2.25-1.85-3.22-4.28-3.18.18,1.38.71,2.46,1.38,3.44,1.64,2.42,3.36,4.78,5,7.2.3.44.31,1.25,1.08.92.72-.31.72-1.1.44-1.7Z" style="fill: #333120;"/>
    <path d="M351.88,488.38c.02-1.32-.32-3.04-3.16-2.47-.77.46-3.16-.51-3.4,2.2-.22,2.5,1.62,2.5,3.27,2.61,1.7.12,3.26-.44,3.29-2.33Z" style="fill: #333120;"/>
    <path d="M374.01,440.52c1.9-.29,2.77,1.21,3.95,2.18.41-2.26-1.26-3.86-3.46-3.27-1.09.3-2.14.91-3.24,1-1.43.12-2.77-.2-1.83-2.24.4-.87.39-1.74-.37-2.47-.43.34-.86.69-1.29,1.03-.23,1.14-.15,2.29.02,3.43,1.1.3,2.04.96,3.29,1.01,1.47.07,1.3,1.32,1.06,2.39,1.21.21,1.7-.14,1.07-1.37-.57-1.11-.34-1.52.81-1.7Z" style="fill: #333120;"/>
    <path d="M480.11,513.2c.47-.19.77-1.39,1.41-.53,1.61,2.14,3.37.89,5.56.57-.96-.83-1.54-1.17-1.92-1.68-1.35-1.81-2.84-1.87-4.55-.54-.38.29-.82.59-1.27.68-.92.17-1.34.87-1.06,1.51.43.97,1.17.26,1.82,0Z" style="fill: #333120;"/>
    <path d="M482.29,387.37c1.06-.11,2.39.02,2.7-.92.34-1.03-.87-1.58-1.71-2.03-.64-.35-1.32-.64-2.01-.87-1.09-.35-2-.02-2.31,1.12-.29,1.07.12,1.94,1.28,2.26.7.19,1.43.3,2.05.43Z" style="fill: #333120;"/>
    <path d="M329.54,504.77c-1.54.25-3.46-.26-3.54,2.42-.07,2.23,1.62,2.17,2.88,2.2,1.61.04,3.33-.39,3.44-2.52.1-1.89-1.11-2.28-2.78-2.11ZM331.19,506.9c.03,1.09-.5,1.66-1.36,1.47-1.32-.11-2.74.05-2.68-1.36.07-1.61,1.76-.98,2.74-1.32,1.03-.36,1.29.44,1.31,1.21Z" style="fill: #333120;"/>
    <path d="M437.95,483.85c2.48.36,3.61-1.59,5.08-2.97.25-1.2,2.13-.46,2.25-1.85-3.43-.19-5.48,1.17-7.33,4.83Z" style="fill: #333120;"/>
    <path d="M509.89,502.76c2.8.38,3.03.23,2.72-2.97-2.62,1.62-5.62,1.71-8.45,2.5,1.93.24,3.85.22,5.73.48Z" style="fill: #333120;"/>
    <path d="M354.39,487.8c1.35.26,1.78-.71,1.87-1.81.11-1.25-.77-1.64-1.86-1.67-1.38-.04-2.16.69-2.12,2.01.04,1.17.92,1.56,2.11,1.47Z" style="fill: #333120;"/>
    <path d="M338.13,487.69c-1.14-.07-1.72.45-1.73,1.51-.01,1.17.69,1.75,1.53,1.78,1.31-.05,2.13-.41,2.11-1.53-.03-1.14-.74-1.69-1.91-1.76Z" style="fill: #333120;"/>
    <path d="M506.77,488.13c1.06.18,2.47-.33,2.27-1.05-.36-1.29-1.74-2.07-3.22-2.12-.48-.02-1.27-.19-1.07.99.22,1.31.27,2.45,2.02,2.18Z" style="fill: #333120;"/>
    <path d="M477.51,524.74c.44.64.83,1.41,1.85,1.71-.32-1.79,1.35-3.02,1.21-5.11-1.16.69-.96,2.39-2.64,1.87-.6-.18-.81.96-.42,1.53Z" style="fill: #333120;"/>
    <path d="M512.85,432.31c-.94,2.21-.76,3.74,1.26,5.13.15-1.98-.29-3.42-1.26-5.13Z" style="fill: #333120;"/>
    <path d="M299.6,453.12c4.54-.06,9.09-.13,13.63-.21,0-.17.02-.34.03-.51h-14.55c.29.56.59.73.89.72Z" style="fill: #333120;"/>
    <path d="M423.03,477.1c-.14.76-.28,1.51-.42,2.27.18.59-.05,1.64,1.14,1.15.8-.33,1.38-.94.79-1.84-.39-.6-.46-1.58-1.51-1.58Z" style="fill: #333120;"/>
    <path d="M467.55,507.78c-1.53,2.17-1.01,3.63,0,5.09v-5.09Z" style="fill: #333120;"/>
    <path d="M449.57,535.42c.04.3.08.6.11.9.99.82,2.1.42,3.24.42-.55-2.19-2.07-1.45-3.36-1.33Z" style="fill: #333120;"/>
    <path d="M544.51,496.07c.69-.93,2.3-.46,2.83-1.83-1.69-.53-2.53,1.03-3.8,1.32.23.35.53.56.97.51Z" style="fill: #333120;"/>
    <path d="M523.36,469.74c-.73.44-1.91.72-1.08,2.18.54-.87,2.03-.51,2.03-1.83,0-.53-.64-.54-.94-.36Z" style="fill: #333120;"/>
    <path d="M611.83,450.53c-1.14.1-.72.9-.61,1.46.61,3.13-.54,5.78-2.28,8.21-1.23,1.72-2.77,3.22-3.93,4.99-1.05,1.6-2.68,3-2.54,5.47,3.81-4.15,7.67-7.89,10.03-12.84.98-2.05.61-4.15.65-6.24.02-.79-.54-1.11-1.32-1.05Z" style="fill: #333120;"/>
    <path d="M596.85,454.08c-.45.44-1.22.84-.57,1.55.54.59,1.05-.11,1.46-.39,3.85-2.67,6.38-6.14,6.5-11.45.14-1.06,0-2.52-.44-3.93-.24-.77-.91-1.21-1.71-.88-1.02.42-.7,1.07-.14,1.72.76.88.69,1.94.63,3-.25,4.38-2.75,7.51-5.72,10.37Z" style="fill: #333120;"/>
    <path d="M373.07,433.97c-.37-.08-.52.37-.52.69-.02,1.56,1.33,1.73,2.39,2.18-.63-1.02-.42-2.56-1.87-2.87Z" style="fill: #333120;"/>
    <path d="M518.65,377.48c4.39,1.41,8.82,2.26,13.31.48,1.26-.5,2.37-1.48,2.25-2.91-.14-1.63.74-2.25,1.88-2.95,1.59-.97,3.3-1.93,3.57-4.04.08-.6.49-1.51-.6-1.79-1.08-.27-1.14.54-1.36,1.25-.6,1.96-2.01,3.11-3.93,3.65-2.43.7-4.89,1.18-7.46.87-1.39-.17-1.4-.1-3,.77,2.69.66,5.09,1.3,7.65,1.11.68-.05,1.73-1,2.01.32.21.97-.68,1.51-1.55,1.92-2.25,1.04-4.56,1-6.94.66-2.22-.33-4.46-.57-6.92-.87.2.66.2.86.3.95.23.22.49.48.78.58Z" style="fill: #333120;"/>
    <path d="M536.94,365.27c2.8-.43,5.3-2.62,5.57-4.74.11-.83-.04-1.5-.92-1.72-1.11-.28-.89.59-.94,1.2-.12,1.61-1.09,2.37-2.56,2.83-1.8.56-3.61.94-5.5.97-1.75.02-3.47.22-5.1,1.01,3.15.86,6.29.93,9.45.44Z" style="fill: #333120;"/>
    <path d="M533.89,354.21c-.02.39-.03.78-.05,1.17,2.42.22,4.79-.16,7.17-.47,3.05-.39,5.04-2.37,6.73-4.71.46-.64.44-1.35-.42-1.82-.94-.51-1.25.19-1.33.8-.25,1.87-1.65,2.45-3.12,3.01-2.9,1.1-5.95,1.53-8.98,2.02Z" style="fill: #333120;"/>
    <path d="M542.76,347.68c1.9-1.46,2.03-2.35,1.29-4.71-3.03,5.88-8.53,5.87-14.39,6.13,5.69,2.95,9.94,1,13.11-1.42Z" style="fill: #333120;"/>
    <path d="M526.32,385.39c1.97-.54,2.86-1.98,3.36-3.78.15-.53-.11-.96-.63-1.15-.33-.12-.52.05-.74.37-2.1,3.19-3.16,3.58-6.65,2.76-1.64-.39-3.32-.6-5.63-1,3.33,3.02,6.57,3.81,10.29,2.8Z" style="fill: #333120;"/>
    <path d="M421.59,502.95s-.03,0-.04,0c0,.01,0,.02,0,.03l.03-.03Z" style="fill: #333120;"/>
    <path d="M420.32,500.82c-.14-.02-.45.25-.49.44-.17.72.21,1.23.82,1.54.26.13.59.1.9.14-.07-.3-.09-.62-.23-.88-.25-.48-.34-1.13-1-1.24Z" style="fill: #333120;"/>
    <path d="M421.76,503.18c-.05-.05-.11-.11-.16-.16,0,.04.01.08.03.11.02.03.08.04.13.05Z" style="fill: #333120;"/>
    <path d="M421.59,502.95s-.03.03-.03.03c.02.02.03.03.05.05,0-.03,0-.05-.01-.08Z" style="fill: #333120;"/>
  </g>
</svg>