<?xml version="1.0" encoding="UTF-8"?>
<svg id="Camada_1" data-name="Camada 1" xmlns="http://www.w3.org/2000/svg" viewBox="0 0 567.05 803.11">
  <path d="M99.33,3.45H0v3.84s6.31.38,18.94,8.44c12.63,8.06,10.1,42.2,10.1,84.41s2.53,98.6-3.37,111.26c-7.36,15.81-25.67,14.2-25.67,14.2v4.6h109.85c39.14,0,116.59-38.75,116.59-117.4S134.26,3.45,99.33,3.45ZM113.22,221.06c-41.67,8.44-55.51,6.61-57.66-13.04-.42-3.84,0-14.2,0-23.02V38.43c0-25.71,4.21-34.91,47.14-28.77,42.93,6.14,97.23,42.3,97.23,104.74s-45.04,98.22-86.7,106.66Z" style="fill: #f4f3e9;"/>
  <path d="M518.41,770.3c-7.66-20.14-73.37-193.66-73.37-193.66h-52.15l.29,3.45s8.01.44,11.2,3.09c3.69,3.07,9.8,9.57,6.78,19.93-3.93,13.5-60.99,168.05-68.95,182.43-7.96,14.39-24.75,12.09-24.75,12.09v5.47h58.05v-4.32s-2.71-.68-6.38-1.91c-.08-.03-6.13-2.31-8.8-7.15-2.68-4.87-.44-12.95,4.57-17.12,5.01-4.17,47.88-47.34,60.55-58.84,12.67-11.51,17.53-17.84,24.75-18.42,7.22-.58,10.22,6.45,10.22,6.45h0c5.18,13.49,9.54,24.86,12.03,31.39,10.31,27.05,19.15,42.01,13.55,52.95-5.6,10.93-19.74,12.09-19.74,12.09v4.89h81.03v-5.47c-13.55,0-21.22-7.19-28.88-27.34ZM443.28,689.02c-4.71,5.9-70.87,69.78-75.29,72.66-4.42,2.88-10.66-1.44-8.1-8.32.07-.2.15-.4.22-.6l1.17-3.12c20-53.42,58.42-153.7,58.42-153.7,0,0,14.99,38.95,29.32,76.22h0c.74,5.43-1.04,10.97-5.75,16.87Z" style="fill: #f4f3e9;"/>
  <path d="M419.75,0c-66.72,0-120.81,52.3-120.81,116.83s54.09,116.83,120.81,116.83,120.81-52.3,120.81-116.83S486.47,0,419.75,0ZM420.34,228.67c-68.75,0-91.54-59.85-91.54-112.41,0-56.4,27.89-110.88,93.11-110.88s89.97,67.91,89.97,110.88-22.79,112.41-91.54,112.41Z" style="fill: #f4f3e9;"/>
  <path d="M219.52,588.73c7.07-8.34,19.15-6.91,19.15-6.91v-5.18h-77.79v4.6s10.09.93,17.16,5.54c7.07,4.6,9.65,14.89,9.65,28.42v53.71c0,10.07-9.04,17.84-15.03,18.78-5.99.94-36.54.6-53.04.6s-49.4.1-56.57-1.15c-7.17-1.25-11.49-11.8-11.49-17.55v-46.33c0-21.01,0-26.19,7.07-34.53,7.07-8.34,19.15-6.91,19.15-6.91v-5.18H0v4.6s10.09.93,17.16,5.54c7.07,4.6,9.65,14.89,9.65,28.42v132.94c0,26.47.29,34.53-5.3,42.01-5.6,7.48-21.51,9.5-21.51,9.5v3.45h77.79v-3.74s-11.27-1.15-18.34-6.62c-7.07-5.47-7.88-15.25-7.88-33.09v-48.34c0-9.02,9.33-18.9,17.97-18.9s89.77-.67,102.15,0c12.38.67,16.01,15.25,16.01,15.25v40.48c0,26.47.29,34.53-5.3,42.01-5.6,7.48-21.51,9.5-21.51,9.5v3.45h77.79v-3.74s-11.27-1.15-18.34-6.62c-7.07-5.47-7.88-15.25-7.88-33.09v-136.39c0-21.01,0-26.19,7.07-34.53Z" style="fill: #f4f3e9;"/>
  <path d="M0,304.73v4.82s15.62.94,22.11,9.38c6.49,8.44,6.09,11.32,6.09,25.51,0,14.2,0,67.72,0,90.55,0,22.83,6.29,57.17,29.01,75.01,22.72,17.84,41.58,24.94,65.31,24.75s56.58-5.87,77.89-41.24c10.75-17.84,10.75-25.9,10.75-53.33,0-27.43,0-88.24,0-103.78,0-15.54,13.59-28.39,27.59-27.43v-4.22s-59.43,0-59.43,0v4.03s12.78.19,19.27,6.71,7.1,11.51,7.1,19.57,0,90.74,0,110.69c0,19.95-15.42,65.42-70.59,65.42s-71-28.25-77.69-46.04c-3.25-8.63-3.04-28.2-3.04-43.74,0-15.54,0-74.05,0-87.67s7.51-22.64,26.17-24.75v-4.22S0,304.73,0,304.73Z" style="fill: #f4f3e9;"/>
  <g>
    <path d="M246.95,346.38s.02.01.03.02c0-.01,0-.03,0-.04l-.02.03Z" style="fill: #f4f3e9;"/>
    <path d="M542.75,334.2s-.02.06-.02.09c.02,0,.05,0,.07,0,0,0-.05-.08-.05-.08Z" style="fill: #f4f3e9;"/>
    <path d="M534.97,354.33c-.31.51-.7.97-.99,1.49-.3.54-.51,1.26,0,1.65.56.43,1.11-.05,1.5-.53.14-.17.25-.37.38-.55,4.32-5.8,6.24-12.18,4.71-19.41-.1-.45-.47-1.12.08-1.45.65-.39,1.11.26,1.52.64,1.78,1.63,2.22,3.81,2.43,6.09.46,5.01-1.5,9.36-3.66,13.67-.33.67-1.16,1.53-.09,2.05,1.06.53,1.26-.66,1.64-1.32,2.16-3.75,3.57-7.77,4.03-12.39,2.12,1.92,2.28,4.1,2.2,6.36-.31,8.53-3.42,15.99-8.65,22.65-.58.74-1.35,1.4-1.12,2.83,7.07-6.17,10.64-13.84,11.61-22.9,1.74,2.91,1.63,5.78.21,8.58-1.27,2.51-2.7,4.94-4.06,7.4.09.54-.02,1.16.6,1.48,2.29-2.42,4.09-5.13,5.07-8.35.21-.69.27-1.59,1.3-1.55,1.12.05,1.14.95,1.27,1.78.82,5.49-.85,10.28-4.37,14.39-3.35,3.91-6.69,7.87-10.93,10.94-.83.6-1.73,1.39-2.12,2.49.25.01.5.03.74.04,7.87-5.08,15.1-10.71,17.73-20.37.17-.64.04-1.91,1.37-1.59,1.05.25,1.65.98,1.61,2.13-.08,2.29-.72,4.41-2.19,6.18-3.43,4.13-6.36,8.73-10.93,11.82-.43.29-.66.7-.4,1.12.29.47.8.3,1.2.08.46-.25.89-.55,1.33-.84,3.78-2.54,6.81-5.83,9.49-9.47.43-.59.94-1.42,1.78-1.01.81.4.91,1.33.7,2.19-.14.57-.35,1.14-.59,1.68-1.82,4.1-5.24,6.62-8.91,8.85-2.38,1.45-4.8,2.82-7.21,4.23l.31.51c6.2-1.39,10.72-5.64,15.54-9.46-1.08,7.3-8,8.01-13.21,11.26,4.45-.12,7.65-2.47,11.52-4.11-.76,2.33-2.17,3.58-3.76,4.68-3.18,2.2-6.88,3.13-10.51,4.22-.77.23-1.33,0-1.28-.97.03-.52.04-1.05.01-1.57-.04-.79-.58-1.35-1.26-1.32-.9.04-.6.94-.53,1.43.32,2.28.05,4.57-.31,6.77-.58,3.59-3.83,5.52-5.82,8.24.11.03.25.1.39.1.22,0,.48.05.66-.05,3.38-1.82,6.27-4.07,6.85-8.21.1-.67.17-1.32.49-1.93.77-1.46,2.19-1.99,3.56-1.7,1.36.3,1.07,1.74.99,2.87-.29,3.97-2.04,7.3-4.49,10.32-1.54,1.91-3.08,3.82-4.62,5.74.17.11.34.22.52.33,5.24-4.69,9.94-9.73,9.79-17.52-.03-1.73.43-2.99,2.03-3.58,2.83-1.04,5.37-2.61,7.86-4.25.45-.3.87-.6,1.41-.21.76-2.76.25-5.83,2.27-8.3.66-.81.76-2.15-.05-2.93-1.25-1.19-.66-2.18-.14-3.36.83-1.87,1.2-3.87-.62-5.31-1.07-.85-.85-1.47-.41-2.42,1.07-2.29,1.23-4.58-.21-6.8-.71-.36-1.46-.65-2.13-1.08-1.07-.7-1.57-1.55-.35-2.6-.62-.39-.53-1.04-.59-1.64-.9-.68-1.25-1.72-1.76-2.66-.96-.78-1.05-1.81-1.1-2.98-.09-1.74.22-3.83-1.27-5-2.21-1.75-2.66-3.96-2.62-6.49-1.4-.54-1.63-1.93-2.21-3.06-1.34-.82-2.06-2.05-2.42-3.55-.41-1.69-1.18-3.18-2.65-4.21-.18-.06-.51.03-.43-.3-1.18.11-2.18-.18-2.74-1.36-2.19-1.11-2.41-3.52-3.54-5.33-.94-.29-1.51-2.18-2.5-1.25-1.08,1.01.54,1.89,1.08,2.7,5.62,8.46,4.99,16.87-.06,25.29Z" style="fill: #f4f3e9;"/>
    <path d="M549.94,466.08c-.31,1.42-1.38,2.21-2.72,2.71-7.88,2.88-15.17,1.09-22.28-2.66-1.98-1.05-1.78-3.45-3.36-4.66-.13-.01-.27-.02-.4-.04-.27.05-.54.09-.81.14.26,1.16,1.79,1.81,1.34,3.27.65,2.28.04,4.24-1.93,5.64-.96.68-1.59,1.38-1.33,2.58-.76-.69-1.09.32-1.58.58-.92.49-1.58,1.52-2.81,1.38-1.81,2.74-5.16,2.35-7.69,3.68,1.28.12,2.46-.65,3.69-.05,3.08-1.41,6.6-2.13,8.46-5.43.77.21,1.19-.27,1.62-.8.33-.41.83-.84,1.31-.41.53.48-.04.87-.34,1.29-2.89,3.96-6.98,5.96-11.58,7.15-.06.54-.68.42-.9.76,3.8.64,6.74-1.18,9.48-3.41,1.06-.86,1.55-.65,2.25.41,1.48,2.24,1.2,3.62-.81,5.48-3.33,3.09-7.18,4.7-11.7,4.77-1.4.02-2.57,1.07-4.04.89-.79-.1-1.63.12-2.32-.48-.71.38-1.74-.33-2.27.66,1.16.11,2.19.7,3.41.76,4.88.22,9.51-.66,13.88-2.84.69-.35,1.2-.52,1.78.08.65.68.1,1.2-.21,1.76-.94,1.76-2.66,2.51-4.34,3.25-3.26,1.42-6.72,1.85-10.26,1.98,2.35,1.09,4.72,1.07,7.15.32,1.26-.39,2.52-.86,3.89-.56,1.1-.77,2.22-1.51,3.3-2.31,1.29-.96,2.64-2.15,2.29-3.84-.37-1.74.03-2.83,1.38-3.82.45-.33.84-.92.98-1.47.43-1.74,1.24-1.42,2.36-.65,2.05,1.4,4.38,1.74,6.83,1.66.93-.03,1.57-.22,1.92-1.14.13-.36.35-.76.1-1.05-.69-.78-1.43-.04-2.05.16-.98.31-1.85.56-2.75-.1-3.35.66-5.03-2.15-7.37-3.57-.37-.22-.3-.6-.02-.95.45-.58.84-.3,1.33-.04,1.84.97,3.69,1.91,5.54,2.86,1.27-.25,2.53,0,3.79.03,1.91.03,3.92.27,5.33-1.52-.22-.92-.21-.9-1.53-.51-3.89,1.13-7.66.87-11.11-1.3-1-.63-2.59-1.15-1.93-3.12.45-1.32.8-1.59,2.09-.89,5.14,2.76,10.61,3.81,16.42,2.79,1.38-.3,2.83-.53,2.73-2.47-6.71,2.71-13.03,1.75-19.03-2.05-2.2-1.4-2.46-2.27-1.32-4.55,5.88,5.28,12.94,6.07,20.38,5.38,1.03-.81,2.35-.75,3.51-1.2,3.16-1.23,3.76-2.08,3.65-5.45-.82-.2-1.18.08-1.37.96Z" style="fill: #f4f3e9;"/>
    <path d="M505.07,497.55c-3.72.14-7.44.33-11.18.03,1.02.73,2.13,1.1,3.3,1.27,3.2.46,6.4.44,9.6,0,.82-.11,1.52-.13,1.75.84.22.91-.33,1.4-1.07,1.71-.41.17-.85.28-1.29.38-5.96,1.39-11.86,1.04-17.74-.48-1.62-.42-3.24-.81-5.02-1.26.44,1.28,1.31,1.6,2.25,1.9,3.86,1.25,7.79,1.99,11.87,1.76.48-.03,1.09-.08,1.18.7.08.71-.44.91-.93,1.06-5.68,1.72-11.04.93-16.31-1.73-1.84-.93-3.35-2.34-5.24-3.14-1.46-.24-1.75-1.52-2.28-2.58-.15-.18-.31-.36-.46-.54-1.75.32-2.32-1.45-3.57-2.12-.46,1.02.43,1.68.48,2.5,2.26,1.84,4.07,4.13,6.65,5.69,5.45,3.29,11.26,4.6,17.53,4.17,1.7-.12,3.28-1.09,5.05-.78-.16-1.57.84-2.34,2.1-2.69,1.21-.33,2.5-.39,3.75-.55,1.75-.22,3.53-.55,4.16-2.48.59-1.84,1.8-2.82,3.55-3.38,1.57-.51,2.2-1.49,1.3-3.08-2.69,2.45-6.06,2.66-9.43,2.79Z" style="fill: #f4f3e9;"/>
    <path d="M469.86,514.85c-1.42-.66-2.93-1.17-4.23-2.01-3.24-2.11-6.38-4.4-7.86-8.21-.17-.42.18-1.06-.69-.95-.82.1-.62.72-.6,1.19.09,1.58,1.12,2.7,1.92,3.96,1.61,2.52,4.1,4.16,6.46,6.22-1.84.76-2.96-.09-4.04-.79-3.15-2.04-5.54-4.75-6.97-8.26-.27-.66-.33-1.53-1.27-1.63-.32-.04-.6.3-.51.59.24.78-.83,1.3,0,2.4,1.98,2.59,3.46,5.57,6.17,7.56.3.22.56.57.35.97-.21.4-.61.31-.98.24-2.3-.43-6.43-4.36-6.6-6.8-.18-2.67-1.19-2.05-2.69-1.06.73.98,1.85,1.7,1.44,3.1,1.19,2.19,2.6,4.29,4.82,5.43,2.42,1.24,4.74,4.08,7.87,1.26.13-.12.44-.06.66-.06,4.4.11,8.82-.29,13.2.54,0-.74-.01-1.49-.02-2.23-2.28.08-4.33-.89-6.46-1.47ZM460.73,517.54c-.66-.17-1.35-.38-1.47-1.17-.08-.53.4-.56.76-.47.66.16,1.3.39,1.49,1.16-.04.52-.38.58-.78.48Z" style="fill: #f4f3e9;"/>
    <path d="M428.92,514.13c-3.51-.5-5.97-3.03-8.99-4.46.98,3.46,4.46,3.98,6.99,6.36-3.99-.12-7.25-.79-10.24-2.7-2.53-1.62-4.9-3.4-6.95-5.62-.34-.37-.83-1.08-1.46-.42-.71.76.23,1.05.6,1.34,3.07,2.43,5.39,5.86,9.35,7.15.34.11.7.27.49.85-5-.32-8.9-2.77-12.18-6.48.39,2.37,1.76,3.94,3.5,5.25,2.32,1.75,5.13,2.45,7.74,3.59,6.86-.31,13.61-1.41,20.31-2.85.58-.13,1.41-.22,1.33-1.2-3.52.11-6.99-.33-10.48-.82Z" style="fill: #f4f3e9;"/>
    <path d="M362.06,560.51c-.42-.55-1-.85-1.53-.47-.62.44-.24,1.03.12,1.56.66,1.01,1.78,1.75,2.05,3.13-3.74.41-6.02-1.64-8.03-4.19-.48-.61-.84-1.83-1.74-1.4-.92.45.04,1.45.03,2.21,0,.1-.18.2-.29.32-.94-.08-1.39-.75-1.82-1.47-1.16-1.98-1.73-4.11-1.78-6.41-.01-.65.53-1.66-.54-1.88-1.21-.25-1.43.85-1.69,1.69-.75,2.36.32,4.35,1.33,6.34,1.05.38,1.13,1.55,1.8,2.25.82.29,1.1,1.45,2.2,1.3,1.89-.25,3.34.62,4.74,1.78,1.24,1.03,2.92,1.99,4.27.96,1.94-1.47,3.52-.88,5.43-.25,1.22.4,2.97.85,3.07-1.51-1.67-.07-3.32-.13-4.8-1.1-1.16-.76-1.99-1.8-2.81-2.86Z" style="fill: #f4f3e9;"/>
    <path d="M561.84,428.8c-4.58,6.93-10.1,12.91-17.68,16.74-2.2,1.11-4.23,2.53-6.66,4,.7.13.91.21,1.12.21.96-.03,1.56-.82,2.37-1.17,8.53-3.65,15.33-9.45,20.89-16.8.88-1.17,1-2.86,2.48-3.6.56-2.48,1.14-4.95,1.66-7.43.32-1.55-.06-2.7-1.91-2.81.5,3.89-.14,7.62-2.28,10.87Z" style="fill: #f4f3e9;"/>
    <path d="M404.25,515.22c1.98,1.54,1.24,2.26-.62,3.25-4.38,2.34-7.28,6.13-9.39,10.54-.52,1.09-.84,2.23,1.09,2.15.35-.65.75-1.28,1.05-1.95,1.56-3.45,4.32-5.83,7.23-8.04,3.34-2.55,6.92-2.08,10.62-.79.94.33,2.51.57,2.66-1.33-5.19-.04-9.28-2.61-13.1-5.76-.66.89-.13,1.47.46,1.93Z" style="fill: #f4f3e9;"/>
    <path d="M559.58,449.91c-6.69,4.81-13.92,7.98-22.37,7.6-.65-.03-1.3.07-1.95.11.02.21.04.41.06.62,4.66.13,9.34,1.04,13.97-.6,4.1-1.45,7.69-3.86,11.43-6,.95-.94,1.99-1.81,2.82-2.84,1.45-1.8,2.86-3.68,1.74-6.22-1.68,2.62-3.09,5.44-5.71,7.32Z" style="fill: #f4f3e9;"/>
    <path d="M566.73,431.7c-.1-.48-.31-.85-.89-.75-.74.13-.66.72-.61,1.22.37,3.7-1.54,6.13-4.26,8.32-5.96,4.8-12.85,7.68-19.94,10.23.01.24.03.48.04.72,2.76-.22,5.38-.93,7.96-1.95,5.04-1.99,9.29-5.24,13.67-8.3.67-.47,1.19-1.15,2.14-.79-.29-1.09.62-1.73.99-2.57.87-1.97,1.72-3.93.91-6.14Z" style="fill: #f4f3e9;"/>
    <path d="M560.27,455.62s.05-.05.05-.05c-.02,0-.04.02-.06.03,0,0,0,.01,0,.02Z" style="fill: #f4f3e9;"/>
    <path d="M558.41,455.24c-2.89,4.33-7.13,6.63-11.98,8.07-3.38,1-6.79,1.15-10.35.36.25,1.08.85,1.25,1.53,1.45,1.75.49,3.52.57,5.32.53,3.27-.08,6.17-1.58,9.3-2.21,2.59-2.17,5.4-4.12,7.43-6.91.13-.36.21-.76.61-.93-.32-1.61-.97-1.69-1.86-.36Z" style="fill: #f4f3e9;"/>
    <path d="M484.65,513.64c-2.43.51-4.85.6-7.31.16-5.58-1-8.98-5.17-12.82-8.7-.45-.33-.91-.66-1.36-.99-.58.32-.28.69-.08,1.09,1.36,2.62,3.35,4.66,5.81,6.24.88.57,1.76,1.08,2.16,2.11,1.89,1.28,4.31,1.29,6.18,2.61.27.06.55.12.82.18.42-.99,1.29-.53,1.94-.54,1.94-.04,3.87-.06,5.79-.39.12-.16.25-.32.37-.47,0,0-.04.04-.04.04.67-1.71-.51-1.53-1.47-1.33Z" style="fill: #f4f3e9;"/>
    <path d="M494.75,510.28c-1.27.72-2.64.99-4.08,1.06-5.33.26-10.39-.72-15.17-3.15-1.2-.61-2.42-1.74-4.23-.9,2.37,2.21,4.84,3.77,7.78,4.58,3.64.99,7.36,1.22,11.1,1.34,1.4-.17,2.8-.34,4.19-.5.13-.68.8-.83,1.23-1.21.46-.41,1-.81.48-1.47-.53-.68-.91.03-1.3.25Z" style="fill: #f4f3e9;"/>
    <path d="M544.58,432.67c.64-.36,1.4-.61,1.91-1.11,5.8-5.61,10.18-12.11,12.36-19.97.03-.44.07-.87.1-1.31-.24-1.56.45-3.46-1.69-4.55,0,.84,0,1.55,0,2.25-.02,1.63.29,3.31-.31,4.86-1.61,4.18-3.64,8.14-6.16,11.88-2.02,3.01-4.84,5.24-7.15,7.96.31,0,.62,0,.94-.01Z" style="fill: #f4f3e9;"/>
    <path d="M532.01,332.29c.03,2.71,0,5.41,0,8.12,1.26-1.89,1.71-3.93,1.79-6.1.12-3.11-.9-6.03-1.32-9.05-1.11-1.29-2.1-2.71-3.36-3.82-.9-.8-2.1-1.84-3.37-.31,4.26,2.51,6.21,6.31,6.26,11.16Z" style="fill: #f4f3e9;"/>
    <path d="M514.59,317.96c3.43,2.77,4.75,6.52,5.04,10.8.18,2.65.12,5.3.11,7.99.97-.17,1.39-.56,1.45-1.37.12-1.71.34-3.4.24-5.14-.24-4.17-1.91-7.91-3.33-11.73l-2.42-1.97c-.51.35-1.04.46-1.61.2.04.45.08.85.53,1.22Z" style="fill: #f4f3e9;"/>
    <path d="M514,316.72s.04.02.06.03c0-.04,0-.07,0-.11,0,0-.02.03-.04.05l.04-.05s-.04,0-.06,0c0,.03,0,.05,0,.08h0Z" style="fill: #f4f3e9;"/>
    <path d="M387.6,553.99c-.65.92-1.4,1.7-2.58,1.93-1.57.31-2.92-.09-4.13-1.11-.44-.38-.97-1-1.53-.64-.6.38-.16,1.04.03,1.6.96,2.84,1.43,3.14,4.77,2.97.73-.07,1.5-.01,2.19-.23,1.69-.54,2.76-1.83,3.04-3.5.23-1.36-1.21-.62-1.8-1.02Z" style="fill: #f4f3e9;"/>
    <path d="M383.13,560.32c-2.88,1.58-3.05,1.56-5.05-1.07-.81-1.07-1.64-2.1-2.88-2.96-.93,3.03.75,4.94,2.59,6.79,1.71,1.04,3.46,1.01,5.25.19.68-.31,1.41-.55,1.47-1.45.06-.95-.69-1.2-1.38-1.49Z" style="fill: #f4f3e9;"/>
    <path d="M391.86,534.23c-.57,1.63-1.59,2.66-3.16,3.18-.7.23-1.37.41-1.1,1.3.27.87.93.98,1.79.75,1.06-.29,2.07-.89,3.24-.64,2.04-1.47,2.31-3.61,2.25-5.88-1.66-1.1-2.55-.05-3.02,1.29Z" style="fill: #f4f3e9;"/>
    <path d="M424.16,426.14c-6.95-.19-13.91.17-20.79,1.13-2.95.41-5.47,1.28-8.3,1.98-2.76.69-5.66.51-8.43,1.13-3.5.78-6.58,2.71-9.94,3.89-3.19,1.12-6.54,1.41-9.79,2.48-2.02.67-4,1.48-5.98,2.25-1.44.56-1.55.5-1.55-.46.12-1.59.19-2.7.29-3.82.06-.64.36-1.26.95-1.43,2.17-.6,3.66-2.06,5.5-3.24,1.66-1.06,3.42-1.77,5.02-3.03,10-7.82,21.82-14.89,34.1-18.3-.2,1.18-.94,1.55-1.38,2.13-1.73,2.25-1.82,4.03-.29,6.36,1.47,2.24,6.38,3.4,8.71,2.07.53-.3,1.06-.68,1.01-1.35-.05-.7-.69-.96-1.25-1.13-1.66-.52-2.7-1.38-2.53-3.35.28-3.2,3.12-5.18,3.81-8.18.04-.18.5-.29.78-.4,1.78-.73,3.56-1.45,5.35-2.18.99,4.56,4.83,6.88,9.9,6,2.88-.5,5.55-1.71,8.32-2.58,3.8-1.19,5.86-3.93,7.1-7.49.89-2.54.96-5.2.43-7.76-.93-4.46-1.85-8.9-6.84-11.06-6.77-2.92-12.84-1.76-18.51,2.53-2.73,2.07-3.6,5.74-2.48,8.89.43,1.22,1.16,1.81,2.45,1.89,3.7.24,6.86-.49,8.54-4.28.24-.54.63-1.02,1.01-1.48,1.48-1.79,3.54-2.38,5.39-1.58,2.04.88,3.27,3.03,2.98,5.27-.3,2.35-1.64,3.99-3.7,5.02-1.41.7-2.96.95-4.54,1.1-2.59.26-5.46.14-7.43,2.03-2.13,2.04-4.73,2.6-7.32,3.46-1.22.41-1.81.42-1.9-1.02-.14-2.1-1.67-1.92-3.11-1.81-1.81.15-1.33,1.49-1.22,2.54.17,1.63-.3,2.47-2.03,3.06-9.36,3.2-18.63,6.65-27.73,10.53-5.99,2.55-11.62,5.8-17.18,9.18-.72.98-1.89,1.2-2.89,1.71-2.03,1.57-2.09,1.55-3.47-1.34-.6-.29-1.15-.62-1.27-1.36-.38-.31-.76-.61-1.14-.92-.52.12-.8-.07-.78-.63-1.17-1.22-2.88-1.48-4.28-1.55-2.37-.11-3.64-1.17-4.64-3.1-.71-1.37-1.51-3.08-2.89-3.54-2.28-.75-4.28-1.98-6.42-2.95q-1.31.31-2.51-.52c-.65,1.7-7.09,3.52-10.11,2.86-.04,1.54-1.34,1.36-2.28,1.67-.18.39-.37,1.12-.54,1.11-2.47-.06-2.89,2.16-4.04,3.55-.26,1.51-.92,2.09-1.7,1.35-.74-.71-.98-.12-1.45.05,1.4.87-1.25,1.66,0,2.64,1.79,1.41,4.05.85,4.78-1.37,1.06-3.24,3.27-5.27,6.42-6.38,3.28-1.15,6.69-1.59,10.12-1.7,3.4-.11,6.18,1.38,8.47,3.9,1.28,1.41.98,2.13-.75,2.58-3.06.79-5.21,2.8-7.05,5.25-.73.97-1.41,2.36-.54,3,.98.73,1.87-.53,2.51-1.48,1.79-2.65,4.25-4.36,7.41-5.01,3.82-.78,7.06.83,10.09,2.71,1.88,1.16,1.95,2.93.66,4.27-1.75,1.82-3.56,3.59-5.36,5.36-.51.51-.81.86-1.91.56-1.74-.48-3.74,0-5.11,2.34,1.43-.34,2.43-.54,3.41-.83,1.49-.45,2.52-.52,2.16,1.61-.24,1.41.5,2.17,2.02,2.29,1.75.14,2.94-.76,4.11-1.83,1.63-1.48,3.06-3.22,5.31-4.15.15,2.23.75,4.42-1.61,5.68-1.97,1.05-3.97,2.08-6.04,2.89-5.22,2.04-10.14,4.59-14.63,7.98-1.06.8-2.12,2.38-3.58,1.8-1.72-.68-3.19.24-4.77.13-.4-.03-.77.09-.69.61.06.36.39.4.69.39,1.05-.03,2.1-.05,3.14-.12.67-.04,1.25.14,1.39.81.18.87-.52,1.3-1.18,1.32-1.46.05-3.2.8-4.09-1.12-.25-.54-.36-.5-.92-.38-1.56.34-3.17.46-4.76.67-.69.09-1.93-.04-1.76.77.2,1.01-.46,2.53.88,3.04,1.91.72,3.95,1.61,5.86-.13-.9-.13-1.77-.33-2.48-.97-.52-.34-1.1-.27-1.97.11,1.94-2.56,3.55-2.78,4.78-1.02.25.15.5.31.75.46,2.35-.52,4.72-1.03,6.96.32.66.39,1,.45,1.66-.11,2.08-1.75,4.35-3.26,6.91-4.3.73,3.01,1.45,3.41,4.35,2.33,2.56-.96,5.1-2,7.66-2.96.68-.26,1.66-.61,2.03.19.68,1.48-.53,2.65-1.04,3.94-.42,1.07-1.22.66-1.86.48-1.38-.38-2.97-1.02-4.11-.23-1.65,1.14-3.4,1.18-5.1,1.04-2.54-.2-4.07,1.32-5.66,2.75-.84.76-.82,2.02-.08,2.85,1.06,1.18,1.18-.37,1.7-.77.7-.54,1.17-1.56,2.33-1.25-.11-1.65,1.22-2.73,3.54-2.59,1.58.1,2.97-.38,4.41-.82,1.32-1.32,2.02-.12,3.1.78-.98.17-1.72.3-2.46.43-1.26,1.3-2.32,2.8-4.61,1.77-.99-.44-1.97.41-2.27,1.55-.25.97-.8.53-1.31.38-1.2.03-1.32,1.51-2.64,1.64,3.76,1.79,5.89-1.98,9.08-2.33-.46,1.83-1.65,2.61-2.81,3.41-4.63,3.21-9.62,5.21-15.32,6.05-7.69,1.14-15.39,1.72-23.12,2.13-8.24.44-14.9-3.45-21.54-7.49-.16-.1-.2-.39-.29-.59-.79-.08-1.62-.1-1.75-1.17-2.79-.46-2.57-3.27-3.98-4.83.75-.47,1.27-.04,1.82.08-.02-.28-.04-.57-.06-.85-2.15-.49-2.71-1.61-1.84-3.7-.4-.68-.02-1.37-.01-2.06-1.44-.96-1.88-2.23-1.27-3.88.76-2.01,2.64-2.8,4.26-3.78.78-.48.86.42.79,1.05,0,.2-.07.53,0,.56.28.14.27-.16.32-.32.96-.78.56-2.48,1.67-2.97,3.32-1.46,4.75-5.02,8.32-6.54,4.25-1.8,7.43-5.6,10.22-9.45,3.47-4.79,2.46-9-3.04-12,.01.91.12,2.08-.93,2.2-2.26.26-4.04,1.74-6.21,2.19-4.53.93-9.02,2.04-13.57,2.84-6.27,1.11-12.49.78-18.51-1.5-1.04-.4-1.85-1.05-1.92-2.39-.19-3.81,1.6-6.98,3.17-10.23.32-.66,1.61.18,1.38-.95-.29-1.48.75-2.12,1.59-2.94,2.89-2.82,6.39-4.77,9.78-6.87,1.15-.71,1.84-.7,2.52.75,1.05,2.27,2.75,3.02,4.47,2.32.7-.28,1.48-.74,1.41-1.57-.1-1.08-.99-.79-1.74-.74-1.18.08-2.57-.04-2.08-1.69.65-2.19.95-4.46,1.93-6.61,1.99-4.37,5.45-7.71,7.8-11.8,1.68-.78,2.7-2.39,4.1-3.41,2.87-2.1,6.13-3.6,9.94-2.44.49.15.77.29.86.82.59,3.8,3.27,5.98,6.21,7.96,1.2.45,1.78,1.48,2.37,2.5.3.03.6.05.9.08.53-.14,1.06-.28,1.6-.42,1.26-.17,2.55-.77,3.69.33-1.16.54-2.36.88-3.66.83-.36.08-.92.04-1.04.25-1.43,2.47-3.26,4.47-6.63,5.32,2.66,1.07,4.94.14,5.64-1.24,1.42-2.78,3.78-2.94,6.16-3.5.07-.6-.73-.98-.44-1.64,1.62.09,3.18-.75,4.83-.34.79.2.75-.43.86-.96.37-1.76,1.5-1.79,2.58-.81.93.84,2.34,1.44,2.22,3.11-.05.75.59.92,1.16,1.15,1.77.71,3.18,1.91,4.46,3.3,3,.48,5.99.95,9.56,1.52-2.32,1.09-4.23,1.7-5.47,3.33.18.52-.34,1.79,1.11.91,1.87-1.13,2.79-.68,3.44,1.49.58,1.93,2.41,2.9,4.66,2.29-1.36-.99-2.53-1.99-.33-3.21.61-.34-.03-.98-.36-.82-2.11,1.07-3.05-1.03-5.09-1.64,2.48-.73,3.73-2.65,5.94-3.09,2.42-.48,3.01.03,2.65,2.47-.29,1.89-1.25,4.4-.42,5.58,1.25,1.77,2.04,3.82,3.47,5.52,2.53,3.01,5.86,4.41,9.35,5.62,1.41.49,2.83,1.59,4.51.28.53-.41,1.6-.15,2.42-.17.55,0,1.1.08,1.02.83-.08.78-.76.75-1.19.59-1.47-.57-2.57.27-3.75.84-1.6.78-3.27.7-4.9.22-.14-.04-2.97.13-.61-1.46.68-.46-.19-.92-.54-1.14-.6-.37-1.06-.04-1.04.62.08,2.79-1.5,1.76-2.96,1.41-1.39-.33-2.72-1.31-4.27-.66.27.13.53.28.81.39,7.92,3.21,15.51,2.85,22.7-2.07,1.86-1.27,3.31-2.99,5.01-4.43,2.79-2.38,4.65-5.35,5.41-8.97-.51-.18-1.3.23-1.48-.61-.14-.63.02-1.21.82-1.3.48-.06.69-.25.3-.67-1.58-1.71-.65-3.29.34-4.77.53-.8.5-.94-.44-1.32-1.86-.74-2.58-2.46-2.87-4.33-.14-.93.39-1.75,1.26-1.76,1.6-.02,3.05-.17,4.32-1.28.32-.28.86-.13,1.11.38.17-.14.36-.27.52-.42,2.12-1.97,2.48-1.96,4.24.23.26.33.5.61.89.45,1.12-.46,1.4-1.66,2.06-2.52.4-.52-.26-.85-.7-1.16-2.34-1.62-2.35-1.64-.43-3.83.86-.98,1.71-1.92,1.28-3.37-.33-1.13-.77-1.61-1.77-.48-1.39,1.57-2.77,3.12-3.9,4.91-1.26,1.99-3.04,3.3-5.2,4.4-3.53,1.79-7.22,1.08-10.81,1.25-6.26.28-12.06,1.8-17.42,5.01-6.97,4.18-14.31,5.52-21.99,2.44-4.03-1.62-6.99-4.86-8.13-8.96-.5-1.81-.73-4.09-.43-6.29.57-4.16,2.14-7.59,5.33-10.28,2.11-1.78,4.25-3.54,7.01-4.27,1.37-.36,2.04-1.48,2.53-2.66.42-1.02-.25-1.7-1.04-2.23-.59-.39-1.29-.61-1.88-.11-.98.82.03,1.27.45,1.78.67.82-.09.9-.54,1.26-1.38,1.1-3.26.95-4.68,2.02-6.27,4.7-9.8,10.7-9.15,18.75.18,2.24-.89,3.66-2.79,4.67-3.5,1.85-10.48.67-13.67-2.26-5.65-5.2-4.42-11.8-.34-16.65,2.34-2.78,5.05-5.3,7.87-7.67,4.27-3.6,8.66-7.04,12.14-11.54,4.72-6.11,8.37-12.99,13.72-18.66,2.49-2.64,5.16-4.97,8.21-6.85,2.76-1.71,5.74-3.08,8.42-4.9,1.54-1.04,1.86-.73,2.26.84,1.21,4.76,5.49,6.6,9.8,6.49,1.19-.03,2.75-.38,3.88-1.43-.83-.73-1.68-.87-2.19-.28-1.24,1.41-2.08.39-2.99-.32-.39-.31-.57-.99-1.2-.89-2.34.4-2.11-1.36-2.38-2.74-.36-1.91,1-3.26,1.83-4.63.54-.88,1.73.59,2.75.7.78.08,1.49.69,2.27.87.53.13,1.19.09,1.48-.65.19-.49.08-.78-.31-1.15-2.77-2.58-2.76-2.59.92-4,.49-.19.98-.35,1.48-.52,2.57-.88,4.99-2.29,7.85-2.06.23-.15.45-.26.69-.01l-.39.34c-1.5,1.77-3.64,2.5-5.63,3.5-1.06.54-2.37,1.06-2.05,2.56.33,1.56,1.79,1.16,2.8,1.09,5.67-.41,11.34-.88,17-1.42,1.58-.15,2.96-.82,2.92-2.75-.04-1.79-1.55-3.11-3.43-3.06-1.2.03-2.38.11-3.54-.34-.76-.29-1.18-.6-.62-1.45.88-1.35.39-2.5-.88-3.58h8.95c-1.01,2.49-.2,3.57,2.07,3.33,1.45-.15,2.63-.88,3.07-2.27.52-1.63,1.67-1.92,3.1-1.94,1.05-.01,2.1.02,3.14-.08,1.33-.13,1.71.71,1.35,1.63-1.01,2.59.85,2.08,2.1,1.98,2.95-.22,4.79-1.95,4.46-4.08,1.23.2,2.47-.35,3.67.09.07.69-.45.86-.68,1.22-.3.46-1.1.91-.41,1.47.63.5,1.42.3,1.99-.34q2.07-2.29,5.28-1.67c-.71.32-1.96-.12-1.9,1.02.05.87.99,1.27,1.84,1.37,1.33.16,2.68.2,4.02.31,1.41.12,2.84.49,3.26,1.95.43,1.45,1.17,1.88,2.58,1.84.71-.02,1.47.28,2.13.58,1.24.56,2.69,1.36,3.77.49.9-.72.05-2.2-.19-3.7,1.76.87,4.35,1.4,4.55,2.4.38,1.89,1.3,2.35,3.43,2.7-5.41.48-6.39,1.09-5.79,3.26-.67,0-1.35.04-2.01,0-3.25-.23-6.08-.05-8.23,3.19-1.94,2.92-4.13,5.66-5.43,8.96-.22.55-.14,1.42-1.13,1.35.75-4.6-1.34-6.8-4.61-7.92-1.83-.63-3.75-.97-5.6-1.53-1.84-.55-3.43-1.51-4.37-3.27-1.3-2.44-.12-4.66,2.62-4.72,3.5-.07,6.77-.02,9.42,3.28,2.59,3.23,6.92,2.63,8.68-.58,1.17-2.14.29-3.95-2.14-4.14-1.88-.14-3.7-.44-5.44-1.15-4.16-1.7-8.48-1.65-12.81-1-2.2.33-4.17,1.17-5.01,3.58-1.6,4.63.07,10.41,4.08,13.2,2.78,1.93,5.37,3.95,7.38,6.76,1.56,2.2,4.31,2.14,6.26.22.41-.4.75-.86,1.13-1.29-.2,2.07-.64,4.02-1.24,5.91-.9,2.81-.84,5.48.99,7.89.7.91.17,1.26-.4,1.79-1.86,1.74-3.64,3.57-5.14,5.63-1.54,2.12-.54,4.18,2.11,4.35.96.06,1.94-.06,2.9-.18,2.07-.27,4.12-.66,6.22-.79.93-.05,2.7,1.26,2.89-1.11.02-.24.48.02.71.18,3.05,2.18,7.59,3.08,6.94,8.38-.09.72.42,1.59.83,2.28,1.57,2.66,3.44,4.89,7,4.57,1.15-.1,2.08.06,1.82,1.71-.14.9.69,1.54,1.48,1.77,3.7,1.06,7.29,2.53,11.15,2.93,1.08.11,1.65.18,1.15,1.59-.87,2.48-.22,3.54,2.24,4.43,3.57,1.3,3.64,1.4,3.2,5.13-.21,1.83-.02,3.57,1.85,4.41,1.75.79,2.5,2.24,3.19,3.83,1.21,2.8-.6,5.78.52,8.59.06.15-.18.27-.45.29-1.82.17-2.77,1.65-3.97,2.73-1.69,1.53-3.46,2.94-5.81,3.15-2.3.21-3.36,1.58-3.56,3.62-.19,1.98-.77,3.79-1.58,5.57-.34.74-.64,1.53-.73,2.33-.35,2.98,1.12,4,3.92,2.91.82-.32,1.55-1.71,2.76-.29.38.44,1.17-.58.92-1.03-.57-1,.2-1.24.67-1.63,3.3-2.75,7.3-3.7,11.41-4.17,1.79-.2,2.84-.64,2.51-2.64-.26-1.47-.4-2.99-1.14-4.31-.7-1.26-.12-1.76.94-1.41,1.36.45,1.31-.41,1.56-1.16.93-2.86,2.84-4.86,5.43-6.28,1.87-4.18,2.57-4.58,7.02-4.57,1.31,0,1.47.53,1.32,1.6-.29,2.06-1.92,3.61-4.52,4.24-1.92,3.39-.84,5,3.66,5.48,3.55-.31,6.91-.92,8.05-5.06.11-.39.45-.54.74-.78,3.23-2.52,6.35-5.19,8.88-8.43,2.97-3.8,6.12-7.52,7.51-12.37,1.21.83,2.29,1.95,2.06,2.98-.38,1.69.26,3.19.2,4.76-.08,2.17-1.55,3.72-2.87,5.29-4.46,5.28-10.18,9.21-15.01,14.09-.29.3-1.26.32-.67,1.06.36.45.9.27,1.38-.11,5.11-4.02,10.24-8.02,14.67-12.83.77-.83,1.13-2.09,2.88-2.77-2.95,7.59-9.75,10.9-15.38,16.13,3.9-.48,6.16-2.66,8.5-4.51,2.36-1.86,4.13-4.42,6.68-6.07.51.44.34.92.34,1.33.01,5.95-3.16,10.06-7.68,13.47-3.98,3.01-8.71,4.35-13.16,6.34.02.46.04.92.06,1.38,3.69-.42,6.95-1.91,10.08-3.84,4.24-2.63,8.28-5.47,11.36-9.67.85,2.82.27,4.76-1.92,7.1-3.37,3.6-7.76,5.74-11.89,8.24.14.5.54.54.96.51,4.02-1.08,6.96-4.09,10.63-6.12-.78,3.88-1.9,5.45-5.9,8.53-7.4,5.7-19.98,6.78-26.55.19-.39-.39-.83-.8-1.33-.3-.5.5-.23,1.07.06,1.64.39.76,1.94.95,1.41,2.03-1.35,2.74.85,3.15,2.42,3.91,3.24,1.57,6.77,1.74,10.28,1.93.46.02,1.16-.19,1.31.5.13.62-.49.86-.89,1.16-1.58,1.18-3.51,1.26-5.38,1.62,1.68.42,3.38.18,5.05.54.92.2,1.48.29.88,1.35-2.64,4.72-5.96,8.83-10.9,11.29-2.81,1.4-4.93-.22-4.62-3.34.04-.37.06-.75.08-1.12.06-1.11-.47-1.07-1.23-.64-.91.52-1.7,1.16-1.13,2.3.79,1.56.74,3.29,1.15,4.99.55-.5.92-1.16,1.76-.75,2.08,1,3.85.2,5.65-.9,2.77-1.69,5.35-3.59,7.45-6.07,1.1-1.29,2.08-2.68,3.12-4.03.91.83.78,1.54.29,2.45-2,3.72-4.25,7.21-7.65,9.84-.7.54-1.42,1.11-1.64,2.13,1.16.3,2.23-.16,2.88-.86,2.63-2.81,5.93-5.12,7.24-8.99.18-.54.38-.96,1.04-.95.66.01.88.49,1.09.97.75,1.74.6,3.47.01,5.24-1.53,4.64-4.47,8.16-8.29,11.1-2.79,2.14-6.1,3.43-8.87,5.61,3.21-.19,6.04-1.25,8.43-3.41.83-.75,1.66-1.5,2.56-2.16.51-.37,1.14-.33,1.62.16.38.39.33.83-.1,1.15-1.37,1.03-2.41,2.49-4.08,3.12-5.05,1.9-9.87,4.49-15.48,4.6-.82.02-2.03-.02-2.83.81,8.13,1.87,14.74-2.6,22.28-5.32-2.33,3.58-4.99,5.82-8.25,7.31-3.17,1.45-6.63,2.04-9.99,2.94,3.13,1.03,6.06-.78,9.35-.46-.51.84-1.17.97-1.74,1.28-2.3,1.24-4.91,1.14-7.34,1.78.02.29.04.58.06.87,1.96-.57,3.93-.59,6.19-.25-2.93,2.29-6.25,2.16-9.3,2.92-.33.35-.66.51-1,.01-2.55.01-5.09.02-7.64.03-.42.4-.77.39-1.01-.19-2.49-.36-4.96-.81-7.09-2.31-.02.41-.03.81-.05,1.22,5.91,3.77,12.5,3.31,19.07,2.71-.02.85-.41.99-.72,1.13-5.33,2.28-10.8,2.97-16.46,1.38-2.35-.66-2.94-.57-3.85.34,5.49,1.47,11.08,2.27,16.79,2.08,3.04.5,4.75-2.15,7.21-3.05.38-.14.33-.61.35-.99.05-1.03.86-1.93,1.57-1.98,3.44-.22,4.91-3.63,7.92-4.67,1.25-.43,1.87-2.66,2.82-4.04.47-.69.4-1.81,1.52-2,.22-.07.45-.14.67-.22.53-1.59,2.19-.72,3.12-1.44-1.24-1.19-1.01-2.15.46-2.91.05-2.4-.59-4.95,1.49-6.93.22-.21.28-.72.24-1.07-.45-3.64,1.32-6.84,2.05-10.25.23-1.07-.23-2.09.31-3.24,1.39-3,3.57-5.63,4.04-9.07.15-1.12,4.38-1.6,5.15-.68.52.62.37,1.34-.19,1.8-1.45,1.16-2.45,2.39-1.6,4.39.91,2.14,2.79,2.72,4.79,3.15,5.56-1.35,8.01-7.79,4.66-11.98-.88-1.1-2.42-1.1-3.12-2.31-2.45.03-4.81-.2-6.57-2.22-2.05-1.12-2.11-1.54-.32-2.75.85-.58,1.74-1.16,2.86-1.03,1.06-.91,1.77-2.23,3.22-2.67.35-1.17.33-2.39,1.42-3.39,1.1-1.02.79-2.54-.47-3.25-1.86-1.06-.83-1.84.08-2.54,1.71-1.32,2.4-3.12,2.95-5.1.37-1.33-.13-2.5-.27-3.74-1.22-1.69-.32-3.63-.61-5.44-.29-1.75.33-3.64-1.09-5.18-.36-.39-.06-.98.14-1.49.86-2.17,1.15-4.37.17-6.6-.06-.13-.11-.3-.09-.44.41-2.69.12-5.26-1.25-7.66-.77.03-1.27-.35-1.53-1.06-.81-.29-1.1-.96-1.21-1.73-.23-1.55.14-3.41-2.16-3.82-.38-.07-.36-.56-.27-.97.23-1.11-.48-2.12-1.17-2.49-2.33-1.22-1.7-3.3-1.71-5.12-.01-1.71,1.42-1.03,2.36-1.06,1.66-.68,2.58-3.24,1.71-4.71-.37-.63-.94-.34-1.38-.26-4.36.79-5.37.15-6.2-4.04-.24-.31-.25-.63-.06-.96,0-.15,0-.3,0-.45-.11-1.56,1-.9,1.72-.95,2.05-.04,4.77,1.01,4.53-2.77,3.77-7.02,3.07-14.07.2-21.15-.33-.82-.52-1.7-.77-2.55-1.23-.31-1.56-1.63-2.53-2.25-.93-.6-1.8-1.43-2.87-.27,3.54,3.68,6.07,7.88,6.74,13.06.46,3.54.03,6.93-1.45,10.25-2.73-2.51-3.89-2.58-7.36-.58-.95,1.37-1.91,2.75-2.93,4.22-.69-.98-1.38-1.89-1.6-3.06-.2-.22-.4-.45-.6-.67-1.05-.17-2.17-.27-2.12-1.77-.49-1.51-2.46-2.2-2.25-4.09-.32-.71-1.16-1.32-.45-2.23-.26-2.04,1.63-2.87,2.46-4.29,2-3.47,2.85-7.18,2.88-11.14,0-.74-.32-1.75.99-1.71-.12-1.15.65-2.02.99-3.02.36-2.88-.23-5.64-.95-8.4-1.8-6.94-8.49-11.11-15.59-10.06-5.16.77-10,2.21-14.6,4.67-5.53,2.95-11.62,4.24-17.68,5.64-3,.7-5.73.52-8.49-.8-3.58-1.71-7.14-3.48-10.83-4.92-7.15-2.81-14.55-4.52-22.29-4.57-2.92-.02-3.22-.56-2.06-3.14,1.88-4.2,2.83-8.67,3.8-13.12.41-1.88.59-3.82.29-5.79-1.45-9.43-6.96-15.62-15.59-18.97-16.15-6.27-36.45.4-43.97,17.76-2.88,6.66-6.01,13.22-10.54,19-1.32,1.68-2.12,3.71-2.3,5.78-.24,2.81-1.79,3.99-4.27,4.69-6.17,1.74-11.36,5.3-16.17,9.36-4.73,3.99-7.74,9.58-12.66,13.58-2.69,2.19-5.13,4.93-7.9,7.19-1.74,1.42-3.51,2.81-4.86,4.63-3.71,5-7.99,9.5-12.21,14.07-3.3,3.57-5.66,7.68-6.61,12.53-.81,4.15.44,8.02,1.6,11.88.38,1.25.03,1.96-.74,2.96-3.07,4.02-6.72,7.62-9.03,12.2-.7,1.38-1.49,1.66-2.52.45-2.13-2.49-4.82-4.44-6.65-7.25-2.13-3.25-4.56-6.31-6.75-9.52-2.22-3.26-4.23-6.73-6.47-9.89-3.46-4.89-6.24-10.19-9.83-14.97-.61-.82-1.18-1.71-2.12-2.21.87,6.39,3.6,12.2,6.5,17.75,4.07,7.81,9.07,15.14,13.66,22.67.26.42.74.82-.01,1.71-1.88-2.47-4.64-3.9-6.76-6.05-4.04-4.1-8.69-7.51-13.03-11.22-4.3-3.68-9.22-6.88-14.22-9.75-3.11-1.79-6.24-3.55-9.39-5.28-.71-.39-1.7-.82-2.18.1-.39.75.57,1.05,1.13,1.37.19.11.41.17.61.28,6.99,3.66,13.62,7.86,19.26,13.42,7.26,7.15,13.68,15.05,20.12,22.93.48.59.6,1.16.58,1.84l.15.33c-.1-.06-.2-.12-.3-.18-1.11-.32-1.96-1.02-2.82-1.75-8.64-7.39-17.44-14.54-27.68-19.69-3.65-1.84-8.38-3.52-10.56-3.46,5.42,2.98,10.31,6.95,14.99,11.11,7.88,7.01,15.37,14.43,22.43,22.29,2.66,2.96,2.96,4.01,1.08,7.52-1.59,2.98-2.71,6.1-1.68,9.45.59,1.91.43,3.63-.04,5.47-1.04,4.05-1.5,8.22.23,12.11,2.31,5.2,4.02,10.64,6.33,15.82,1.65,3.7,4.07,7.07,8.07,8.6,1.64.63,2.38,1.53,2.71,3.13,1.24,5.91,3.77,11.3,6.52,16.65,1.42,2.77,4.42,4.88,3.93,8.53,0,0,.07.04.09.03,1.92-1.13,2.07.89,2.85,1.67.87.88,1.66,1.97,3,1.17,1.22-.72.74-1.97.49-3.05-.1-.44-.32-.85-.41-1.28-.43-2.19-.5-4.36.18-6.84,1.34,1.32,2.47,2.62,4.16,1.25,1.25-1.02.83-2.92,2.06-4.23.89,2.29,1.71,4.39,3.53,5.85.61.49.96,1.52,1.97,1.18,1.03-.34.71-1.35.82-2.13.08-.58-.08-1.38.61-1.55.77-.19,1.14.59,1.52,1.12,1.01,1.39,1.93,2.84,2.95,4.22.48.64,1.23.87,2.02.64.88-.26,1.02-.97,1.03-1.78,0-.44.02-.92.2-1.31.41-.91,1.09-1.18,1.57-.13.8,1.74,2.12,3.26,2.3,5.27.07-.02.18-.08.21-.05,2.01,1.81,4.02,3.63,5.11,6.2,1.85.27,3.09,1.7,4.68,2.46.96.46,1.89,1.1,2.9.28.9-.74.66-1.78.4-2.71-1.55-5.59-.9-10.96,1.5-16.17-.02-2.27,1.03-4.47.37-6.8-.2-.7.57-.9,1.18-1.03,1.81-.39,3.61-.85,5.43-1.17,1.69-.29,2.35,1.24,3.37,2.13,1.4,1.22,2.29,2.65,2.15,4.58,3.14,5.01,2.9,10.13.53,15.33.21,1.72-.1,3.09-2.22,3.2.15.89.09,1.71-.84,2.18-.46,1.34-1.13,2.46-2.74,2.57-.2.31-.36.65-.61.92-3.6,3.97-3.94,9.23-.8,13.56.86,1.18,1.48,2.43.61,3.68-1.03,1.47-2.44.66-3.63.06-3.9-1.99-6.21-5.27-7.31-9.44-.44-1.68-1.21-2.79-3.11-2.31-1.72.44-1.69,2.01-1.66,3.3.21,8.81,2.99,16.43,10.54,21.84-1.83,1.2-3.68,2.35-4.67,4.4-.33.67-.81,1.38-.24,2.08.58.71,1.33,1.19,2.3.68.26,1.69-.8,3.32-.16,5.04.52,1.4,1.17,2.09,2.47.74-.94-2.47-.1-4.79,2.37-6.68.52-.4,1.66-.63,1.06-1.59-.53-.85-1.58-.49-2.23-.12-1.23.72-2.33,1.66-3.47,2.52.02-2.01,1-3.31,2.89-4,.62-.23,1.43-.38,1.6-1.1.27-1.12.69-.97,1.45-.45,2.89,1.99,5.93,3.77,8.69,5.93,4.33,3.39,9.3,4.89,14.6,5.66,3.44.5,6.64-.25,9.81-1.61,4-1.71,6.67-4.97,9.76-7.77,4.69-4.25,8.41-9.34,11.17-14.9,2.84-5.72,4.57-11.95,4.74-18.5.05-1.82.28-3.74,1.24-5.41,1.38-2.41,2.81-4.8,4.21-7.2-.17-.74.1-1.21.86-1.39-.14-.56-.01-1.03.43-1.4,2.63-4.12,2.7-9.12,4.58-13.49-.01-3.64.85-7.25-.02-10.92-1.03-4.3-1.43-8.81-5.27-11.87-.47-.38-1.8-.32-1.3-1.39.42-.89,1.48-.53,2.25-.44,4.07.48,7.93,2.04,12.03,2.38.82.07,1.37.4,1.12,1.47-.86,3.62-.07,7.13.85,10.61.16.59-.09,1.65.77,1.65.74,0,1.28-.86,1.34-1.61.18-2.37,1.32-4.75,0-7.14-.25-.45-.67-1.06-.05-1.61.32-.29.69-.79,1.13-.44,1.63,1.3,3.07,1.3,4.48-.33.1-.11.67.17,1.02.29,6.42,2.07,12.15,5.62,18.24,8.41.51.23,1.33.88,1.26,1.12-.68,2.46,1.22,1.32,1.82,1.17,1.22-.31,2.33-1.01,3.14-1.39-13.66-8.42-28.33-14.76-44.04-18.54-.39.2-.75.13-1.08-.15-2.06-.31-4.12-.61-6.17-.95-.57-.09-1.38-.18-1.44-.81-.12-1.36-.91-.85-1.55-.68-3.27.88-6.5.65-9.72-.24-.9.64-1.86.73-2.86.26-4.44.06-8.87.12-13.31.17-.47.14-.94.28-1.4.43-.58,0-1.16.02-1.74.02-.63.66-1.4.66-2.21.5-3.23.62-6.46,1.24-9.7,1.86-.05-.18-.11-.36-.16-.55,3.31-.6,5.88-3.1,9.36-3.26.13-1.13.97-1.19,1.83-1.21.43-.14.85-.29,1.28-.43,1.16-.58,2.1-1.92,3.67-1.03,3.75-1.81,7.69-3.11,11.65-4.37,1.76-.37,3.39-1.44,5.3-.99-.26-1.39.52-1.87,1.72-2.12,3.94-.84,7.85-1.82,11.8-2.58,6.24-1.2,12.5-2.38,18.84-2.85,1.97-.15,4.34-.55,5.08,2.36.13.51.74.32,1.27.16-1.42-1.89-.35-2.15,1.33-2.12,1.63.03,3.26.34,4.94-.21-1.28,6.44.09,10.13,4.53,12.52-.29.58-1.17.66-1.25,1.77,2.05-1.18,4.05-1.35,6.04-.22.18.1.44.08.66.08,6.84-.06,13.41-2.09,20.18-2.73,2.41-.23,3.58-2.9,2.87-5.2-.71-2.32-2.89-3.38-5.36-2.64-1.17.35-2.13,1.06-3.12,1.72-4.55,3.02-9.62,3.52-14.86,2.92-1.76-.2-3.36-.93-3.32-3.21.04-2.95,1.29-4,4.38-3.2,3.62.94,7.17,1.19,10.83.26,2.88-.74,5.76-1.57,8.81-1.47,1.57.05,3.27.14,3.42-2.17.19-2.93-.77-4.56-2.99-4.97-3.3-.6-6.52-.17-9.26,1.69-3.22,2.19-6.23,2.7-9.78.76-2.47-1.35-5.48-1.46-7.7.29-2.52,1.98-5.04,1.74-7.78,1.41-1.56-.19-3.13-.28-4.69-.33ZM357.01,397.62c.64-.09,1.11-.36,1.6-.69,4.46-2.97,9.51-4.6,14.64-5.63,3.53-.71,6.94-1.97,10.74-2.05.67,2.6,1.13,5.29.34,8.32-2.07,7.86-11.76,14.49-22.24,9.63-3.1-1.44-5.26-3.49-6.48-6.66-.61-1.59-.42-2.66,1.41-2.92ZM507.29,428.64c-1.89-.16-3.8-.18-5.63-.75-.54-.17-1.26-.58-1.07-1.22.21-.74,1.05-.47,1.48-.24,1.66.89,3.61.62,5.28,1.38,3.5-.05,7-.14,10.51-.26-3.32,2.1-6.95,1.56-10.58,1.08ZM453.13,357.1q-.23,1.7,1.5,4.85c-3.77-.31-5.77-3.62-5.27-8.44,4.2-1.08,5.92,1.13,7.04,4.54.7,2.15,2.65,3.54,4.39,5.48-4.06-.68-6.02-3.3-7.67-6.43ZM525.42,370.97c.93,1.51,1.09,2.66.56,4.78-1.12,4.45-3.62,8.1-6.68,11.41-2.47,2.67-4.95,5.32-8.11,7.98.36-3.56.61-6.6,4.66-7.04.54-.06.97-.59.88-1.14-.48-3.16,2.05-5.05,3.44-7.2,1.86-2.87,3.54-5.82,5.25-8.79ZM522.88,367.02c.79-.06.85.57.85,1.04.02,1.73-.26,3.42-.91,5.03-1.32,3.31-3.46,6.05-6.01,8.5-1.34,1.28-1.56-.79-2.69-.61,3.43-4.22,6.46-8.37,7.95-13.4.14-.47.42-.53.81-.56ZM510.47,344.54c.04-.36.07-.72.1-1.13,2.42,1.86,3.37,6.21,2.26,10.03-1.33,4.55-4.69,7.75-7.62,11.2-2.17,2.56-4.69,4.82-7.02,7.25-.82.85-1.79,1.35-2.92,1.53-.88.14-1.63-.24-1.87-1.12-.3-1.08.61-1.13,1.32-1.37.91-.31,1.85-.46,2.74-.91.89-.44,1.63-.74,1.39-1.87-.24-1.12-1.04-1.63-2.12-1.62-3.53.03-7.62,1.22-7.13,6.48.03.37.02.75.03,1.12.75,2.04,2.44,2.83,4.36,3.41.84.25,1.81.13,2.52.78,2.59,0,3.65-.63,3.97-3.42.3-2.6,1.52-4.19,3.43-5.85,3.25-2.83,6.03-6.19,8.6-9.67,1.51-2.05,2.39-4.45,2.49-7.06-.06-.44-.18-.87-.17-1.31.01-.49-.19-1.08.35-1.42.43-.27.69.15.91.4.45.52,1.29,1.03.25,1.77.8,6.87-2.05,12.26-7.18,16.83,1.75.65,2.83-.34,3.61-.99,2.91-2.41,5.37-5.21,5.72-9.25.04-.42-.07-.99.46-1.15.63-.19.98.36,1.21.78,1.77,3.33,2.03,6.81.26,10.14-1.89,3.55-4.09,6.9-6.49,10.17-1.41,1.92-2.56,2.79-4.85,2.86-2.06.07-3.73,1.32-5.1,2.91-1.31,1.52-2.53,3.1-4.22,4.31-2.03,1.46-4.37,1.79-6.65,1.84-2.45.05-.12-1.56-.51-2.3-.42-1.21-.31-2.16,1.2-2.42.6-2.21-1.4-3.54-1.84-5.4-.65-1.95-3.04-2.85-3.13-5.15-.68-.39-1.16-.58-1.16-1.75-.01-1.98.27-4.05-.4-6.01-.05-.14-.14-.33-.09-.41,1.67-2.6,1.11-5.32.7-8.14-.26-1.82.62-3.3,2.99-3.28,1.08,0,1.85-1.26,3.27-.96,1.14.24,1.53.62,1.54,1.7,0,2.02.05,4.05.13,6.07.08,2.3.85,2.73,2.93,1.74,1.43-.68,2.17-1.91,1.72-3.27-.55-1.66.34-1.83,1.43-2.48,5.14-3.06,7.99-7.64,8.58-13.61ZM508.21,342.23c.97,7.47-3.23,11.85-8.34,16.24-.52-2.46-.37-4.51.11-6.56.16-.69.45-1.17,1.08-1.57,4.66-2.95,4.89-3.23,7.15-8.11ZM462.42,350.88c3.51-.25,5.8-2.5,8.1-4.57,5.68-5.09,7.6-11.91,8.48-19.23.61-5.12,4.7-8.12,7.82-11.67.33-.37.87-.16,1.37-.15,3.44.12,7.07,1.07,9.93-1.93.53-.55,1.34-1.21.92-1.78-.61-.84-1.33.04-1.83.51-2.23,2.1-4.95,2.17-7.74,2.01-.03-.23-.13-.42-.07-.51,3.75-5.98,12.97-6.66,17.69-1.59,2.19,2.36,2.62,4.58,1.94,7.63-1.86,8.37-4.3,16.46-9.07,23.7-1.7,2.59-3.81,4.82-5.98,6.98-1.49,1.48-3.33,2.48-5.61,2.39-1.89-.08-2.88,1.2-2.61,2.84.78,4.66-1.98,7.3-5.25,9.59-4.7,3.29-9.96,3.74-15.45,2.61-2.2-.45-4.56-.44-6.66-2.44,2.76.22,4.62-1.32,6.8-1.95,1.44-.42,2.77-1.15,4.31-.56.62.24,1-.13,1.35-.52.58-.65,1.35-1.15,2.14-1.02,2.16.37,3.45-.96,4.81-2.19.79-.72,1.63-1.26,2.64-1.63.78-.28,1.22-.89.78-1.77-.61-1.22-.92,0-1.41.15-1.46.48-2.85.83-4.52.38-3.57-.97-6.76-2.68-10.18-4.54.02,1.28.74,1.85,1.5,2.38,2.54,1.76,5.29,3.08,8.28,3.89.45.12,1.16,0,1.2.75.04.75-.59.98-1.14,1.19-1.26.47-2.52.22-3.74-.13-1.27-.36-2.52-.67-4.03-.55.84,1.13,2.06,1.13,3.61,2.02-2.27.14-3.83.44-5.35-.85-1.95-1.66-3.64-3.56-5.4-5.39-.31-.33-.43-1.11-1.18-.8-.05-1.98.85-3.06,3.55-3.25ZM455.94,352.97c.99-.59,1.69-.2,2.31.6.17.22.38.4.58.59.04,2.39,1.63,3.89,3.18,5.38.89.85,1.84,1.63,2.94,2.59-1.4.72-2.38.3-3.32-.34-2.53-1.72-4.5-3.92-5.71-6.74-.28-.66-1.15-1.38.02-2.08ZM444.41,301.06c-1.28.2-2.74,1.04-3.61-.98,1.34.36,2.48.67,3.61.98ZM347.57,304.43c4.56-2.03,9.45-2.82,14.34-3.23,1.03-.09,2.65,1.18,3.93,1.96.72.44,1.45.82,2.27.21.7-.52.9-1.16.49-1.96-.21-.4-.18-.73.31-.84.54-.12,1.04-.11,1.21.6.63,2.48,2.67,1.47,4.2,1.63.6.06.91-.59.79-1.14-.39-1.85.91-1.55,2.02-1.89,4.86-1.48,9.79-1.71,14.58-1.3-1.75,1.95-4.53,1.64-6.9,2.53-4.72,1.78-9.46,3.52-13.96,5.84-1.57.81-3.21.31-4.83.29-.43,0-.91-.36-1.29-.25-6.4,1.71-12.54-2.4-19.47-.16.8-1.54,1.51-1.92,2.3-2.27ZM320.22,328.56c2.21-1.69,4.25-3.54,5.8-5.88.48-.73,1.14-1.32,1.94-1.41,5.28-.57,9.65-3.34,14.2-5.7,2.93-1.52,5.91-2.82,9.29-3.01,1.63-.09,3.07.11,4.25,1.59-3.27,1.7-6,4.1-8.95,6.22-2.17,1.56-4.94,1.62-7.12,3.1-.42.29-.93.06-1.19-.31-1.18-1.73-2.51-.99-3.62-.1-3.86,3.12-7.89,6.09-10.76,10.27-.54.78-1.21,1.47-1.89,2.29-.74-.87-.98-1.77-1.09-2.77-.09-.8-.09-1.86-.88-2.2-1.87-.81-.8-1.46.02-2.09ZM317.83,330.92c.14-.11.38-.34.4-.33.27.25.14.45-.13.6.05,2.35,1.11,4.28,2.55,6.05.23.28.82.57.78.72-.75,2.59.74,5.39-.59,7.87-1.1,2.06-3.9,1.89-5.41-.05-1.25-1.6-2-3.38-2.63-5.28-.45-1.37-.8-3-3.17-2.48,2.58-2.87,5.26-5.14,8.2-7.1ZM297.61,351.75c2.83-3.25,6.75-5.44,9.06-9.94q.36,3.71,3.72,5.01c-2.13.98-3.92,1.95-5.6,3.08-4.61,3.09-7.42,7.3-7.95,12.87-.16,1.74-.81,3.95,1.97,4.49,2.41.46,4.4-1.04,5.09-3.57,1.05-3.83,3.09-7.23,4.79-10.78.12-.26.35-.67.54-.68,2.51-.08,3.96-2.11,5.91-3.19.69-.38,1.46-.49,2.15-.07,1.81,1.11,3.22.19,4.62-.84,2.9-2.13,4.94-4.96,6.58-8.11,1.9-3.65,3.88-7.24,7.34-9.74.71-.51,1.34-1.12,2.26-1.25.16.4.24.76,0,1.11-4.42,6.57-8.39,13.52-14.5,18.74-4.16,3.55-8.14,7.29-12.15,11-3.11,2.88-5.54,6.09-5.79,10.52-.05.91-.22,1.59-1.45,1.44-3.34-.42-6.32.74-9.16,2.34-1.18.66-1.58.52-2.09-.86-3.01-8.21-.91-15.16,4.66-21.56ZM268.33,389.12c.05.05.13.1.13.16,0,.05-.09.1-.13.15-.05-.06-.13-.11-.13-.16,0-.05.09-.1.14-.15ZM280.11,427.76c1.64-1.16,3.6-.84,5.38-1.29,5.49-1.37,10.77-3.28,16.01-5.37,1.04-.41,1.88-.29,2.62.55.72.8,1.35,1.58.78,2.78-1.28,2.7-2.78,5.17-5.2,7.08-1.77,1.4-2.96,3.48-5.23,4.34-.79.3-1.59,1.42-2.31.41-.71-1,.69-1.21,1.19-1.74.3-.32.75-.51.86-1.7-3.01,2.24-6.32,2.57-9.47,3.42-.98.26-1.71.16-2.44-.46-1.17-1-2.44-1.9-3.52-2.99-1.2-1.22-.39-3.83,1.32-5.03ZM275.58,462.2c-2.99-.38-5.05-2.07-6.4-4.65-1.89-3.62-4.16-7.09-4.34-11.41-.04-.89-.99-1.77-1.58-2.62-3.24-4.64-3.38-9.8-2.73-15.16,1.08.1,1.23.95,1.55,1.56,1.62,3.17,3.56,5.99,6.07,8.63,3.94,4.15,6.37,9.35,7.12,15.11.16,1.26,1.02,2.33.79,3.65.57,1.12,1.18,2.22,1.7,3.36.25.56,1,1.13.36,1.79-.59.6-1.25.04-1.87-.14-.21-.06-.44-.09-.66-.13ZM299.16,477.63c-.84.93-1.53,2.04-2.09,3.17-.55,1.09-.87,2.31-1.33,3.59-1.53-1.8-3.28-3.3-4.19-5.45-.19.19-.38.38-.57.56.65,1.29.61,2.55.15,3.94-.47,1.4-.59,2.9-.37,4.41.09.65.51,1.5-.61,1.76-.11,1.32-.82.65-1.31.35-.75-.46-1.07-1.16-.89-2.05-.51.05-.49-.5-.79-.69-1.76-.15-1.71-1.38-1.6-2.66-.74,0-.97-.58-1.23-1.12-2.44-5.26-5.34-10.32-6.5-16.1-.2-1.01-.85-1.98.08-2.91.55-.56,1.32-.45,1.87-.12,1.01.6,1.69,1.47,1.35,2.79-.05.21,0,.45,0,.67l.76-.08c.09-.32-.04-.89.52-.77,1.56.35,2.93,2.48,2.82,4.19-.11,1.74.25,3.38,1.18,4.88.25-.24.5-.47.75-.71-.41-1.65-.82-3.3-1.28-5.19,1.84.33,3.29,1.09,4.6,2.14.33.26.69.57.41,1.13-.69,1.33-.22,2.79-.41,4.19.26.29.49.64.97.52.15-.72.35-1.43.43-2.16.31-2.67.28-2.64,2.95-1.56,1.17.47,2.42.74,3.61,1.15,1.1.38,1.96.8.75,2.13ZM305.17,482.4c-1.03.63-1.04,1.75-1.74,2.79-1.96-2.02-2.87-4.38-3.05-7.08-.04-.65.02-1.16.62-1.53.75-.47,4.41.01,4.79.66.92,1.56.68,4.36-.62,5.16ZM313.18,484.69c-.52,1.07-1.08,2.11-1.76,3.42-2.56-2.92-4.44-5.95-4.66-9.78-.05-.96-.1-1.88,1.31-1.6,1.5.29,3.34-.93,4.49.96,1.36,2.23,1.8,4.56.61,7.01ZM330.99,481.06c-1.89,5-3.41,10.04-2.17,15.48.08.34.26.77-.16,1.01-.5.29-.81-.14-1.13-.43-.16-.15-.32-.32-.45-.5-.34-.47-.61-1.24-1.25-1-.29.11-.3,1-.52,1.87-7.31-5.1-9.21-12.9-11.43-20.8,5.58-.11,10.87-1.02,16.19-1.54.95-.09,1.29.46,1.44,1.31.28,1.59.04,3.12-.52,4.6ZM350.44,540.22c-2.25-1.01-3.63-2.59-3.77-5.09-.14-2.55.06-5.06,1.16-7.67,2.49,3.71,4.31,7.31,4.41,11.6.04,1.59-.46,1.77-1.81,1.16ZM359.26,541.94c-.3,0-.6,0-.9,0-4.76-.01-5.26-.52-5.3-5.32,0-.52,0-1.05,0-1.57-.01,0-.02,0-.04,0,.05-.97.08-1.94.16-2.91.27-3.19.58-3.43,3.22-1.78,2.8,1.75,4.45,4.61,5.94,7.41,1,1.88-.87,4.15-3.08,4.18ZM363.05,541.85c-.89.08-.75-1.02-.48-1.33.43-.49,0-1.89,1.4-1.46,1.46.45,2.94.84,4.83,1.38-2,1.18-3.92,1.24-5.76,1.41ZM372.91,527.91c-.37,2.41-.67,4.82-1,7.23.12.58-.15,1.04-.47,1.49.21,1.58-.62,2.16-2.07,2.19-2.83.05-5.1-1.14-6.79-3.29-3.29-4.19-5.23-8.98-5.91-14.28.08-.91-1.81-2.15.46-2.68-.15-.34-.36-.66-.43-1.01-.09-.4-.91-.87,0-1.24.5-.2.76.11,1.04.54,1.82,2.79,4.41,4.8,7,6.8,2.11,1.64,4.44,2.73,7.11,2.89,1.06.06,1.22.45,1.08,1.36ZM383.9,511.52c-2.33,1.04-2.43,3.39-3.34,5.26-1.22,2.52-2.38,5.06-3.73,7.93-.88-1.76-.83-2.93-.08-4.26.87-1.54,1.54-3.23,2.07-4.93.67-2.13,2.43-3.5,3.45-5.37.4-.74,1.17-.83,1.71-.39.58.47.58,1.44-.09,1.74ZM392.88,486.94c-2.94,2.58-3.32,6.55-5.36,9.61-.62.93-1.28,1.74-2.59,2.44.36-2.43,1.62-4.19,2.27-6.15.88-2.67,2.97-4.57,4.51-6.82.36-.52,1.01-1.17,1.66-.53.51.5-.24,1.22-.49,1.45ZM393.18,460.31c.01-.19.53-.57.62-.52.98.56.83,1.5.89,2.54-1.23-.32-1.56-1.07-1.51-2.02ZM385.26,451.65c2.27,2.4,6.21,2.89,7.43,6.53.35,1.05.01,2.26-.41,2.69-1.86,1.88-.7,3.85-.37,5.7.15.83.5,1.27-.27,2.02-.81.79-.5,1.97.4,2.53,1.16.72,1.07-.69,1.35-1.18.82-1.47,1.75-2.99.27-4.66-.45-.51-.37-1.18.31-1.5.74-.35,1.44-.05,1.62.69.41,1.65,1.01,3.36.9,5.01-.18,2.89-.44,5.81-1.35,8.6-.18.55-.22,1.36-.94,1.39-.95.04-.99-1-.96-1.5.19-3.1-2.64-4.88-3.19-7.68-.29-1.5-2.09-1.24-3.26-1.5-3.63-.8-4.78-2.9-3.81-6.38.5-1.8,1.13-3.24,2.52-4.55,1.25-1.18.39-4.76-1.46-5.98.68-.14,1.11-.34,1.21-.23ZM346.93,475.88c-.41-.74.23-1.61,1.17-1.81,1.14-.24,1.43.43,1.34,1.42-.13,1.43.72,2.55,1.22,3.77.5,1.21.84,2.41-.32,4.06-.99-2.77-2.13-5.14-3.41-7.44ZM342.82,518.21c.27-4.49,1.67-8.33,6.49-10.19,3.97-1.52,6.17-5.3,9.06-8.18.16-.16.25-.47.42-.51,2.27-.47,2.26-2.78,3.4-4.16.28-.34.35-.58.24-.96-.7-2.59.05-5.03.92-7.41.8-2.17.84-4.35.46-6.57-.23-1.35-1-2.04-2.43-2.15-2.97-.23-4.83-1.79-5.72-4.63-.16-.5-.36-.98-.57-1.46-1.61-3.66-1.79-7.11,1.28-10.2.62-.62,1.05-1.45.89-2.43-.41-.74-.34-1.52.37-1.88.69-.35,1.55-.4,2.1.46.76,1.09,2.02,1.5,3.04,2.23,2.96,2.12,4.55,5.48,7.16,7.91.19.17.24.55.26.83.22,2.43.64,4.64,2.04,6.87.96,1.53.63,4.06.42,6.09-.35,3.42-.86,6.82-.6,10.27.1,1.34-.37,2.51-1.23,3.51-1.52,1.77-2.63,3.8-3.67,5.86-.85,1.68-.18,3.51-.17,5.25.01,1.64-.3,3.08-1.1,4.49-.49.85-.97,1.46-2.06,1.37-.76-.07-1.61-.11-1.44,1.09.14.93.61,1.53,1.64,1.41.73-.08,1.52.03,2.03-.71,1.48-2.16,2.99-4.25,2.46-7.17-.66-3.63.69-6.81,2.9-9.57,1.7-2.12,2.36-4.43,2.3-7.06-.09-3.67.08-7.33.72-10.94.39-2.21-.09-4.17-1.3-5.95-1.4-2.07-.8-4.8-2.34-6.81-1.03-.37-1.33-1.28-1.63-2.19-1.45-.62-1.51-2.4-2.75-3.25-.58-.4-1.07-.99-1.72-1.35-1.52-.82-2.6-2.09-3.56-3.48-2.03.69-2.81-.71-3.13-2.18-.44-1.97,1.42-1.87,2.58-2.35.64-.03,1.29-.05,1.93-.08.54-.11,1.08-.21,1.62-.32.72-.38,1.47-.41,2.25-.23,1.36-.87,2.89-.15,4.34-.35,1.66-.24,3.34-.42,5.02-.68,3.43-.53,5.42.27,7.99,2.92.62.64.53,1.25.07,2.11-.77,1.44-2.05,2.43-2.87,3.84-1.69,2.89-1.14,5.73.06,8.4.9,2.01,3.21,2.52,5.21,2.71,1.62.16,2.28.99,3.04,2.2,1.35,2.14,2.34,4.38,2.71,6.88.21,1.39.05,2.53-1.15,3.59-7.07,6.22-8.3,14.53-8.08,23.29.03,1.22.04,1.97-1.34,2.56-3,1.27-4.56,4.11-5.94,6.77-1.32,2.53-2.56,5.28-2.29,8.31.09.99-.5.91-1.04,1-1.8.29-3.4-.27-4.87-1.25-4.28-2.84-8.09-6.16-10.41-10.87-.32-.66-.69-1.22-1.5-1.02-.91.23-.89,1.02-.99,1.78-.6,4.51.94,8.69,1.98,12.94.17.71.47,1.38.28,2.32-1.61-.81-3.22-1.84-4.69.06-.06.07-.33.08-.43.01-1.8-1.28-3.68-2.48-5.33-3.94-.45-.4-.66-1.48-1.25-1.76-2.34-1.08-2.23-3.27-2.12-5.1ZM342.57,525.03c.72-.99,1.36-.89,2.04.17,1.19,1.87,1.3,3.9,1.16,5.57,0,1.03.04,1.63-.01,2.23-.07.7.4,1.72-.29,2.05-.92.43-1.62-.51-2.24-1.1-2.16-2.05-2.48-6.41-.66-8.91ZM332.07,531.67c-2.95-2.63-4.57-6.07-5.91-9.65-.89-2.38-1.38-4.88-1.63-7.43-.11-1.14.01-2.19.64-3.36,1.01.85.83,1.99.93,2.76.53,4.33,4.2,5.88,6.99,8.17,1.78,1.46,4.01,1.51,6.21,1.27,1.77-.19,2.65.12,1.65,2.16-.96,1.95-.23,4.15-.62,6.4-.58-.16-.98-.18-1.29-.36-1.06-.6-1.81-1-2.9.32-1.14,1.38-2.74.89-4.07-.29Z" style="fill: #f4f3e9;"/>
    <path d="M381.24,548.53c1.48,3.58,4.11,3.59,6.91,3.24,3.07-1.01,4.02-3.35,2.23-4.95-2.44,3.02-5.5,3.37-9.13,1.72Z" style="fill: #f4f3e9;"/>
    <path d="M391.34,540.51c-1.91,1.28-3.73,2.78-6.3,2.22-.44-.1-.65.31-.71.69-.07.42.21.66.55.87,1.74,1.02,3.54,1.54,5.52.68.18-.89.97-1.32,1.56-1.82,1.09-.92,1.16-1.78.25-2.8-.29.05-.64.01-.87.16Z" style="fill: #f4f3e9;"/>
    <path d="M377.16,563.66c-2.54.63-4.42-.54-6.1-2.25-.57-.58-1.13-1.21-1.96-1.41-.48-.11-1.08-.29-1.4.3-.28.51.16.81.48,1.11,1.07,1.01,2.15,2,3.23,3,1.61.92,3.28,1.65,5.16,1.79.97.07,1.6-.5,1.9-1.25.49-1.23-.95-.76-1.31-1.28Z" style="fill: #f4f3e9;"/>
    <path d="M339.96,548.95c.14-.42.86-1.34-.3-1.6-.85-.19-1.13.51-1.39,1.14-.65,1.62-.36,3.36-.64,5.03.37,1.2.54,2.51,1.16,3.56.64,1.08,1.65,2.32,3.03.61-2.73-2.46-3-5.42-1.87-8.73Z" style="fill: #f4f3e9;"/>
    <path d="M337.83,544.69c.25-.05.39-.2.24-.42-.04-.06-.34.06-.52.1-1.85.73-2.59,2.54-3.82,3.88-.04,1.3-.57,2.57,0,3.92.74,1.76,1.65,2.05,3.36.89-2-2.55-1.61-4.99.32-7.38.22-.27.29-.66.43-.99Z" style="fill: #f4f3e9;"/>
    <path d="M347.13,559.96c-2.51-1.44-3.41-3.77-3.58-6.52-.04-.59.25-1.58-.75-1.56-.93.02-1.06.92-.95,1.67.22,1.53.54,3.04.82,4.55,1.51,1.09,2.17,3.42,4.6,3.16.2-.33.4-.66.61-.99-.25.11-.53-.19-.75-.32Z" style="fill: #f4f3e9;"/>
    <path d="M348.12,559.91c-.08.13-.15.25-.23.38.1-.04.2-.15.28-.35,0,0-.02,0-.03-.01h.03s0,.01,0,0c-.02,0-.03-.01-.05-.02,0,0,0,0,0,0Z" style="fill: #f4f3e9;"/>
    <path d="M246.95,346.38s.02-.03.02-.03c-.05-.02-.11-.05-.16-.07.05.03.09.06.14.1Z" style="fill: #f4f3e9;"/>
    <path d="M338.36,373.07c.59-.15,1.01-.33,1.28.6.49,1.67,1.79,1.84,3.19,1.07,1.85-1.02,3.6-2.22,5.64-2.92,3.48-1.19,6.75-2.81,9.62-5.18,5.16-4.26,7.87-10.25,11.13-15.84.24-.42.26-1.03.22-1.54-.18-2.38,0-4.81-.75-7.12-.6-1.86.24-3.01,1.91-3.37,1.69-.37,2.96-1.34,4.28-2.27,2.18-1.54,3.16-4.84,2.32-7.42-.86-2.64-4.17-5.86-6.2-5.82-3.58.08-7.05-1.02-10.64-.81-.04-1.09.7-1.63,1.03-2.35.53-1.15.37-2.16-.41-3.13-.68-.83-1.59-.99-2.41-.52-1.2.68.09,1.23.32,1.72,1.17,2.49.59,4.42-1.89,5.57-.58.27-.92.6-1.25,1.12-1.12,1.78-1.27,3.7-1.34,5.76-.08,2.16.4,3.57,2.47,4.56,2.31,1.1,3.36,3.3,3.14,5.74-.44,4.91-1.02,9.82-2.13,14.63-.92,3.98-2.44,7.82-6.54,9.34-4.95,1.84-8.34,6.26-13.5,7.62.18.19.36.38.53.56Z" style="fill: #f4f3e9;"/>
    <path d="M397.96,315.33c-.5,0-1.4.05-2.29-.01-1.43-.09-2.33.59-2.63,1.91-1.7,7.66-2.28,12.9,4.18,17.76,3.54,2.67,5.84,6.23,6.32,10.91.4,3.84,2.57,5.94,6.25,6.63,1.9.36,3.82.45,5.79.25,2.97-.31,4.63-1.99,5.87-4.49,3.12-6.3-.14-11.52-2.87-16.77-2.23-4.29-6.32-7.14-9.06-11.05-2.76-3.95-6.46-5.61-11.58-5.14ZM404.21,323.75c1.37,2.09,2.98,3.94,4.82,5.57,2.46,2.19,3.36,5.2,4.62,8.04.37.82.69,1.68,1.49,2.17,2.66,1.63,1.74,6.05-1.2,7.95-1.07.69-2.54.69-3.56-.73-1.62-2.25-3.04-4.61-4.07-7.17-1.84-4.56-3.69-9.09-8.27-11.73-.85-.49-1.17-1.32-.98-2.47.06-1.33.35-2.77,2.09-3.1,1.9-.36,3.9-.29,5.06,1.48Z" style="fill: #f4f3e9;"/>
    <path d="M375.48,370.6c1.75-2.34,3.69-4.5,6.19-6.09,2.5-1.6,4.43-3.78,6.1-6.2,2.09-3,3.19-6.25,2.38-9.94-.57-2.59-2.6-4.03-5.23-3.69-1.04.14-2.07.42-3.06-.14-1.04-.59-1.94-.32-2.95.19-2.6,1.32-4.03,3.42-4.69,6.21-.51,2.14-.24,4.34-.69,6.46-1.04,4.9-3.69,9.08-6.09,13.37-.91,1.62-1.89,3.03-4.01,3.11-.47.02-1.31.14-1.13,1.02.56,2.76,2.27,3.73,5.12,2.94,1.63-.45,3.03-1.35,4.16-2.55,1.11-1.18,2.32-1.81,3.93-1.57.28-.25.57-.49.85-.74-.68-.28-1.74.31-2.06-.43-.39-.88.71-1.34,1.17-1.96Z" style="fill: #f4f3e9;"/>
    <path d="M468.96,392.18c.19-.09.35-.12.4-.42.58-3.84-2.51-7.87-5.62-7.71-2.24.12-4.3.65-6.08,1.97-4.47,3.3-5.18,8.13-5.28,13.19,0,2.94.3,5.83,1.33,8.59,1.33,3.58,5.26,5.05,8.68,3.37,1.44-.71,2.1-1.78,1.92-3.39-.17-1.56-.46-3.13-.41-4.69.15-4.32.41-8.66,5.06-10.91Z" style="fill: #f4f3e9;"/>
    <path d="M437.75,356.97c-1.74-.37-3.08.53-4.07,1.83-2.34,3.06-2.45,6.49-.69,9.72,4.17,7.66,10.8,11.64,19.17,12.29,1.06-.09,1.81-.14,2.55-.22,2.74-.3,4.88-1.82,5.34-3.78.45-1.91-.71-3.64-3.4-5.26-2.82-1.7-5.9-1.9-9.09-1.84-3.61.08-5.35-1.36-6.2-4.87-.37-1.52-.66-3.06-.98-4.6-.32-1.54-.94-2.92-2.64-3.28Z" style="fill: #f4f3e9;"/>
    <path d="M477.08,491.42c.66.04,1.27-.04,1.94-.23,1.88-.55,3.29-1.85,4.94-2.75-.36-1.76-1.29-1.39-2.16-.48-1.24,1.31-2.78,1.71-4.47,1.65-10.37-.37-19.34-3.61-25.49-12.55-.45-.65-.97-1.05-1.63-.64-.66.41-.05,1.09.09,1.57.2.69.64,1.35,1.09,1.93,1.57,2.07,3.22,3.99,5.42,5.52,3.69,2.57,7.55,4.49,12.09,4.81.91.07,1.67.23,2.09,1.33-9.11.11-15.94-4.24-21.98-10.35,2.54,7.78,9.13,10.46,16.06,12.83-3.77.16-7.42.82-10.91-.7-3.22-1.41-5.88-3.67-8.52-5.97-.06,1.84,1.75,2.52,1.87,4.05-.56.4-1.22-.53-1.46.08-.29.74.42,1.17,1.01,1.51,2.38,1.39,4.91,2.41,7.77,3.06-1.81,1.56-3.46,3.14-5.57,3.54-6.21,1.16-12.14.53-17.29-3.61-.35-.28-.74-.73-1.09-.2-.26.4.08.86.51,1.08,1.77.92,3.34,2.17,5.19,2.98,5.75,2.53,11.63,2.33,16.72-.88,3.28-2.07,6.16-3.36,9.9-2.43.56-.03,1.12-.06,1.67-.09.45-.84,1.31-.42,1.96-.64,1.58-2.28,3.9-2.25,6.31-2.13.83.04,1.69-.34,2.49-.53.2-.87-1.19-1.35-.37-2.1.65-.6,1.2.3,1.84.33Z" style="fill: #f4f3e9;"/>
    <path d="M424.12,364.3c1.37,1.49,2.81,1.03,4.06-.3,1.48-1.57,1.85-4.2.87-6.05-1.2-2.27-3.32-2.38-5.43-2.05-3.13.49-6.27.65-9.39.35-3.24-.32-3.83.17-4.15,4.1.04,3.69,1.14,4.55,4.72,3.69.87-.21,1.81-.3,2.58-.72,2.54-1.37,4.71-1.21,6.75.99Z" style="fill: #f4f3e9;"/>
    <path d="M413.23,379.76c2.19-1.3,3.78-3.21,4.08-5.86.17-1.52-.24-2.87-2-3.25-2.05-.44-4.36.34-4.54,1.83-.31,2.41-1.83,3.64-3.66,4.75-2.37,1.43-3.1,3.7-3.26,6.27.13,1.76.6,3.39,1.75,4.73,1.45,1.7,3.89,1.24,4.59-.89.23-.69.35-1.49.27-2.21-.26-2.43.66-4.11,2.78-5.37Z" style="fill: #f4f3e9;"/>
    <path d="M457.05,462.86c-2.24.51-2.33,2.31-2.18,4.08.27,3.22,5.67,8.29,8.9,8.47.15,0,.3,0,.45,0,3.83-.21,6.84-2.44,10.04-4.15.69-.37.88-1.14-.2-1.62-1.08-.48-2.18-.93-2.98-1.91-.86-1.04-2.04-.93-3.08-.38-.97.51-.78,1.39-.51,2.34.3,1.07-.11,2.06-1.07,2.71-.65.44-1.38.36-1.85-.2-.79-.94-1.8-1.73-1.96-3.12-.14-1.26-.37-2.53-.78-3.73-.77-2.28-2.32-3.07-4.79-2.51Z" style="fill: #f4f3e9;"/>
    <path d="M472.68,451.55c-1.77-.2-3.3-.02-3.94,1.67-.72,1.91.92,2.55,2.13,3.41,2.56,1.81,5.15,3.57,6.79,6.4.55.95,1.42,1.81,2.76,1.46,3.06-.8,7.7-8.59,7.02-11.76-.06-.29-.18-.57-.3-.84-.62-1.34-1.86-1.52-3.12-1.67-.84-.1-1.53.21-1.81.99-.42,1.17.3,1.99,1.08,2.73.11.1.22.21.3.33.8,1.26.78,2.72.04,3.82-1.13,1.7-2.9,1.03-4.51.65-1.41-.33-1.58-1.19-1.51-2.5.14-2.62-2.11-4.59-4.93-4.69Z" style="fill: #f4f3e9;"/>
    <path d="M483.49,422.21c-.94.26-1.44.57-1.45,1.59,0,1.27-.16,2.54-.14,3.81.01.99.23,2.04,1.36,2.34,1.04.27,1.88-.33,2.55-1.09.39-.45.82-.92,1.02-1.46.59-1.59,1.09-3.17,3.29-3.08.34.01.79-.44,1.04-.79,1.71-2.36,3.37-4.76,3.69-7.78-.05-.34-.1-.68-.15-1.02-1.34-1.56-4.75-2.48-6.61-1.66-1.94.86-.68,2.64-1.02,3.96-.04.14,0,.3,0,.45,0,3.7.01,3.75-3.56,4.74Z" style="fill: #f4f3e9;"/>
    <path d="M319.8,362.51c.88-1.31,1.63-1.62,2.86-1.16.93.35,1.77.39,1.89-.69.1-.95-.71-1.37-1.67-1.32-.45.02-.9,0-1.35,0-4.85.03-6.94,1.73-8.12,6.59-.09.36-.3.7-.34,1.06-.28,2.4-1.67,4.66-.87,7.18.37,1.16,1.03,2.03,2.39,1.92,1.07-.09,2.13-.37,2.49-1.55.29-.96.1-1.94-.33-2.84-.52-1.1-.51-2.29.09-3.22,1.22-1.88,1.68-4.08,2.96-5.96Z" style="fill: #f4f3e9;"/>
    <path d="M388.81,315.73c-.45.09-.85.1-1.17.25-3.41,1.63-5.78,4.56-8.58,6.96-.37.31-.62,1.01.09,1.27,1.16.44,1.1,1.46,1.35,2.37.34,1.23.8,2.42,1.8,3.27,1.17,1,2.31.8,3.34-.25.94-.97,2.01-1.89.74-3.41-.72-.86-1.42-1.7-2.38-2.32-.88-.56-1.12-1.43-.72-2.33.42-.94,1.18-1.47,2.31-1.43,1.19.04,1.15.81,1.25,1.67.14,1.13,1.02,1.62,1.94,1.04,1.27-.8,2.42-2.06,2.34-3.59-.07-1.43-.28-3.21-2.3-3.5Z" style="fill: #f4f3e9;"/>
    <path d="M318.48,379.8c.77.45,1.61.78,2.56.77,2.99-.11,4.29-2.33,5.43-4.6.91-1.81-.36-3.7-2.4-3.46-1.56.18-3.34.48-3.47,2.73-.05.84-.31,1.6-1.51,1.41-.62-.1-1.46-.1-1.56.82-.1.9.06,1.81.94,2.33Z" style="fill: #f4f3e9;"/>
    <path d="M325.61,391.06c-1.42-.09-2.46,1.09-3.88.75-1.57-.38-2.61.52-3.73,1.63,1.47.24,2.81.11,3.87-.45,3.85-2.05,10.38.27,12.31,3.35,1.38,2.2,1.39,3.25-.31,5.14-.53.59-1.74,1.19-.59,2.11.91.73,1.87.46,2.77-.43.72-.7.4-1.89,1.29-2.43-.47-7.78-5.67-9.27-11.73-9.67Z" style="fill: #f4f3e9;"/>
    <path d="M337.42,400.69s-.06.03-.08.05c0,.01,0,.02,0,.04.02-.02.05-.04.07-.06,0,0,0-.02,0-.03,0,0,0,0,0,0Z" style="fill: #f4f3e9;"/>
    <path d="M329.86,463.54c2.32-.59.88-1.51.29-2.39-1.42.08-2.98.09-4,1.09-1.05,1.03-2.1,1.69-4.24,1.47,1.53,1.01,2.48,1.69,1.83,3.04.19.19.38.38.57.58,1.61.65,3.14,1.61,5.01.86,2.04-.82,3.98-1.82,6.2-2.28,1.6-.33,1.9-1.69.93-3.13-.56,1.38-.99,2.72-3.1,2.07-.59-.18-1.72.48-2.56.77-.79.28-1.02.35-1.25-.41-.18-.62-.67-1.43.31-1.68ZM327.56,467.41c-.9,0-1.96-.26-1.85-1.57.05-.62-.48-1.62,1.33-2.18.69.89,1.6,1.7,1.98,2.71.23.59-.9,1.04-1.46,1.03Z" style="fill: #f4f3e9;"/>
    <path d="M342.47,334.61c1.64-.29,3.94,1.38,4.83-1.52.22-.72,1.09-.61,1.77-.57.83.05,1.84.5,1.82-1.07-.01-1.22.12-2.41-1.55-2.57-.74-.07-1.48-.11-1.99-.15-3.78-.01-5.86,1.54-5.82,4.24.01.66-.1,1.82.94,1.64Z" style="fill: #f4f3e9;"/>
    <path d="M480.24,448.94c1.02.38,1.96-.17,2.57-.96,1.15-1.49,2.45-2.56,4.45-2.57.79,0,1.55-.51,1.5-1.36-.05-.78-.91-.55-1.47-.62q-3-.41-2.06-3.31c.14-.44.17-.84-.28-1.19-.46-.35-.77-.27-1.12.15-1.97,2.37-3.14,5.14-4.16,7.75.31.91-.24,1.81.57,2.11Z" style="fill: #f4f3e9;"/>
    <path d="M312.17,462.35c-1.01.17-2.4.21-3.63.65-1.48.53-2.27,1.54-1.42,3.32,1.18,2.46,2.94,3.5,5.57,2.86,1.39-.34,2.74-.88,4.11-1.32.78-.25,1.36-.67,1.06-1.58-.55-1.69-3.6-3.88-5.68-3.92ZM315.96,466.64c-.82.86-2.26,1.09-3.35-.09-.8.95-.91,3.42-3.08,1.35-.51-.49-.37-.85-.13-1.34.31-.6.6-.36,1.01-.08.69.48,1.04-.04,1.34-.57h0c-.78.02-1.05-.2-.41-.86-.12-.54-.77-1.22-.15-1.58.75-.43,1.75-.39,2.57,0,.43.21.84.66,1.05,1.11.35.75,1.87,1.3,1.14,2.06Z" style="fill: #f4f3e9;"/>
    <path d="M493.33,437.85c.15,1.27,1.19.7,1.76.65,1.9-.17,2.9.82,3.61,2.37.58,1.26,1.72.96,2.73.88.96-.08,1.42-.76,1.49-1.68.08-1.11-.56-1.6-1.57-1.79-1.03-.2-1.65-.98-2.26-1.74-.76-.95-1.72-1.4-3.3-1.32-.15.03-.69.07-1.16.27-1.03.43-1.41,1.3-1.29,2.36Z" style="fill: #f4f3e9;"/>
    <path d="M464.69,380.58c1.19-.03,2.11.03,2.93-.39.39-.2,1.18.22,1.13-.66-.03-.6-.11-1.49-.7-1.52-1.73-.09-1.42-1.31-1.55-2.34-.19-1.47-1.36-2.13-2.69-1.35-1.69.98-2.11,2.66-1.85,4.48.25,1.77,1.55,1.96,2.73,1.78Z" style="fill: #f4f3e9;"/>
    <path d="M423.94,334.07c.77.9,1.49,1.85,2.33,2.69.4.4.97.67,1.63.34.63-.32.8-.82.75-1.82-.05-.16-.19-.65-.38-1.13-.98-2.46-3.65-3.06-5.32-4.79-.33-.34-1.54-.48-1.89.44-.3.78-.2,1.7.63,2.16.95.53,1.58,1.32,2.25,2.12Z" style="fill: #f4f3e9;"/>
    <path d="M455.6,500.27c-.03-.5-.33-.56-.75-.6-.96-.09-1.6.29-1.73,1.25-.19,1.37-1.31,1.6-2.28,1.76-4.13.68-8.3,1.51-12.14-1.15-.41-.29-1.01-1.06-1.5-.28-.54.87.68,1.21.97,1.31,2.65.92,5.21,2.26,8.32,2.04,2.82.2,5.52-.7,8.13-2.1,1.02-.55,1.04-1.32.98-2.23Z" style="fill: #f4f3e9;"/>
    <path d="M409.58,308.93c.89-.34.9-1.34.57-2.14-.37-.89-1.16-.82-1.89-.47-1.86.89-2.94,2.42-3.49,4.35,0,1.84,1.35,2.56,2.65,3.26.58.31,1.36.4,1.8-.29.35-.54.14-1.02-.24-1.6-.75-1.13-1.4-2.34.6-3.11Z" style="fill: #f4f3e9;"/>
    <path d="M321.34,401.63c4.42.64,9.35.41,10.54,6.34.44-.01.88-.03,1.32-.04.5-.7.7-1.42.35-2.28-1.62-3.95-9.14-5.94-12.2-4.01Z" style="fill: #f4f3e9;"/>
    <path d="M390.36,341.03c-.27-.6-.69-1.15-1.11-1.66-1.08-1.32-2.08-2.56-2.21-4.47-.14-2.07-1.7-2.95-3.93-2.92.16,1.27.65,2.25,1.27,3.16,1.51,2.22,3.08,4.39,4.58,6.61.28.41.28,1.15.99.84.66-.29.66-1.01.41-1.56Z" style="fill: #f4f3e9;"/>
    <path d="M322.85,448.08c.02-1.21-.3-2.79-2.9-2.27-.71.43-2.9-.46-3.12,2.01-.2,2.3,1.49,2.29,3,2.4,1.56.11,2.99-.41,3.02-2.14Z" style="fill: #f4f3e9;"/>
    <path d="M343.14,404.17c1.74-.26,2.54,1.11,3.62,2,.38-2.08-1.16-3.54-3.18-3-1,.27-1.97.84-2.98.92-1.31.11-2.54-.18-1.68-2.05.37-.8.35-1.6-.34-2.27-.39.31-.79.63-1.18.95-.21,1.05-.14,2.1.02,3.15,1.01.27,1.87.88,3.02.93,1.34.06,1.19,1.21.97,2.2,1.11.19,1.56-.12.98-1.26-.53-1.02-.32-1.4.74-1.56Z" style="fill: #f4f3e9;"/>
    <path d="M440.49,470.85c.43-.17.7-1.27,1.29-.49,1.47,1.96,3.09.82,5.1.53-.88-.76-1.42-1.08-1.76-1.54-1.24-1.66-2.61-1.72-4.17-.5-.34.27-.75.54-1.16.62-.84.16-1.23.8-.97,1.38.4.89,1.08.24,1.67,0Z" style="fill: #f4f3e9;"/>
    <path d="M442.49,355.4c.98-.1,2.19.02,2.48-.84.31-.95-.8-1.45-1.57-1.86-.59-.32-1.21-.59-1.84-.79-1-.32-1.84-.02-2.12,1.03-.27.98.11,1.78,1.17,2.07.64.18,1.31.28,1.88.4Z" style="fill: #f4f3e9;"/>
    <path d="M302.34,463.11c-1.41.23-3.17-.24-3.25,2.22-.06,2.05,1.49,1.99,2.64,2.02,1.48.04,3.05-.36,3.16-2.31.09-1.73-1.02-2.1-2.55-1.93ZM303.86,465.07c.03,1-.46,1.52-1.25,1.35-1.21-.1-2.52.04-2.46-1.25.06-1.48,1.62-.9,2.51-1.21.95-.33,1.18.41,1.2,1.11Z" style="fill: #f4f3e9;"/>
    <path d="M401.81,443.92c2.28.33,3.31-1.46,4.66-2.73.23-1.1,1.95-.42,2.06-1.7-3.14-.17-5.03,1.07-6.72,4.43Z" style="fill: #f4f3e9;"/>
    <path d="M467.81,461.27c2.57.35,2.78.21,2.49-2.73-2.41,1.49-5.16,1.57-7.75,2.29,1.77.22,3.53.2,5.26.44Z" style="fill: #f4f3e9;"/>
    <path d="M325.14,447.55c1.24.24,1.63-.65,1.72-1.66.1-1.14-.7-1.5-1.71-1.54-1.27-.04-1.98.63-1.95,1.84.03,1.08.84,1.43,1.93,1.35Z" style="fill: #f4f3e9;"/>
    <path d="M310.23,447.45c-1.04-.06-1.58.41-1.59,1.39-.01,1.07.63,1.61,1.4,1.63,1.21-.04,1.96-.38,1.94-1.4-.02-1.05-.68-1.55-1.75-1.62Z" style="fill: #f4f3e9;"/>
    <path d="M464.95,447.85c.97.17,2.27-.31,2.08-.96-.33-1.18-1.6-1.9-2.95-1.95-.44-.02-1.16-.17-.98.91.2,1.2.25,2.25,1.85,2Z" style="fill: #f4f3e9;"/>
    <path d="M438.1,481.44c.41.58.76,1.29,1.69,1.57-.29-1.64,1.24-2.78,1.11-4.69-1.06.63-.88,2.19-2.42,1.72-.55-.17-.74.88-.38,1.4Z" style="fill: #f4f3e9;"/>
    <path d="M470.53,396.63c-.86,2.03-.7,3.44,1.16,4.71.13-1.81-.27-3.14-1.16-4.71Z" style="fill: #f4f3e9;"/>
    <path d="M274.88,415.73c4.17-.05,8.34-.12,12.51-.19,0-.16.02-.31.03-.47h-13.35c.26.51.54.67.81.66Z" style="fill: #f4f3e9;"/>
    <path d="M388.12,437.73c-.13.69-.26,1.39-.39,2.08.17.54-.04,1.5,1.05,1.06.74-.3,1.27-.86.73-1.69-.36-.55-.42-1.45-1.39-1.45Z" style="fill: #f4f3e9;"/>
    <path d="M428.97,465.88c-1.41,1.99-.93,3.33,0,4.67v-4.67Z" style="fill: #f4f3e9;"/>
    <path d="M412.47,491.24c.04.28.07.55.11.83.91.75,1.93.39,2.97.39-.51-2.01-1.9-1.33-3.08-1.22Z" style="fill: #f4f3e9;"/>
    <path d="M499.58,455.14c.63-.86,2.11-.43,2.6-1.68-1.55-.48-2.32.94-3.49,1.22.21.32.49.51.89.47Z" style="fill: #f4f3e9;"/>
    <path d="M480.18,430.98c-.67.4-1.75.66-.99,2,.49-.8,1.86-.47,1.86-1.68,0-.49-.59-.49-.87-.33Z" style="fill: #f4f3e9;"/>
    <path d="M561.34,413.36c-1.04.09-.66.82-.56,1.34.56,2.87-.49,5.3-2.09,7.53-1.13,1.58-2.54,2.96-3.6,4.57-.96,1.46-2.46,2.75-2.33,5.02,3.5-3.81,7.04-7.24,9.21-11.78.9-1.88.56-3.8.59-5.72.01-.73-.5-1.02-1.21-.96Z" style="fill: #f4f3e9;"/>
    <path d="M547.6,416.61c-.41.4-1.12.77-.53,1.42.49.54.97-.1,1.34-.36,3.53-2.45,5.86-5.64,5.96-10.5.12-.97,0-2.31-.4-3.6-.22-.7-.84-1.11-1.57-.81-.94.38-.64.98-.13,1.57.7.81.63,1.78.58,2.76-.23,4.02-2.52,6.89-5.25,9.52Z" style="fill: #f4f3e9;"/>
    <path d="M342.29,398.16c-.34-.07-.48.34-.48.63-.02,1.43,1.22,1.59,2.19,2-.58-.93-.39-2.35-1.71-2.63Z" style="fill: #f4f3e9;"/>
    <path d="M475.86,346.33c4.03,1.3,8.09,2.08,12.21.44,1.16-.46,2.18-1.36,2.07-2.67-.13-1.5.67-2.06,1.73-2.7,1.46-.89,3.03-1.77,3.28-3.71.07-.55.45-1.39-.55-1.64-.99-.25-1.05.5-1.25,1.15-.55,1.8-1.85,2.85-3.6,3.35-2.23.64-4.49,1.08-6.84.8-1.27-.15-1.28-.09-2.75.7,2.47.6,4.67,1.19,7.02,1.02.62-.04,1.59-.92,1.84.29.19.89-.62,1.39-1.42,1.76-2.06.95-4.19.92-6.37.6-2.04-.3-4.09-.52-6.35-.8.18.6.19.78.28.87.21.2.45.44.72.53Z" style="fill: #f4f3e9;"/>
    <path d="M492.63,335.13c2.57-.39,4.86-2.4,5.11-4.34.1-.76-.04-1.38-.84-1.58-1.02-.26-.82.54-.86,1.1-.11,1.48-1,2.18-2.35,2.6-1.65.52-3.31.87-5.04.89-1.6.02-3.18.2-4.68.93,2.89.79,5.77.85,8.67.41Z" style="fill: #f4f3e9;"/>
    <path d="M489.83,324.98c-.01.36-.03.72-.04,1.08,2.22.2,4.4-.15,6.58-.43,2.8-.36,4.63-2.18,6.18-4.32.43-.59.4-1.24-.39-1.67-.87-.47-1.14.17-1.22.74-.23,1.72-1.52,2.25-2.86,2.76-2.66,1.01-5.46,1.41-8.24,1.85Z" style="fill: #f4f3e9;"/>
    <path d="M497.97,318.99c1.75-1.33,1.86-2.16,1.18-4.32-2.78,5.4-7.82,5.39-13.21,5.63,5.22,2.71,9.12.92,12.03-1.3Z" style="fill: #f4f3e9;"/>
    <path d="M482.89,353.59c1.81-.49,2.62-1.81,3.08-3.47.13-.49-.1-.88-.58-1.06-.31-.11-.48.04-.67.34-1.92,2.93-2.9,3.28-6.1,2.53-1.5-.35-3.05-.55-5.17-.92,3.05,2.77,6.03,3.49,9.44,2.57Z" style="fill: #f4f3e9;"/>
    <path d="M386.8,461.45s-.03,0-.04,0c0,.01,0,.02,0,.03l.03-.03Z" style="fill: #f4f3e9;"/>
    <path d="M385.64,459.5c-.13-.02-.41.23-.45.4-.15.66.2,1.13.75,1.42.24.12.55.1.83.13-.06-.27-.08-.57-.21-.81-.23-.44-.31-1.03-.92-1.14Z" style="fill: #f4f3e9;"/>
    <path d="M386.96,461.66s-.1-.1-.14-.15c0,.04.01.07.03.1.02.03.08.03.12.05Z" style="fill: #f4f3e9;"/>
    <path d="M386.8,461.45s-.03.03-.03.03c.01.01.03.03.04.04,0-.02,0-.05-.01-.07Z" style="fill: #f4f3e9;"/>
  </g>
</svg>