<?xml version="1.0" encoding="UTF-8"?>
<svg id="Camada_1" data-name="Camada 1" xmlns="http://www.w3.org/2000/svg" viewBox="0 0 1726.36 316.66">
  <g>
    <path d="M501.68,36.55h-94.52v3.65s6.01.37,18.02,8.03c12.02,7.67,9.61,40.16,9.61,80.32s2.4,93.83-3.2,105.88c-7,15.05-24.43,13.51-24.43,13.51v4.38h104.54c37.25,0,110.94-36.88,110.94-111.72s-87.71-104.05-120.96-104.05ZM514.89,243.63c-39.65,8.03-52.82,6.29-54.87-12.41-.4-3.65,0-13.51,0-21.91V69.84c0-24.46,4.01-33.22,44.86-27.38,40.85,5.84,92.52,40.26,92.52,99.67s-42.86,93.47-82.51,101.5Z" style="fill: #333120;"/>
    <path d="M1698.88,220.98c-7.29-19.17-69.82-184.29-69.82-184.29h-49.63l.28,3.29s7.62.42,10.66,2.94c3.51,2.92,9.32,9.1,6.45,18.96-3.74,12.84-58.04,159.91-65.61,173.61-7.57,13.69-23.55,11.5-23.55,11.5v5.2h55.24v-4.11s-2.58-.65-6.07-1.82c-.07-.03-5.83-2.2-8.37-6.81-2.55-4.64-.42-12.32,4.35-16.29,4.77-3.97,45.56-45.04,57.62-56,12.06-10.95,16.68-16.98,23.55-17.53,6.87-.55,9.73,6.14,9.73,6.14h0c4.93,12.84,9.08,23.66,11.44,29.87,9.81,25.74,18.23,39.98,12.9,50.38-5.33,10.41-18.79,11.5-18.79,11.5v4.65h77.11v-5.2c-12.9,0-20.19-6.85-27.48-26.01ZM1627.38,143.62c-4.49,5.61-67.44,66.4-71.64,69.14-4.21,2.74-10.14-1.37-7.71-7.92.07-.19.14-.38.21-.57l1.11-2.97c19.03-50.83,55.59-146.27,55.59-146.27,0,0,14.27,37.06,27.9,72.53h0c.7,5.17-.99,10.44-5.47,16.05Z" style="fill: #333120;"/>
    <path d="M787.11,33.27c-63.49,0-114.96,49.77-114.96,111.17s51.47,111.17,114.96,111.17,114.96-49.77,114.96-111.17-51.47-111.17-114.96-111.17ZM787.67,250.87c-65.43,0-87.11-56.96-87.11-106.97,0-53.67,26.54-105.51,88.61-105.51s85.62,64.62,85.62,105.51-21.68,106.97-87.11,106.97Z" style="fill: #333120;"/>
    <path d="M1441.7,48.19c6.73-7.94,18.23-6.57,18.23-6.57v-4.93h-74.03v4.38s9.6.89,16.33,5.27c6.73,4.38,9.18,14.17,9.18,27.04v51.11c0,9.58-8.6,16.98-14.3,17.87-5.7.89-34.77.57-50.47.57s-47.01.09-53.84-1.1c-6.82-1.19-10.94-11.23-10.94-16.7v-44.09c0-19.99,0-24.92,6.73-32.86,6.73-7.94,18.23-6.57,18.23-6.57v-4.93h-74.03v4.38s9.6.89,16.33,5.27c6.73,4.38,9.18,14.17,9.18,27.04v126.51c0,25.19.28,32.86-5.05,39.98-5.33,7.12-20.47,9.04-20.47,9.04v3.29h74.03v-3.56s-10.73-1.1-17.45-6.3c-6.73-5.2-7.5-14.51-7.5-31.49v-46c0-8.58,8.88-17.98,17.1-17.98s85.43-.64,97.2,0c11.78.64,15.23,14.51,15.23,14.51v38.52c0,25.19.28,32.86-5.05,39.98-5.33,7.12-20.47,9.04-20.47,9.04v3.29h74.03v-3.56s-10.73-1.1-17.45-6.3c-6.73-5.2-7.5-14.51-7.5-31.49V81.05c0-19.99,0-24.92,6.73-32.86Z" style="fill: #333120;"/>
    <path d="M1177.63,35v4.59s-14.86.89-21.04,8.92c-6.18,8.03-5.79,10.77-5.79,24.28v86.16c0,21.72-5.98,54.4-27.6,71.38-21.62,16.98-39.57,23.73-62.15,23.55-22.58-.18-53.84-5.59-74.12-39.25-10.23-16.98-10.23-24.64-10.23-50.75v-98.76c0-14.79-12.93-27.02-26.25-26.1v-4.02h56.56v3.83s-12.16.18-18.34,6.39c-6.18,6.21-6.76,10.95-6.76,18.62v105.33c0,18.99,14.67,62.25,67.17,62.25s67.56-26.88,73.93-43.81c3.09-8.21,2.9-26.84,2.9-41.62s0-70.46,0-83.43-7.14-21.54-24.9-23.55v-4.02h76.63Z" style="fill: #333120;"/>
  </g>
  <g>
    <path d="M25.63,95.08s.02.01.03.02c0-.01,0-.03,0-.04l-.02.03Z" style="fill: #333120;"/>
    <path d="M323.17,82.83s-.02.06-.02.09c.02,0,.05,0,.07,0,0,0-.05-.08-.05-.08Z" style="fill: #333120;"/>
    <path d="M315.34,103.08c-.31.51-.71.98-1,1.5-.3.54-.51,1.26,0,1.66.56.43,1.11-.05,1.51-.54.14-.17.25-.38.38-.56,4.34-5.84,6.27-12.25,4.74-19.52-.1-.46-.47-1.13.08-1.46.65-.39,1.12.26,1.53.64,1.79,1.64,2.23,3.84,2.44,6.12.47,5.04-1.5,9.42-3.68,13.75-.34.67-1.17,1.54-.1,2.07,1.07.53,1.26-.66,1.65-1.33,2.18-3.78,3.59-7.82,4.06-12.46,2.14,1.93,2.3,4.12,2.21,6.4-.32,8.58-3.44,16.09-8.7,22.78-.59.75-1.36,1.41-1.12,2.85,7.11-6.2,10.71-13.92,11.68-23.04,1.75,2.93,1.64,5.81.21,8.63-1.28,2.52-2.72,4.97-4.09,7.45.09.54-.02,1.17.6,1.49,2.3-2.43,4.12-5.16,5.1-8.4.21-.69.27-1.6,1.31-1.56,1.13.05,1.15.95,1.28,1.79.83,5.53-.86,10.34-4.4,14.47-3.37,3.94-6.73,7.92-10.99,11.01-.84.61-1.74,1.4-2.14,2.5.25.01.5.03.75.04,7.91-5.11,15.19-10.77,17.84-20.49.18-.64.04-1.92,1.38-1.6,1.05.26,1.66.99,1.62,2.14-.08,2.3-.72,4.43-2.2,6.22-3.45,4.16-6.4,8.78-10.99,11.89-.43.29-.66.7-.41,1.13.29.47.8.3,1.21.08.46-.25.9-.55,1.33-.84,3.8-2.56,6.85-5.86,9.55-9.53.44-.59.95-1.43,1.79-1.02.82.4.91,1.34.7,2.2-.14.58-.35,1.14-.59,1.69-1.83,4.12-5.27,6.66-8.96,8.9-2.39,1.46-4.83,2.84-7.25,4.25l.31.51c6.24-1.4,10.78-5.67,15.63-9.51-1.08,7.34-8.04,8.06-13.28,11.32,4.47-.12,7.69-2.49,11.59-4.13-.76,2.34-2.19,3.6-3.78,4.71-3.2,2.21-6.92,3.14-10.57,4.24-.77.23-1.34,0-1.29-.97.03-.53.04-1.05.01-1.58-.04-.8-.58-1.36-1.26-1.33-.9.04-.6.94-.53,1.44.32,2.3.05,4.6-.31,6.81-.59,3.61-3.85,5.55-5.85,8.28.11.03.25.1.39.1.22,0,.49.05.67-.05,3.4-1.83,6.3-4.09,6.89-8.25.1-.68.17-1.33.49-1.95.77-1.47,2.2-2.01,3.58-1.71,1.36.3,1.08,1.75.99,2.89-.3,3.99-2.05,7.34-4.51,10.38-1.55,1.92-3.1,3.85-4.64,5.77.17.11.35.22.52.34,5.27-4.72,10-9.78,9.85-17.62-.03-1.74.43-3.01,2.04-3.61,2.85-1.05,5.4-2.62,7.91-4.27.46-.3.87-.6,1.41-.21.76-2.77.26-5.87,2.28-8.35.67-.82.76-2.17-.06-2.94-1.26-1.2-.67-2.19-.14-3.38.83-1.88,1.21-3.89-.62-5.34-1.08-.85-.86-1.48-.41-2.43,1.08-2.3,1.24-4.6-.21-6.84-.72-.36-1.47-.66-2.14-1.09-1.07-.7-1.58-1.56-.35-2.61-.62-.4-.53-1.05-.59-1.65-.91-.68-1.25-1.74-1.77-2.67-.97-.78-1.05-1.83-1.11-3-.09-1.75.22-3.85-1.27-5.03-2.23-1.76-2.67-3.99-2.63-6.53-1.4-.55-1.64-1.94-2.23-3.08-1.35-.83-2.07-2.06-2.44-3.57-.41-1.7-1.19-3.2-2.66-4.24-.18-.06-.51.03-.43-.31-1.19.11-2.19-.18-2.75-1.37-2.21-1.11-2.43-3.54-3.56-5.36-.95-.29-1.52-2.19-2.51-1.26-1.09,1.01.54,1.91,1.08,2.72,5.65,8.51,5.02,16.97-.06,25.43Z" style="fill: #333120;"/>
    <path d="M330.4,215.48c-.31,1.43-1.38,2.23-2.74,2.72-7.93,2.89-15.26,1.1-22.41-2.68-1.99-1.05-1.79-3.47-3.38-4.69-.14-.01-.27-.02-.41-.04-.27.05-.54.09-.81.14.26,1.17,1.8,1.82,1.35,3.28.65,2.3.04,4.27-1.94,5.67-.97.69-1.6,1.39-1.34,2.59-.77-.69-1.1.32-1.58.58-.93.5-1.59,1.53-2.83,1.39-1.82,2.76-5.19,2.36-7.73,3.7,1.28.12,2.48-.65,3.72-.05,3.1-1.41,6.64-2.14,8.51-5.46.77.21,1.2-.27,1.63-.81.33-.42.83-.85,1.32-.42.53.48-.04.88-.34,1.3-2.91,3.98-7.02,6-11.65,7.2-.06.55-.68.42-.91.77,3.82.64,6.78-1.19,9.54-3.43,1.06-.86,1.56-.65,2.26.41,1.49,2.25,1.2,3.64-.81,5.51-3.35,3.11-7.22,4.72-11.77,4.8-1.41.02-2.59,1.08-4.07.9-.8-.1-1.64.12-2.33-.48-.72.38-1.75-.33-2.28.66,1.17.11,2.2.71,3.43.76,4.91.22,9.57-.66,13.96-2.86.69-.35,1.21-.52,1.79.08.65.68.1,1.2-.21,1.77-.95,1.77-2.67,2.53-4.37,3.27-3.28,1.43-6.76,1.87-10.32,2,2.37,1.09,4.75,1.07,7.19.33,1.26-.39,2.54-.87,3.91-.57,1.11-.77,2.24-1.52,3.32-2.32,1.3-.97,2.66-2.16,2.3-3.86-.37-1.75.03-2.84,1.39-3.85.45-.33.85-.93.98-1.48.43-1.75,1.25-1.43,2.38-.66,2.07,1.41,4.41,1.75,6.87,1.67.94-.03,1.58-.22,1.93-1.15.14-.36.36-.77.1-1.06-.7-.78-1.44-.04-2.06.16-.98.31-1.86.57-2.76-.1-3.37.66-5.06-2.17-7.42-3.59-.37-.22-.3-.6-.02-.95.45-.58.85-.3,1.33-.04,1.85.98,3.72,1.92,5.58,2.88,1.27-.25,2.54,0,3.81.03,1.92.03,3.95.27,5.37-1.53-.22-.93-.21-.9-1.54-.52-3.91,1.13-7.71.88-11.18-1.31-1-.63-2.6-1.16-1.94-3.14.45-1.33.8-1.6,2.11-.9,5.17,2.77,10.68,3.83,16.51,2.8,1.39-.3,2.84-.54,2.75-2.48-6.75,2.73-13.11,1.76-19.15-2.07-2.21-1.4-2.48-2.28-1.32-4.57,5.91,5.31,13.02,6.1,20.5,5.42,1.04-.81,2.37-.76,3.53-1.21,3.18-1.23,3.78-2.1,3.67-5.48-.82-.2-1.18.08-1.38.96Z" style="fill: #333120;"/>
    <path d="M285.26,247.14c-3.74.14-7.48.33-11.24.03,1.03.74,2.14,1.11,3.32,1.28,3.22.46,6.44.44,9.66,0,.82-.11,1.53-.13,1.76.84.22.91-.33,1.41-1.08,1.72-.41.17-.86.28-1.3.38-5.99,1.39-11.93,1.05-17.85-.48-1.63-.42-3.26-.82-5.05-1.27.44,1.29,1.32,1.61,2.26,1.92,3.88,1.26,7.83,2,11.94,1.77.48-.03,1.1-.08,1.18.7.08.72-.44.91-.93,1.06-5.71,1.73-11.11.93-16.41-1.74-1.86-.93-3.37-2.35-5.27-3.15-1.47-.24-1.76-1.53-2.3-2.6-.15-.18-.31-.36-.46-.55-1.76.32-2.33-1.46-3.59-2.13-.46,1.03.43,1.69.48,2.52,2.28,1.85,4.09,4.16,6.69,5.73,5.48,3.31,11.32,4.62,17.63,4.2,1.71-.12,3.3-1.09,5.08-.79-.16-1.57.84-2.36,2.12-2.71,1.22-.34,2.51-.39,3.78-.55,1.76-.22,3.55-.55,4.18-2.49.6-1.85,1.81-2.83,3.57-3.4,1.58-.51,2.22-1.5,1.31-3.1-2.71,2.46-6.1,2.68-9.49,2.81Z" style="fill: #333120;"/>
    <path d="M249.85,264.54c-1.42-.66-2.95-1.17-4.25-2.02-3.26-2.13-6.41-4.43-7.9-8.25-.17-.43.18-1.07-.7-.96-.82.1-.63.73-.6,1.2.09,1.59,1.13,2.72,1.94,3.98,1.62,2.53,4.13,4.18,6.5,6.26-1.85.77-2.98-.09-4.06-.79-3.17-2.05-5.57-4.78-7.01-8.3-.27-.66-.34-1.53-1.28-1.64-.32-.04-.6.3-.51.59.24.79-.83,1.31,0,2.41,1.99,2.61,3.48,5.6,6.21,7.61.3.22.56.57.35.97-.21.4-.61.32-.99.24-2.32-.44-6.47-4.38-6.63-6.84-.18-2.69-1.2-2.06-2.7-1.07.73.99,1.86,1.71,1.44,3.12,1.2,2.2,2.61,4.31,4.85,5.46,2.43,1.25,4.77,4.1,7.92,1.27.13-.12.44-.06.66-.06,4.43.11,8.87-.29,13.27.54,0-.75-.01-1.5-.02-2.24-2.29.08-4.35-.89-6.49-1.48ZM240.66,267.24c-.67-.17-1.36-.39-1.48-1.18-.08-.54.4-.56.76-.48.66.16,1.3.39,1.5,1.17-.04.52-.38.59-.78.48Z" style="fill: #333120;"/>
    <path d="M208.67,263.82c-3.53-.5-6-3.05-9.04-4.48.98,3.48,4.48,4,7.03,6.39-4.01-.13-7.3-.79-10.3-2.72-2.55-1.63-4.93-3.42-6.99-5.65-.35-.38-.84-1.09-1.47-.42-.72.76.23,1.06.6,1.35,3.09,2.45,5.42,5.9,9.4,7.19.34.11.7.27.49.86-5.03-.32-8.95-2.78-12.25-6.52.39,2.38,1.77,3.96,3.52,5.29,2.33,1.76,5.16,2.47,7.78,3.62,6.9-.31,13.69-1.42,20.43-2.87.58-.13,1.42-.22,1.34-1.2-3.54.11-7.03-.33-10.54-.83Z" style="fill: #333120;"/>
    <path d="M141.42,310.46c-.42-.55-1.01-.86-1.54-.48-.62.44-.24,1.03.12,1.57.67,1.02,1.79,1.76,2.06,3.15-3.76.41-6.05-1.65-8.08-4.22-.49-.62-.85-1.85-1.75-1.41-.93.45.04,1.46.03,2.22,0,.1-.18.2-.29.32-.94-.08-1.4-.75-1.83-1.48-1.17-1.99-1.75-4.13-1.79-6.45-.01-.66.53-1.67-.55-1.9-1.22-.25-1.44.86-1.7,1.7-.76,2.37.32,4.37,1.34,6.38,1.05.39,1.14,1.56,1.81,2.26.82.29,1.1,1.46,2.21,1.31,1.9-.25,3.36.63,4.77,1.79,1.25,1.03,2.93,2,4.3.97,1.95-1.48,3.54-.88,5.47-.25,1.22.4,2.99.86,3.08-1.52-1.68-.07-3.34-.13-4.83-1.1-1.16-.76-2-1.81-2.83-2.88Z" style="fill: #333120;"/>
    <path d="M342.36,177.99c-4.6,6.97-10.16,12.99-17.78,16.83-2.21,1.12-4.26,2.55-6.7,4.03.7.13.92.22,1.13.21.97-.03,1.57-.82,2.39-1.17,8.58-3.67,15.42-9.5,21.02-16.9.89-1.18,1.01-2.88,2.5-3.63.56-2.49,1.15-4.98,1.67-7.48.32-1.56-.06-2.71-1.92-2.82.5,3.91-.14,7.67-2.29,10.93Z" style="fill: #333120;"/>
    <path d="M183.85,264.91c1.99,1.55,1.25,2.27-.63,3.27-4.4,2.35-7.32,6.16-9.44,10.6-.52,1.1-.84,2.24,1.1,2.16.36-.65.75-1.29,1.06-1.96,1.57-3.47,4.35-5.86,7.27-8.09,3.36-2.56,6.96-2.09,10.68-.79.95.33,2.53.57,2.68-1.34-5.22-.04-9.34-2.63-13.18-5.79-.67.89-.13,1.48.46,1.94Z" style="fill: #333120;"/>
    <path d="M340.09,199.22c-6.72,4.84-14,8.03-22.5,7.65-.65-.03-1.31.07-1.96.11.02.21.04.42.06.62,4.69.13,9.4,1.04,14.05-.6,4.12-1.46,7.74-3.88,11.5-6.04.95-.95,2-1.82,2.84-2.85,1.46-1.81,2.87-3.7,1.76-6.26-1.69,2.63-3.1,5.47-5.74,7.36Z" style="fill: #333120;"/>
    <path d="M347.28,180.9c-.1-.48-.31-.86-.89-.75-.74.13-.66.72-.61,1.23.37,3.72-1.55,6.16-4.29,8.37-5.99,4.82-12.92,7.73-20.05,10.29.01.24.03.48.04.72,2.77-.22,5.41-.93,8-1.96,5.07-2,9.34-5.27,13.75-8.35.67-.47,1.2-1.16,2.15-.8-.3-1.1.62-1.74.99-2.58.88-1.99,1.73-3.95.91-6.17Z" style="fill: #333120;"/>
    <path d="M340.78,204.96s.05-.05.05-.05c-.02,0-.04.02-.06.03,0,0,0,.01,0,.02Z" style="fill: #333120;"/>
    <path d="M338.91,204.58c-2.91,4.36-7.17,6.67-12.05,8.11-3.4,1.01-6.83,1.15-10.41.37.25,1.08.86,1.26,1.54,1.45,1.76.5,3.54.57,5.35.53,3.28-.08,6.21-1.59,9.35-2.23,2.61-2.19,5.43-4.15,7.47-6.95.13-.36.21-.76.61-.94-.32-1.62-.98-1.7-1.87-.36Z" style="fill: #333120;"/>
    <path d="M264.73,263.32c-2.45.51-4.88.61-7.35.16-5.61-1-9.03-5.2-12.9-8.75-.46-.33-.91-.66-1.37-.99-.58.32-.29.7-.08,1.09,1.36,2.64,3.37,4.69,5.84,6.28.89.57,1.77,1.09,2.18,2.12,1.9,1.29,4.33,1.3,6.22,2.62.28.06.55.12.83.18.42-.99,1.29-.53,1.96-.55,1.95-.04,3.89-.06,5.82-.39.12-.16.25-.32.37-.48,0,0-.04.04-.04.04.67-1.72-.52-1.54-1.47-1.34Z" style="fill: #333120;"/>
    <path d="M274.88,259.94c-1.28.73-2.66,1-4.1,1.07-5.36.26-10.45-.72-15.26-3.17-1.21-.61-2.44-1.75-4.25-.9,2.38,2.22,4.87,3.8,7.82,4.6,3.66,1,7.41,1.23,11.17,1.35,1.41-.17,2.81-.34,4.22-.51.13-.69.81-.83,1.24-1.21.46-.41,1-.81.48-1.48-.53-.68-.91.03-1.31.25Z" style="fill: #333120;"/>
    <path d="M325,181.88c.65-.37,1.41-.61,1.92-1.11,5.83-5.64,10.24-12.18,12.43-20.09.04-.44.07-.88.11-1.32-.25-1.57.45-3.48-1.7-4.57,0,.85,0,1.56,0,2.27-.02,1.64.29,3.33-.31,4.89-1.62,4.2-3.66,8.19-6.19,11.95-2.04,3.02-4.87,5.27-7.2,8,.31,0,.63,0,.94-.01Z" style="fill: #333120;"/>
    <path d="M312.36,80.91c.03,2.72,0,5.45,0,8.17,1.27-1.9,1.72-3.95,1.8-6.13.12-3.13-.91-6.07-1.33-9.1-1.11-1.3-2.12-2.72-3.38-3.85-.9-.8-2.12-1.85-3.39-.32,4.28,2.52,6.24,6.35,6.29,11.23Z" style="fill: #333120;"/>
    <path d="M294.84,66.5c3.45,2.79,4.78,6.56,5.07,10.86.18,2.66.12,5.33.11,8.04.98-.18,1.4-.56,1.46-1.37.12-1.72.34-3.42.24-5.17-.24-4.2-1.92-7.96-3.35-11.8l-2.44-1.98c-.51.35-1.05.46-1.62.2.04.45.08.86.53,1.22Z" style="fill: #333120;"/>
    <path d="M294.25,65.25s.04.02.07.03c0-.04,0-.07,0-.11,0,0-.02.03-.04.06l.04-.06s-.04,0-.06,0c0,.03,0,.05,0,.08h0Z" style="fill: #333120;"/>
    <path d="M167.1,303.91c-.66.92-1.4,1.71-2.59,1.94-1.58.31-2.94-.09-4.15-1.12-.45-.38-.97-1-1.54-.64-.6.38-.16,1.04.03,1.61.97,2.85,1.44,3.16,4.8,2.99.74-.07,1.51-.01,2.2-.23,1.7-.54,2.78-1.84,3.06-3.52.23-1.37-1.21-.63-1.81-1.02Z" style="fill: #333120;"/>
    <path d="M162.61,310.27c-2.9,1.59-3.06,1.57-5.08-1.08-.82-1.07-1.65-2.11-2.9-2.98-.94,3.05.75,4.97,2.61,6.83,1.72,1.05,3.48,1.02,5.28.19.68-.32,1.42-.56,1.47-1.46.06-.96-.7-1.21-1.39-1.5Z" style="fill: #333120;"/>
    <path d="M171.39,284.03c-.57,1.64-1.6,2.68-3.18,3.2-.7.23-1.38.42-1.1,1.31.27.87.94.99,1.8.75,1.07-.29,2.08-.9,3.26-.64,2.05-1.48,2.32-3.63,2.26-5.92-1.67-1.1-2.57-.05-3.04,1.3Z" style="fill: #333120;"/>
    <path d="M203.88,175.31c-7.7-.21-15.41.26-23.02,1.45-6.5,1.02-12.72,2.23-18.9,4.79-4.92,2.03-10.56,2.75-15.66,4.44-2.03.68-4.02,1.49-6.02,2.26-1.44.56-1.56.51-1.56-.47.12-1.6.19-2.72.29-3.84.06-.64.36-1.27.95-1.44,2.79-.77,4.96-2.88,7.25-4.53,2.83-2.04,5.72-3.99,8.67-5.87,8.91-5.67,18.74-11.46,28.97-14.31-.21,1.19-.94,1.56-1.39,2.14-1.74,2.27-1.83,4.05-.29,6.4,1.48,2.25,6.42,3.42,8.76,2.09.54-.31,1.06-.68,1.01-1.36-.05-.7-.69-.96-1.25-1.14-1.67-.52-2.72-1.39-2.54-3.37.29-3.22,3.14-5.21,3.83-8.23.04-.18.5-.29.78-.4,1.79-.73,3.59-1.46,5.38-2.19,1,4.59,4.86,6.92,9.96,6.04,2.9-.5,5.58-1.72,8.37-2.59,3.82-1.19,5.9-3.95,7.14-7.53.89-2.56.97-5.23.43-7.81-.93-4.49-1.86-8.96-6.88-11.12-6.81-2.94-12.92-1.77-18.61,2.54-2.74,2.08-3.62,5.77-2.5,8.94.43,1.23,1.17,1.82,2.47,1.9,3.72.24,6.9-.49,8.59-4.3.24-.54.64-1.02,1.02-1.49,1.49-1.8,3.56-2.4,5.42-1.59,2.05.89,3.29,3.05,3,5.3-.31,2.36-1.65,4.01-3.72,5.05-1.42.71-2.98.95-4.56,1.11-2.61.26-5.49.14-7.47,2.04-2.15,2.06-4.76,2.61-7.36,3.48-1.23.41-1.82.43-1.91-1.03-.14-2.11-1.68-1.93-3.13-1.82-1.83.15-1.34,1.5-1.22,2.55.18,1.64-.3,2.48-2.04,3.08-9.41,3.22-18.74,6.69-27.9,10.59-6.03,2.57-11.69,5.84-17.28,9.24-.73.99-1.9,1.21-2.91,1.72-2.04,1.58-2.1,1.56-3.49-1.35-.61-.29-1.16-.63-1.28-1.37-.38-.31-.77-.61-1.15-.92-.53.12-.81-.07-.79-.63-1.18-1.22-2.9-1.49-4.31-1.56-2.38-.11-3.66-1.18-4.67-3.12-.71-1.38-1.52-3.1-2.91-3.56-2.3-.76-4.3-2-6.46-2.97q-1.31.31-2.53-.52c-.66,1.71-7.13,3.54-10.17,2.88-.04,1.55-1.34,1.37-2.29,1.68-.18.39-.37,1.12-.54,1.12-2.49-.06-2.91,2.17-4.06,3.57-.26,1.52-.93,2.1-1.71,1.36-.74-.72-.99-.12-1.46.05,1.41.87-1.26,1.67,0,2.66,1.81,1.42,4.08.86,4.81-1.38,1.07-3.26,3.28-5.3,6.46-6.42,3.3-1.16,6.73-1.6,10.18-1.71,3.42-.11,6.22,1.38,8.52,3.93,1.28,1.42.98,2.15-.75,2.6-3.08.8-5.24,2.81-7.09,5.28-.74.98-1.42,2.37-.55,3.02.98.73,1.88-.53,2.52-1.48,1.8-2.67,4.27-4.39,7.45-5.04,3.84-.79,7.1.83,10.15,2.73,1.89,1.17,1.97,2.95.66,4.3-1.76,1.83-3.58,3.61-5.39,5.39-.52.51-.81.87-1.92.56-1.75-.48-3.76,0-5.14,2.36,1.44-.35,2.45-.54,3.43-.83,1.5-.45,2.54-.53,2.17,1.62-.24,1.42.5,2.19,2.03,2.3,1.76.14,2.96-.77,4.14-1.84,1.64-1.49,3.08-3.24,5.34-4.17.15,2.24.75,4.45-1.62,5.71-1.98,1.06-3.99,2.09-6.07,2.91-5.25,2.05-10.2,4.62-14.72,8.03-1.07.8-2.13,2.39-3.6,1.81-1.73-.68-3.2.25-4.79.13-.4-.03-.78.09-.69.61.06.36.39.4.69.4,1.05-.03,2.11-.05,3.16-.12.67-.04,1.26.14,1.4.82.19.87-.52,1.31-1.19,1.33-1.46.05-3.22.81-4.11-1.12-.25-.54-.36-.51-.92-.38-1.57.34-3.19.46-4.79.68-.7.09-1.94-.04-1.77.77.21,1.01-.46,2.55.88,3.05,1.92.73,3.97,1.62,5.89-.13-.91-.13-1.78-.33-2.49-.97-.52-.34-1.11-.27-1.99.11,1.95-2.57,3.57-2.8,4.81-1.03.25.16.5.31.75.47,2.36-.53,4.75-1.03,7,.32.66.4,1.01.45,1.67-.11,2.1-1.77,4.38-3.28,6.95-4.33.73,3.03,1.46,3.43,4.38,2.34,2.58-.96,5.13-2.01,7.7-2.98.69-.26,1.67-.61,2.04.19.68,1.49-.53,2.67-1.04,3.96-.43,1.08-1.23.66-1.88.48-1.39-.38-2.99-1.03-4.14-.24-1.66,1.14-3.42,1.19-5.13,1.05-2.55-.21-4.1,1.33-5.69,2.77-.84.76-.83,2.03-.08,2.87,1.07,1.19,1.18-.37,1.71-.77.71-.54,1.17-1.57,2.34-1.25-.11-1.66,1.23-2.75,3.56-2.6,1.59.1,2.99-.38,4.44-.82,1.32-1.33,2.04-.12,3.12.78-.99.17-1.73.31-2.48.44-1.26,1.31-2.33,2.81-4.64,1.78-1-.45-1.99.41-2.29,1.56-.25.97-.8.53-1.32.38-1.2.03-1.32,1.51-2.65,1.65,3.78,1.8,5.93-2,9.14-2.34-.46,1.84-1.66,2.62-2.82,3.43-4.66,3.23-9.67,5.24-15.41,6.09-7.74,1.15-15.48,1.73-23.26,2.15-8.29.44-14.99-3.47-21.67-7.53-.16-.1-.2-.39-.3-.59-.79-.08-1.63-.1-1.76-1.18-2.81-.47-2.59-3.29-4-4.86.76-.47,1.28-.04,1.83.08-.02-.28-.04-.57-.06-.85-2.17-.49-2.73-1.62-1.85-3.72-.41-.69-.02-1.38-.01-2.07-1.45-.97-1.89-2.25-1.27-3.9.76-2.02,2.65-2.82,4.29-3.81.79-.48.87.42.8,1.05,0,.2-.07.53,0,.57.28.14.27-.16.33-.33.96-.79.57-2.5,1.68-2.99,3.34-1.47,4.77-5.05,8.37-6.58,4.28-1.81,7.47-5.64,10.28-9.51,3.49-4.82,2.47-9.05-3.06-12.07.01.91.13,2.09-.94,2.21-2.28.26-4.06,1.75-6.24,2.2-4.55.94-9.07,2.05-13.65,2.86-6.31,1.12-12.56.78-18.62-1.51-1.05-.4-1.86-1.05-1.93-2.4-.19-3.84,1.61-7.02,3.19-10.29.32-.66,1.62.18,1.39-.96-.3-1.49.75-2.13,1.6-2.96,2.9-2.84,6.42-4.79,9.83-6.91,1.16-.72,1.85-.71,2.53.76,1.05,2.28,2.77,3.04,4.5,2.33.7-.29,1.49-.74,1.41-1.57-.1-1.09-1-.79-1.75-.75-1.19.08-2.59-.04-2.09-1.7.66-2.21.96-4.49,1.94-6.65,2-4.4,5.48-7.75,7.85-11.87,1.69-.79,2.72-2.4,4.12-3.43,2.88-2.12,6.17-3.62,10-2.45.49.15.78.29.86.82.6,3.82,3.29,6.02,6.25,8,1.2.45,1.79,1.49,2.39,2.52.3.03.6.05.9.08.54-.14,1.07-.28,1.61-.42,1.26-.17,2.57-.78,3.72.33-1.17.54-2.38.89-3.68.83-.36.08-.92.04-1.05.25-1.44,2.49-3.27,4.49-6.67,5.35,2.67,1.07,4.97.14,5.68-1.24,1.43-2.79,3.8-2.96,6.19-3.52.07-.61-.74-.98-.44-1.65,1.63.09,3.2-.76,4.86-.34.79.2.75-.43.87-.96.37-1.77,1.51-1.8,2.6-.81.93.84,2.36,1.45,2.24,3.13-.05.75.59.93,1.17,1.16,1.78.71,3.2,1.93,4.48,3.32,3.01.48,6.03.96,9.62,1.53-2.33,1.1-4.25,1.71-5.5,3.35.19.53-.34,1.8,1.12.92,1.88-1.13,2.81-.68,3.46,1.5.58,1.94,2.43,2.92,4.68,2.3-1.37-1-2.54-2-.33-3.23.61-.34-.03-.99-.36-.82-2.12,1.08-3.06-1.03-5.12-1.65,2.5-.74,3.75-2.67,5.97-3.11,2.44-.48,3.03.03,2.66,2.48-.29,1.91-1.26,4.43-.42,5.62,1.26,1.78,2.05,3.85,3.49,5.56,2.55,3.03,5.9,4.43,9.41,5.65,1.42.49,2.85,1.6,4.54.28.53-.42,1.61-.16,2.43-.17.55,0,1.1.08,1.02.84-.08.79-.77.76-1.2.59-1.48-.57-2.58.27-3.77.85-1.61.79-3.28.7-4.93.23-.14-.04-2.99.13-.62-1.47.68-.46-.19-.92-.54-1.15-.6-.38-1.07-.04-1.05.63.08,2.81-1.51,1.77-2.98,1.42-1.4-.33-2.73-1.32-4.29-.66.27.13.53.28.81.4,7.97,3.23,15.6,2.86,22.83-2.08,1.88-1.28,3.33-3.01,5.04-4.46,2.81-2.39,4.67-5.38,5.45-9.02-.51-.18-1.31.23-1.49-.62-.14-.64.02-1.21.83-1.31.49-.06.69-.25.3-.67-1.59-1.72-.65-3.31.34-4.8.54-.81.5-.95-.44-1.33-1.87-.75-2.6-2.48-2.89-4.36-.14-.93.39-1.76,1.27-1.77,1.61-.02,3.07-.17,4.35-1.29.32-.28.87-.13,1.11.38.18-.14.36-.27.52-.42,2.14-1.98,2.5-1.97,4.26.23.26.33.5.62.9.46,1.13-.46,1.41-1.67,2.07-2.54.4-.53-.26-.86-.7-1.16-2.35-1.62-2.36-1.65-.44-3.86.86-.99,1.72-1.93,1.29-3.39-.33-1.14-.78-1.62-1.78-.48-1.4,1.58-2.79,3.14-3.92,4.94-1.26,2.01-3.06,3.32-5.23,4.42-3.55,1.81-7.26,1.09-10.88,1.25-6.3.29-12.13,1.81-17.52,5.04-7.01,4.21-14.39,5.55-22.12,2.45-4.06-1.63-7.04-4.89-8.17-9.01-.5-1.82-.73-4.11-.43-6.33.57-4.18,2.15-7.64,5.36-10.34,2.13-1.79,4.27-3.56,7.06-4.29,1.38-.36,2.05-1.49,2.54-2.68.42-1.03-.26-1.71-1.05-2.24-.59-.4-1.29-.61-1.89-.11-.98.82.03,1.27.45,1.79.67.83-.09.9-.55,1.27-1.39,1.11-3.28.96-4.71,2.03-6.3,4.73-9.85,10.76-9.2,18.86.18,2.25-.9,3.68-2.81,4.69-3.52,1.86-10.54.68-13.75-2.27-5.69-5.23-4.44-11.87-.34-16.74,2.36-2.8,5.08-5.33,7.91-7.72,4.29-3.62,8.72-7.08,12.21-11.6,4.75-6.15,8.42-13.07,13.8-18.77,2.51-2.66,5.19-4.99,8.26-6.89,2.78-1.72,5.77-3.09,8.47-4.92,1.55-1.05,1.87-.73,2.27.84,1.22,4.79,5.52,6.63,9.85,6.53,1.2-.03,2.76-.38,3.9-1.44-.83-.73-1.69-.87-2.21-.28-1.25,1.42-2.09.39-3-.33-.4-.31-.58-1-1.2-.89-2.35.4-2.13-1.37-2.39-2.76-.36-1.92,1.01-3.28,1.84-4.66.54-.89,1.74.6,2.76.71.78.08,1.49.69,2.28.88.53.13,1.2.09,1.48-.65.19-.49.09-.79-.31-1.16-2.78-2.6-2.77-2.61.93-4.02.49-.19.99-.35,1.49-.52,2.58-.89,5.02-2.3,7.9-2.08.23-.15.46-.26.69-.01l-.39.35c-1.51,1.78-3.67,2.52-5.66,3.52-1.07.54-2.38,1.06-2.06,2.58.33,1.57,1.8,1.17,2.82,1.09,5.7-.41,11.4-.89,17.1-1.43,1.59-.15,2.98-.82,2.93-2.77-.04-1.8-1.56-3.13-3.45-3.07-1.21.03-2.39.12-3.56-.34-.76-.3-1.18-.6-.62-1.46.89-1.35.39-2.51-.89-3.6h9c-1.01,2.5-.2,3.59,2.09,3.35,1.46-.15,2.64-.88,3.09-2.29.52-1.64,1.68-1.93,3.12-1.95,1.05-.01,2.12.02,3.16-.08,1.34-.13,1.72.72,1.36,1.64-1.02,2.61.86,2.09,2.11,2,2.96-.22,4.82-1.96,4.49-4.11,1.23.2,2.49-.35,3.69.09.07.7-.45.87-.69,1.23-.3.46-1.11.92-.41,1.48.63.51,1.42.3,2.01-.34q2.09-2.3,5.31-1.68c-.72.32-1.97-.12-1.91,1.03.05.88,1,1.28,1.85,1.38,1.34.16,2.7.2,4.04.32,1.41.12,2.85.5,3.28,1.96.43,1.46,1.18,1.89,2.59,1.85.71-.02,1.47.28,2.15.59,1.25.57,2.71,1.37,3.79.5.9-.73.05-2.22-.19-3.72,1.77.87,4.38,1.4,4.58,2.42.38,1.9,1.31,2.36,3.45,2.72-5.44.48-6.42,1.1-5.82,3.28-.68,0-1.35.04-2.03,0-3.27-.24-6.12-.05-8.28,3.21-1.95,2.94-4.16,5.69-5.46,9.02-.22.55-.14,1.42-1.14,1.36.75-4.63-1.35-6.84-4.63-7.97-1.84-.63-3.77-.98-5.64-1.53-1.85-.55-3.45-1.52-4.4-3.29-1.31-2.46-.12-4.69,2.63-4.74,3.52-.07,6.81-.02,9.48,3.3,2.61,3.25,6.96,2.65,8.73-.59,1.18-2.16.29-3.98-2.15-4.16-1.89-.14-3.72-.44-5.47-1.16-4.19-1.71-8.53-1.66-12.89-1.01-2.21.33-4.2,1.18-5.03,3.6-1.61,4.65.07,10.47,4.11,13.27,2.8,1.94,5.41,3.97,7.42,6.8,1.57,2.21,4.34,2.15,6.3.22.41-.4.76-.87,1.14-1.3-.2,2.08-.64,4.04-1.25,5.94-.91,2.83-.85,5.52.99,7.94.7.92.17,1.27-.4,1.8-1.88,1.75-3.66,3.59-5.17,5.67-1.55,2.13-.54,4.2,2.12,4.38.96.06,1.95-.06,2.91-.18,2.08-.27,4.14-.67,6.26-.79.94-.06,2.72,1.27,2.91-1.11.02-.24.49.02.72.18,3.06,2.19,7.64,3.09,6.99,8.43-.09.73.43,1.6.84,2.3,1.58,2.68,3.46,4.91,7.04,4.6,1.15-.1,2.1.06,1.83,1.72-.14.91.7,1.55,1.49,1.78,3.72,1.06,7.33,2.55,11.22,2.95,1.08.11,1.65.18,1.16,1.6-.87,2.5-.22,3.56,2.25,4.46,3.59,1.31,3.66,1.41,3.22,5.16-.22,1.84-.02,3.59,1.86,4.43,1.76.79,2.52,2.25,3.21,3.85,1.21,2.81-.61,5.81.53,8.64.06.15-.18.27-.45.3-1.83.17-2.79,1.66-3.99,2.75-1.7,1.54-3.48,2.95-5.84,3.17-2.31.21-3.38,1.59-3.58,3.65-.19,1.99-.77,3.81-1.59,5.61-.34.74-.64,1.54-.73,2.34-.35,2.99,1.13,4.02,3.94,2.93.83-.32,1.56-1.72,2.77-.29.38.45,1.18-.58.92-1.03-.57-1,.2-1.24.68-1.64,3.32-2.76,7.34-3.72,11.47-4.19,1.81-.21,2.86-.64,2.53-2.66-.26-1.48-.4-3.01-1.14-4.33-.71-1.27-.12-1.77.95-1.41,1.36.45,1.32-.41,1.56-1.17.93-2.87,2.86-4.89,5.46-6.32,1.88-4.2,2.59-4.61,7.06-4.6,1.32,0,1.48.54,1.33,1.61-.3,2.07-1.93,3.63-4.55,4.27-1.93,3.41-.85,5.03,3.68,5.51,3.57-.31,6.95-.93,8.1-5.09.11-.39.45-.55.75-.78,3.25-2.54,6.39-5.22,8.94-8.48,2.99-3.82,6.15-7.56,7.55-12.44,1.21.84,2.3,1.96,2.07,3-.38,1.7.26,3.21.2,4.78-.08,2.18-1.56,3.74-2.89,5.32-4.49,5.31-10.24,9.26-15.1,14.17-.3.3-1.27.32-.68,1.06.36.46.91.27,1.39-.11,5.14-4.04,10.3-8.06,14.75-12.9.77-.84,1.14-2.1,2.9-2.79-2.97,7.64-9.81,10.96-15.47,16.22,3.92-.48,6.2-2.68,8.55-4.54,2.37-1.87,4.15-4.45,6.72-6.11.51.45.34.92.34,1.34.01,5.99-3.18,10.12-7.72,13.55-4,3.02-8.77,4.38-13.24,6.38.02.46.04.92.06,1.39,3.71-.42,6.99-1.92,10.14-3.87,4.27-2.64,8.32-5.5,11.42-9.73.85,2.84.28,4.79-1.93,7.14-3.39,3.62-7.8,5.77-11.96,8.28.15.51.54.54.97.51,4.04-1.09,7-4.12,10.69-6.15-.78,3.91-1.92,5.48-5.93,8.58-7.44,5.73-20.09,6.81-26.7.19-.39-.39-.84-.8-1.34-.3-.51.5-.24,1.08.06,1.65.39.76,1.95.96,1.42,2.04-1.36,2.75.85,3.17,2.43,3.93,3.26,1.58,6.81,1.75,10.34,1.94.47.02,1.17-.19,1.32.51.13.62-.5.87-.9,1.17-1.59,1.19-3.53,1.27-5.41,1.63,1.69.42,3.4.19,5.08.55.93.2,1.48.29.89,1.36-2.66,4.75-5.99,8.88-10.96,11.35-2.83,1.4-4.96-.22-4.65-3.36.04-.37.06-.75.08-1.13.06-1.12-.47-1.08-1.23-.64-.92.52-1.71,1.17-1.13,2.32.79,1.57.75,3.31,1.15,5.02.56-.5.92-1.16,1.77-.76,2.09,1.01,3.87.2,5.68-.9,2.79-1.7,5.38-3.61,7.5-6.11,1.1-1.3,2.09-2.7,3.14-4.06.91.83.78,1.55.29,2.46-2.01,3.74-4.27,7.26-7.7,9.89-.7.54-1.43,1.12-1.65,2.14,1.17.3,2.24-.16,2.89-.86,2.64-2.83,5.96-5.15,7.28-9.05.18-.54.38-.96,1.05-.95.67.01.88.49,1.09.98.75,1.75.6,3.49.01,5.27-1.54,4.66-4.49,8.21-8.34,11.16-2.8,2.16-6.13,3.45-8.92,5.64,3.22-.19,6.07-1.26,8.48-3.43.83-.75,1.67-1.51,2.57-2.17.51-.37,1.15-.33,1.63.16.39.39.33.84-.1,1.16-1.37,1.04-2.43,2.51-4.1,3.14-5.07,1.91-9.93,4.51-15.57,4.63-.82.02-2.05-.02-2.85.81,8.17,1.88,14.83-2.61,22.42-5.35-2.35,3.6-5.02,5.85-8.3,7.35-3.19,1.46-6.67,2.05-10.05,2.96,3.15,1.03,6.1-.78,9.41-.46-.51.85-1.18.97-1.75,1.28-2.31,1.25-4.93,1.15-7.38,1.79.02.29.04.58.06.87,1.97-.57,3.95-.59,6.23-.25-2.95,2.31-6.29,2.17-9.36,2.94-.33.35-.66.51-1,.01-2.56.01-5.12.02-7.68.03-.42.4-.77.39-1.01-.19-2.51-.37-4.99-.81-7.13-2.32-.02.41-.03.82-.05,1.23,5.94,3.8,12.57,3.33,19.18,2.72-.02.86-.42,1-.73,1.13-5.36,2.3-10.86,2.99-16.56,1.38-2.36-.66-2.96-.58-3.87.34,5.52,1.47,11.15,2.28,16.89,2.09,3.06.5,4.78-2.16,7.25-3.06.38-.14.34-.61.36-.99.05-1.04.87-1.95,1.58-1.99,3.46-.22,4.94-3.65,7.97-4.69,1.26-.44,1.89-2.67,2.84-4.07.47-.69.4-1.82,1.53-2.01.23-.07.45-.15.68-.22.53-1.59,2.2-.72,3.14-1.44-1.24-1.2-1.01-2.16.46-2.93.05-2.42-.59-4.97,1.5-6.97.22-.21.28-.72.24-1.07-.46-3.67,1.33-6.88,2.06-10.31.23-1.08-.23-2.1.31-3.26,1.39-3.01,3.59-5.66,4.06-9.13.15-1.12,4.4-1.61,5.18-.68.52.62.37,1.35-.19,1.81-1.46,1.16-2.47,2.4-1.61,4.41.91,2.15,2.8,2.73,4.81,3.17,5.59-1.36,8.06-7.84,4.68-12.05-.88-1.1-2.43-1.11-3.14-2.32-2.46.03-4.84-.2-6.61-2.23-2.06-1.13-2.12-1.55-.32-2.77.86-.58,1.75-1.16,2.87-1.03,1.06-.91,1.78-2.24,3.23-2.68.35-1.18.33-2.4,1.42-3.41,1.11-1.02.79-2.55-.47-3.27-1.87-1.06-.83-1.85.08-2.55,1.72-1.32,2.41-3.14,2.97-5.13.38-1.34-.13-2.52-.27-3.77-1.23-1.7-.32-3.66-.62-5.48-.29-1.76.33-3.66-1.1-5.21-.36-.39-.06-.99.14-1.5.87-2.19,1.15-4.4.17-6.64-.06-.13-.11-.3-.09-.44.42-2.71.12-5.29-1.26-7.7-.78.03-1.28-.35-1.54-1.07-.81-.29-1.1-.96-1.22-1.74-.23-1.56.14-3.43-2.18-3.84-.38-.07-.36-.57-.27-.97.24-1.11-.48-2.14-1.17-2.5-2.34-1.23-1.71-3.32-1.72-5.15-.01-1.72,1.42-1.04,2.38-1.06,1.67-.68,2.59-3.26,1.72-4.74-.38-.63-.94-.34-1.39-.26-4.38.8-5.4.15-6.23-4.06-.24-.31-.25-.63-.06-.96,0-.15,0-.3,0-.45-.11-1.57,1.01-.91,1.73-.96,2.06-.04,4.8,1.02,4.55-2.79,3.79-7.06,3.09-14.15.2-21.28-.33-.83-.52-1.71-.78-2.57-1.24-.31-1.57-1.64-2.54-2.26-.93-.6-1.81-1.43-2.89-.28,3.56,3.71,6.11,7.93,6.78,13.14.46,3.56.03,6.97-1.46,10.31-2.75-2.52-3.91-2.6-7.4-.58-.96,1.38-1.92,2.76-2.94,4.24-.69-.99-1.39-1.9-1.61-3.08-.2-.23-.41-.45-.61-.68-1.06-.17-2.19-.27-2.13-1.78-.49-1.52-2.47-2.21-2.26-4.11-.32-.72-1.17-1.32-.46-2.25-.26-2.05,1.64-2.89,2.47-4.32,2.01-3.49,2.87-7.22,2.89-11.2,0-.74-.32-1.76,1-1.73-.12-1.16.65-2.03,1-3.04.36-2.89-.23-5.68-.95-8.45-1.81-6.98-8.54-11.18-15.68-10.11-5.19.77-10.06,2.23-14.69,4.69-5.57,2.97-11.69,4.26-17.78,5.68-3.02.7-5.77.53-8.54-.8-3.6-1.72-7.19-3.5-10.89-4.95-7.19-2.82-14.63-4.54-22.42-4.6-2.94-.02-3.23-.56-2.07-3.16,1.89-4.22,2.85-8.72,3.82-13.19.41-1.89.59-3.84.29-5.83-1.45-9.48-7-15.71-15.68-19.08-16.24-6.3-36.66.4-44.22,17.87-2.9,6.7-6.05,13.3-10.6,19.11-1.32,1.69-2.14,3.73-2.31,5.82-.24,2.83-1.8,4.01-4.3,4.72-6.2,1.75-11.43,5.33-16.26,9.41-4.76,4.02-7.79,9.63-12.73,13.66-2.71,2.2-5.16,4.96-7.95,7.23-1.75,1.43-3.53,2.82-4.89,4.66-3.73,5.03-8.04,9.56-12.28,14.15-3.32,3.59-5.7,7.73-6.65,12.61-.82,4.18.44,8.07,1.61,11.95.38,1.26.03,1.97-.74,2.98-3.08,4.05-6.76,7.67-9.09,12.27-.7,1.39-1.5,1.67-2.53.46-2.14-2.51-4.85-4.47-6.69-7.29-2.14-3.27-4.58-6.35-6.79-9.58-2.24-3.28-4.26-6.77-6.51-9.95-3.48-4.92-6.28-10.25-9.88-15.06-.62-.82-1.18-1.72-2.13-2.23.87,6.43,3.62,12.27,6.54,17.85,4.1,7.85,9.12,15.22,13.74,22.8.26.42.74.82-.01,1.72-1.9-2.48-4.67-3.92-6.8-6.08-4.06-4.12-8.74-7.55-13.1-11.29-4.33-3.7-9.27-6.92-14.3-9.81-3.13-1.8-6.28-3.57-9.44-5.31-.71-.39-1.71-.82-2.19.1-.39.76.58,1.05,1.14,1.38.19.11.42.18.62.28,7.03,3.68,13.7,7.91,19.38,13.5,7.31,7.19,13.76,15.14,20.24,23.07.49.6.6,1.16.58,1.85l.15.33c-.1-.06-.2-.12-.3-.18-1.11-.32-1.97-1.02-2.84-1.76-8.69-7.43-17.54-14.63-27.84-19.81-3.67-1.85-8.43-3.54-10.63-3.48,5.45,3,10.37,6.99,15.08,11.17,7.93,7.05,15.46,14.52,22.56,22.42,2.67,2.97,2.98,4.03,1.09,7.56-1.6,2.99-2.72,6.14-1.69,9.51.59,1.92.43,3.65-.05,5.5-1.05,4.07-1.51,8.27.23,12.18,2.33,5.23,4.04,10.7,6.36,15.91,1.66,3.72,4.1,7.11,8.12,8.65,1.65.64,2.39,1.54,2.73,3.15,1.24,5.95,3.79,11.37,6.56,16.74,1.43,2.78,4.45,4.9,3.95,8.58,0,0,.07.04.09.03,1.93-1.14,2.09.9,2.86,1.68.88.88,1.67,1.98,3.02,1.18,1.22-.72.74-1.98.49-3.07-.1-.44-.32-.85-.41-1.29-.43-2.2-.51-4.39.18-6.88,1.35,1.33,2.49,2.63,4.19,1.25,1.26-1.02.83-2.93,2.08-4.25.9,2.31,1.72,4.42,3.56,5.89.61.49.97,1.53,1.98,1.19,1.03-.34.71-1.36.82-2.14.08-.58-.08-1.39.61-1.56.77-.19,1.15.6,1.53,1.12,1.01,1.4,1.94,2.86,2.97,4.24.48.64,1.23.88,2.03.64.88-.26,1.03-.98,1.04-1.79,0-.44.02-.93.2-1.32.41-.92,1.09-1.19,1.58-.13.81,1.75,2.13,3.28,2.31,5.3.07-.02.18-.08.21-.05,2.02,1.83,4.05,3.65,5.14,6.24,1.86.27,3.1,1.71,4.7,2.48.96.47,1.9,1.11,2.92.28.9-.74.67-1.79.41-2.73-1.56-5.62-.91-11.02,1.51-16.26-.02-2.28,1.04-4.49.37-6.84-.2-.7.57-.91,1.19-1.04,1.82-.39,3.63-.86,5.46-1.17,1.7-.29,2.36,1.25,3.39,2.14,1.41,1.22,2.31,2.66,2.16,4.6,3.16,5.04,2.92,10.19.54,15.42.21,1.73-.1,3.1-2.23,3.22.15.9.09,1.72-.85,2.19-.46,1.35-1.14,2.47-2.75,2.59-.2.31-.36.65-.61.92-3.62,3.99-3.97,9.29-.8,13.64.87,1.19,1.49,2.45.61,3.7-1.03,1.48-2.46.67-3.65.06-3.93-2-6.25-5.3-7.35-9.49-.44-1.69-1.22-2.81-3.13-2.32-1.73.44-1.7,2.02-1.67,3.32.22,8.86,3.01,16.52,10.6,21.97-1.84,1.21-3.71,2.37-4.7,4.42-.33.68-.82,1.38-.24,2.1.58.72,1.34,1.19,2.32.68.26,1.7-.81,3.34-.16,5.07.53,1.41,1.17,2.1,2.49.75-.95-2.48-.1-4.82,2.38-6.72.52-.4,1.67-.63,1.07-1.6-.54-.86-1.59-.5-2.24-.12-1.23.73-2.34,1.67-3.49,2.53.02-2.02,1.01-3.33,2.9-4.02.63-.23,1.43-.38,1.61-1.1.27-1.13.7-.97,1.46-.45,2.91,2,5.97,3.79,8.74,5.96,4.35,3.41,9.36,4.91,14.68,5.69,3.46.51,6.68-.25,9.87-1.62,4.02-1.72,6.71-5,9.82-7.82,4.72-4.28,8.46-9.4,11.23-14.99,2.86-5.76,4.6-12.02,4.77-18.61.05-1.83.28-3.76,1.24-5.44,1.39-2.42,2.82-4.83,4.24-7.24-.17-.75.1-1.22.86-1.39-.14-.56-.01-1.03.43-1.41,2.64-4.15,2.72-9.17,4.61-13.57-.01-3.66.86-7.3-.02-10.99-1.03-4.33-1.44-8.86-5.3-11.94-.48-.38-1.81-.32-1.3-1.4.42-.89,1.49-.54,2.26-.44,4.09.49,7.97,2.05,12.1,2.4.83.07,1.38.4,1.12,1.48-.86,3.64-.07,7.17.85,10.67.16.59-.09,1.66.78,1.66.74,0,1.29-.87,1.34-1.62.18-2.38,1.33-4.77,0-7.18-.25-.45-.68-1.07-.05-1.62.33-.29.69-.8,1.13-.44,1.64,1.31,3.09,1.31,4.5-.33.1-.11.67.17,1.02.29,6.45,2.09,12.23,5.66,18.35,8.46.51.24,1.34.88,1.27,1.13-.69,2.47,1.23,1.33,1.83,1.17,1.22-.31,2.35-1.02,3.16-1.4-13.74-8.47-28.49-14.84-44.3-18.64-.39.2-.75.13-1.08-.15-2.07-.32-4.14-.62-6.2-.96-.57-.09-1.39-.18-1.45-.82-.12-1.37-.92-.86-1.56-.69-3.29.89-6.54.65-9.77-.24-.91.64-1.87.74-2.88.26-4.46.06-8.92.12-13.38.17-.47.14-.94.29-1.41.43-.58,0-1.17.02-1.75.02-.63.66-1.41.66-2.22.5-3.25.62-6.5,1.25-9.75,1.87-.05-.18-.11-.37-.17-.55,3.33-.6,5.91-3.12,9.41-3.28.13-1.13.97-1.19,1.84-1.22.43-.14.86-.29,1.29-.43,1.17-.58,2.12-1.93,3.7-1.04,3.78-1.82,7.74-3.13,11.72-4.4,1.77-.37,3.41-1.45,5.33-.99-.26-1.4.52-1.88,1.73-2.13,3.96-.84,7.89-1.83,11.87-2.6,6.28-1.21,12.57-2.39,18.95-2.87,1.99-.15,4.37-.55,5.11,2.37.13.52.75.32,1.27.17-1.42-1.9-.36-2.16,1.33-2.13,1.64.03,3.28.34,4.97-.21-1.29,6.48.09,10.19,4.56,12.59-.29.59-1.17.67-1.25,1.78,2.06-1.19,4.08-1.36,6.08-.22.18.1.44.08.67.08,6.88-.06,13.49-2.11,20.3-2.75,2.42-.23,3.6-2.92,2.89-5.23-.72-2.33-2.91-3.4-5.4-2.66-1.17.35-2.14,1.07-3.14,1.73-4.58,3.03-9.68,3.54-14.95,2.93-1.77-.2-3.38-.94-3.34-3.23.05-2.97,1.3-4.02,4.4-3.22,3.64.94,7.21,1.2,10.89.26,2.9-.74,5.8-1.58,8.86-1.47,1.58.06,3.29.14,3.44-2.18.19-2.94-.77-4.59-3.01-5-3.32-.6-6.56-.17-9.32,1.7-3.24,2.2-6.27,2.71-9.84.76-2.49-1.36-5.51-1.47-7.74.29-2.53,2-5.07,1.75-7.83,1.42-1.57-.19-3.15-.29-4.72-.33ZM136.34,146.62c.65-.09,1.11-.37,1.61-.7,4.48-2.99,9.56-4.63,14.72-5.66,3.55-.71,6.98-1.99,10.8-2.06.67,2.61,1.14,5.32.34,8.37-2.08,7.9-11.83,14.57-22.37,9.68-3.12-1.45-5.29-3.51-6.52-6.7-.61-1.6-.43-2.68,1.42-2.93ZM287.5,177.82c-1.9-.16-3.82-.18-5.66-.76-.54-.17-1.26-.58-1.08-1.22.21-.74,1.06-.48,1.49-.24,1.67.9,3.63.62,5.31,1.39,3.52-.05,7.04-.14,10.57-.26-3.34,2.11-7,1.57-10.64,1.09ZM233.02,105.87q-.24,1.71,1.51,4.88c-3.8-.31-5.81-3.64-5.3-8.49,4.22-1.09,5.96,1.14,7.08,4.57.71,2.16,2.67,3.56,4.42,5.51-4.08-.69-6.05-3.32-7.71-6.47ZM305.73,119.81c.94,1.52,1.1,2.68.56,4.8-1.13,4.47-3.64,8.15-6.72,11.48-2.48,2.68-4.98,5.35-8.16,8.03.37-3.58.61-6.64,4.69-7.08.54-.06.97-.59.89-1.15-.49-3.18,2.07-5.08,3.46-7.24,1.87-2.88,3.56-5.86,5.28-8.85ZM303.18,115.85c.79-.06.85.57.86,1.04.02,1.74-.27,3.44-.91,5.06-1.33,3.33-3.48,6.09-6.05,8.55-1.35,1.29-1.57-.79-2.7-.61,3.46-4.24,6.49-8.42,7.99-13.48.14-.47.42-.53.81-.56ZM290.69,93.23c.04-.36.07-.72.1-1.14,2.44,1.87,3.39,6.24,2.27,10.09-1.34,4.58-4.72,7.8-7.66,11.27-2.18,2.58-4.71,4.85-7.06,7.29-.82.85-1.8,1.36-2.93,1.54-.89.14-1.64-.24-1.88-1.13-.3-1.08.61-1.13,1.33-1.38.91-.31,1.86-.46,2.76-.91.89-.44,1.64-.74,1.4-1.88-.24-1.13-1.04-1.64-2.13-1.63-3.55.03-7.67,1.23-7.18,6.51.03.37.02.75.03,1.13.76,2.05,2.45,2.85,4.39,3.43.85.26,1.82.13,2.54.78,2.61,0,3.67-.64,4-3.44.3-2.61,1.53-4.21,3.45-5.89,3.27-2.85,6.07-6.23,8.65-9.73,1.52-2.06,2.4-4.48,2.51-7.1-.06-.44-.18-.88-.17-1.32.01-.49-.19-1.09.35-1.43.43-.27.69.15.92.4.46.52,1.3,1.03.25,1.78.81,6.91-2.06,12.34-7.22,16.93,1.76.65,2.85-.34,3.63-.99,2.92-2.42,5.41-5.24,5.76-9.31.04-.42-.07-1,.47-1.16.63-.19.99.36,1.21.79,1.78,3.35,2.04,6.85.26,10.2-1.9,3.57-4.12,6.94-6.53,10.23-1.42,1.93-2.57,2.8-4.88,2.88-2.07.07-3.75,1.33-5.13,2.93-1.32,1.53-2.55,3.12-4.24,4.33-2.05,1.47-4.39,1.8-6.69,1.85-2.47.05-.12-1.56-.52-2.31-.42-1.22-.31-2.18,1.21-2.43.6-2.23-1.41-3.56-1.86-5.43-.66-1.97-3.06-2.87-3.15-5.18-.68-.39-1.16-.58-1.17-1.76-.01-1.99.27-4.07-.4-6.04-.05-.14-.14-.33-.09-.42,1.68-2.62,1.11-5.35.7-8.19-.27-1.83.62-3.32,3.01-3.3,1.09,0,1.86-1.26,3.29-.96,1.15.24,1.54.62,1.54,1.71,0,2.03.06,4.07.13,6.1.08,2.32.86,2.74,2.95,1.75,1.44-.68,2.18-1.92,1.73-3.29-.55-1.66.34-1.84,1.43-2.49,5.17-3.08,8.04-7.69,8.63-13.69ZM288.42,90.91c.97,7.51-3.25,11.92-8.39,16.33-.53-2.48-.37-4.54.11-6.6.16-.69.45-1.18,1.09-1.58,4.69-2.97,4.92-3.25,7.19-8.15ZM242.36,99.61c3.53-.25,5.83-2.51,8.15-4.59,5.71-5.12,7.65-11.98,8.53-19.34.61-5.15,4.73-8.17,7.87-11.73.33-.37.87-.16,1.38-.15,3.46.12,7.11,1.08,9.99-1.95.53-.56,1.35-1.22.93-1.79-.62-.84-1.34.04-1.84.51-2.25,2.11-4.98,2.19-7.79,2.02-.03-.23-.13-.42-.07-.51,3.77-6.01,13.05-6.7,17.79-1.6,2.2,2.37,2.64,4.61,1.96,7.67-1.87,8.42-4.32,16.56-9.12,23.84-1.71,2.6-3.83,4.85-6.01,7.02-1.5,1.48-3.35,2.5-5.64,2.4-1.9-.08-2.9,1.2-2.63,2.85.78,4.69-1.99,7.35-5.28,9.65-4.73,3.3-10.02,3.76-15.54,2.62-2.21-.45-4.59-.44-6.7-2.46,2.78.22,4.65-1.33,6.84-1.96,1.45-.42,2.79-1.16,4.34-.56.63.24,1-.13,1.36-.52.58-.65,1.36-1.16,2.15-1.02,2.17.37,3.47-.97,4.83-2.21.79-.72,1.64-1.27,2.66-1.64.79-.28,1.23-.9.78-1.78-.62-1.23-.93,0-1.42.15-1.47.48-2.87.84-4.55.38-3.59-.98-6.8-2.7-10.24-4.57.02,1.29.74,1.86,1.5,2.39,2.55,1.77,5.32,3.1,8.33,3.91.46.12,1.17,0,1.21.75.04.76-.59.99-1.15,1.19-1.26.47-2.53.22-3.77-.13-1.27-.36-2.54-.68-4.06-.55.84,1.14,2.07,1.14,3.64,2.03-2.28.14-3.86.44-5.38-.86-1.96-1.67-3.66-3.58-5.43-5.42-.31-.33-.43-1.11-1.19-.8-.06-1.99.85-3.07,3.57-3.27ZM235.84,101.71c1-.6,1.69-.2,2.32.6.17.22.38.4.58.59.04,2.41,1.64,3.91,3.2,5.41.89.86,1.86,1.64,2.96,2.61-1.41.72-2.39.3-3.34-.34-2.54-1.73-4.53-3.94-5.75-6.78-.28-.66-1.16-1.39.02-2.09ZM224.25,49.5c-1.29.2-2.76,1.05-3.63-.99,1.35.37,2.49.68,3.63.99ZM126.84,52.89c4.59-2.04,9.51-2.83,14.42-3.25,1.03-.09,2.67,1.18,3.95,1.97.72.44,1.46.82,2.28.21.7-.52.91-1.17.49-1.97-.21-.4-.18-.74.31-.85.54-.12,1.04-.11,1.22.6.63,2.49,2.69,1.48,4.22,1.64.6.06.91-.6.8-1.14-.4-1.86.91-1.56,2.04-1.91,4.89-1.49,9.85-1.72,14.66-1.31-1.76,1.96-4.56,1.64-6.94,2.54-4.75,1.79-9.52,3.54-14.04,5.87-1.58.81-3.23.32-4.86.29-.44,0-.92-.36-1.3-.26-6.43,1.72-12.61-2.41-19.59-.16.8-1.55,1.52-1.94,2.31-2.29ZM99.33,77.16c2.22-1.7,4.27-3.56,5.83-5.91.48-.73,1.14-1.33,1.95-1.42,5.31-.58,9.71-3.36,14.28-5.74,2.94-1.53,5.95-2.84,9.34-3.03,1.64-.09,3.09.11,4.27,1.6-3.29,1.71-6.04,4.13-9,6.26-2.18,1.57-4.97,1.63-7.16,3.12-.43.29-.94.06-1.2-.32-1.19-1.74-2.53-1-3.64-.1-3.89,3.14-7.94,6.12-10.82,10.33-.54.79-1.22,1.48-1.9,2.3-.74-.88-.99-1.78-1.1-2.78-.09-.8-.09-1.87-.89-2.22-1.88-.82-.81-1.47.02-2.11ZM96.93,79.53c.14-.12.39-.34.4-.33.27.25.14.45-.13.6.05,2.37,1.12,4.31,2.56,6.09.23.28.83.57.79.72-.76,2.61.74,5.42-.59,7.92-1.11,2.07-3.93,1.9-5.44-.05-1.25-1.61-2.02-3.4-2.65-5.31-.45-1.38-.8-3.02-3.19-2.5,2.59-2.89,5.29-5.17,8.25-7.14ZM76.59,100.48c2.85-3.27,6.79-5.47,9.11-10q.36,3.73,3.74,5.04c-2.14.98-3.94,1.96-5.64,3.1-4.63,3.11-7.47,7.35-8,12.94-.16,1.75-.81,3.98,1.98,4.51,2.42.46,4.43-1.04,5.12-3.59,1.05-3.85,3.11-7.27,4.81-10.84.13-.26.35-.68.54-.68,2.53-.08,3.98-2.12,5.95-3.21.7-.39,1.47-.49,2.16-.07,1.82,1.12,3.24.19,4.65-.84,2.92-2.14,4.97-4.99,6.62-8.16,1.92-3.68,3.91-7.29,7.38-9.79.71-.51,1.35-1.13,2.27-1.25.16.4.24.77,0,1.11-4.44,6.61-8.43,13.6-14.58,18.85-4.19,3.57-8.19,7.33-12.22,11.07-3.13,2.89-5.57,6.12-5.82,10.58-.05.91-.22,1.6-1.46,1.45-3.36-.42-6.36.75-9.21,2.35-1.19.67-1.59.52-2.1-.87-3.03-8.26-.91-15.25,4.69-21.69ZM47.14,138.08c.05.05.13.11.13.16,0,.05-.09.1-.13.15-.05-.06-.13-.11-.13-.16,0-.05.09-.1.14-.15ZM58.99,176.94c1.65-1.16,3.62-.85,5.42-1.3,5.52-1.38,10.84-3.3,16.1-5.4,1.04-.42,1.89-.29,2.64.55.72.81,1.36,1.59.79,2.8-1.29,2.72-2.79,5.21-5.23,7.13-1.78,1.4-2.98,3.5-5.26,4.36-.79.3-1.6,1.43-2.32.41-.71-1,.69-1.22,1.2-1.75.3-.32.76-.51.87-1.71-3.02,2.26-6.35,2.59-9.53,3.44-.98.26-1.71.16-2.45-.47-1.18-1.01-2.46-1.91-3.54-3.01-1.21-1.22-.39-3.85,1.33-5.06ZM54.43,211.58c-3-.38-5.08-2.08-6.44-4.68-1.9-3.64-4.18-7.13-4.37-11.47-.04-.9-1-1.78-1.59-2.63-3.26-4.67-3.4-9.86-2.75-15.25,1.09.1,1.24.95,1.56,1.57,1.62,3.19,3.58,6.02,6.1,8.68,3.97,4.18,6.4,9.4,7.16,15.2.17,1.27,1.03,2.35.8,3.67.57,1.13,1.18,2.24,1.71,3.38.25.56,1.01,1.14.36,1.8-.59.6-1.26.04-1.88-.14-.21-.06-.44-.09-.66-.13ZM78.15,227.11c-.85.93-1.53,2.05-2.11,3.19-.56,1.1-.87,2.32-1.34,3.61-1.54-1.81-3.29-3.32-4.22-5.49-.19.19-.38.38-.57.57.65,1.3.61,2.56.15,3.96-.47,1.41-.59,2.92-.37,4.43.09.66.51,1.51-.62,1.77-.11,1.32-.83.65-1.32.35-.75-.46-1.08-1.17-.89-2.06-.51.05-.49-.5-.79-.69-1.77-.15-1.72-1.39-1.61-2.68-.75,0-.98-.58-1.23-1.12-2.45-5.29-5.37-10.38-6.54-16.19-.21-1.02-.85-2,.08-2.93.56-.56,1.33-.45,1.89-.12,1.01.6,1.7,1.48,1.35,2.81-.05.21,0,.45,0,.67l.76-.08c.09-.32-.04-.9.52-.77,1.57.35,2.94,2.49,2.83,4.22-.11,1.75.26,3.4,1.19,4.91.25-.24.5-.48.75-.72-.41-1.66-.82-3.32-1.29-5.22,1.85.33,3.31,1.1,4.63,2.16.33.27.7.57.41,1.13-.7,1.34-.22,2.81-.41,4.21.26.29.5.64.98.53.15-.72.35-1.44.44-2.17.31-2.69.28-2.66,2.97-1.57,1.17.48,2.43.74,3.64,1.15,1.11.38,1.97.81.75,2.15ZM84.19,231.9c-1.04.64-1.04,1.76-1.75,2.81-1.97-2.04-2.89-4.41-3.06-7.12-.04-.65.02-1.16.62-1.54.75-.47,4.44.01,4.82.66.93,1.57.68,4.38-.62,5.19ZM92.25,234.2c-.52,1.08-1.09,2.13-1.77,3.44-2.57-2.94-4.47-5.98-4.69-9.84-.05-.96-.1-1.89,1.32-1.61,1.51.29,3.36-.93,4.52.96,1.37,2.24,1.81,4.58.62,7.05ZM110.16,230.55c-1.9,5.03-3.43,10.1-2.18,15.57.08.34.26.77-.16,1.01-.51.29-.82-.14-1.14-.43-.17-.15-.32-.32-.45-.5-.34-.47-.61-1.25-1.26-1.01-.3.11-.3,1.01-.52,1.88-7.35-5.13-9.27-12.98-11.5-20.92,5.61-.11,10.93-1.02,16.28-1.55.95-.09,1.3.46,1.45,1.32.28,1.6.04,3.14-.52,4.62ZM129.73,290.06c-2.26-1.01-3.65-2.61-3.79-5.12-.14-2.56.06-5.09,1.17-7.72,2.5,3.73,4.34,7.35,4.43,11.67.04,1.6-.46,1.78-1.82,1.17ZM138.6,291.79c-.3,0-.6,0-.9,0-4.78-.01-5.29-.52-5.33-5.35,0-.53,0-1.05,0-1.58-.01,0-.02,0-.04,0,.05-.98.08-1.95.16-2.93.27-3.21.58-3.45,3.23-1.79,2.82,1.76,4.47,4.64,5.97,7.45,1.01,1.89-.88,4.17-3.1,4.21ZM142.41,291.7c-.89.08-.75-1.03-.48-1.33.44-.5,0-1.91,1.41-1.47,1.47.46,2.96.85,4.86,1.39-2.02,1.19-3.95,1.24-5.79,1.41ZM152.32,277.67c-.37,2.42-.68,4.85-1.01,7.27.12.59-.15,1.05-.48,1.49.21,1.59-.62,2.17-2.09,2.2-2.84.05-5.13-1.14-6.83-3.31-3.31-4.22-5.26-9.04-5.95-14.36.08-.91-1.83-2.16.46-2.69-.15-.34-.36-.66-.44-1.02-.09-.41-.91-.87,0-1.25.5-.2.76.11,1.04.54,1.83,2.81,4.43,4.82,7.04,6.84,2.13,1.64,4.47,2.75,7.16,2.91,1.07.06,1.22.45,1.08,1.37ZM163.39,261.18c-2.34,1.04-2.45,3.41-3.36,5.29-1.23,2.53-2.4,5.09-3.75,7.98-.89-1.77-.84-2.95-.08-4.28.88-1.55,1.55-3.25,2.09-4.96.67-2.15,2.45-3.52,3.47-5.4.41-.74,1.18-.84,1.72-.39.58.48.58,1.45-.09,1.75ZM172.42,236.46c-2.96,2.59-3.34,6.59-5.39,9.67-.63.94-1.28,1.75-2.61,2.46.37-2.44,1.63-4.21,2.29-6.19.89-2.68,2.99-4.6,4.53-6.86.36-.53,1.01-1.18,1.67-.53.51.5-.24,1.23-.49,1.45ZM172.72,209.68c.01-.2.53-.57.62-.52.98.56.83,1.51.9,2.55-1.23-.32-1.57-1.07-1.52-2.03ZM164.75,200.97c2.29,2.42,6.25,2.91,7.47,6.57.35,1.05.01,2.27-.41,2.7-1.87,1.89-.71,3.87-.37,5.74.15.83.51,1.27-.27,2.04-.81.79-.51,1.98.4,2.54,1.17.73,1.08-.69,1.36-1.18.83-1.48,1.76-3.01.27-4.69-.45-.51-.37-1.19.31-1.51.74-.35,1.45-.05,1.63.7.41,1.66,1.01,3.38.91,5.04-.18,2.9-.44,5.84-1.36,8.65-.18.55-.23,1.37-.94,1.4-.95.04-.99-1.01-.96-1.51.19-3.11-2.66-4.9-3.21-7.72-.3-1.51-2.1-1.25-3.28-1.51-3.65-.8-4.81-2.92-3.83-6.42.51-1.81,1.14-3.26,2.53-4.58,1.26-1.19.39-4.79-1.46-6.02.68-.14,1.11-.34,1.22-.23ZM126.2,225.34c-.42-.75.23-1.62,1.18-1.82,1.14-.24,1.44.43,1.35,1.43-.13,1.43.72,2.56,1.23,3.79.5,1.22.85,2.42-.32,4.08-.99-2.79-2.15-5.17-3.43-7.49ZM122.06,267.91c.27-4.52,1.68-8.38,6.53-10.24,3.99-1.53,6.2-5.33,9.12-8.22.16-.16.26-.48.42-.51,2.29-.48,2.27-2.8,3.42-4.18.28-.34.35-.58.24-.97-.7-2.61.05-5.06.93-7.46.8-2.18.85-4.37.47-6.61-.23-1.35-1.01-2.05-2.44-2.16-2.99-.23-4.85-1.8-5.76-4.65-.16-.5-.36-.99-.57-1.47-1.61-3.68-1.8-7.15,1.29-10.26.62-.63,1.05-1.46.9-2.44-.41-.74-.35-1.53.37-1.89.69-.36,1.56-.4,2.11.46.76,1.1,2.03,1.51,3.06,2.25,2.97,2.13,4.57,5.51,7.2,7.96.19.18.24.55.27.84.22,2.44.65,4.66,2.06,6.91.97,1.54.63,4.08.43,6.13-.35,3.44-.86,6.86-.61,10.33.1,1.34-.37,2.52-1.24,3.53-1.53,1.78-2.64,3.82-3.69,5.89-.85,1.69-.18,3.53-.17,5.29.01,1.65-.3,3.09-1.11,4.51-.49.86-.98,1.47-2.07,1.38-.76-.07-1.62-.11-1.44,1.09.14.94.61,1.53,1.65,1.42.73-.08,1.53.03,2.04-.71,1.49-2.17,3.01-4.27,2.48-7.21-.66-3.65.69-6.85,2.92-9.63,1.71-2.13,2.38-4.46,2.31-7.1-.09-3.69.08-7.37.72-11,.39-2.23-.09-4.19-1.31-5.99-1.41-2.08-.81-4.83-2.35-6.84-1.03-.37-1.33-1.29-1.63-2.2-1.46-.62-1.52-2.41-2.77-3.27-.59-.4-1.08-.99-1.73-1.36-1.53-.82-2.62-2.1-3.58-3.5-2.04.7-2.82-.72-3.15-2.2-.44-1.98,1.43-1.88,2.6-2.36.65-.03,1.29-.05,1.94-.08.54-.11,1.09-.21,1.63-.32.72-.38,1.48-.41,2.26-.23,1.37-.87,2.9-.15,4.37-.35,1.67-.24,3.36-.42,5.05-.68,3.45-.53,5.45.28,8.04,2.93.62.64.53,1.26.07,2.12-.77,1.45-2.06,2.44-2.89,3.86-1.7,2.91-1.14,5.76.06,8.45.9,2.03,3.23,2.53,5.24,2.73,1.63.16,2.29.99,3.06,2.21,1.36,2.16,2.35,4.4,2.73,6.92.21,1.4.05,2.54-1.16,3.61-7.11,6.25-8.34,14.61-8.12,23.42.03,1.23.04,1.98-1.35,2.57-3.01,1.28-4.58,4.13-5.98,6.81-1.32,2.55-2.58,5.32-2.3,8.36.09,1-.5.92-1.04,1-1.81.29-3.42-.28-4.9-1.26-4.31-2.86-8.13-6.19-10.47-10.93-.33-.66-.69-1.23-1.51-1.03-.91.23-.89,1.03-.99,1.79-.6,4.54.94,8.74,1.99,13.01.17.71.48,1.39.28,2.33-1.62-.82-3.24-1.85-4.72.06-.06.07-.33.08-.43.01-1.81-1.29-3.7-2.5-5.36-3.96-.46-.4-.66-1.49-1.26-1.77-2.36-1.08-2.25-3.29-2.13-5.13ZM121.81,274.78c.72-.99,1.37-.9,2.05.18,1.19,1.88,1.31,3.93,1.17,5.6,0,1.04.05,1.64-.01,2.24-.07.71.4,1.73-.29,2.06-.93.43-1.62-.52-2.25-1.11-2.18-2.06-2.49-6.45-.66-8.97ZM111.25,281.46c-2.97-2.64-4.6-6.11-5.94-9.71-.89-2.39-1.39-4.91-1.63-7.47-.11-1.14.01-2.2.64-3.38,1.02.85.84,2,.93,2.78.53,4.36,4.22,5.91,7.03,8.22,1.79,1.47,4.03,1.52,6.25,1.28,1.78-.19,2.67.13,1.66,2.17-.96,1.96-.23,4.17-.62,6.44-.59-.16-.98-.18-1.29-.36-1.06-.6-1.82-1.01-2.92.32-1.15,1.39-2.76.89-4.1-.29Z" style="fill: #333120;"/>
    <path d="M160.71,298.42c1.48,3.6,4.14,3.61,6.95,3.25,3.09-1.02,4.04-3.37,2.24-4.98-2.45,3.04-5.53,3.39-9.19,1.73Z" style="fill: #333120;"/>
    <path d="M170.87,290.35c-1.92,1.29-3.75,2.8-6.33,2.23-.44-.1-.66.31-.72.7-.07.42.21.67.55.87,1.75,1.03,3.56,1.55,5.55.68.18-.9.97-1.33,1.57-1.83,1.1-.93,1.16-1.79.25-2.82-.29.05-.65.01-.87.16Z" style="fill: #333120;"/>
    <path d="M156.6,313.64c-2.56.63-4.45-.54-6.14-2.26-.58-.59-1.14-1.22-1.98-1.42-.48-.12-1.08-.3-1.41.3-.28.51.17.82.48,1.11,1.08,1.01,2.17,2.01,3.25,3.02,1.62.92,3.3,1.66,5.19,1.8.98.07,1.61-.5,1.91-1.26.49-1.24-.95-.77-1.32-1.29Z" style="fill: #333120;"/>
    <path d="M119.18,298.84c.15-.43.87-1.34-.3-1.61-.86-.2-1.14.52-1.39,1.14-.66,1.63-.36,3.38-.64,5.06.37,1.2.55,2.53,1.17,3.58.65,1.09,1.65,2.33,3.04.61-2.75-2.47-3.02-5.45-1.88-8.78Z" style="fill: #333120;"/>
    <path d="M117.05,294.55c.26-.05.4-.2.24-.43-.04-.06-.34.06-.52.1-1.86.73-2.61,2.56-3.84,3.91-.04,1.31-.58,2.58,0,3.94.75,1.77,1.66,2.07,3.38.9-2.01-2.56-1.62-5.02.32-7.42.22-.27.29-.66.43-1Z" style="fill: #333120;"/>
    <path d="M126.4,309.92c-2.53-1.45-3.43-3.79-3.6-6.56-.04-.59.25-1.59-.75-1.56-.93.02-1.07.93-.96,1.68.23,1.53.55,3.05.83,4.58,1.52,1.09,2.18,3.44,4.63,3.18.2-.33.41-.66.61-1-.26.11-.53-.19-.76-.32Z" style="fill: #333120;"/>
    <path d="M127.39,309.86c-.08.13-.15.25-.23.38.1-.04.2-.15.29-.35,0,0-.02,0-.03-.01h.03s0,.01,0,0c-.02,0-.03-.01-.05-.02,0,0,0,0,0,0Z" style="fill: #333120;"/>
    <path d="M25.63,95.08s.02-.03.02-.03c-.05-.02-.11-.05-.16-.07.05.03.09.06.14.1Z" style="fill: #333120;"/>
    <path d="M117.58,121.93c.59-.15,1.01-.34,1.29.61.5,1.68,1.8,1.85,3.2,1.07,1.87-1.03,3.62-2.23,5.67-2.93,3.5-1.2,6.79-2.83,9.67-5.21,5.19-4.29,7.91-10.31,11.19-15.94.24-.42.26-1.03.22-1.55-.18-2.39,0-4.84-.75-7.16-.61-1.87.24-3.03,1.92-3.39,1.7-.37,2.98-1.35,4.3-2.28,2.19-1.55,3.18-4.87,2.34-7.47-.86-2.65-4.19-5.89-6.23-5.85-3.61.08-7.09-1.03-10.71-.82-.04-1.09.7-1.64,1.04-2.37.53-1.16.37-2.18-.42-3.15-.68-.84-1.6-.99-2.43-.52-1.21.68.09,1.23.33,1.74,1.17,2.51.59,4.45-1.9,5.6-.58.27-.93.6-1.26,1.13-1.13,1.79-1.28,3.72-1.35,5.79-.08,2.18.4,3.59,2.48,4.59,2.32,1.1,3.38,3.32,3.16,5.77-.44,4.94-1.03,9.87-2.15,14.72-.93,4.01-2.46,7.87-6.57,9.4-4.98,1.85-8.39,6.3-13.58,7.66.18.19.36.38.54.57Z" style="fill: #333120;"/>
    <path d="M177.52,63.85c-.5,0-1.41.05-2.31-.01-1.43-.09-2.35.59-2.64,1.92-1.71,7.7-2.29,12.97,4.2,17.87,3.56,2.68,5.88,6.27,6.36,10.98.4,3.87,2.59,5.97,6.29,6.67,1.91.36,3.84.45,5.83.25,2.99-.31,4.66-2,5.9-4.52,3.14-6.34-.14-11.59-2.88-16.87-2.24-4.31-6.36-7.18-9.11-11.12-2.78-3.97-6.5-5.64-11.64-5.17ZM183.82,72.32c1.38,2.1,3,3.96,4.85,5.6,2.47,2.2,3.38,5.23,4.65,8.08.37.83.7,1.69,1.5,2.18,2.68,1.64,1.75,6.09-1.21,7.99-1.08.69-2.56.69-3.58-.73-1.63-2.27-3.05-4.63-4.1-7.22-1.85-4.59-3.71-9.15-8.32-11.8-.86-.49-1.18-1.33-.99-2.49.06-1.34.36-2.79,2.1-3.12,1.91-.36,3.92-.29,5.09,1.49Z" style="fill: #333120;"/>
    <path d="M154.92,119.45c1.76-2.35,3.71-4.52,6.22-6.13,2.51-1.61,4.45-3.81,6.14-6.23,2.1-3.01,3.21-6.28,2.4-10-.57-2.61-2.62-4.05-5.26-3.71-1.04.14-2.09.42-3.08-.15-1.04-.6-1.95-.32-2.97.2-2.62,1.33-4.05,3.44-4.72,6.24-.51,2.15-.24,4.36-.69,6.49-1.04,4.93-3.71,9.14-6.12,13.45-.91,1.63-1.9,3.05-4.03,3.13-.47.02-1.31.14-1.13,1.03.56,2.78,2.28,3.75,5.15,2.96,1.64-.46,3.05-1.36,4.18-2.57,1.12-1.19,2.33-1.82,3.96-1.58.29-.25.57-.49.86-.74-.69-.28-1.75.31-2.08-.44-.39-.89.71-1.35,1.18-1.97Z" style="fill: #333120;"/>
    <path d="M248.94,141.15c.19-.09.35-.12.4-.43.59-3.86-2.53-7.92-5.65-7.76-2.25.12-4.32.66-6.12,1.98-4.49,3.32-5.21,8.18-5.31,13.27,0,2.96.3,5.87,1.33,8.64,1.34,3.6,5.29,5.08,8.73,3.39,1.45-.71,2.11-1.79,1.93-3.41-.17-1.57-.46-3.15-.41-4.72.15-4.35.41-8.71,5.09-10.97Z" style="fill: #333120;"/>
    <path d="M217.55,105.74c-1.75-.37-3.1.54-4.1,1.84-2.36,3.08-2.47,6.53-.69,9.78,4.2,7.71,10.86,11.71,19.28,12.37,1.07-.09,1.82-.14,2.57-.22,2.75-.3,4.91-1.83,5.37-3.8.46-1.92-.71-3.66-3.42-5.29-2.84-1.71-5.93-1.91-9.14-1.85-3.63.08-5.38-1.37-6.24-4.9-.37-1.53-.66-3.08-.98-4.62-.33-1.55-.94-2.93-2.65-3.3Z" style="fill: #333120;"/>
    <path d="M257.11,240.97c.66.04,1.28-.04,1.95-.24,1.89-.55,3.31-1.86,4.97-2.76-.37-1.77-1.3-1.4-2.18-.48-1.25,1.31-2.8,1.72-4.5,1.66-10.43-.37-19.45-3.63-25.64-12.62-.45-.66-.98-1.06-1.64-.65-.66.41-.05,1.1.09,1.58.2.7.65,1.35,1.09,1.95,1.57,2.08,3.24,4.01,5.45,5.55,3.71,2.58,7.6,4.51,12.16,4.84.91.07,1.68.23,2.1,1.34-9.16.11-16.03-4.26-22.11-10.41,2.55,7.83,9.19,10.52,16.15,12.91-3.8.17-7.46.83-10.98-.71-3.24-1.42-5.92-3.69-8.57-6-.06,1.86,1.76,2.53,1.88,4.07-.56.4-1.23-.53-1.47.08-.29.74.43,1.18,1.02,1.52,2.39,1.4,4.94,2.42,7.82,3.08-1.82,1.57-3.48,3.16-5.61,3.56-6.24,1.16-12.22.53-17.39-3.63-.35-.28-.74-.74-1.1-.21-.27.4.08.86.51,1.09,1.78.93,3.35,2.18,5.22,3,5.79,2.55,11.7,2.35,16.82-.88,3.3-2.08,6.19-3.38,9.95-2.45.56-.03,1.12-.06,1.68-.09.46-.84,1.32-.43,1.98-.64,1.59-2.29,3.92-2.26,6.35-2.14.84.04,1.7-.35,2.5-.53.2-.88-1.2-1.36-.38-2.12.65-.6,1.21.3,1.85.33Z" style="fill: #333120;"/>
    <path d="M203.84,113.11c1.38,1.49,2.82,1.03,4.08-.31,1.48-1.58,1.86-4.22.87-6.08-1.21-2.29-3.34-2.39-5.46-2.06-3.15.49-6.3.66-9.45.35-3.25-.32-3.85.17-4.17,4.12.04,3.71,1.15,4.58,4.75,3.71.87-.21,1.82-.31,2.59-.72,2.55-1.38,4.74-1.22,6.78,1Z" style="fill: #333120;"/>
    <path d="M192.89,128.66c2.21-1.31,3.8-3.23,4.1-5.9.17-1.53-.24-2.89-2.01-3.27-2.06-.45-4.38.35-4.57,1.84-.31,2.42-1.84,3.67-3.68,4.77-2.39,1.44-3.12,3.72-3.28,6.31.13,1.77.6,3.41,1.76,4.76,1.46,1.71,3.91,1.24,4.62-.9.23-.7.35-1.5.28-2.22-.26-2.45.67-4.13,2.79-5.4Z" style="fill: #333120;"/>
    <path d="M236.96,212.24c-2.26.51-2.34,2.33-2.19,4.11.27,3.24,5.7,8.34,8.95,8.52.15,0,.3,0,.45,0,3.85-.21,6.88-2.45,10.1-4.17.69-.37.88-1.15-.2-1.63-1.08-.49-2.19-.93-3-1.92-.86-1.05-2.05-.93-3.1-.38-.97.51-.79,1.39-.51,2.35.3,1.07-.11,2.07-1.07,2.73-.65.44-1.39.36-1.86-.2-.79-.94-1.81-1.74-1.97-3.14-.14-1.27-.37-2.55-.78-3.75-.77-2.3-2.33-3.08-4.82-2.52Z" style="fill: #333120;"/>
    <path d="M252.68,200.87c-1.78-.2-3.32-.02-3.96,1.68-.72,1.92.92,2.57,2.14,3.43,2.57,1.82,5.18,3.59,6.83,6.44.55.96,1.43,1.82,2.77,1.47,3.07-.81,7.74-8.64,7.06-11.83-.06-.29-.18-.57-.3-.85-.62-1.35-1.87-1.53-3.13-1.68-.85-.1-1.54.21-1.82.99-.42,1.18.3,2,1.09,2.75.11.1.22.21.3.33.81,1.27.78,2.73.04,3.84-1.14,1.71-2.91,1.04-4.54.66-1.41-.33-1.59-1.2-1.52-2.52.14-2.64-2.12-4.62-4.96-4.72Z" style="fill: #333120;"/>
    <path d="M263.56,171.35c-.95.26-1.45.57-1.46,1.59,0,1.28-.16,2.55-.14,3.83.01,1,.23,2.05,1.37,2.35,1.05.27,1.89-.33,2.56-1.09.39-.45.83-.93,1.03-1.47.59-1.6,1.1-3.18,3.31-3.09.34.01.8-.44,1.05-.79,1.72-2.38,3.39-4.79,3.71-7.83-.05-.34-.1-.68-.15-1.03-1.34-1.57-4.78-2.49-6.65-1.67-1.95.86-.68,2.65-1.03,3.98-.04.14,0,.3,0,.45,0,3.72.01,3.78-3.58,4.77Z" style="fill: #333120;"/>
    <path d="M98.9,111.31c.89-1.32,1.64-1.63,2.88-1.17.94.35,1.78.39,1.9-.69.1-.95-.72-1.37-1.68-1.32-.45.02-.9,0-1.36,0-4.87.03-6.98,1.74-8.17,6.63-.09.36-.3.7-.34,1.06-.28,2.41-1.68,4.69-.88,7.22.37,1.17,1.03,2.04,2.41,1.93,1.08-.09,2.14-.38,2.5-1.56.29-.96.1-1.95-.33-2.86-.52-1.11-.51-2.31.09-3.24,1.22-1.89,1.69-4.1,2.97-6Z" style="fill: #333120;"/>
    <path d="M168.32,64.25c-.45.09-.85.1-1.18.25-3.43,1.64-5.81,4.59-8.63,7-.37.32-.62,1.01.09,1.28,1.17.44,1.1,1.46,1.35,2.38.34,1.23.81,2.43,1.81,3.29,1.17,1.01,2.33.81,3.36-.25.95-.97,2.02-1.9.74-3.43-.73-.87-1.43-1.71-2.4-2.33-.88-.56-1.13-1.44-.72-2.35.42-.95,1.18-1.48,2.32-1.44,1.2.04,1.15.81,1.26,1.68.14,1.13,1.03,1.63,1.95,1.04,1.28-.81,2.43-2.07,2.36-3.61-.07-1.44-.29-3.23-2.32-3.52Z" style="fill: #333120;"/>
    <path d="M97.58,128.7c.78.45,1.62.78,2.57.78,3.01-.11,4.32-2.34,5.47-4.62.91-1.82-.36-3.72-2.41-3.48-1.57.18-3.36.48-3.49,2.74-.05.85-.31,1.61-1.52,1.42-.63-.1-1.47-.1-1.57.82-.1.91.06,1.82.95,2.34Z" style="fill: #333120;"/>
    <path d="M104.75,140.03c-1.43-.09-2.48,1.1-3.9.75-1.58-.39-2.62.52-3.75,1.64,1.48.24,2.82.11,3.89-.45,3.87-2.06,10.44.27,12.38,3.37,1.39,2.22,1.39,3.27-.32,5.17-.53.59-1.75,1.19-.6,2.12.91.74,1.88.46,2.79-.43.72-.71.4-1.9,1.3-2.44-.47-7.82-5.71-9.33-11.79-9.73Z" style="fill: #333120;"/>
    <path d="M116.63,149.71s-.06.03-.08.05c0,.01,0,.02,0,.04.02-.02.05-.04.07-.06,0,0,0-.02,0-.03,0,0,0,0,0,0Z" style="fill: #333120;"/>
    <path d="M109.02,212.93c2.33-.59.88-1.52.29-2.4-1.42.08-3,.09-4.02,1.1-1.05,1.04-2.12,1.7-4.26,1.48,1.54,1.01,2.5,1.7,1.84,3.06.19.19.39.39.58.58,1.62.66,3.16,1.62,5.04.87,2.05-.82,4.01-1.83,6.23-2.29,1.61-.33,1.91-1.7.93-3.14-.56,1.39-1,2.74-3.12,2.08-.59-.18-1.73.48-2.57.78-.79.28-1.03.36-1.25-.41-.18-.62-.67-1.44.31-1.69ZM106.71,216.83c-.91,0-1.97-.26-1.86-1.58.05-.62-.49-1.63,1.34-2.19.69.9,1.61,1.71,2,2.73.23.59-.91,1.04-1.47,1.04Z" style="fill: #333120;"/>
    <path d="M121.71,83.25c1.65-.29,3.97,1.39,4.86-1.53.22-.72,1.1-.62,1.78-.58.84.05,1.85.5,1.83-1.07-.01-1.23.12-2.42-1.56-2.58-.74-.07-1.49-.11-2-.15-3.81-.01-5.9,1.54-5.85,4.27.01.67-.1,1.83.95,1.65Z" style="fill: #333120;"/>
    <path d="M260.29,198.25c1.03.38,1.98-.17,2.58-.96,1.16-1.5,2.46-2.57,4.48-2.59.8,0,1.56-.51,1.51-1.37-.05-.79-.92-.55-1.48-.63q-3.02-.42-2.07-3.33c.14-.44.17-.85-.28-1.2-.46-.36-.78-.27-1.12.15-1.98,2.39-3.16,5.17-4.19,7.79.32.91-.24,1.82.58,2.12Z" style="fill: #333120;"/>
    <path d="M91.23,211.73c-1.02.17-2.41.21-3.66.66-1.48.53-2.28,1.55-1.43,3.34,1.18,2.48,2.96,3.52,5.6,2.87,1.4-.34,2.75-.89,4.13-1.33.78-.25,1.37-.67,1.07-1.59-.55-1.7-3.62-3.91-5.72-3.94ZM95.04,216.05c-.83.86-2.27,1.1-3.37-.09-.81.96-.92,3.44-3.1,1.35-.51-.49-.38-.86-.13-1.34.31-.61.61-.37,1.02-.08.69.48,1.04-.04,1.35-.57h0c-.78.02-1.05-.2-.42-.86-.12-.54-.77-1.23-.15-1.59.76-.43,1.76-.39,2.59,0,.44.21.85.67,1.06,1.11.35.75,1.88,1.3,1.15,2.07Z" style="fill: #333120;"/>
    <path d="M273.45,187.09c.15,1.28,1.19.71,1.77.65,1.91-.17,2.91.82,3.63,2.39.58,1.27,1.73.97,2.74.88.97-.08,1.43-.77,1.49-1.69.08-1.11-.57-1.61-1.58-1.8-1.04-.2-1.66-.99-2.27-1.75-.76-.96-1.73-1.41-3.31-1.33-.15.03-.69.07-1.17.27-1.04.43-1.42,1.31-1.29,2.38Z" style="fill: #333120;"/>
    <path d="M244.65,129.49c1.19-.03,2.12.03,2.95-.39.39-.2,1.18.22,1.14-.66-.03-.6-.11-1.5-.7-1.53-1.74-.09-1.43-1.32-1.56-2.36-.19-1.47-1.37-2.14-2.71-1.36-1.7.99-2.12,2.68-1.86,4.5.25,1.78,1.56,1.97,2.75,1.79Z" style="fill: #333120;"/>
    <path d="M203.66,82.7c.77.91,1.5,1.86,2.34,2.7.4.41.98.67,1.64.34.63-.32.81-.83.75-1.83-.05-.16-.19-.66-.38-1.13-.98-2.47-3.67-3.08-5.35-4.82-.33-.34-1.54-.49-1.9.44-.3.79-.2,1.71.64,2.18.96.53,1.59,1.33,2.26,2.13Z" style="fill: #333120;"/>
    <path d="M235.51,249.87c-.03-.5-.34-.56-.75-.6-.97-.09-1.61.29-1.74,1.26-.19,1.38-1.32,1.61-2.3,1.77-4.16.68-8.35,1.52-12.21-1.16-.42-.29-1.02-1.07-1.51-.28-.54.87.69,1.22.98,1.32,2.66.92,5.24,2.27,8.37,2.05,2.84.2,5.56-.7,8.18-2.11,1.03-.55,1.05-1.32.98-2.25Z" style="fill: #333120;"/>
    <path d="M189.22,57.42c.9-.35.91-1.35.57-2.15-.37-.89-1.17-.82-1.9-.48-1.87.89-2.96,2.43-3.51,4.38,0,1.85,1.36,2.57,2.67,3.28.58.31,1.36.41,1.81-.29.35-.54.14-1.03-.25-1.61-.75-1.13-1.41-2.36.6-3.13Z" style="fill: #333120;"/>
    <path d="M100.46,150.65c4.45.65,9.4.42,10.6,6.37.44-.01.89-.03,1.33-.04.5-.71.7-1.43.35-2.29-1.63-3.98-9.2-5.97-12.28-4.03Z" style="fill: #333120;"/>
    <path d="M169.88,89.7c-.27-.6-.69-1.15-1.12-1.67-1.09-1.33-2.09-2.57-2.23-4.5-.14-2.08-1.71-2.97-3.95-2.93.16,1.27.66,2.27,1.28,3.18,1.51,2.23,3.1,4.41,4.61,6.65.28.41.29,1.16,1,.85.66-.29.66-1.01.41-1.57Z" style="fill: #333120;"/>
    <path d="M101.97,197.38c.02-1.21-.3-2.8-2.92-2.28-.71.43-2.91-.47-3.13,2.03-.2,2.31,1.5,2.3,3.01,2.41,1.57.11,3.01-.41,3.04-2.15Z" style="fill: #333120;"/>
    <path d="M122.39,153.21c1.75-.27,2.55,1.11,3.64,2.01.38-2.09-1.16-3.56-3.2-3.01-1.01.27-1.98.84-2.99.92-1.32.11-2.56-.18-1.68-2.07.37-.8.36-1.61-.35-2.28-.4.32-.79.63-1.19.95-.21,1.06-.14,2.11.02,3.16,1.02.27,1.88.88,3.04.93,1.35.06,1.2,1.22.98,2.21,1.11.19,1.57-.12.99-1.26-.53-1.03-.32-1.41.75-1.57Z" style="fill: #333120;"/>
    <path d="M220.31,220.29c.44-.18.71-1.28,1.3-.49,1.48,1.97,3.11.83,5.13.53-.89-.76-1.42-1.08-1.77-1.55-1.25-1.67-2.62-1.73-4.2-.5-.35.27-.75.55-1.17.62-.85.16-1.24.8-.97,1.39.4.9,1.08.24,1.68,0Z" style="fill: #333120;"/>
    <path d="M222.32,104.16c.98-.1,2.21.02,2.49-.85.32-.95-.8-1.45-1.58-1.88-.59-.32-1.22-.59-1.85-.8-1.01-.32-1.85-.02-2.13,1.04-.27.99.11,1.79,1.18,2.09.65.18,1.32.28,1.9.4Z" style="fill: #333120;"/>
    <path d="M81.35,212.5c-1.42.23-3.19-.24-3.27,2.23-.06,2.06,1.5,2,2.66,2.03,1.49.04,3.07-.36,3.17-2.32.09-1.74-1.03-2.11-2.56-1.94ZM82.88,214.47c.03,1.01-.46,1.53-1.26,1.36-1.22-.1-2.53.04-2.48-1.26.06-1.49,1.63-.91,2.52-1.22.95-.33,1.19.41,1.21,1.12Z" style="fill: #333120;"/>
    <path d="M181.4,193.19c2.29.33,3.33-1.47,4.69-2.74.23-1.11,1.96-.43,2.08-1.71-3.16-.18-5.06,1.08-6.76,4.45Z" style="fill: #333120;"/>
    <path d="M247.79,210.65c2.59.35,2.79.21,2.51-2.74-2.42,1.49-5.19,1.58-7.8,2.3,1.78.22,3.55.21,5.29.44Z" style="fill: #333120;"/>
    <path d="M104.28,196.84c1.24.24,1.64-.66,1.73-1.67.1-1.15-.71-1.51-1.72-1.54-1.28-.04-1.99.63-1.96,1.85.03,1.08.85,1.44,1.95,1.36Z" style="fill: #333120;"/>
    <path d="M89.28,196.74c-1.05-.06-1.59.42-1.6,1.4-.01,1.08.63,1.62,1.41,1.64,1.21-.04,1.97-.38,1.95-1.41-.02-1.06-.69-1.56-1.76-1.63Z" style="fill: #333120;"/>
    <path d="M244.91,197.14c.98.17,2.28-.31,2.09-.97-.34-1.19-1.61-1.91-2.97-1.96-.44-.02-1.17-.18-.99.92.2,1.21.25,2.26,1.86,2.01Z" style="fill: #333120;"/>
    <path d="M217.9,230.93c.41.59.77,1.3,1.7,1.58-.29-1.65,1.24-2.79,1.12-4.71-1.07.64-.89,2.2-2.44,1.73-.56-.17-.75.89-.38,1.41Z" style="fill: #333120;"/>
    <path d="M250.53,145.63c-.87,2.04-.7,3.46,1.16,4.74.13-1.82-.27-3.16-1.16-4.74Z" style="fill: #333120;"/>
    <path d="M53.73,164.84c4.19-.05,8.39-.12,12.58-.19,0-.16.02-.32.03-.47h-13.43c.26.52.54.67.82.67Z" style="fill: #333120;"/>
    <path d="M167.63,186.97c-.13.7-.26,1.4-.39,2.09.17.54-.04,1.51,1.05,1.06.74-.3,1.28-.87.73-1.7-.36-.55-.43-1.46-1.39-1.46Z" style="fill: #333120;"/>
    <path d="M208.72,215.28c-1.41,2-.93,3.35,0,4.69v-4.69Z" style="fill: #333120;"/>
    <path d="M192.12,240.79c.04.28.07.56.11.83.92.76,1.94.39,2.99.39-.51-2.02-1.91-1.34-3.1-1.23Z" style="fill: #333120;"/>
    <path d="M279.74,204.48c.63-.86,2.12-.43,2.62-1.69-1.56-.49-2.33.95-3.51,1.22.21.33.49.52.89.47Z" style="fill: #333120;"/>
    <path d="M260.22,180.18c-.67.41-1.76.67-1,2.01.5-.8,1.87-.47,1.87-1.69,0-.49-.59-.5-.87-.33Z" style="fill: #333120;"/>
    <path d="M341.87,162.45c-1.05.09-.66.83-.56,1.34.57,2.89-.5,5.33-2.11,7.58-1.14,1.59-2.56,2.97-3.63,4.6-.97,1.47-2.47,2.77-2.34,5.05,3.52-3.83,7.08-7.28,9.26-11.85.9-1.9.56-3.83.6-5.76.01-.73-.5-1.03-1.22-.97Z" style="fill: #333120;"/>
    <path d="M328.05,165.73c-.42.4-1.13.78-.53,1.43.5.54.97-.1,1.35-.36,3.55-2.47,5.89-5.67,6-10.56.12-.98,0-2.33-.4-3.62-.22-.71-.84-1.11-1.58-.81-.94.38-.64.99-.13,1.58.7.81.63,1.79.58,2.77-.23,4.04-2.53,6.93-5.28,9.57Z" style="fill: #333120;"/>
    <path d="M121.53,147.17c-.35-.08-.48.34-.48.63-.02,1.44,1.23,1.6,2.2,2.02-.58-.94-.39-2.36-1.72-2.65Z" style="fill: #333120;"/>
    <path d="M255.88,95.04c4.05,1.3,8.14,2.09,12.28.44,1.16-.46,2.19-1.36,2.08-2.68-.13-1.51.68-2.08,1.74-2.72,1.47-.89,3.05-1.78,3.29-3.73.07-.55.46-1.4-.55-1.65-1-.25-1.05.5-1.26,1.16-.55,1.81-1.86,2.87-3.62,3.37-2.25.64-4.52,1.09-6.88.81-1.28-.15-1.29-.09-2.77.71,2.48.61,4.7,1.2,7.06,1.03.62-.04,1.59-.92,1.86.29.19.89-.63,1.4-1.43,1.77-2.07.96-4.21.93-6.4.61-2.05-.3-4.12-.52-6.39-.81.19.61.19.79.28.88.22.21.45.44.72.53Z" style="fill: #333120;"/>
    <path d="M272.75,83.77c2.58-.4,4.89-2.42,5.14-4.37.1-.77-.04-1.38-.85-1.59-1.03-.26-.82.55-.87,1.11-.11,1.49-1,2.19-2.36,2.61-1.66.52-3.33.87-5.07.89-1.61.02-3.2.2-4.71.93,2.9.8,5.81.86,8.72.41Z" style="fill: #333120;"/>
    <path d="M269.94,73.56c-.01.36-.03.72-.04,1.08,2.23.2,4.42-.15,6.62-.44,2.81-.36,4.65-2.19,6.21-4.35.43-.59.4-1.25-.39-1.68-.87-.47-1.15.18-1.23.74-.23,1.73-1.53,2.26-2.88,2.78-2.67,1.02-5.49,1.42-8.29,1.86Z" style="fill: #333120;"/>
    <path d="M278.12,67.53c1.76-1.34,1.87-2.17,1.19-4.35-2.8,5.43-7.87,5.42-13.28,5.66,5.25,2.73,9.17.93,12.1-1.31Z" style="fill: #333120;"/>
    <path d="M262.95,102.34c1.82-.49,2.64-1.82,3.1-3.49.14-.49-.1-.88-.58-1.06-.31-.11-.48.04-.68.34-1.94,2.94-2.92,3.3-6.13,2.54-1.51-.36-3.06-.55-5.2-.92,3.07,2.79,6.07,3.51,9.5,2.58Z" style="fill: #333120;"/>
    <path d="M166.3,210.82s-.03,0-.04,0c0,.01,0,.02,0,.03l.03-.03Z" style="fill: #333120;"/>
    <path d="M165.13,208.86c-.13-.02-.42.23-.46.4-.15.67.2,1.14.76,1.43.24.12.55.1.83.13-.06-.28-.08-.57-.21-.81-.23-.44-.31-1.04-.92-1.14Z" style="fill: #333120;"/>
    <path d="M166.46,211.04s-.1-.1-.15-.15c0,.04.01.07.03.1.02.03.08.03.12.05Z" style="fill: #333120;"/>
    <path d="M166.3,210.82s-.03.03-.03.03c.01.01.03.03.04.04,0-.02,0-.05-.01-.07Z" style="fill: #333120;"/>
  </g>
</svg>