<?xml version="1.0" encoding="UTF-8"?>
<svg id="Camada_1" data-name="Camada 1" xmlns="http://www.w3.org/2000/svg" viewBox="0 0 1753.62 321.66">
  <g>
    <path d="M509.6,37.13h-96.02v3.71s6.1.37,18.31,8.16c12.21,7.79,9.76,40.8,9.76,81.59s2.44,95.31-3.25,107.55c-7.11,15.29-24.82,13.72-24.82,13.72v4.45h106.19c37.84,0,112.7-37.46,112.7-113.49s-89.1-105.7-122.87-105.7ZM523.02,247.48c-40.28,8.16-53.65,6.39-55.74-12.61-.41-3.71,0-13.72,0-22.25V70.94c0-24.85,4.07-33.75,45.57-27.81,41.5,5.93,93.98,40.89,93.98,101.25s-43.53,94.94-83.81,103.1Z" style="fill: #f4f3e9;"/>
    <path d="M1725.7,224.47c-7.41-19.47-70.92-187.2-70.92-187.2h-50.41l.28,3.34s7.74.42,10.82,2.99c3.56,2.97,9.47,9.25,6.55,19.26-3.8,13.05-58.96,162.44-66.65,176.35-7.69,13.91-23.93,11.68-23.93,11.68v5.28h56.11v-4.17s-2.62-.66-6.17-1.85c-.08-.03-5.93-2.24-8.5-6.91-2.59-4.71-.43-12.52,4.41-16.55s46.28-45.76,58.53-56.88c12.25-11.13,16.95-17.25,23.93-17.8,6.98-.56,9.88,6.24,9.88,6.24h0c5.01,13.04,9.22,24.03,11.63,30.34,9.97,26.15,18.51,40.61,13.1,51.18-5.41,10.57-19.08,11.68-19.08,11.68v4.73h78.33v-5.28c-13.1,0-20.51-6.95-27.91-26.42ZM1653.07,145.89c-4.56,5.7-68.5,67.45-72.77,70.23-4.27,2.78-10.3-1.4-7.83-8.05.07-.19.14-.39.22-.58l1.13-3.01c19.33-51.63,56.47-148.57,56.47-148.57,0,0,14.49,37.65,28.34,73.67h0c.72,5.25-1,10.61-5.56,16.31Z" style="fill: #f4f3e9;"/>
    <path d="M799.54,33.79c-64.5,0-116.78,50.56-116.78,112.93s52.28,112.93,116.78,112.93,116.78-50.56,116.78-112.93-52.28-112.93-116.78-112.93ZM800.11,254.83c-66.46,0-88.49-57.86-88.49-108.66,0-54.52,26.96-107.18,90.01-107.18s86.97,65.64,86.97,107.18-22.03,108.66-88.49,108.66Z" style="fill: #f4f3e9;"/>
    <path d="M1464.46,48.95c6.84-8.07,18.51-6.68,18.51-6.68v-5.01h-75.19v4.45s9.76.9,16.59,5.35c6.84,4.45,9.33,14.39,9.33,27.47v51.92c0,9.74-8.73,17.25-14.53,18.15-5.79.91-35.32.58-51.27.58s-47.76.09-54.69-1.11c-6.93-1.21-11.11-11.4-11.11-16.97v-44.78c0-20.3,0-25.31,6.84-33.38,6.84-8.07,18.51-6.68,18.51-6.68v-5.01h-75.19v4.45s9.76.9,16.59,5.35c6.84,4.45,9.33,14.39,9.33,27.47v128.51c0,25.59.28,33.38-5.13,40.61-5.41,7.23-20.79,9.18-20.79,9.18v3.34h75.19v-3.62s-10.89-1.11-17.73-6.4c-6.84-5.28-7.62-14.74-7.62-31.99v-46.73c0-8.72,9.02-18.27,17.37-18.27s86.78-.65,98.74,0c11.96.65,15.48,14.74,15.48,14.74v39.13c0,25.59.28,33.38-5.13,40.61-5.41,7.23-20.79,9.18-20.79,9.18v3.34h75.19v-3.62s-10.89-1.11-17.73-6.4c-6.84-5.28-7.62-14.74-7.62-31.99V82.33c0-20.3,0-25.31,6.84-33.38Z" style="fill: #f4f3e9;"/>
    <path d="M1196.23,35.55v4.66s-15.1.9-21.37,9.06c-6.27,8.16-5.88,10.94-5.88,24.66v87.52c0,22.07-6.08,55.26-28.04,72.5-21.96,17.25-40.19,24.11-63.14,23.92-22.94-.19-54.69-5.68-75.29-39.87-10.39-17.25-10.39-25.03-10.39-51.55v-100.32c0-15.02-13.14-27.44-26.67-26.52v-4.08h57.45v3.89s-12.35.19-18.63,6.49-6.86,11.13-6.86,18.91v107c0,19.29,14.9,63.23,68.23,63.23s68.63-27.31,75.1-44.5c3.14-8.34,2.94-27.26,2.94-42.28V63.55c0-13.17-7.25-21.88-25.29-23.92v-4.08h77.84Z" style="fill: #f4f3e9;"/>
  </g>
  <g>
    <path d="M26.04,96.59s.02.01.03.02c0-.02,0-.03,0-.04l-.03.03Z" style="fill: #f4f3e9;"/>
    <path d="M328.27,84.14s-.02.06-.02.09c.02,0,.05,0,.07,0,0,0-.05-.08-.05-.08Z" style="fill: #f4f3e9;"/>
    <path d="M320.32,104.7c-.31.52-.72.99-1.02,1.52-.31.55-.52,1.28,0,1.69.57.44,1.13-.05,1.54-.54.15-.18.25-.38.39-.57,4.41-5.93,6.37-12.44,4.82-19.83-.1-.46-.48-1.15.08-1.49.66-.4,1.13.27,1.55.65,1.82,1.67,2.27,3.9,2.48,6.22.47,5.12-1.53,9.57-3.74,13.97-.34.68-1.19,1.56-.1,2.1,1.09.54,1.28-.67,1.68-1.35,2.21-3.84,3.65-7.94,4.12-12.66,2.17,1.96,2.33,4.19,2.25,6.5-.32,8.72-3.5,16.34-8.84,23.14-.6.76-1.38,1.43-1.14,2.89,7.22-6.3,10.88-14.14,11.87-23.4,1.77,2.97,1.66,5.9.21,8.77-1.3,2.56-2.76,5.05-4.15,7.57.09.55-.02,1.18.61,1.52,2.34-2.47,4.18-5.24,5.18-8.53.21-.7.27-1.63,1.33-1.58,1.15.05,1.17.97,1.3,1.82.84,5.61-.87,10.5-4.47,14.7-3.43,4-6.84,8.04-11.16,11.18-.85.62-1.77,1.42-2.17,2.54.25.01.51.03.76.04,8.04-5.19,15.43-10.94,18.12-20.81.18-.65.05-1.95,1.4-1.62,1.07.26,1.68,1,1.64,2.17-.08,2.34-.73,4.5-2.24,6.32-3.51,4.22-6.5,8.92-11.16,12.08-.44.3-.67.72-.41,1.14.29.48.82.3,1.22.08.47-.25.91-.56,1.35-.86,3.86-2.6,6.96-5.96,9.7-9.68.44-.6.96-1.45,1.82-1.03.83.41.93,1.36.71,2.23-.14.59-.35,1.16-.6,1.72-1.86,4.19-5.35,6.76-9.1,9.04-2.43,1.48-4.91,2.88-7.36,4.32l.31.52c6.34-1.42,10.95-5.76,15.88-9.66-1.1,7.46-8.17,8.19-13.49,11.5,4.54-.12,7.82-2.53,11.77-4.2-.77,2.38-2.22,3.66-3.84,4.78-3.25,2.25-7.03,3.19-10.74,4.31-.79.24-1.36,0-1.31-.99.03-.53.04-1.07.01-1.61-.04-.81-.59-1.38-1.28-1.35-.92.04-.61.96-.54,1.46.33,2.33.05,4.67-.32,6.92-.6,3.67-3.91,5.64-5.94,8.41.11.03.25.1.4.11.23,0,.49.05.68-.05,3.46-1.86,6.4-4.16,7-8.39.1-.69.17-1.35.5-1.98.78-1.49,2.24-2.04,3.64-1.73,1.39.3,1.1,1.78,1.01,2.93-.3,4.05-2.08,7.45-4.59,10.55-1.58,1.95-3.14,3.91-4.72,5.86.18.11.35.23.53.34,5.35-4.8,10.16-9.94,10.01-17.9-.03-1.76.44-3.06,2.08-3.66,2.89-1.07,5.48-2.66,8.04-4.34.46-.3.89-.61,1.44-.21.78-2.82.26-5.96,2.32-8.48.68-.83.78-2.2-.06-2.99-1.28-1.22-.68-2.23-.14-3.43.85-1.91,1.22-3.95-.63-5.43-1.09-.87-.87-1.5-.42-2.47,1.09-2.34,1.26-4.68-.21-6.95-.73-.36-1.5-.67-2.17-1.11-1.09-.71-1.6-1.59-.36-2.65-.63-.4-.54-1.06-.6-1.67-.92-.69-1.27-1.76-1.8-2.72-.98-.8-1.07-1.85-1.13-3.05-.09-1.77.23-3.91-1.29-5.11-2.26-1.79-2.72-4.05-2.67-6.63-1.43-.56-1.66-1.97-2.26-3.13-1.37-.84-2.11-2.1-2.48-3.63-.42-1.73-1.21-3.25-2.71-4.31-.19-.06-.52.03-.43-.31-1.21.11-2.22-.19-2.8-1.39-2.24-1.13-2.47-3.6-3.62-5.45-.96-.3-1.54-2.22-2.55-1.28-1.1,1.03.55,1.94,1.1,2.76,5.74,8.65,5.1,17.24-.06,25.84Z" style="fill: #f4f3e9;"/>
    <path d="M335.62,218.88c-.32,1.46-1.41,2.26-2.78,2.77-8.05,2.94-15.5,1.12-22.76-2.72-2.03-1.07-1.82-3.52-3.44-4.76-.14-.01-.27-.02-.41-.04-.28.05-.55.09-.83.14.27,1.19,1.83,1.85,1.37,3.34.66,2.33.04,4.33-1.97,5.76-.98.7-1.63,1.41-1.36,2.63-.78-.7-1.12.33-1.61.59-.94.5-1.61,1.55-2.88,1.41-1.85,2.8-5.27,2.4-7.85,3.76,1.3.12,2.52-.66,3.77-.06,3.15-1.44,6.74-2.18,8.64-5.55.78.21,1.22-.28,1.66-.82.34-.42.85-.86,1.34-.42.54.49-.04.89-.35,1.32-2.96,4.04-7.13,6.09-11.83,7.31-.06.56-.69.42-.92.78,3.88.66,6.89-1.21,9.69-3.48,1.08-.88,1.58-.66,2.29.42,1.51,2.28,1.22,3.7-.83,5.6-3.4,3.16-7.34,4.8-11.96,4.88-1.43.02-2.63,1.1-4.13.91-.81-.1-1.67.12-2.37-.49-.73.39-1.77-.33-2.32.67,1.19.11,2.23.72,3.49.77,4.99.22,9.72-.67,14.18-2.91.7-.35,1.23-.53,1.82.08.66.69.1,1.22-.21,1.8-.97,1.79-2.71,2.57-4.44,3.32-3.33,1.45-6.87,1.89-10.48,2.03,2.41,1.11,4.83,1.09,7.3.33,1.28-.39,2.58-.88,3.97-.58,1.13-.78,2.27-1.54,3.37-2.36,1.32-.98,2.7-2.2,2.34-3.93-.38-1.78.03-2.89,1.41-3.91.46-.34.86-.94,1-1.5.44-1.78,1.26-1.46,2.42-.67,2.1,1.43,4.48,1.78,6.98,1.7.95-.03,1.61-.23,1.96-1.17.14-.37.36-.78.1-1.08-.71-.8-1.46-.04-2.1.16-1,.31-1.89.58-2.8-.11-3.42.67-5.14-2.2-7.53-3.65-.38-.23-.3-.61-.02-.97.46-.59.86-.3,1.36-.04,1.88,1,3.77,1.95,5.66,2.92,1.29-.25,2.58,0,3.87.03,1.95.03,4.01.27,5.45-1.55-.22-.94-.22-.92-1.56-.53-3.97,1.15-7.83.89-11.36-1.33-1.02-.64-2.65-1.18-1.97-3.19.45-1.35.82-1.62,2.14-.91,5.25,2.82,10.84,3.89,16.77,2.85,1.41-.31,2.89-.54,2.79-2.52-6.86,2.77-13.32,1.79-19.45-2.1-2.25-1.43-2.52-2.32-1.34-4.65,6,5.4,13.22,6.2,20.82,5.5,1.05-.82,2.4-.77,3.59-1.22,3.23-1.25,3.84-2.13,3.73-5.57-.84-.2-1.2.08-1.4.98Z" style="fill: #f4f3e9;"/>
    <path d="M289.77,251.04c-3.8.14-7.6.34-11.42.03,1.05.75,2.17,1.12,3.38,1.3,3.27.47,6.54.45,9.81,0,.83-.12,1.55-.14,1.79.86.22.93-.33,1.43-1.1,1.75-.42.17-.87.28-1.32.38-6.08,1.42-12.12,1.07-18.13-.49-1.65-.43-3.31-.83-5.13-1.29.45,1.31,1.34,1.63,2.3,1.95,3.94,1.28,7.96,2.03,12.13,1.8.49-.03,1.11-.08,1.2.71.08.73-.45.93-.95,1.08-5.8,1.75-11.28.95-16.67-1.76-1.88-.95-3.42-2.39-5.35-3.2-1.49-.25-1.79-1.56-2.33-2.64-.16-.18-.31-.37-.47-.55-1.79.33-2.37-1.49-3.64-2.16-.47,1.04.44,1.71.49,2.56,2.31,1.87,4.16,4.22,6.8,5.82,5.57,3.36,11.5,4.7,17.91,4.26,1.74-.12,3.35-1.11,5.16-.8-.16-1.6.86-2.39,2.15-2.75,1.24-.34,2.55-.4,3.84-.56,1.79-.23,3.61-.56,4.25-2.53.61-1.88,1.84-2.88,3.62-3.45,1.6-.52,2.25-1.52,1.33-3.14-2.75,2.5-6.19,2.72-9.64,2.85Z" style="fill: #f4f3e9;"/>
    <path d="M253.79,268.72c-1.45-.67-2.99-1.19-4.32-2.06-3.31-2.16-6.52-4.5-8.03-8.38-.17-.43.19-1.08-.71-.97-.84.1-.64.74-.61,1.22.09,1.62,1.14,2.76,1.97,4.05,1.65,2.57,4.19,4.25,6.61,6.36-1.88.78-3.02-.09-4.13-.81-3.22-2.08-5.66-4.85-7.12-8.43-.28-.67-.34-1.56-1.3-1.67-.33-.04-.61.3-.52.6.25.8-.85,1.33,0,2.45,2.02,2.65,3.53,5.69,6.31,7.73.3.22.57.58.36.99-.21.41-.62.32-1,.25-2.35-.44-6.57-4.45-6.74-6.94-.19-2.73-1.22-2.09-2.75-1.09.74,1,1.89,1.74,1.47,3.17,1.22,2.23,2.66,4.38,4.93,5.55,2.47,1.27,4.84,4.17,8.05,1.29.13-.12.45-.06.67-.06,4.5.12,9.01-.3,13.48.55,0-.76-.02-1.52-.02-2.28-2.33.08-4.42-.9-6.6-1.5ZM244.46,271.46c-.68-.17-1.38-.39-1.5-1.2-.08-.54.41-.57.78-.48.67.16,1.32.4,1.52,1.19-.04.53-.38.6-.8.49Z" style="fill: #f4f3e9;"/>
    <path d="M211.96,267.98c-3.59-.51-6.1-3.1-9.18-4.56,1,3.53,4.55,4.06,7.14,6.49-4.08-.13-7.41-.81-10.46-2.76-2.59-1.65-5.01-3.48-7.1-5.74-.35-.38-.85-1.11-1.49-.43-.73.78.23,1.08.61,1.37,3.14,2.49,5.51,5.99,9.55,7.31.35.11.72.28.5.87-5.11-.33-9.09-2.83-12.45-6.62.39,2.42,1.8,4.02,3.58,5.37,2.37,1.79,5.24,2.51,7.9,3.67,7.01-.32,13.9-1.44,20.75-2.92.59-.13,1.44-.22,1.36-1.22-3.6.11-7.14-.34-10.71-.84Z" style="fill: #f4f3e9;"/>
    <path d="M143.65,315.36c-.43-.56-1.02-.87-1.56-.48-.63.45-.24,1.05.12,1.6.68,1.03,1.82,1.78,2.1,3.2-3.82.42-6.15-1.67-8.21-4.29-.49-.62-.86-1.87-1.78-1.43-.94.45.04,1.48.03,2.26,0,.1-.18.21-.29.33-.96-.08-1.42-.76-1.86-1.5-1.19-2.02-1.77-4.2-1.82-6.55-.01-.67.54-1.7-.55-1.93-1.24-.26-1.46.87-1.73,1.72-.77,2.41.33,4.44,1.36,6.48,1.07.39,1.16,1.59,1.83,2.3.84.29,1.12,1.48,2.25,1.33,1.93-.25,3.41.64,4.84,1.82,1.27,1.05,2.98,2.04,4.37.98,1.98-1.5,3.6-.89,5.55-.25,1.24.41,3.04.87,3.13-1.54-1.7-.07-3.39-.13-4.9-1.12-1.18-.77-2.04-1.84-2.87-2.93Z" style="fill: #f4f3e9;"/>
    <path d="M347.77,180.8c-4.68,7.08-10.32,13.19-18.06,17.1-2.24,1.13-4.33,2.59-6.81,4.09.71.14.93.22,1.15.21.98-.03,1.59-.84,2.43-1.19,8.71-3.73,15.66-9.65,21.35-17.17.9-1.19,1.02-2.92,2.54-3.68.57-2.53,1.16-5.06,1.69-7.6.33-1.58-.06-2.76-1.95-2.87.51,3.97-.14,7.79-2.33,11.1Z" style="fill: #f4f3e9;"/>
    <path d="M186.76,269.09c2.02,1.57,1.27,2.3-.64,3.32-4.47,2.39-7.44,6.26-9.59,10.77-.53,1.11-.86,2.28,1.12,2.19.36-.66.77-1.31,1.08-2,1.59-3.52,4.42-5.96,7.39-8.22,3.41-2.6,7.07-2.12,10.85-.8.96.34,2.57.58,2.72-1.36-5.3-.04-9.48-2.67-13.39-5.88-.68.91-.13,1.5.47,1.97Z" style="fill: #f4f3e9;"/>
    <path d="M345.46,202.37c-6.83,4.91-14.22,8.16-22.86,7.77-.66-.03-1.33.07-1.99.12.02.21.04.42.06.63,4.76.13,9.54,1.06,14.28-.61,4.19-1.48,7.86-3.94,11.68-6.13.97-.96,2.03-1.85,2.88-2.9,1.49-1.84,2.92-3.76,1.78-6.36-1.71,2.67-3.15,5.56-5.83,7.48Z" style="fill: #f4f3e9;"/>
    <path d="M352.76,183.75c-.1-.49-.32-.87-.91-.77-.76.13-.67.73-.62,1.25.38,3.78-1.58,6.26-4.36,8.5-6.08,4.9-13.13,7.85-20.37,10.45.01.24.03.49.04.73,2.82-.22,5.5-.95,8.13-1.99,5.15-2.03,9.49-5.35,13.96-8.48.69-.48,1.22-1.18,2.19-.81-.3-1.11.63-1.77,1.01-2.62.89-2.02,1.75-4.01.93-6.27Z" style="fill: #f4f3e9;"/>
    <path d="M346.17,208.19s.05-.05.05-.05c-.02,0-.04.02-.06.03,0,0,0,.01,0,.02Z" style="fill: #f4f3e9;"/>
    <path d="M344.26,207.81c-2.95,4.42-7.29,6.78-12.24,8.24-3.45,1.02-6.94,1.17-10.58.37.26,1.1.87,1.28,1.56,1.48,1.79.5,3.59.58,5.44.54,3.34-.08,6.31-1.62,9.5-2.26,2.65-2.22,5.52-4.21,7.59-7.06.14-.37.21-.78.62-.95-.32-1.64-.99-1.72-1.9-.36Z" style="fill: #f4f3e9;"/>
    <path d="M268.91,267.48c-2.49.52-4.96.61-7.47.17-5.7-1.02-9.17-5.28-13.1-8.89-.46-.34-.93-.67-1.39-1.01-.59.33-.29.71-.08,1.11,1.39,2.68,3.42,4.76,5.93,6.38.9.58,1.79,1.11,2.21,2.16,1.93,1.31,4.4,1.32,6.32,2.66.28.06.56.12.84.19.42-1.01,1.31-.54,1.99-.56,1.98-.04,3.96-.06,5.91-.4.13-.16.25-.32.38-.48,0,0-.04.04-.04.04.68-1.75-.52-1.56-1.5-1.36Z" style="fill: #f4f3e9;"/>
    <path d="M279.22,264.05c-1.3.74-2.7,1.01-4.17,1.09-5.45.27-10.61-.73-15.5-3.22-1.23-.62-2.47-1.78-4.32-.92,2.42,2.26,4.95,3.86,7.95,4.68,3.72,1.01,7.52,1.25,11.34,1.37,1.43-.17,2.86-.34,4.29-.52.14-.7.82-.84,1.26-1.23.47-.42,1.02-.82.49-1.5-.54-.69-.93.03-1.33.26Z" style="fill: #f4f3e9;"/>
    <path d="M330.13,184.75c.66-.37,1.43-.62,1.96-1.13,5.93-5.73,10.41-12.37,12.62-20.4.04-.45.07-.89.11-1.34-.25-1.6.46-3.53-1.72-4.64,0,.86,0,1.58,0,2.3-.02,1.66.3,3.38-.32,4.96-1.65,4.27-3.72,8.32-6.29,12.13-2.07,3.07-4.95,5.36-7.31,8.13.32,0,.64,0,.96-.01Z" style="fill: #f4f3e9;"/>
    <path d="M317.29,82.18c.03,2.77,0,5.53,0,8.3,1.29-1.93,1.74-4.01,1.83-6.23.12-3.18-.92-6.16-1.35-9.25-1.13-1.32-2.15-2.76-3.44-3.91-.92-.82-2.15-1.88-3.44-.32,4.35,2.56,6.34,6.45,6.39,11.41Z" style="fill: #f4f3e9;"/>
    <path d="M299.5,67.55c3.51,2.83,4.85,6.66,5.15,11.04.19,2.7.12,5.41.11,8.16.99-.18,1.42-.57,1.48-1.4.13-1.75.35-3.47.24-5.25-.25-4.26-1.95-8.09-3.41-11.99l-2.47-2.01c-.52.35-1.06.47-1.65.2.04.46.08.87.54,1.24Z" style="fill: #f4f3e9;"/>
    <path d="M298.89,66.28s.04.02.07.03c0-.04,0-.07,0-.11,0,0-.02.03-.04.06l.04-.06s-.04,0-.06,0c0,.03,0,.05,0,.08h0Z" style="fill: #f4f3e9;"/>
    <path d="M169.74,308.71c-.67.94-1.43,1.73-2.63,1.97-1.6.31-2.99-.09-4.22-1.14-.45-.38-.99-1.02-1.56-.65-.61.39-.17,1.06.03,1.63.98,2.9,1.46,3.21,4.88,3.04.75-.07,1.54-.01,2.24-.23,1.73-.55,2.82-1.87,3.11-3.58.23-1.39-1.23-.64-1.84-1.04Z" style="fill: #f4f3e9;"/>
    <path d="M165.17,315.17c-2.95,1.61-3.11,1.59-5.16-1.1-.83-1.09-1.67-2.14-2.94-3.02-.95,3.1.77,5.05,2.65,6.94,1.75,1.06,3.53,1.04,5.36.19.69-.32,1.44-.57,1.5-1.49.06-.97-.71-1.23-1.41-1.52Z" style="fill: #f4f3e9;"/>
    <path d="M174.09,288.52c-.58,1.66-1.63,2.72-3.23,3.25-.71.23-1.4.42-1.12,1.33.27.89.95,1,1.83.76,1.08-.3,2.12-.91,3.31-.65,2.09-1.5,2.36-3.69,2.3-6.01-1.69-1.12-2.61-.06-3.09,1.32Z" style="fill: #f4f3e9;"/>
    <path d="M180.47,180.1c-4.96.9-10.04,1.25-14.87,3.25-5.57,2.3-11.25,3.66-17,5.57-2.06.69-4.08,1.51-6.11,2.3-1.47.57-1.58.51-1.59-.47.12-1.62.19-2.76.29-3.9.06-.65.36-1.29.97-1.46,2.81-.77,5.37-2.96,7.84-4.41,3.37-1.98,6.65-4.15,9.96-6.23,4.53-2.83,9.07-5.67,13.8-8.17s9.05-4.92,13.98-6.29c-.21,1.21-.96,1.59-1.41,2.18-1.77,2.3-1.86,4.11-.3,6.5,1.5,2.28,6.52,3.48,8.9,2.12.54-.31,1.08-.69,1.03-1.38-.05-.72-.7-.98-1.27-1.16-1.7-.53-2.76-1.41-2.58-3.42.29-3.27,3.19-5.29,3.89-8.36.04-.19.51-.29.79-.41,1.82-.75,3.64-1.48,5.47-2.23,1.01,4.66,4.94,7.03,10.12,6.13,2.95-.51,5.67-1.75,8.5-2.63,3.88-1.21,5.99-4.01,7.26-7.65.91-2.6.98-5.31.44-7.93-.95-4.56-1.89-9.1-6.98-11.3-6.92-2.98-13.12-1.8-18.91,2.58-2.79,2.11-3.68,5.86-2.54,9.09.44,1.25,1.19,1.85,2.51,1.93,3.78.24,7.01-.5,8.73-4.37.24-.55.65-1.04,1.03-1.51,1.51-1.83,3.61-2.43,5.51-1.62,2.08.9,3.35,3.1,3.05,5.38-.31,2.4-1.67,4.08-3.78,5.13-1.44.72-3.03.97-4.63,1.13-2.65.27-5.58.15-7.59,2.08-2.18,2.09-4.84,2.65-7.48,3.54-1.25.42-1.85.43-1.94-1.04-.14-2.15-1.71-1.96-3.18-1.85-1.85.15-1.36,1.53-1.24,2.59.18,1.67-.3,2.52-2.07,3.12-9.56,3.27-19.04,6.8-28.34,10.76-6.12,2.61-11.88,5.93-17.55,9.38-.74,1-1.93,1.23-2.96,1.75-2.07,1.61-2.14,1.58-3.54-1.37-.62-.29-1.17-.64-1.3-1.39-.39-.31-.78-.62-1.17-.94-.54.12-.82-.07-.8-.64-1.19-1.24-2.94-1.51-4.37-1.58-2.42-.11-3.72-1.2-4.74-3.17-.73-1.4-1.54-3.15-2.95-3.61-2.33-.77-4.37-2.03-6.56-3.01q-1.33.32-2.57-.53c-.67,1.74-7.25,3.6-10.33,2.92-.04,1.58-1.36,1.39-2.33,1.7-.18.4-.37,1.14-.55,1.14-2.53-.06-2.95,2.2-4.13,3.63-.27,1.54-.94,2.14-1.73,1.38-.76-.73-1.01-.12-1.48.05,1.43.88-1.28,1.7,0,2.7,1.83,1.44,4.14.87,4.89-1.4,1.08-3.31,3.34-5.39,6.56-6.52,3.35-1.18,6.84-1.63,10.34-1.74,3.48-.11,6.32,1.41,8.66,3.99,1.31,1.44,1,2.18-.77,2.64-3.12.81-5.32,2.86-7.2,5.36-.75.99-1.44,2.41-.56,3.07,1,.74,1.91-.54,2.56-1.51,1.83-2.71,4.34-4.45,7.57-5.12,3.9-.8,7.21.84,10.31,2.77,1.92,1.19,2,2.99.67,4.37-1.79,1.86-3.64,3.67-5.48,5.48-.53.52-.83.88-1.95.57-1.78-.49-3.82-.01-5.23,2.4,1.46-.35,2.49-.55,3.48-.85,1.52-.46,2.58-.54,2.21,1.65-.24,1.45.51,2.22,2.06,2.34,1.79.14,3-.78,4.2-1.87,1.67-1.51,3.13-3.29,5.42-4.24.15,2.28.77,4.52-1.64,5.8-2.01,1.07-4.05,2.13-6.17,2.96-5.34,2.09-10.36,4.69-14.95,8.16-1.08.82-2.17,2.43-3.65,1.84-1.76-.69-3.26.25-4.87.13-.4-.03-.79.09-.7.62.06.36.4.41.7.4,1.07-.03,2.14-.05,3.21-.12.69-.04,1.27.14,1.42.83.19.89-.53,1.33-1.21,1.35-1.49.05-3.27.82-4.18-1.14-.26-.55-.37-.52-.94-.39-1.6.35-3.24.47-4.87.69-.71.09-1.97-.04-1.8.79.21,1.03-.47,2.59.9,3.1,1.95.74,4.03,1.64,5.98-.13-.92-.13-1.81-.33-2.53-.99-.53-.34-1.13-.28-2.02.11,1.98-2.61,3.62-2.84,4.88-1.04.25.16.51.32.76.47,2.4-.54,4.82-1.05,7.11.33.67.4,1.02.46,1.7-.11,2.13-1.79,4.45-3.33,7.06-4.4.75,3.08,1.48,3.49,4.45,2.38,2.62-.98,5.21-2.04,7.82-3.03.7-.26,1.7-.62,2.07.2.69,1.52-.54,2.71-1.06,4.02-.43,1.09-1.25.67-1.91.49-1.41-.39-3.03-1.05-4.2-.24-1.69,1.16-3.47,1.21-5.21,1.07-2.59-.21-4.16,1.35-5.78,2.81-.85.77-.84,2.06-.08,2.91,1.09,1.21,1.2-.37,1.74-.79.72-.55,1.19-1.59,2.38-1.27-.11-1.69,1.25-2.79,3.61-2.64,1.61.1,3.04-.39,4.51-.84,1.35-1.35,2.07-.12,3.17.79-1,.18-1.76.31-2.52.44-1.28,1.33-2.37,2.86-4.71,1.81-1.01-.45-2.02.42-2.32,1.59-.26.99-.82.54-1.34.39-1.22.03-1.35,1.54-2.7,1.67,3.84,1.83,6.02-2.03,9.28-2.38-.47,1.87-1.68,2.66-2.87,3.48-4.74,3.28-9.83,5.32-15.65,6.18-7.86,1.16-15.72,1.75-23.63,2.18-8.42.45-15.23-3.53-22.01-7.65-.16-.1-.2-.4-.3-.6-.81-.09-1.66-.1-1.79-1.2-2.86-.47-2.63-3.34-4.06-4.94.77-.48,1.3-.04,1.86.08-.02-.29-.04-.58-.06-.87-2.2-.5-2.77-1.64-1.88-3.78-.41-.7-.02-1.4-.01-2.1-1.47-.98-1.92-2.28-1.29-3.96.77-2.06,2.7-2.86,4.36-3.87.8-.49.88.43.81,1.07,0,.2-.07.54,0,.58.29.14.27-.16.33-.33.98-.8.58-2.54,1.71-3.04,3.39-1.49,4.85-5.13,8.5-6.68,4.34-1.84,7.59-5.72,10.44-9.66,3.55-4.89,2.51-9.19-3.11-12.26.01.93.13,2.12-.95,2.25-2.31.26-4.13,1.78-6.34,2.24-4.62.95-9.22,2.08-13.86,2.91-6.41,1.14-12.76.8-18.91-1.53-1.07-.4-1.89-1.07-1.96-2.44-.19-3.9,1.63-7.13,3.24-10.45.32-.67,1.64.18,1.41-.98-.3-1.51.76-2.16,1.62-3.01,2.95-2.88,6.52-4.87,9.99-7.01,1.18-.73,1.88-.72,2.57.77,1.07,2.32,2.81,3.09,4.57,2.37.71-.29,1.51-.75,1.44-1.6-.1-1.1-1.01-.81-1.78-.76-1.21.08-2.63-.04-2.12-1.73.67-2.24.97-4.56,1.97-6.75,2.03-4.47,5.57-7.87,7.97-12.05,1.72-.8,2.76-2.44,4.19-3.49,2.93-2.15,6.27-3.68,10.15-2.49.5.15.79.29.87.84.6,3.88,3.34,6.11,6.35,8.13,1.22.46,1.82,1.51,2.43,2.56.31.03.61.05.92.08.54-.14,1.09-.29,1.63-.43,1.28-.17,2.61-.79,3.77.34-1.18.55-2.41.9-3.74.85-.36.08-.94.04-1.06.26-1.46,2.53-3.33,4.56-6.78,5.43,2.71,1.09,5.04.15,5.77-1.26,1.45-2.84,3.86-3.01,6.29-3.57.07-.62-.75-1-.45-1.68,1.66.09,3.25-.77,4.94-.34.8.2.77-.44.88-.98.38-1.79,1.53-1.83,2.64-.83.95.86,2.39,1.47,2.27,3.17-.05.76.6.94,1.19,1.18,1.81.72,3.25,1.96,4.55,3.38,3.06.49,6.12.98,9.77,1.56-2.37,1.12-4.32,1.73-5.59,3.4.19.53-.35,1.83,1.14.93,1.91-1.15,2.85-.69,3.52,1.52.59,1.97,2.46,2.97,4.76,2.33-1.39-1.01-2.58-2.03-.34-3.28.62-.35-.03-1-.37-.83-2.16,1.1-3.11-1.05-5.2-1.68,2.54-.75,3.81-2.71,6.07-3.15,2.48-.49,3.08.03,2.7,2.52-.29,1.94-1.28,4.5-.42,5.71,1.28,1.81,2.08,3.91,3.54,5.64,2.59,3.07,5.99,4.5,9.56,5.74,1.44.5,2.89,1.62,4.61.29.54-.42,1.63-.16,2.47-.17.56,0,1.12.08,1.04.85-.09.8-.78.77-1.22.6-1.5-.58-2.63.27-3.83.86-1.64.8-3.34.71-5.01.23-.14-.04-3.04.14-.63-1.49.7-.47-.19-.94-.55-1.16-.61-.38-1.08-.04-1.06.64.08,2.85-1.54,1.8-3.02,1.44-1.42-.34-2.77-1.34-4.36-.67.27.13.54.29.82.4,8.09,3.28,15.84,2.91,23.2-2.11,1.91-1.3,3.38-3.05,5.12-4.53,2.85-2.43,4.75-5.47,5.53-9.16-.52-.19-1.33.24-1.51-.63-.14-.65.02-1.23.84-1.33.5-.06.7-.25.31-.68-1.61-1.75-.66-3.36.34-4.87.54-.82.51-.96-.45-1.35-1.9-.76-2.64-2.51-2.93-4.42-.15-.95.39-1.79,1.29-1.8,1.63-.02,3.12-.18,4.41-1.31.33-.29.88-.13,1.13.39.18-.14.37-.27.53-.43,2.17-2.01,2.54-2.01,4.33.23.27.34.51.63.91.46,1.15-.47,1.43-1.7,2.1-2.58.41-.53-.26-.87-.71-1.18-2.39-1.65-2.4-1.68-.44-3.92.88-1,1.75-1.96,1.31-3.44-.34-1.15-.79-1.64-1.81-.49-1.42,1.6-2.83,3.19-3.98,5.02-1.28,2.04-3.1,3.37-5.31,4.49-3.6,1.83-7.38,1.11-11.05,1.27-6.4.29-12.32,1.84-17.8,5.12-7.12,4.27-14.62,5.64-22.47,2.49-4.12-1.65-7.15-4.96-8.3-9.15-.51-1.85-.75-4.18-.44-6.43.58-4.25,2.19-7.76,5.45-10.5,2.16-1.82,4.34-3.62,7.17-4.36,1.4-.37,2.09-1.51,2.59-2.72.43-1.05-.26-1.74-1.06-2.28-.6-.4-1.31-.62-1.92-.12-1,.83.03,1.29.46,1.82.69.84-.09.92-.55,1.29-1.41,1.13-3.33.97-4.79,2.07-6.4,4.8-10.01,10.93-9.35,19.15.18,2.28-.91,3.74-2.85,4.77-3.58,1.89-10.71.69-13.97-2.31-5.78-5.32-4.51-12.06-.35-17.01,2.4-2.85,5.16-5.41,8.04-7.84,4.36-3.68,8.85-7.19,12.41-11.79,4.83-6.24,8.55-13.27,14.02-19.07,2.55-2.7,5.27-5.07,8.39-7,2.82-1.74,5.86-3.14,8.6-5,1.57-1.07,1.9-.75,2.3.85,1.24,4.86,5.61,6.74,10.01,6.64,1.22-.03,2.8-.39,3.96-1.47-.85-.74-1.71-.89-2.24-.29-1.27,1.44-2.13.4-3.05-.33-.4-.32-.58-1.01-1.22-.9-2.39.41-2.16-1.39-2.43-2.8-.37-1.95,1.02-3.34,1.87-4.73.55-.9,1.77.61,2.81.72.79.08,1.52.7,2.32.89.54.13,1.22.09,1.51-.66.19-.5.09-.8-.32-1.17-2.83-2.64-2.82-2.65.94-4.08.5-.19,1.01-.36,1.51-.53,2.62-.9,5.1-2.34,8.02-2.11.23-.15.46-.27.7-.01l-.39.35c-1.53,1.81-3.72,2.56-5.75,3.58-1.08.55-2.42,1.08-2.09,2.62.34,1.59,1.83,1.19,2.86,1.11,5.79-.42,11.58-.9,17.37-1.45,1.62-.15,3.03-.83,2.98-2.81-.04-1.83-1.58-3.18-3.51-3.12-1.23.04-2.43.12-3.62-.34-.77-.3-1.2-.61-.63-1.48.9-1.38.39-2.55-.9-3.66h9.14c-1.03,2.54-.21,3.65,2.12,3.41,1.48-.15,2.68-.9,3.13-2.32.53-1.66,1.71-1.97,3.17-1.98,1.07-.01,2.15.02,3.21-.08,1.36-.13,1.75.73,1.38,1.67-1.04,2.65.87,2.12,2.15,2.03,3.01-.22,4.9-1.99,4.56-4.17,1.25.2,2.53-.36,3.75.09.07.71-.46.88-.7,1.24-.31.47-1.13.93-.42,1.5.64.52,1.45.31,2.04-.35q2.12-2.34,5.39-1.7c-.73.32-2.01-.13-1.94,1.04.05.89,1.02,1.3,1.88,1.4,1.36.16,2.74.21,4.11.32,1.44.12,2.9.5,3.34,1.99.44,1.48,1.2,1.92,2.63,1.88.72-.02,1.5.29,2.18.6,1.27.58,2.75,1.39,3.85.5.92-.74.05-2.25-.19-3.78,1.8.89,4.45,1.43,4.65,2.45.38,1.93,1.33,2.4,3.51,2.76-5.53.49-6.53,1.11-5.91,3.33-.69,0-1.38.04-2.06,0-3.32-.24-6.21-.05-8.41,3.26-1.99,2.99-4.22,5.78-5.55,9.16-.22.56-.14,1.45-1.16,1.38.76-4.7-1.37-6.95-4.71-8.09-1.87-.64-3.83-.99-5.73-1.56-1.88-.56-3.51-1.54-4.47-3.34-1.33-2.5-.13-4.76,2.67-4.82,3.58-.08,6.92-.02,9.62,3.35,2.65,3.3,7.07,2.69,8.87-.59,1.2-2.19.3-4.04-2.18-4.23-1.92-.14-3.78-.45-5.56-1.18-4.25-1.74-8.67-1.69-13.09-1.02-2.25.34-4.26,1.2-5.11,3.66-1.64,4.73.07,10.64,4.17,13.48,2.84,1.97,5.49,4.03,7.54,6.91,1.6,2.24,4.41,2.18,6.4.22.41-.41.77-.88,1.15-1.32-.2,2.11-.65,4.1-1.27,6.04-.92,2.87-.86,5.6,1.01,8.06.71.93.17,1.29-.41,1.83-1.91,1.78-3.72,3.65-5.25,5.76-1.57,2.16-.55,4.27,2.15,4.45.98.06,1.98-.06,2.96-.18,2.12-.27,4.21-.68,6.36-.8.95-.06,2.76,1.29,2.96-1.13.02-.25.49.02.73.18,3.11,2.22,7.76,3.14,7.1,8.56-.09.74.43,1.62.85,2.33,1.6,2.72,3.52,4.99,7.15,4.67,1.17-.1,2.13.06,1.86,1.74-.15.92.71,1.57,1.51,1.8,3.78,1.08,7.45,2.59,11.4,2.99,1.1.11,1.68.18,1.18,1.63-.88,2.54-.22,3.62,2.28,4.53,3.64,1.33,3.72,1.43,3.27,5.24-.22,1.87-.02,3.65,1.89,4.5,1.79.8,2.56,2.29,3.26,3.91,1.23,2.86-.62,5.91.54,8.78.06.15-.18.28-.45.3-1.86.17-2.83,1.69-4.06,2.79-1.73,1.56-3.54,3-5.94,3.22-2.35.21-3.43,1.61-3.64,3.7-.2,2.02-.78,3.87-1.61,5.7-.34.75-.65,1.57-.75,2.38-.35,3.04,1.15,4.09,4.01,2.97.84-.33,1.58-1.75,2.82-.29.38.45,1.2-.59.94-1.05-.58-1.02.2-1.26.69-1.67,3.37-2.81,7.46-3.78,11.66-4.26,1.83-.21,2.91-.65,2.57-2.7-.27-1.5-.41-3.05-1.16-4.4-.72-1.29-.13-1.8.96-1.44,1.39.46,1.34-.42,1.59-1.19.95-2.92,2.9-4.97,5.55-6.42,1.91-4.27,2.63-4.68,7.17-4.67,1.34,0,1.51.54,1.35,1.63-.3,2.1-1.96,3.69-4.62,4.33-1.96,3.46-.86,5.11,3.74,5.6,3.63-.31,7.06-.94,8.23-5.17.11-.4.46-.56.76-.79,3.3-2.58,6.49-5.3,9.08-8.61,3.04-3.88,6.25-7.68,7.67-12.64,1.23.85,2.34,1.99,2.1,3.05-.39,1.73.26,3.26.2,4.86-.08,2.22-1.58,3.8-2.94,5.4-4.56,5.39-10.41,9.41-15.34,14.4-.3.3-1.29.32-.69,1.08.37.46.92.27,1.41-.11,5.23-4.1,10.46-8.19,14.99-13.11.79-.85,1.16-2.14,2.95-2.83-3.02,7.76-9.96,11.14-15.72,16.48,3.99-.49,6.3-2.72,8.69-4.61,2.41-1.9,4.22-4.52,6.83-6.21.52.45.35.94.35,1.36.01,6.08-3.23,10.28-7.84,13.76-4.06,3.07-8.9,4.45-13.44,6.48.02.47.04.94.06,1.41,3.77-.43,7.1-1.95,10.3-3.93,4.33-2.68,8.46-5.58,11.6-9.88.87,2.89.28,4.86-1.96,7.26-3.44,3.68-7.92,5.86-12.15,8.42.15.51.55.55.98.52,4.11-1.1,7.11-4.18,10.86-6.25-.8,3.97-1.95,5.57-6.03,8.71-7.56,5.82-20.41,6.92-27.13.2-.4-.4-.85-.82-1.36-.31-.51.51-.24,1.1.06,1.68.4.77,1.98.97,1.44,2.07-1.38,2.8.87,3.22,2.47,3.99,3.31,1.6,6.91,1.78,10.51,1.97.47.03,1.19-.2,1.34.52.14.63-.51.88-.91,1.19-1.62,1.21-3.59,1.29-5.5,1.66,1.72.43,3.46.19,5.16.55.94.2,1.51.29.9,1.38-2.7,4.82-6.08,9.02-11.14,11.53-2.87,1.43-5.04-.23-4.72-3.41.04-.38.06-.76.08-1.14.06-1.13-.48-1.09-1.25-.65-.93.53-1.74,1.19-1.15,2.35.81,1.59.76,3.36,1.17,5.1.56-.51.94-1.18,1.8-.77,2.13,1.02,3.93.2,5.77-.92,2.83-1.73,5.47-3.67,7.61-6.21,1.12-1.32,2.12-2.74,3.19-4.12.93.85.8,1.57.3,2.5-2.04,3.8-4.34,7.37-7.82,10.05-.71.55-1.45,1.13-1.67,2.17,1.18.31,2.28-.16,2.94-.87,2.69-2.88,6.05-5.23,7.39-9.19.19-.55.39-.98,1.06-.97.68.01.9.5,1.11.99.77,1.78.61,3.54.01,5.36-1.56,4.74-4.56,8.34-8.47,11.34-2.85,2.19-6.23,3.5-9.06,5.73,3.28-.2,6.17-1.28,8.61-3.48.84-.76,1.69-1.53,2.61-2.2.52-.38,1.17-.34,1.66.16.39.4.34.85-.1,1.18-1.4,1.05-2.47,2.54-4.16,3.18-5.15,1.94-10.09,4.58-15.82,4.7-.83.02-2.08-.02-2.89.82,8.3,1.91,15.06-2.65,22.77-5.43-2.38,3.66-5.09,5.94-8.43,7.47-3.24,1.48-6.77,2.08-10.21,3.01,3.2,1.05,6.2-.8,9.56-.47-.52.86-1.19.99-1.78,1.3-2.35,1.27-5.01,1.16-7.5,1.82.02.3.04.59.06.89,2-.58,4.01-.6,6.33-.26-3,2.34-6.39,2.21-9.51,2.99-.33.35-.67.52-1.02.02-2.6.01-5.2.02-7.8.03-.43.41-.78.4-1.03-.19-2.55-.37-5.07-.82-7.24-2.36-.02.42-.03.83-.05,1.25,6.03,3.86,12.77,3.38,19.48,2.77-.02.87-.42,1.01-.74,1.15-5.45,2.33-11.03,3.03-16.82,1.41-2.4-.67-3.01-.59-3.93.35,5.61,1.5,11.32,2.32,17.16,2.12,3.1.51,4.86-2.2,7.36-3.11.39-.14.34-.62.36-1.01.05-1.06.88-1.98,1.6-2.02,3.52-.22,5.02-3.71,8.09-4.77,1.28-.44,1.92-2.72,2.88-4.13.48-.7.4-1.85,1.56-2.04.23-.07.46-.15.69-.22.54-1.62,2.24-.74,3.19-1.47-1.26-1.22-1.03-2.19.47-2.97.06-2.45-.6-5.05,1.52-7.08.23-.22.29-.73.24-1.09-.46-3.72,1.35-6.99,2.09-10.47.23-1.1-.23-2.13.31-3.31,1.42-3.06,3.65-5.75,4.13-9.27.16-1.14,4.47-1.64,5.26-.69.53.63.38,1.37-.2,1.83-1.48,1.18-2.5,2.44-1.64,4.48.93,2.18,2.85,2.77,4.89,3.22,5.68-1.38,8.19-7.96,4.76-12.24-.9-1.12-2.47-1.13-3.19-2.36-2.5.03-4.91-.21-6.71-2.26-2.09-1.15-2.15-1.58-.32-2.81.87-.59,1.77-1.18,2.92-1.05,1.08-.93,1.81-2.28,3.29-2.72.36-1.2.34-2.44,1.45-3.47,1.12-1.04.8-2.59-.48-3.32-1.9-1.08-.85-1.88.08-2.59,1.75-1.34,2.45-3.19,3.02-5.21.38-1.36-.13-2.56-.27-3.83-1.25-1.73-.32-3.71-.63-5.56-.29-1.78.34-3.72-1.12-5.29-.37-.4-.06-1.01.14-1.52.88-2.22,1.17-4.47.18-6.74-.06-.14-.11-.3-.09-.45.42-2.75.12-5.38-1.28-7.83-.79.03-1.3-.35-1.56-1.09-.83-.3-1.12-.98-1.24-1.76-.24-1.58.14-3.48-2.21-3.9-.39-.07-.37-.57-.28-.99.24-1.13-.49-2.17-1.19-2.54-2.38-1.25-1.74-3.38-1.75-5.23-.01-1.74,1.45-1.06,2.42-1.08,1.69-.69,2.63-3.31,1.74-4.81-.38-.64-.96-.34-1.41-.26-4.45.81-5.49.15-6.33-4.13-.24-.31-.26-.64-.06-.98,0-.15,0-.31,0-.46-.11-1.59,1.02-.92,1.76-.97,2.09-.04,4.88,1.04,4.62-2.83,3.85-7.17,3.13-14.37.21-21.61-.34-.84-.53-1.74-.79-2.61-1.26-.32-1.6-1.66-2.58-2.3-.95-.61-1.83-1.46-2.94-.28,3.62,3.76,6.2,8.06,6.88,13.34.47,3.62.04,7.08-1.48,10.47-2.79-2.56-3.97-2.64-7.52-.59-.97,1.4-1.95,2.81-2.99,4.31-.7-1-1.41-1.93-1.64-3.13-.21-.23-.41-.46-.62-.69-1.08-.18-2.22-.27-2.17-1.81-.5-1.54-2.51-2.24-2.3-4.17-.32-.73-1.18-1.34-.46-2.28-.27-2.08,1.67-2.93,2.51-4.39,2.05-3.55,2.91-7.34,2.94-11.38,0-.76-.32-1.79,1.02-1.75-.12-1.18.66-2.06,1.02-3.09.36-2.94-.24-5.77-.97-8.58-1.84-7.09-8.67-11.35-15.93-10.27-5.27.78-10.22,2.26-14.92,4.77-5.66,3.01-11.87,4.33-18.06,5.77-3.06.71-5.86.53-8.68-.81-3.66-1.75-7.3-3.55-11.07-5.03-7.3-2.87-14.87-4.62-22.77-4.67-2.99-.02-3.29-.57-2.11-3.21,1.92-4.29,2.89-8.85,3.88-13.4.42-1.92.6-3.9.29-5.92-1.48-9.63-7.11-15.96-15.93-19.38-16.5-6.4-37.24.41-44.92,18.15-2.95,6.8-6.14,13.51-10.77,19.41-1.34,1.72-2.17,3.79-2.35,5.91-.24,2.87-1.83,4.08-4.37,4.79-6.3,1.78-11.61,5.42-16.52,9.56-4.83,4.08-7.91,9.79-12.93,13.88-2.75,2.24-5.24,5.04-8.08,7.34-1.78,1.45-3.58,2.87-4.97,4.73-3.79,5.11-8.17,9.71-12.48,14.37-3.37,3.64-5.79,7.85-6.75,12.8-.83,4.24.45,8.19,1.63,12.14.38,1.28.03,2-.76,3.02-3.13,4.11-6.87,7.79-9.23,12.46-.71,1.41-1.52,1.69-2.57.46-2.18-2.55-4.92-4.54-6.8-7.4-2.17-3.33-4.66-6.45-6.9-9.73-2.27-3.33-4.33-6.87-6.61-10.1-3.54-4.99-6.38-10.42-10.04-15.3-.63-.84-1.2-1.74-2.17-2.26.88,6.53,3.68,12.46,6.64,18.14,4.16,7.98,9.26,15.46,13.96,23.16.26.43.75.84-.01,1.74-1.92-2.52-4.74-3.98-6.9-6.18-4.12-4.19-8.88-7.67-13.31-11.47-4.4-3.76-9.42-7.03-14.53-9.96-3.18-1.83-6.38-3.63-9.59-5.4-.72-.4-1.73-.84-2.22.1-.4.77.58,1.07,1.16,1.4.2.11.42.18.63.28,7.14,3.74,13.91,8.03,19.68,13.71,7.42,7.3,13.98,15.38,20.56,23.43.5.61.61,1.18.59,1.87l.15.33c-.1-.06-.2-.12-.3-.18-1.13-.32-2-1.04-2.88-1.79-8.83-7.55-17.81-14.86-28.28-20.12-3.73-1.88-8.57-3.59-10.79-3.54,5.54,3.04,10.53,7.1,15.32,11.35,8.05,7.16,15.7,14.75,22.92,22.78,2.71,3.02,3.03,4.09,1.11,7.68-1.63,3.04-2.77,6.23-1.71,9.66.6,1.95.44,3.71-.05,5.59-1.06,4.14-1.53,8.4.23,12.37,2.36,5.32,4.1,10.87,6.46,16.16,1.69,3.78,4.16,7.22,8.25,8.79,1.68.65,2.43,1.57,2.77,3.2,1.26,6.04,3.85,11.55,6.67,17.01,1.46,2.83,4.52,4.98,4.01,8.72,0,0,.07.04.09.03,1.96-1.16,2.12.91,2.91,1.7.89.9,1.69,2.01,3.06,1.2,1.24-.73.75-2.01.5-3.12-.1-.45-.33-.86-.42-1.31-.43-2.23-.51-4.46.18-6.99,1.37,1.35,2.53,2.68,4.25,1.27,1.28-1.04.85-2.98,2.11-4.32.91,2.34,1.75,4.49,3.61,5.98.62.5.98,1.55,2.01,1.21,1.05-.35.72-1.38.83-2.18.08-.59-.08-1.41.62-1.58.78-.2,1.16.61,1.55,1.14,1.03,1.42,1.97,2.91,3.02,4.31.49.65,1.25.89,2.06.65.9-.26,1.05-.99,1.05-1.82,0-.45.02-.94.2-1.34.42-.93,1.11-1.2,1.6-.13.82,1.78,2.17,3.33,2.35,5.39.07-.02.18-.08.21-.05,2.05,1.85,4.11,3.71,5.22,6.33,1.89.28,3.15,1.74,4.78,2.52.98.47,1.93,1.13,2.96.28.92-.75.68-1.82.41-2.77-1.59-5.71-.92-11.2,1.54-16.52-.02-2.32,1.05-4.56.37-6.95-.2-.71.58-.92,1.2-1.06,1.85-.39,3.68-.87,5.55-1.19,1.73-.3,2.4,1.27,3.45,2.18,1.43,1.24,2.34,2.7,2.2,4.68,3.21,5.12,2.96,10.35.55,15.67.21,1.76-.11,3.15-2.27,3.27.16.91.09,1.74-.86,2.23-.47,1.37-1.15,2.51-2.8,2.63-.2.31-.37.66-.62.94-3.67,4.06-4.03,9.43-.81,13.85.88,1.21,1.51,2.48.62,3.76-1.05,1.51-2.5.68-3.71.06-3.99-2.03-6.35-5.39-7.46-9.64-.45-1.72-1.24-2.85-3.18-2.36-1.76.45-1.73,2.05-1.7,3.37.22,9,3.06,16.79,10.77,22.31-1.87,1.23-3.77,2.4-4.78,4.49-.33.69-.83,1.41-.24,2.13.59.73,1.36,1.21,2.35.69.26,1.72-.82,3.4-.16,5.15.53,1.43,1.19,2.13,2.53.76-.97-2.52-.11-4.89,2.42-6.83.53-.41,1.69-.64,1.08-1.62-.54-.87-1.61-.51-2.27-.12-1.25.74-2.38,1.7-3.55,2.57.02-2.05,1.03-3.38,2.95-4.09.64-.23,1.46-.38,1.63-1.12.27-1.15.71-.99,1.48-.46,2.95,2.03,6.06,3.85,8.87,6.06,4.42,3.47,9.5,4.99,14.91,5.78,3.52.51,6.79-.26,10.03-1.64,4.09-1.74,6.82-5.08,9.97-7.94,4.79-4.34,8.59-9.55,11.41-15.23,2.9-5.85,4.67-12.21,4.84-18.91.05-1.86.28-3.82,1.26-5.52,1.41-2.46,2.87-4.9,4.3-7.35-.17-.76.11-1.24.87-1.42-.15-.57-.01-1.05.44-1.44,2.68-4.21,2.76-9.31,4.68-13.79-.01-3.72.87-7.41-.02-11.16-1.05-4.4-1.46-9-5.38-12.13-.48-.39-1.84-.33-1.32-1.42.43-.91,1.51-.55,2.3-.45,4.16.49,8.1,2.08,12.29,2.44.84.07,1.4.41,1.14,1.5-.88,3.69-.07,7.29.87,10.84.16.6-.09,1.69.79,1.69.75,0,1.31-.88,1.37-1.64.19-2.42,1.35-4.85,0-7.29-.26-.46-.69-1.09-.05-1.65.33-.29.7-.81,1.15-.45,1.66,1.33,3.14,1.33,4.58-.34.1-.12.68.18,1.04.29,6.56,2.12,12.42,5.75,18.64,8.59.52.24,1.36.9,1.29,1.15-.7,2.51,1.25,1.35,1.86,1.19,1.24-.32,2.38-1.03,3.21-1.42-13.96-8.6-28.94-15.08-45-18.94-.4.2-.77.14-1.1-.15-2.1-.32-4.21-.63-6.3-.97-.58-.1-1.41-.19-1.47-.83-.12-1.39-.93-.87-1.59-.7-3.34.9-6.64.66-9.93-.24-.92.65-1.9.75-2.92.27-4.53.06-9.06.12-13.6.18-.48.15-.96.29-1.44.44-.59,0-1.19.02-1.78.02-.64.68-1.43.67-2.26.51-3.3.63-6.6,1.27-9.91,1.9-.06-.19-.11-.37-.17-.56,3.38-.61,6-3.17,9.56-3.33.13-1.15.99-1.21,1.87-1.24.44-.15.87-.29,1.31-.44,1.18-.59,2.15-1.96,3.75-1.05,3.84-1.85,7.86-3.18,11.91-4.47,1.8-.38,3.46-1.47,5.41-1.01-.27-1.42.53-1.91,1.76-2.17,4.02-.85,8.02-1.86,12.05-2.64,6.38-1.23,12.77-2.43,19.25-2.91,2.02-.15,4.44-.56,5.19,2.41.13.52.76.32,1.29.17-1.45-1.93-.36-2.2,1.35-2.16,1.67.03,3.33.35,5.05-.21-1.31,6.58.09,10.35,4.63,12.79-.29.6-1.19.68-1.27,1.81,2.09-1.21,4.14-1.38,6.18-.22.18.1.45.08.68.08,6.99-.06,13.7-2.14,20.62-2.79,2.46-.23,3.66-2.96,2.93-5.31-.73-2.37-2.96-3.46-5.48-2.7-1.19.36-2.17,1.09-3.19,1.76-4.65,3.08-9.83,3.59-15.18,2.98-1.8-.21-3.43-.95-3.4-3.28.05-3.01,1.32-4.09,4.47-3.27,3.7.96,7.33,1.21,11.07.26,2.95-.75,5.89-1.61,9-1.5,1.6.06,3.34.14,3.49-2.22.2-2.99-.78-4.66-3.06-5.08-3.37-.61-6.66-.18-9.46,1.73-3.29,2.24-6.37,2.75-9.99.77-2.53-1.38-5.6-1.49-7.87.3-2.57,2.03-5.15,1.77-7.95,1.44-1.59-.19-3.2-.29-4.8-.33-8.95-.24-17.83.4-26.63,2.03ZM138.49,148.94c.66-.09,1.13-.37,1.63-.71,4.55-3.03,9.71-4.7,14.95-5.75,3.61-.72,7.09-2.02,10.97-2.09.68,2.65,1.16,5.41.34,8.5-2.12,8.03-12.02,14.8-22.72,9.84-3.17-1.47-5.37-3.57-6.62-6.8-.62-1.62-.43-2.72,1.44-2.98ZM292.04,180.63c-1.93-.16-3.88-.18-5.75-.77-.55-.17-1.28-.59-1.1-1.24.22-.76,1.07-.48,1.52-.24,1.7.91,3.68.63,5.4,1.41,3.58-.05,7.15-.14,10.74-.27-3.39,2.15-7.11,1.59-10.81,1.11ZM236.7,107.54q-.24,1.74,1.53,4.95c-3.86-.32-5.9-3.7-5.38-8.62,4.29-1.1,6.05,1.16,7.2,4.64.72,2.2,2.71,3.62,4.49,5.6-4.14-.7-6.15-3.37-7.84-6.57ZM310.56,121.71c.95,1.54,1.11,2.72.57,4.88-1.15,4.54-3.7,8.28-6.83,11.66-2.52,2.72-5.06,5.44-8.29,8.16.37-3.64.62-6.74,4.76-7.19.55-.06.99-.6.9-1.17-.49-3.23,2.1-5.16,3.52-7.35,1.9-2.93,3.61-5.95,5.37-8.98ZM307.97,117.68c.81-.06.87.58.87,1.06.02,1.77-.27,3.5-.92,5.14-1.35,3.38-3.53,6.18-6.15,8.68-1.37,1.31-1.6-.81-2.75-.62,3.51-4.31,6.6-8.55,8.12-13.7.14-.48.43-.54.83-.57ZM295.28,94.7c.04-.37.07-.73.1-1.16,2.48,1.9,3.45,6.34,2.31,10.25-1.36,4.65-4.8,7.92-7.78,11.45-2.21,2.62-4.79,4.93-7.17,7.4-.83.86-1.83,1.38-2.98,1.56-.9.14-1.66-.24-1.91-1.14-.3-1.1.62-1.15,1.35-1.4.93-.32,1.89-.47,2.8-.93.91-.45,1.66-.76,1.42-1.91-.24-1.15-1.06-1.66-2.16-1.66-3.6.03-7.79,1.25-7.29,6.62.04.38.02.76.03,1.15.77,2.08,2.49,2.89,4.46,3.49.86.26,1.85.13,2.58.79,2.65,0,3.73-.65,4.06-3.5.31-2.65,1.55-4.28,3.5-5.98,3.32-2.89,6.17-6.33,8.79-9.88,1.55-2.1,2.44-4.55,2.55-7.21-.06-.45-.18-.89-.17-1.34.01-.5-.2-1.11.35-1.45.44-.27.7.15.93.41.46.53,1.32,1.05.26,1.81.82,7.02-2.1,12.53-7.33,17.2,1.79.66,2.9-.35,3.69-1.01,2.97-2.46,5.49-5.32,5.85-9.46.04-.43-.07-1.01.48-1.18.65-.2,1,.36,1.23.8,1.81,3.4,2.07,6.96.26,10.36-1.93,3.62-4.18,7.05-6.63,10.39-1.44,1.96-2.61,2.85-4.96,2.93-2.1.07-3.81,1.35-5.21,2.97-1.34,1.56-2.59,3.17-4.31,4.4-2.08,1.49-4.46,1.83-6.8,1.88-2.51.05-.13-1.59-.53-2.35-.43-1.24-.32-2.21,1.23-2.47.61-2.26-1.43-3.62-1.88-5.51-.67-2-3.11-2.91-3.2-5.26-.69-.39-1.18-.59-1.19-1.78-.01-2.03.27-4.14-.41-6.14-.05-.14-.14-.34-.09-.42,1.7-2.66,1.13-5.43.71-8.32-.27-1.86.63-3.37,3.05-3.35,1.1,0,1.89-1.28,3.34-.98,1.17.25,1.56.63,1.57,1.74,0,2.07.06,4.13.13,6.2.08,2.35.87,2.79,2.99,1.78,1.46-.69,2.22-1.95,1.75-3.34-.56-1.69.35-1.87,1.46-2.53,5.25-3.12,8.16-7.81,8.77-13.91ZM292.97,92.34c.99,7.63-3.3,12.11-8.52,16.59-.53-2.52-.38-4.61.11-6.7.16-.7.46-1.2,1.11-1.61,4.76-3.02,5-3.3,7.3-8.28ZM246.19,101.18c3.59-.25,5.92-2.55,8.28-4.67,5.8-5.2,7.77-12.17,8.66-19.65.62-5.23,4.81-8.3,7.99-11.92.33-.38.89-.17,1.4-.15,3.51.13,7.22,1.1,10.15-1.98.54-.57,1.37-1.23.94-1.82-.63-.85-1.36.04-1.87.52-2.28,2.14-5.05,2.22-7.91,2.06-.03-.23-.13-.42-.07-.52,3.83-6.11,13.26-6.81,18.07-1.62,2.24,2.41,2.68,4.68,1.99,7.79-1.9,8.55-4.39,16.82-9.27,24.22-1.74,2.64-3.89,4.93-6.11,7.13-1.52,1.51-3.4,2.54-5.73,2.44-1.93-.08-2.95,1.22-2.67,2.9.79,4.77-2.02,7.46-5.36,9.8-4.8,3.36-10.18,3.82-15.79,2.67-2.25-.46-4.66-.45-6.8-2.5,2.82.23,4.72-1.35,6.94-1.99,1.47-.43,2.83-1.18,4.41-.57.64.25,1.02-.13,1.38-.53.59-.66,1.38-1.17,2.19-1.04,2.2.37,3.53-.98,4.91-2.24.81-.74,1.67-1.29,2.7-1.66.8-.29,1.25-.91.8-1.81-.63-1.25-.94,0-1.44.15-1.49.49-2.91.85-4.62.39-3.64-1-6.91-2.74-10.4-4.64.02,1.31.75,1.89,1.53,2.43,2.59,1.8,5.4,3.15,8.46,3.98.46.13,1.18.01,1.23.76.05.77-.6,1-1.17,1.21-1.28.48-2.57.22-3.83-.13-1.29-.37-2.58-.69-4.12-.56.86,1.16,2.11,1.16,3.69,2.06-2.32.14-3.92.45-5.47-.87-1.99-1.69-3.72-3.63-5.51-5.51-.32-.33-.44-1.13-1.21-.82-.06-2.02.86-3.12,3.63-3.32ZM239.56,103.32c1.02-.6,1.72-.2,2.36.61.17.22.39.41.59.6.04,2.45,1.66,3.97,3.25,5.5.91.87,1.89,1.67,3.01,2.65-1.43.73-2.43.3-3.39-.35-2.58-1.75-4.6-4-5.84-6.89-.29-.67-1.17-1.41.02-2.12ZM227.79,50.28c-1.31.21-2.8,1.06-3.69-1,1.37.37,2.53.69,3.69,1ZM128.84,53.73c4.66-2.07,9.66-2.88,14.65-3.3,1.05-.09,2.71,1.2,4.02,2,.73.45,1.48.84,2.31.21.71-.53.92-1.19.5-2-.21-.41-.19-.75.31-.86.55-.12,1.06-.11,1.24.61.64,2.53,2.73,1.5,4.29,1.66.61.06.93-.61.81-1.16-.4-1.89.93-1.59,2.07-1.94,4.96-1.52,10.01-1.75,14.89-1.33-1.79,1.99-4.63,1.67-7.05,2.58-4.82,1.82-9.67,3.6-14.26,5.97-1.6.83-3.28.32-4.93.3-.44,0-.93-.36-1.32-.26-6.53,1.75-12.81-2.45-19.9-.16.82-1.57,1.55-1.97,2.35-2.32ZM100.9,78.37c2.26-1.73,4.34-3.62,5.92-6,.49-.74,1.16-1.35,1.99-1.44,5.39-.59,9.86-3.41,14.51-5.83,2.99-1.55,6.04-2.89,9.49-3.08,1.67-.09,3.14.11,4.34,1.62-3.34,1.74-6.13,4.19-9.14,6.35-2.21,1.59-5.05,1.65-7.28,3.17-.43.29-.95.07-1.22-.32-1.21-1.77-2.57-1.02-3.7-.1-3.95,3.19-8.06,6.22-10.99,10.49-.55.8-1.24,1.51-1.93,2.34-.76-.89-1-1.81-1.11-2.83-.09-.82-.09-1.9-.9-2.25-1.91-.83-.82-1.49.02-2.14ZM98.46,80.78c.14-.12.39-.35.41-.33.27.26.14.45-.13.61.05,2.41,1.14,4.38,2.6,6.18.23.29.84.58.8.73-.77,2.65.76,5.51-.6,8.04-1.13,2.1-3.99,1.93-5.53-.05-1.27-1.64-2.05-3.45-2.69-5.39-.46-1.4-.82-3.07-3.24-2.54,2.63-2.94,5.37-5.25,8.38-7.26ZM77.8,102.07c2.89-3.32,6.9-5.56,9.26-10.16q.37,3.79,3.8,5.12c-2.17,1-4,1.99-5.72,3.15-4.71,3.16-7.59,7.46-8.12,13.15-.17,1.78-.83,4.04,2.01,4.58,2.46.47,4.5-1.06,5.21-3.65,1.07-3.91,3.16-7.38,4.89-11.01.13-.27.36-.69.55-.69,2.57-.08,4.04-2.15,6.04-3.26.71-.39,1.49-.5,2.2-.07,1.85,1.13,3.29.19,4.72-.85,2.97-2.17,5.04-5.07,6.72-8.29,1.95-3.73,3.97-7.4,7.5-9.95.72-.52,1.37-1.15,2.3-1.27.16.41.24.78,0,1.13-4.51,6.71-8.57,13.82-14.81,19.14-4.25,3.63-8.32,7.45-12.42,11.24-3.17,2.94-5.66,6.22-5.91,10.75-.05.93-.23,1.63-1.48,1.47-3.41-.43-6.46.76-9.35,2.39-1.2.68-1.62.53-2.14-.88-3.07-8.39-.93-15.49,4.76-22.03ZM47.88,140.26c.05.05.13.11.13.16,0,.05-.09.1-.14.15-.05-.06-.13-.11-.13-.16,0-.05.09-.1.14-.15ZM59.92,179.73c1.68-1.18,3.68-.86,5.5-1.32,5.61-1.4,11.01-3.35,16.36-5.49,1.06-.42,1.92-.3,2.68.56.73.82,1.38,1.62.8,2.84-1.31,2.76-2.84,5.29-5.32,7.24-1.81,1.43-3.03,3.56-5.34,4.43-.8.3-1.63,1.45-2.36.42-.72-1.02.7-1.23,1.22-1.78.31-.32.77-.52.88-1.74-3.07,2.29-6.45,2.63-9.68,3.5-1,.27-1.74.16-2.49-.47-1.2-1.02-2.5-1.94-3.6-3.06-1.23-1.24-.39-3.91,1.35-5.14ZM55.29,214.92c-3.05-.38-5.16-2.11-6.54-4.75-1.93-3.7-4.25-7.24-4.43-11.66-.04-.91-1.01-1.81-1.62-2.67-3.31-4.74-3.45-10.02-2.79-15.49,1.1.1,1.26.97,1.58,1.6,1.65,3.24,3.64,6.12,6.2,8.81,4.03,4.24,6.5,9.55,7.27,15.44.17,1.29,1.05,2.38.81,3.73.58,1.14,1.2,2.27,1.73,3.44.26.57,1.03,1.16.37,1.83-.6.61-1.28.04-1.91-.14-.22-.06-.45-.09-.67-.13ZM79.39,230.69c-.86.95-1.56,2.09-2.14,3.24-.57,1.12-.89,2.36-1.36,3.67-1.56-1.84-3.35-3.37-4.29-5.57-.19.19-.39.38-.58.57.66,1.32.62,2.6.15,4.02-.48,1.43-.6,2.97-.38,4.5.1.67.52,1.53-.63,1.8-.11,1.34-.84.66-1.34.36-.76-.47-1.09-1.19-.91-2.1-.52.05-.5-.51-.8-.7-1.8-.15-1.75-1.41-1.64-2.72-.76,0-1-.59-1.25-1.14-2.49-5.37-5.45-10.55-6.65-16.45-.21-1.03-.87-2.03.08-2.98.57-.57,1.35-.46,1.91-.12,1.03.61,1.72,1.51,1.37,2.85-.06.21,0,.46,0,.68l.77-.08c.09-.32-.04-.91.53-.78,1.6.36,2.99,2.53,2.88,4.29-.11,1.78.26,3.45,1.21,4.98.25-.24.51-.48.76-.73-.42-1.69-.83-3.38-1.31-5.3,1.88.34,3.36,1.11,4.7,2.19.34.27.71.58.41,1.15-.71,1.36-.23,2.86-.42,4.28.27.29.5.65.99.54.15-.74.36-1.47.44-2.21.31-2.73.28-2.7,3.01-1.59,1.19.48,2.47.75,3.69,1.17,1.13.39,2,.82.76,2.18ZM85.52,235.57c-1.05.65-1.06,1.79-1.78,2.85-2-2.07-2.94-4.48-3.11-7.23-.04-.66.02-1.18.63-1.56.77-.48,4.51.01,4.9.67.94,1.6.69,4.45-.63,5.27ZM93.7,237.9c-.53,1.09-1.11,2.16-1.8,3.5-2.61-2.99-4.54-6.08-4.76-9.99-.06-.98-.1-1.92,1.34-1.64,1.54.3,3.41-.95,4.59.98,1.39,2.28,1.84,4.66.63,7.16ZM111.9,234.2c-1.93,5.11-3.48,10.26-2.22,15.82.08.35.26.79-.16,1.03-.51.29-.83-.14-1.16-.44-.17-.15-.33-.32-.46-.51-.34-.48-.62-1.26-1.28-1.02-.3.11-.3,1.02-.53,1.91-7.47-5.21-9.41-13.19-11.68-21.25,5.7-.11,11.1-1.04,16.54-1.58.97-.1,1.32.47,1.48,1.34.29,1.63.04,3.19-.53,4.7ZM131.78,294.64c-2.29-1.03-3.71-2.65-3.85-5.21-.14-2.6.06-5.17,1.19-7.84,2.54,3.79,4.4,7.47,4.5,11.86.04,1.63-.47,1.81-1.85,1.19ZM140.78,296.4c-.31,0-.61,0-.92,0-4.86-.01-5.38-.53-5.41-5.44,0-.54,0-1.07,0-1.61-.01,0-.03,0-.04,0,.05-.99.08-1.99.16-2.97.27-3.26.59-3.5,3.29-1.82,2.86,1.79,4.54,4.71,6.06,7.57,1.03,1.92-.89,4.24-3.15,4.27ZM144.66,296.3c-.91.08-.76-1.04-.49-1.36.44-.5,0-1.94,1.44-1.49,1.49.46,3.01.86,4.94,1.41-2.05,1.2-4.01,1.26-5.88,1.44ZM154.73,282.06c-.38,2.46-.69,4.93-1.03,7.39.12.6-.16,1.06-.48,1.52.21,1.61-.63,2.21-2.12,2.23-2.89.05-5.21-1.16-6.94-3.37-3.36-4.28-5.35-9.18-6.04-14.59.08-.92-1.85-2.19.47-2.73-.15-.34-.36-.67-.44-1.03-.09-.41-.93-.89,0-1.26.51-.21.77.11,1.06.55,1.86,2.85,4.5,4.9,7.15,6.95,2.16,1.67,4.54,2.79,7.27,2.95,1.09.06,1.24.46,1.1,1.39ZM165.97,265.31c-2.38,1.06-2.48,3.47-3.41,5.38-1.25,2.57-2.43,5.17-3.81,8.11-.9-1.8-.85-2.99-.08-4.35.89-1.58,1.58-3.3,2.12-5.04.68-2.18,2.48-3.57,3.53-5.48.41-.76,1.19-.85,1.75-.39.59.48.59,1.47-.1,1.78ZM175.14,240.2c-3.01,2.63-3.39,6.7-5.47,9.82-.64.95-1.3,1.78-2.65,2.5.37-2.48,1.66-4.28,2.32-6.29.9-2.73,3.03-4.67,4.6-6.96.37-.54,1.03-1.19,1.69-.54.52.51-.24,1.25-.5,1.48ZM175.45,212.99c.01-.2.54-.58.63-.53,1,.57.85,1.53.91,2.59-1.25-.33-1.6-1.09-1.54-2.06ZM167.35,204.14c2.32,2.46,6.34,2.96,7.59,6.67.36,1.07.01,2.31-.42,2.74-1.9,1.92-.72,3.93-.38,5.83.15.85.51,1.29-.28,2.07-.82.8-.51,2.01.4,2.58,1.19.74,1.1-.7,1.38-1.2.84-1.5,1.79-3.06.27-4.76-.46-.52-.38-1.2.32-1.53.75-.36,1.47-.05,1.66.71.42,1.69,1.03,3.43.92,5.12-.19,2.95-.45,5.94-1.38,8.79-.18.56-.23,1.39-.96,1.42-.97.04-1.01-1.03-.98-1.53.2-3.16-2.7-4.98-3.26-7.84-.3-1.53-2.14-1.27-3.33-1.53-3.71-.82-4.89-2.96-3.89-6.52.51-1.84,1.16-3.31,2.57-4.65,1.28-1.2.4-4.86-1.49-6.11.69-.14,1.13-.34,1.24-.23ZM128.19,228.89c-.42-.76.24-1.64,1.2-1.85,1.16-.25,1.46.44,1.37,1.46-.13,1.46.73,2.6,1.25,3.85.51,1.24.86,2.46-.33,4.15-1.01-2.83-2.18-5.25-3.49-7.6ZM123.99,272.14c.28-4.59,1.7-8.51,6.63-10.41,4.06-1.56,6.3-5.42,9.26-8.35.16-.16.26-.48.43-.52,2.32-.48,2.31-2.84,3.47-4.25.29-.35.35-.59.25-.99-.72-2.65.05-5.14.94-7.58.81-2.22.86-4.44.48-6.71-.23-1.38-1.02-2.08-2.48-2.2-3.04-.24-4.93-1.83-5.85-4.73-.16-.51-.37-1.01-.58-1.49-1.64-3.74-1.83-7.27,1.31-10.42.63-.64,1.07-1.48.91-2.48-.42-.75-.35-1.55.38-1.92.7-.36,1.59-.41,2.14.47.77,1.12,2.06,1.53,3.11,2.28,3.02,2.17,4.65,5.6,7.32,8.09.19.18.24.56.27.85.22,2.48.66,4.74,2.09,7.02.98,1.56.64,4.14.43,6.22-.35,3.5-.88,6.97-.61,10.49.1,1.36-.37,2.56-1.26,3.58-1.55,1.81-2.69,3.88-3.75,5.99-.86,1.71-.18,3.58-.17,5.37.01,1.68-.3,3.14-1.13,4.58-.5.87-1,1.5-2.11,1.4-.77-.07-1.65-.12-1.47,1.11.14.95.62,1.56,1.68,1.45.74-.08,1.56.03,2.07-.72,1.51-2.21,3.06-4.34,2.52-7.33-.67-3.71.7-6.96,2.96-9.78,1.74-2.16,2.41-4.53,2.35-7.21-.09-3.75.08-7.48.74-11.17.4-2.26-.09-4.26-1.33-6.08-1.44-2.12-.82-4.91-2.39-6.95-1.05-.38-1.35-1.31-1.66-2.24-1.48-.63-1.54-2.45-2.81-3.32-.59-.41-1.1-1.01-1.76-1.38-1.56-.83-2.66-2.14-3.64-3.56-2.07.71-2.87-.73-3.2-2.23-.45-2.01,1.46-1.91,2.64-2.4.66-.03,1.31-.05,1.97-.08.55-.11,1.11-.22,1.66-.32.73-.39,1.51-.42,2.3-.24,1.39-.89,2.95-.15,4.44-.36,1.7-.24,3.42-.43,5.13-.69,3.5-.54,5.54.28,8.16,2.98.63.65.54,1.28.07,2.16-.79,1.47-2.1,2.48-2.94,3.92-1.72,2.95-1.16,5.85.06,8.58.92,2.06,3.28,2.57,5.33,2.77,1.66.16,2.33,1.01,3.11,2.25,1.38,2.19,2.39,4.47,2.77,7.03.21,1.42.05,2.58-1.18,3.66-7.22,6.35-8.48,14.84-8.25,23.79.03,1.25.04,2.01-1.37,2.61-3.06,1.3-4.66,4.19-6.07,6.92-1.34,2.59-2.62,5.4-2.33,8.49.09,1.02-.51.93-1.06,1.02-1.84.29-3.48-.28-4.98-1.28-4.38-2.9-8.26-6.29-10.64-11.11-.33-.67-.7-1.25-1.53-1.04-.93.23-.91,1.04-1.01,1.82-.61,4.61.96,8.87,2.02,13.22.18.73.48,1.41.29,2.37-1.64-.83-3.29-1.88-4.79.06-.06.08-.34.08-.44.01-1.84-1.31-3.76-2.54-5.45-4.02-.46-.41-.67-1.52-1.28-1.79-2.39-1.1-2.28-3.34-2.17-5.21ZM123.73,279.12c.73-1.01,1.39-.91,2.08.18,1.21,1.91,1.33,3.99,1.19,5.69,0,1.06.05,1.67-.01,2.27-.07.72.41,1.76-.3,2.09-.94.44-1.65-.52-2.28-1.13-2.21-2.1-2.53-6.55-.67-9.11ZM113.01,285.9c-3.01-2.68-4.67-6.2-6.03-9.86-.91-2.43-1.41-4.99-1.66-7.59-.11-1.16.01-2.23.65-3.43,1.04.87.85,2.03.95,2.82.54,4.43,4.29,6.01,7.14,8.35,1.82,1.5,4.09,1.55,6.34,1.3,1.81-.2,2.71.13,1.69,2.2-.98,1.99-.23,4.24-.63,6.54-.6-.16-1-.19-1.31-.37-1.08-.61-1.84-1.03-2.97.33-1.17,1.41-2.8.91-4.16-.3Z" style="fill: #f4f3e9;"/>
    <path d="M163.25,303.13c1.51,3.66,4.2,3.67,7.06,3.31,3.14-1.04,4.11-3.42,2.28-5.06-2.49,3.08-5.62,3.45-9.33,1.76Z" style="fill: #f4f3e9;"/>
    <path d="M173.57,294.93c-1.95,1.31-3.81,2.84-6.43,2.27-.45-.1-.67.32-.73.71-.07.43.21.68.56.88,1.78,1.05,3.62,1.57,5.64.69.18-.91.99-1.35,1.59-1.86,1.12-.94,1.18-1.82.26-2.86-.3.05-.66.01-.89.17Z" style="fill: #f4f3e9;"/>
    <path d="M159.08,318.59c-2.6.64-4.52-.55-6.24-2.3-.59-.6-1.16-1.24-2.01-1.44-.49-.12-1.1-.3-1.43.3-.28.52.17.83.49,1.13,1.1,1.03,2.2,2.05,3.3,3.07,1.64.94,3.35,1.68,5.27,1.83.99.07,1.64-.51,1.94-1.28.5-1.26-.97-.78-1.34-1.31Z" style="fill: #f4f3e9;"/>
    <path d="M121.07,303.56c.15-.43.88-1.36-.31-1.63-.87-.2-1.16.52-1.42,1.16-.67,1.65-.37,3.43-.65,5.14.38,1.22.55,2.57,1.19,3.64.66,1.11,1.68,2.37,3.09.62-2.79-2.51-3.06-5.53-1.91-8.92Z" style="fill: #f4f3e9;"/>
    <path d="M118.89,299.21c.26-.05.4-.2.25-.43-.04-.06-.35.06-.53.1-1.89.74-2.65,2.6-3.9,3.97-.04,1.33-.58,2.63,0,4,.76,1.8,1.68,2.1,3.43.91-2.05-2.6-1.64-5.09.32-7.54.22-.28.3-.67.44-1.02Z" style="fill: #f4f3e9;"/>
    <path d="M128.4,314.81c-2.57-1.47-3.48-3.85-3.65-6.66-.04-.6.26-1.62-.77-1.59-.95.03-1.09.94-.97,1.71.23,1.56.56,3.1.84,4.65,1.54,1.11,2.21,3.49,4.7,3.23.21-.34.41-.67.62-1.01-.26.11-.54-.19-.77-.33Z" style="fill: #f4f3e9;"/>
    <path d="M129.4,314.75c-.08.13-.16.26-.24.38.1-.04.2-.15.29-.36,0,0-.02,0-.03-.02h.03s0,.01,0,0c-.02,0-.03-.01-.05-.02,0,0,0,0,0,0Z" style="fill: #f4f3e9;"/>
    <path d="M26.04,96.59s.03-.03.03-.03c-.06-.02-.11-.05-.17-.07.05.03.09.07.14.1Z" style="fill: #f4f3e9;"/>
    <path d="M119.43,123.86c.6-.15,1.03-.34,1.31.62.5,1.71,1.83,1.87,3.26,1.09,1.89-1.04,3.68-2.27,5.76-2.98,3.56-1.22,6.9-2.87,9.83-5.29,5.27-4.36,8.04-10.47,11.37-16.19.25-.43.26-1.05.22-1.57-.19-2.43,0-4.91-.77-7.28-.62-1.9.25-3.07,1.95-3.44,1.73-.37,3.02-1.37,4.37-2.32,2.22-1.57,3.23-4.95,2.37-7.58-.88-2.7-4.26-5.99-6.33-5.94-3.66.08-7.2-1.04-10.87-.83-.04-1.11.71-1.66,1.05-2.41.54-1.17.38-2.21-.42-3.2-.69-.85-1.63-1.01-2.47-.53-1.23.69.09,1.25.33,1.76,1.19,2.55.6,4.52-1.93,5.69-.59.27-.94.61-1.28,1.14-1.15,1.82-1.3,3.78-1.37,5.88-.08,2.21.41,3.65,2.52,4.66,2.36,1.12,3.43,3.38,3.21,5.86-.45,5.01-1.04,10.03-2.18,14.95-.94,4.07-2.49,7.99-6.68,9.55-5.05,1.88-8.53,6.4-13.79,7.78.18.19.36.38.55.58Z" style="fill: #f4f3e9;"/>
    <path d="M180.33,64.86c-.51,0-1.43.05-2.34-.01-1.46-.09-2.38.6-2.68,1.95-1.74,7.82-2.33,13.18,4.27,18.15,3.62,2.73,5.97,6.37,6.46,11.15.4,3.93,2.63,6.07,6.39,6.77,1.94.36,3.9.46,5.92.25,3.04-.31,4.73-2.03,6-4.59,3.18-6.44-.14-11.78-2.93-17.13-2.28-4.38-6.46-7.3-9.25-11.29-2.82-4.03-6.6-5.73-11.83-5.25ZM186.72,73.46c1.4,2.14,3.05,4.02,4.92,5.69,2.51,2.24,3.43,5.32,4.72,8.21.38.84.71,1.72,1.53,2.22,2.72,1.67,1.78,6.19-1.23,8.12-1.1.71-2.6.7-3.63-.74-1.65-2.3-3.1-4.71-4.16-7.33-1.88-4.66-3.77-9.29-8.45-11.98-.87-.5-1.2-1.35-1.01-2.53.06-1.36.36-2.83,2.14-3.17,1.94-.37,3.99-.3,5.17,1.51Z" style="fill: #f4f3e9;"/>
    <path d="M157.36,121.33c1.79-2.39,3.77-4.59,6.32-6.23,2.55-1.63,4.52-3.87,6.24-6.33,2.13-3.06,3.26-6.38,2.44-10.15-.58-2.65-2.66-4.12-5.34-3.77-1.06.14-2.12.43-3.13-.15-1.06-.61-1.98-.33-3.01.2-2.66,1.35-4.11,3.5-4.8,6.34-.52,2.18-.24,4.43-.7,6.6-1.06,5.01-3.77,9.28-6.22,13.67-.93,1.66-1.93,3.1-4.1,3.18-.48.02-1.33.14-1.15,1.05.57,2.82,2.32,3.81,5.23,3,1.67-.46,3.1-1.38,4.25-2.61,1.14-1.21,2.37-1.84,4.02-1.6.29-.25.58-.5.87-.75-.7-.28-1.78.32-2.11-.44-.39-.9.72-1.37,1.2-2Z" style="fill: #f4f3e9;"/>
    <path d="M252.87,143.38c.19-.09.36-.12.41-.43.6-3.92-2.57-8.05-5.74-7.88-2.29.12-4.39.67-6.22,2.02-4.56,3.37-5.29,8.31-5.39,13.48,0,3,.31,5.96,1.36,8.78,1.36,3.66,5.37,5.16,8.86,3.44,1.47-.72,2.15-1.82,1.96-3.46-.18-1.59-.47-3.2-.42-4.79.15-4.42.41-8.85,5.17-11.15Z" style="fill: #f4f3e9;"/>
    <path d="M220.98,107.41c-1.78-.38-3.15.55-4.16,1.87-2.39,3.13-2.5,6.63-.7,9.94,4.26,7.83,11.03,11.89,19.58,12.56,1.08-.09,1.85-.14,2.61-.23,2.8-.31,4.98-1.86,5.46-3.86.46-1.95-.72-3.72-3.47-5.38-2.88-1.74-6.03-1.95-9.28-1.88-3.69.08-5.47-1.39-6.34-4.98-.38-1.56-.67-3.13-1-4.7-.33-1.58-.96-2.98-2.7-3.35Z" style="fill: #f4f3e9;"/>
    <path d="M261.17,244.77c.67.04,1.3-.04,1.98-.24,1.92-.56,3.36-1.89,5.05-2.81-.37-1.8-1.32-1.42-2.21-.49-1.27,1.34-2.84,1.75-4.57,1.68-10.59-.38-19.76-3.69-26.04-12.82-.46-.67-.99-1.07-1.66-.66-.67.42-.05,1.12.09,1.6.21.71.66,1.38,1.11,1.98,1.6,2.11,3.29,4.07,5.54,5.64,3.77,2.63,7.72,4.58,12.35,4.92.93.07,1.71.23,2.13,1.36-9.31.12-16.28-4.33-22.46-10.57,2.59,7.95,9.33,10.68,16.41,13.11-3.86.17-7.58.84-11.15-.72-3.29-1.44-6.01-3.75-8.71-6.1-.06,1.88,1.79,2.57,1.91,4.13-.57.41-1.25-.54-1.49.08-.3.75.43,1.19,1.03,1.54,2.43,1.42,5.02,2.46,7.94,3.13-1.85,1.59-3.54,3.21-5.7,3.61-6.34,1.18-12.41.54-17.67-3.69-.36-.29-.75-.75-1.11-.21-.27.41.08.88.52,1.1,1.81.94,3.41,2.22,5.3,3.05,5.88,2.59,11.88,2.38,17.08-.89,3.36-2.11,6.29-3.43,10.11-2.49.57-.03,1.14-.06,1.71-.09.46-.85,1.34-.43,2.01-.65,1.61-2.33,3.98-2.3,6.45-2.18.85.04,1.72-.35,2.54-.54.2-.89-1.22-1.38-.38-2.15.66-.61,1.23.3,1.88.34Z" style="fill: #f4f3e9;"/>
    <path d="M207.06,114.9c1.4,1.52,2.87,1.05,4.15-.31,1.51-1.61,1.89-4.29.89-6.18-1.23-2.32-3.4-2.43-5.55-2.1-3.2.5-6.4.67-9.6.35-3.31-.32-3.91.18-4.24,4.19.04,3.77,1.16,4.65,4.82,3.77.89-.22,1.85-.31,2.63-.73,2.59-1.4,4.82-1.24,6.89,1.01Z" style="fill: #f4f3e9;"/>
    <path d="M195.93,130.69c2.24-1.33,3.86-3.28,4.16-5.99.18-1.55-.24-2.93-2.05-3.32-2.09-.45-4.45.35-4.64,1.87-.31,2.46-1.87,3.72-3.74,4.85-2.42,1.46-3.17,3.78-3.33,6.4.13,1.79.61,3.46,1.79,4.84,1.48,1.74,3.97,1.26,4.69-.91.23-.71.36-1.52.28-2.26-.26-2.49.68-4.2,2.84-5.48Z" style="fill: #f4f3e9;"/>
    <path d="M240.7,215.59c-2.29.52-2.38,2.37-2.23,4.17.28,3.29,5.79,8.47,9.09,8.66.15,0,.31,0,.46,0,3.91-.21,6.98-2.49,10.26-4.24.71-.38.89-1.17-.2-1.66-1.1-.49-2.22-.95-3.05-1.95-.87-1.06-2.08-.95-3.15-.39-.99.52-.8,1.42-.52,2.39.31,1.09-.11,2.11-1.09,2.77-.66.45-1.41.36-1.89-.2-.8-.96-1.84-1.77-2-3.19-.14-1.29-.38-2.59-.79-3.81-.79-2.33-2.37-3.13-4.9-2.56Z" style="fill: #f4f3e9;"/>
    <path d="M256.67,204.04c-1.81-.2-3.37-.02-4.02,1.71-.73,1.95.94,2.61,2.17,3.48,2.61,1.85,5.27,3.65,6.93,6.54.56.97,1.45,1.85,2.82,1.49,3.12-.82,7.87-8.78,7.17-12.02-.06-.3-.18-.58-.31-.86-.63-1.37-1.9-1.55-3.18-1.7-.86-.1-1.57.21-1.85,1.01-.43,1.2.31,2.03,1.11,2.79.11.11.23.21.31.34.82,1.29.8,2.78.04,3.9-1.16,1.73-2.96,1.05-4.61.67-1.44-.34-1.61-1.22-1.54-2.56.14-2.68-2.16-4.69-5.04-4.79Z" style="fill: #f4f3e9;"/>
    <path d="M267.72,174.06c-.96.27-1.48.58-1.48,1.62,0,1.3-.16,2.59-.14,3.89.01,1.02.23,2.08,1.39,2.39,1.07.28,1.92-.34,2.6-1.11.4-.46.84-.94,1.04-1.49.6-1.63,1.12-3.23,3.36-3.14.35.01.81-.45,1.07-.8,1.74-2.41,3.44-4.86,3.77-7.95-.05-.35-.1-.7-.16-1.04-1.37-1.6-4.86-2.53-6.75-1.69-1.98.87-.69,2.69-1.04,4.05-.04.14,0,.3,0,.46,0,3.78.01,3.84-3.64,4.84Z" style="fill: #f4f3e9;"/>
    <path d="M100.47,113.07c.9-1.34,1.66-1.66,2.93-1.19.95.35,1.81.4,1.93-.7.11-.97-.73-1.4-1.71-1.34-.46.02-.92,0-1.38,0-4.95.03-7.09,1.77-8.3,6.73-.09.37-.3.71-.35,1.08-.28,2.45-1.71,4.76-.89,7.34.38,1.19,1.05,2.08,2.44,1.96,1.1-.09,2.17-.38,2.54-1.59.3-.98.1-1.99-.33-2.91-.53-1.13-.52-2.34.09-3.29,1.24-1.92,1.72-4.16,3.02-6.09Z" style="fill: #f4f3e9;"/>
    <path d="M170.98,65.27c-.46.09-.86.1-1.19.26-3.49,1.67-5.91,4.66-8.76,7.11-.38.32-.63,1.03.09,1.3,1.19.45,1.12,1.49,1.38,2.42.34,1.25.82,2.47,1.84,3.34,1.19,1.02,2.36.82,3.41-.26.96-.99,2.05-1.93.75-3.48-.74-.88-1.45-1.74-2.44-2.37-.89-.57-1.14-1.46-.74-2.38.42-.96,1.2-1.5,2.36-1.47,1.22.04,1.17.83,1.28,1.71.14,1.15,1.04,1.65,1.98,1.06,1.3-.82,2.47-2.1,2.39-3.67-.07-1.46-.29-3.28-2.35-3.57Z" style="fill: #f4f3e9;"/>
    <path d="M99.12,130.73c.79.46,1.64.8,2.61.79,3.06-.12,4.39-2.38,5.55-4.7.93-1.85-.37-3.78-2.45-3.54-1.6.18-3.41.49-3.55,2.79-.05.86-.32,1.63-1.54,1.44-.64-.1-1.49-.1-1.59.84-.1.92.06,1.85.96,2.38Z" style="fill: #f4f3e9;"/>
    <path d="M106.41,142.24c-1.45-.1-2.52,1.12-3.96.77-1.61-.39-2.67.53-3.81,1.67,1.51.25,2.87.12,3.95-.46,3.94-2.1,10.61.27,12.58,3.42,1.41,2.25,1.42,3.32-.32,5.25-.54.6-1.78,1.21-.61,2.15.93.75,1.91.47,2.83-.44.74-.72.41-1.93,1.32-2.48-.48-7.95-5.8-9.48-11.98-9.88Z" style="fill: #f4f3e9;"/>
    <path d="M118.47,152.07s-.06.03-.08.05c0,.01,0,.03,0,.04.03-.02.05-.04.08-.06,0,0,0-.02,0-.03,0,0,0,0,0,0Z" style="fill: #f4f3e9;"/>
    <path d="M110.74,216.29c2.37-.6.9-1.55.3-2.44-1.45.09-3.05.09-4.08,1.12-1.07,1.06-2.15,1.73-4.33,1.51,1.56,1.03,2.54,1.73,1.87,3.11.2.2.39.39.59.59,1.64.67,3.21,1.65,5.12.88,2.08-.83,4.07-1.86,6.33-2.33,1.63-.34,1.94-1.73.95-3.19-.57,1.41-1.01,2.78-3.17,2.11-.6-.19-1.76.49-2.61.79-.8.28-1.04.36-1.27-.42-.18-.63-.68-1.47.32-1.72ZM108.4,220.25c-.92,0-2-.26-1.89-1.6.05-.63-.49-1.65,1.36-2.23.7.91,1.63,1.74,2.03,2.77.23.6-.92,1.06-1.49,1.06Z" style="fill: #f4f3e9;"/>
    <path d="M123.63,84.56c1.68-.29,4.03,1.41,4.93-1.55.22-.74,1.12-.63,1.81-.58.85.05,1.88.51,1.86-1.09-.01-1.25.12-2.46-1.58-2.62-.76-.07-1.51-.12-2.03-.15-3.87-.02-5.99,1.57-5.95,4.33.01.68-.1,1.86.96,1.67Z" style="fill: #f4f3e9;"/>
    <path d="M264.4,201.38c1.05.39,2.01-.17,2.62-.98,1.17-1.53,2.5-2.61,4.55-2.63.81,0,1.59-.52,1.53-1.39-.05-.8-.93-.56-1.5-.64q-3.07-.42-2.1-3.38c.15-.45.18-.86-.28-1.21-.47-.36-.79-.28-1.14.15-2.01,2.43-3.21,5.25-4.25,7.92.32.93-.24,1.85.58,2.16Z" style="fill: #f4f3e9;"/>
    <path d="M92.67,215.07c-1.04.17-2.45.21-3.71.67-1.51.54-2.31,1.58-1.45,3.39,1.2,2.52,3,3.58,5.69,2.92,1.42-.35,2.8-.9,4.2-1.35.8-.26,1.39-.68,1.09-1.62-.56-1.73-3.68-3.97-5.81-4.01ZM96.54,219.46c-.84.88-2.31,1.11-3.42-.09-.82.97-.93,3.49-3.15,1.38-.52-.5-.38-.87-.13-1.37.32-.62.62-.37,1.04-.08.7.49,1.06-.04,1.37-.58h0c-.8.02-1.07-.21-.42-.88-.12-.55-.79-1.25-.15-1.61.77-.44,1.79-.4,2.63,0,.44.21.86.68,1.07,1.13.36.77,1.91,1.32,1.17,2.1Z" style="fill: #f4f3e9;"/>
    <path d="M277.77,190.04c.15,1.3,1.21.72,1.8.66,1.94-.18,2.96.84,3.69,2.42.59,1.29,1.76.98,2.79.9.98-.08,1.45-.78,1.52-1.72.08-1.13-.57-1.63-1.61-1.83-1.05-.2-1.69-1-2.31-1.78-.77-.97-1.76-1.43-3.37-1.35-.15.03-.71.07-1.19.27-1.06.44-1.44,1.33-1.31,2.41Z" style="fill: #f4f3e9;"/>
    <path d="M248.51,131.53c1.21-.03,2.15.03,3-.39.4-.2,1.2.23,1.16-.68-.03-.61-.11-1.52-.72-1.55-1.77-.09-1.45-1.34-1.58-2.39-.19-1.5-1.39-2.17-2.75-1.38-1.72,1-2.15,2.72-1.89,4.57.25,1.81,1.59,2.01,2.79,1.82Z" style="fill: #f4f3e9;"/>
    <path d="M206.87,84c.78.92,1.53,1.89,2.38,2.74.41.41.99.68,1.66.34.64-.32.82-.84.76-1.86-.05-.16-.2-.67-.39-1.15-1-2.51-3.73-3.13-5.43-4.89-.34-.35-1.57-.49-1.93.45-.31.8-.2,1.74.65,2.21.97.54,1.62,1.35,2.3,2.16Z" style="fill: #f4f3e9;"/>
    <path d="M239.23,253.82c-.03-.51-.34-.57-.76-.61-.99-.09-1.64.29-1.77,1.28-.19,1.4-1.34,1.64-2.33,1.8-4.22.7-8.48,1.54-12.4-1.18-.42-.29-1.03-1.08-1.53-.29-.55.89.7,1.24.99,1.34,2.7.94,5.32,2.3,8.5,2.08,2.88.21,5.64-.71,8.31-2.15,1.05-.56,1.06-1.34,1-2.28Z" style="fill: #f4f3e9;"/>
    <path d="M192.21,58.32c.91-.35.92-1.37.58-2.18-.38-.91-1.19-.84-1.93-.48-1.9.91-3,2.47-3.57,4.45,0,1.88,1.38,2.61,2.71,3.33.59.32,1.38.41,1.84-.3.36-.55.14-1.05-.25-1.63-.77-1.15-1.43-2.39.61-3.18Z" style="fill: #f4f3e9;"/>
    <path d="M102.05,153.03c4.52.66,9.55.42,10.77,6.47.45-.02.9-.03,1.35-.05.51-.72.72-1.45.35-2.33-1.66-4.04-9.34-6.06-12.47-4.1Z" style="fill: #f4f3e9;"/>
    <path d="M172.57,91.12c-.28-.61-.7-1.17-1.13-1.7-1.11-1.35-2.13-2.61-2.26-4.57-.15-2.11-1.74-3.02-4.02-2.98.17,1.29.67,2.3,1.3,3.23,1.54,2.27,3.15,4.48,4.68,6.75.28.42.29,1.17,1.01.86.68-.29.67-1.03.42-1.6Z" style="fill: #f4f3e9;"/>
    <path d="M103.58,200.49c.02-1.23-.3-2.85-2.96-2.32-.72.43-2.96-.47-3.18,2.06-.21,2.35,1.52,2.34,3.06,2.45,1.59.11,3.05-.42,3.08-2.19Z" style="fill: #f4f3e9;"/>
    <path d="M124.32,155.63c1.78-.27,2.59,1.13,3.7,2.04.38-2.12-1.18-3.62-3.25-3.06-1.03.28-2.01.85-3.04.94-1.34.11-2.6-.19-1.71-2.1.38-.81.36-1.63-.35-2.32-.4.32-.81.64-1.21.97-.21,1.07-.14,2.14.02,3.21,1.03.28,1.91.9,3.08.95,1.37.06,1.21,1.24,1,2.25,1.13.19,1.6-.13,1-1.28-.54-1.05-.32-1.43.76-1.59Z" style="fill: #f4f3e9;"/>
    <path d="M223.78,223.76c.44-.18.72-1.3,1.32-.5,1.51,2,3.16.84,5.21.54-.9-.78-1.45-1.1-1.8-1.57-1.27-1.7-2.66-1.75-4.27-.51-.35.27-.77.55-1.19.63-.86.16-1.26.81-.99,1.41.41.91,1.1.24,1.71,0Z" style="fill: #f4f3e9;"/>
    <path d="M225.83,105.8c1-.1,2.24.02,2.53-.86.32-.97-.82-1.48-1.6-1.91-.6-.32-1.23-.6-1.88-.81-1.02-.33-1.88-.02-2.17,1.05-.27,1,.11,1.82,1.2,2.12.66.18,1.34.28,1.93.4Z" style="fill: #f4f3e9;"/>
    <path d="M82.64,215.86c-1.44.23-3.24-.25-3.32,2.27-.06,2.09,1.52,2.03,2.7,2.07,1.51.04,3.12-.37,3.22-2.36.09-1.77-1.04-2.14-2.6-1.97ZM84.19,217.85c.03,1.02-.47,1.56-1.28,1.38-1.24-.11-2.57.04-2.51-1.28.07-1.51,1.65-.92,2.56-1.24.97-.33,1.21.42,1.23,1.14Z" style="fill: #f4f3e9;"/>
    <path d="M184.27,196.24c2.33.34,3.39-1.49,4.76-2.79.24-1.13,1.99-.43,2.11-1.74-3.21-.18-5.14,1.1-6.87,4.53Z" style="fill: #f4f3e9;"/>
    <path d="M251.7,213.97c2.63.36,2.84.21,2.55-2.79-2.46,1.52-5.27,1.61-7.92,2.34,1.8.22,3.61.21,5.37.45Z" style="fill: #f4f3e9;"/>
    <path d="M105.93,199.95c1.26.24,1.66-.67,1.75-1.7.1-1.17-.72-1.54-1.74-1.57-1.3-.04-2.03.64-1.99,1.88.03,1.1.86,1.46,1.98,1.38Z" style="fill: #f4f3e9;"/>
    <path d="M90.69,199.85c-1.06-.07-1.61.42-1.62,1.42-.01,1.1.64,1.64,1.43,1.67,1.23-.04,2-.38,1.98-1.43-.02-1.07-.7-1.58-1.79-1.65Z" style="fill: #f4f3e9;"/>
    <path d="M248.78,200.26c.99.17,2.32-.31,2.13-.98-.34-1.21-1.63-1.94-3.02-1.99-.45-.02-1.19-.18-1,.93.2,1.23.25,2.3,1.89,2.04Z" style="fill: #f4f3e9;"/>
    <path d="M221.35,234.58c.42.6.78,1.32,1.73,1.6-.3-1.67,1.26-2.84,1.14-4.79-1.08.65-.9,2.24-2.48,1.75-.56-.17-.76.9-.39,1.43Z" style="fill: #f4f3e9;"/>
    <path d="M254.48,147.93c-.88,2.08-.71,3.51,1.18,4.81.14-1.85-.27-3.21-1.18-4.81Z" style="fill: #f4f3e9;"/>
    <path d="M54.57,167.44c4.26-.05,8.52-.13,12.78-.19,0-.16.02-.32.03-.48h-13.64c.27.52.55.68.83.68Z" style="fill: #f4f3e9;"/>
    <path d="M170.28,189.92c-.13.71-.27,1.42-.4,2.13.17.55-.04,1.54,1.07,1.08.75-.31,1.3-.88.74-1.73-.37-.56-.43-1.48-1.42-1.48Z" style="fill: #f4f3e9;"/>
    <path d="M212.01,218.68c-1.44,2.03-.95,3.4,0,4.77v-4.77Z" style="fill: #f4f3e9;"/>
    <path d="M195.15,244.59c.04.28.07.56.11.85.93.77,1.97.39,3.04.4-.52-2.05-1.94-1.36-3.15-1.24Z" style="fill: #f4f3e9;"/>
    <path d="M284.16,207.7c.64-.88,2.16-.44,2.66-1.72-1.58-.49-2.37.97-3.57,1.24.21.33.5.53.91.48Z" style="fill: #f4f3e9;"/>
    <path d="M264.33,183.03c-.68.41-1.79.68-1.02,2.05.5-.82,1.9-.48,1.9-1.71,0-.5-.6-.5-.88-.33Z" style="fill: #f4f3e9;"/>
    <path d="M347.26,165.02c-1.07.09-.67.84-.57,1.37.58,2.93-.5,5.41-2.14,7.7-1.15,1.61-2.6,3.02-3.68,4.67-.98,1.5-2.51,2.81-2.38,5.13,3.57-3.89,7.19-7.39,9.41-12.04.92-1.93.57-3.89.61-5.85.01-.74-.51-1.04-1.24-.98Z" style="fill: #f4f3e9;"/>
    <path d="M333.23,168.34c-.42.41-1.14.79-.54,1.45.5.55.99-.1,1.37-.37,3.61-2.51,5.98-5.76,6.09-10.73.13-.99,0-2.36-.41-3.68-.22-.72-.86-1.13-1.61-.82-.96.39-.65,1.01-.13,1.61.71.82.65,1.81.59,2.82-.23,4.1-2.57,7.04-5.36,9.72Z" style="fill: #f4f3e9;"/>
    <path d="M123.45,149.49c-.35-.08-.49.35-.49.64-.02,1.46,1.25,1.62,2.24,2.05-.59-.95-.4-2.4-1.75-2.69Z" style="fill: #f4f3e9;"/>
    <path d="M259.92,96.54c4.11,1.32,8.27,2.12,12.48.45,1.18-.47,2.23-1.39,2.11-2.72-.13-1.53.69-2.11,1.77-2.76,1.49-.91,3.1-1.81,3.35-3.79.07-.56.46-1.42-.56-1.68-1.01-.26-1.07.51-1.28,1.17-.56,1.84-1.89,2.91-3.68,3.43-2.28.65-4.59,1.11-6.99.82-1.3-.16-1.31-.1-2.81.72,2.52.62,4.77,1.21,7.17,1.04.63-.04,1.62-.94,1.88.3.19.91-.64,1.42-1.46,1.8-2.11.97-4.28.94-6.5.61-2.09-.3-4.18-.53-6.49-.82.19.62.19.8.28.89.22.21.46.45.73.54Z" style="fill: #f4f3e9;"/>
    <path d="M277.06,85.09c2.62-.4,4.97-2.45,5.22-4.44.1-.78-.04-1.41-.86-1.61-1.04-.26-.84.56-.88,1.13-.11,1.51-1.02,2.22-2.4,2.65-1.69.53-3.38.89-5.15.91-1.64.02-3.25.21-4.78.95,2.95.81,5.9.87,8.85.42Z" style="fill: #f4f3e9;"/>
    <path d="M274.2,74.72c-.01.37-.03.73-.04,1.1,2.26.21,4.49-.15,6.72-.44,2.86-.37,4.73-2.22,6.31-4.42.44-.6.41-1.27-.4-1.7-.89-.48-1.17.18-1.24.75-.24,1.76-1.55,2.3-2.93,2.82-2.72,1.03-5.57,1.44-8.42,1.89Z" style="fill: #f4f3e9;"/>
    <path d="M282.52,68.6c1.78-1.36,1.9-2.2,1.21-4.42-2.84,5.51-7.99,5.51-13.49,5.75,5.33,2.77,9.32.94,12.29-1.33Z" style="fill: #f4f3e9;"/>
    <path d="M267.1,103.95c1.85-.5,2.68-1.85,3.15-3.54.14-.5-.1-.9-.59-1.08-.31-.12-.49.05-.69.35-1.97,2.99-2.96,3.35-6.23,2.58-1.54-.36-3.11-.56-5.28-.94,3.12,2.84,6.16,3.57,9.65,2.62Z" style="fill: #f4f3e9;"/>
    <path d="M168.93,214.15s-.03,0-.04,0c0,.01,0,.02,0,.03l.03-.03Z" style="fill: #f4f3e9;"/>
    <path d="M167.74,212.16c-.13-.02-.42.24-.46.41-.16.68.2,1.16.77,1.45.24.12.56.1.84.13-.06-.28-.08-.58-.21-.83-.23-.45-.32-1.06-.94-1.16Z" style="fill: #f4f3e9;"/>
    <path d="M169.09,214.37s-.1-.1-.15-.15c0,.04.01.07.03.1.02.03.08.03.12.05Z" style="fill: #f4f3e9;"/>
    <path d="M168.93,214.15s-.03.03-.03.03c.01.01.03.03.04.04,0-.02,0-.05-.01-.07Z" style="fill: #f4f3e9;"/>
  </g>
</svg>