<?xml version="1.0" encoding="UTF-8"?>
<svg id="Camada_1" data-name="Camada 1" xmlns="http://www.w3.org/2000/svg" viewBox="0 0 1647.85 277.74">
  <path d="M118.07,4.1H0v4.56s7.5.46,22.51,10.03c15.01,9.58,12.01,50.17,12.01,100.33s3,117.21-4,132.26c-8.75,18.8-30.52,16.87-30.52,16.87v5.47h130.58c46.53,0,138.58-46.06,138.58-139.55S159.6,4.1,118.07,4.1ZM134.58,262.77c-49.53,10.03-65.98,7.85-68.54-15.51-.5-4.56,0-16.87,0-27.36V45.68c0-30.56,5-41.5,56.03-34.2,51.03,7.3,115.57,50.29,115.57,124.5s-53.53,116.75-103.06,126.78Z"/>
  <path d="M1613.53,234.47c-9.11-23.94-87.21-230.2-87.21-230.2h-61.99l.35,4.1s9.52.52,13.31,3.68c4.38,3.65,11.65,11.37,8.06,23.69-4.68,16.04-72.5,199.75-81.96,216.86-9.46,17.1-29.42,14.37-29.42,14.37v6.5h69v-5.13s-3.22-.81-7.58-2.27c-.09-.04-7.29-2.75-10.46-8.5-3.19-5.79-.53-15.39,5.43-20.35,5.95-4.96,56.92-56.27,71.98-69.95,15.06-13.68,20.84-21.21,29.42-21.89,8.58-.68,12.15,7.67,12.15,7.67h0c6.16,16.03,11.34,29.55,14.3,37.31,12.26,32.15,22.77,49.94,16.11,62.94-6.65,13-23.47,14.37-23.47,14.37v5.81h96.32v-6.5c-16.11,0-25.22-8.55-34.33-32.49ZM1524.21,137.84c-5.6,7.01-84.24,82.95-89.49,86.37-5.25,3.42-12.67-1.72-9.63-9.9.09-.24.18-.47.27-.71l1.39-3.71c23.77-63.49,69.44-182.7,69.44-182.7,0,0,17.82,46.29,34.86,90.6h0c.88,6.46-1.23,13.04-6.83,20.05Z"/>
  <path d="M474.61,0c-79.31,0-143.6,62.17-143.6,138.87s64.29,138.87,143.6,138.87,143.6-62.17,143.6-138.87S553.92,0,474.61,0ZM475.31,271.81c-81.73,0-108.81-71.15-108.81-133.63,0-67.04,33.16-131.8,110.68-131.8s106.94,80.72,106.94,131.8-27.09,133.63-108.81,133.63Z"/>
  <path d="M1292.28,18.64c8.41-9.92,22.77-8.21,22.77-8.21v-6.16h-92.47v5.47s12,1.11,20.4,6.58c8.41,5.47,11.47,17.7,11.47,33.78v63.85c0,11.97-10.74,21.21-17.86,22.32-7.12,1.12-43.43.71-63.05.71s-58.73.11-67.25-1.37c-8.52-1.48-13.66-14.02-13.66-20.86v-55.07c0-24.97,0-31.13,8.41-41.05,8.41-9.92,22.77-8.21,22.77-8.21v-6.16h-92.47v5.47s12,1.11,20.4,6.58c8.41,5.47,11.47,17.7,11.47,33.78v158.02c0,31.47.35,41.05-6.3,49.94-6.65,8.89-25.57,11.29-25.57,11.29v4.1h92.47v-4.45s-13.4-1.37-21.8-7.87c-8.41-6.5-9.37-18.13-9.37-39.33v-57.46c0-10.72,11.09-22.46,21.37-22.46s106.71-.8,121.42,0c14.71.8,19.03,18.13,19.03,18.13v48.11c0,31.47.35,41.05-6.3,49.94-6.65,8.89-25.57,11.29-25.57,11.29v4.1h92.47v-4.45s-13.4-1.37-21.8-7.87c-8.41-6.5-9.37-18.13-9.37-39.33V59.69c0-24.97,0-31.13,8.41-41.05Z"/>
  <path d="M962.43,2.16v5.73s-18.57,1.11-26.28,11.14c-7.72,10.03-7.23,13.45-7.23,30.33v107.63c0,27.14-7.47,67.95-34.48,89.16-27,21.21-49.43,29.64-77.64,29.42-28.21-.23-67.25-6.98-92.59-49.03-12.78-21.21-12.78-30.78-12.78-63.39V39.79c0-18.47-16.15-33.75-32.79-32.61V2.16h70.65v4.79s-15.19.23-22.91,7.98c-7.72,7.75-8.44,13.68-8.44,23.26v131.57c0,23.72,18.32,77.76,83.91,77.76s84.4-33.58,92.35-54.73c3.86-10.26,3.62-33.52,3.62-51.99s0-88.02,0-104.21-8.92-26.91-31.1-29.42V2.16h95.72Z"/>
</svg>