<?xml version="1.0" encoding="UTF-8"?>
<svg id="Camada_1" data-name="Camada 1" xmlns="http://www.w3.org/2000/svg" viewBox="0 0 1577.22 265.83">
  <path d="M113.01,3.93H0v4.37s7.18.44,21.55,9.6c14.37,9.17,11.49,48.02,11.49,96.03s2.87,112.18-3.83,126.59c-8.37,17.99-29.21,16.15-29.21,16.15v5.24h124.98c44.53,0,132.64-44.09,132.64-133.57S152.76,3.93,113.01,3.93ZM128.81,251.5c-47.41,9.6-63.15,7.52-65.6-14.84-.48-4.37,0-16.15,0-26.19V43.73c0-29.25,4.79-39.72,53.63-32.74,48.84,6.98,110.62,48.13,110.62,119.17s-51.24,111.75-98.64,121.35Z" style="fill: #e1bb2a;"/>
  <path d="M1544.37,224.42c-8.72-22.92-83.47-220.33-83.47-220.33h-59.34l.34,3.93s9.12.5,12.74,3.52c4.19,3.5,11.15,10.89,7.71,22.67-4.48,15.35-69.39,191.19-78.45,207.56-9.05,16.37-28.16,13.75-28.16,13.75v6.22h66.04v-4.91s-3.08-.78-7.26-2.17c-.09-.03-6.97-2.63-10.01-8.14-3.05-5.54-.5-14.73,5.2-19.48,5.7-4.75,54.48-53.85,68.89-66.95,14.42-13.1,19.95-20.3,28.16-20.95,8.21-.65,11.63,7.34,11.63,7.34h0c5.89,15.35,10.85,28.28,13.68,35.71,11.73,30.77,21.79,47.8,15.42,60.24-6.37,12.44-22.46,13.75-22.46,13.75v5.57h92.19v-6.22c-15.42,0-24.14-8.18-32.85-31.1ZM1458.88,131.94c-5.36,6.71-80.63,79.39-85.65,82.66-5.03,3.27-12.13-1.64-9.21-9.47.09-.23.17-.45.26-.68l1.33-3.55c22.75-60.77,66.47-174.87,66.47-174.87,0,0,17.06,44.31,33.36,86.71h0c.84,6.18-1.18,12.48-6.54,19.19Z" style="fill: #e1bb2a;"/>
  <path d="M454.27,0c-75.91,0-137.45,59.51-137.45,132.92s61.54,132.92,137.45,132.92,137.45-59.51,137.45-132.92S530.18,0,454.27,0ZM454.94,260.16c-78.22,0-104.15-68.1-104.15-127.9,0-64.17,31.74-126.15,105.94-126.15s102.36,77.26,102.36,126.15-25.93,127.9-104.15,127.9Z" style="fill: #e1bb2a;"/>
  <path d="M1236.89,17.84c8.05-9.49,21.79-7.86,21.79-7.86v-5.89h-88.5v5.24s11.48,1.06,19.53,6.3c8.05,5.24,10.98,16.94,10.98,32.33v61.11c0,11.46-10.28,20.3-17.1,21.36-6.82,1.07-41.57.68-60.34.68s-56.21.11-64.37-1.31c-8.16-1.42-13.07-13.42-13.07-19.97v-52.71c0-23.9,0-29.79,8.05-39.29,8.05-9.49,21.79-7.86,21.79-7.86v-5.89h-88.5v5.24s11.48,1.06,19.53,6.3c8.05,5.24,10.98,16.94,10.98,32.33v151.25c0,30.12.34,39.29-6.03,47.8-6.37,8.51-24.47,10.8-24.47,10.8v3.93h88.5v-4.26s-12.82-1.31-20.87-7.53c-8.05-6.22-8.97-17.35-8.97-37.65v-55c0-10.26,10.62-21.5,20.45-21.5s102.14-.76,116.22,0c14.08.76,18.21,17.35,18.21,17.35v46.05c0,30.12.34,39.29-6.03,47.8-6.37,8.51-24.47,10.8-24.47,10.8v3.93h88.5v-4.26s-12.82-1.31-20.87-7.53c-8.05-6.22-8.97-17.35-8.97-37.65V57.13c0-23.9,0-29.79,8.05-39.29Z" style="fill: #e1bb2a;"/>
  <path d="M921.17,2.07v5.48s-17.77,1.06-25.15,10.67c-7.38,9.6-6.92,12.88-6.92,29.03v103.02c0,25.97-7.15,65.04-33,85.34-25.85,20.3-47.31,28.37-74.31,28.15-27-.22-64.37-6.68-88.62-46.92-12.23-20.3-12.23-29.46-12.23-60.67V38.08c0-17.68-15.46-32.3-31.39-31.21V2.07h67.62v4.58s-14.54.22-21.92,7.64c-7.38,7.42-8.08,13.1-8.08,22.26v125.93c0,22.7,17.54,74.43,80.31,74.43s80.78-32.14,88.39-52.38c3.69-9.82,3.46-32.08,3.46-49.76s0-84.25,0-99.74-8.54-25.75-29.77-28.15V2.07h91.62Z" style="fill: #e1bb2a;"/>
</svg>