<svg xmlns="http://www.w3.org/2000/svg" width="360" height="280" viewBox="0 0 360 280">
  <rect width="360" height="280" fill="none"/>
  <g fill="#2d2916" opacity="0.92">
    <path d="M22 28c9-9 23-9 31-2 6 5 7 15 1 22-6 8-19 10-28 4-8-5-10-16-4-24zm8 3c-4 4-3 11 2 14 5 4 12 3 16-2 4-5 4-11-1-14-5-4-12-3-17 2z"/>
    <path d="M118 18c8-7 21-8 29-2 8 6 8 16 2 24-7 9-21 11-30 4-8-6-9-17-1-26zm8 3c-4 4-3 10 2 14 5 4 12 3 16-2 4-4 4-10-1-13-5-4-12-3-17 1z"/>
    <path d="M224 30c9-8 24-8 32-1 7 6 7 16 1 24-7 9-21 11-30 4-8-6-10-17-3-27zm8 3c-4 4-3 10 2 14 5 4 13 3 17-2 4-5 3-11-2-14-5-4-12-3-17 2z"/>
    <path d="M302 84c7-6 18-7 25-1 6 5 6 13 1 20-6 8-17 10-24 4-7-5-8-14-2-23zm6 2c-3 3-2 8 2 11 4 3 10 2 13-2 3-4 3-9-1-12-4-3-10-2-14 3z"/>
    <path d="M42 120c9-8 24-8 32-1 7 6 7 16 1 24-7 9-21 11-30 4-8-6-10-17-3-27zm8 3c-4 4-3 10 2 14 5 4 13 3 17-2 4-5 3-11-2-14-5-4-12-3-17 2z"/>
    <path d="M148 112c9-8 24-8 32-1 7 6 7 16 1 24-7 9-21 11-30 4-8-6-10-17-3-27zm8 3c-4 4-3 10 2 14 5 4 13 3 17-2 4-5 3-11-2-14-5-4-12-3-17 2z"/>
    <path d="M256 126c9-8 24-8 32-1 7 6 7 16 1 24-7 9-21 11-30 4-8-6-10-17-3-27zm8 3c-4 4-3 10 2 14 5 4 13 3 17-2 4-5 3-11-2-14-5-4-12-3-17 2z"/>
    <path d="M12 198c7-7 19-7 26-1 6 5 6 13 1 20-6 7-17 9-24 4-7-5-8-14-3-23zm6 2c-3 3-2 8 2 11 4 3 9 2 12-2 3-4 3-9-1-11-4-3-9-2-13 2z"/>
    <path d="M102 196c9-8 24-8 32-1 7 6 7 16 1 24-7 9-21 11-30 4-8-6-10-17-3-27zm8 3c-4 4-3 10 2 14 5 4 13 3 17-2 4-5 3-11-2-14-5-4-12-3-17 2z"/>
    <path d="M214 194c9-8 24-8 32-1 7 6 7 16 1 24-7 9-21 11-30 4-8-6-10-17-3-27zm8 3c-4 4-3 10 2 14 5 4 13 3 17-2 4-5 3-11-2-14-5-4-12-3-17 2z"/>
    <path d="M296 204c7-7 19-7 26-1 6 5 6 13 1 20-6 7-17 9-24 4-7-5-8-14-3-23zm6 2c-3 3-2 8 2 11 4 3 9 2 12-2 3-4 3-9-1-11-4-3-9-2-13 2z"/>
    <ellipse cx="79" cy="56" rx="4.2" ry="3.6"/>
    <ellipse cx="190" cy="48" rx="3.8" ry="3.2"/>
    <ellipse cx="278" cy="67" rx="4.1" ry="3.5"/>
    <ellipse cx="116" cy="148" rx="4.2" ry="3.5"/>
    <ellipse cx="210" cy="142" rx="3.7" ry="3.2"/>
    <ellipse cx="320" cy="154" rx="4.1" ry="3.4"/>
    <ellipse cx="157" cy="231" rx="4.2" ry="3.5"/>
    <ellipse cx="267" cy="228" rx="4" ry="3.4"/>
    <ellipse cx="52" cy="237" rx="3.8" ry="3.2"/>
  </g>
</svg>
